M48
;Layer_Color=9474304
;FILE_FORMAT=2:5
INCH,LZ
;TYPE=PLATED
T1F00S00C0.01300
T2F00S00C0.02500
T3F00S00C0.03543
T4F00S00C0.04000
T5F00S00C0.04200
T6F00S00C0.04724
T7F00S00C0.06693
T8F00S00C0.08661
T9F00S00C0.10000
T10F00S00C0.12520
;TYPE=NON_PLATED
T11F00S00C0.06800
%
T01
X00061Y00042
X00452Y00054
X0041956Y00301
X0027656Y00336
X0043156Y00468
X0058556
X0079056Y00474
X0064356Y00274
X00715Y0081
X00515
X00253Y00993
X00046Y0063259
X00915Y0081
X01015Y0101
X01215
X01415
X01615
X0175156Y01007
X0172656Y00907
X01839Y00915
X01836Y00742
X01838Y00632
Y00536
X01615Y0061
X01415
X01315Y0041
X0121456Y00475
X0100156Y00481
X0087856Y00289
X01315Y0081
X01515
X02238Y00915
X0258856Y00806
X0256856Y00714
X02715Y0081
X02815Y0061
X0295256Y00742
X03115Y0081
X03215Y0061
X03415
X03515Y0041
X03415Y0021
X0313656Y00294
X03115Y0041
X0300356Y00366
X02615Y0021
X0264956Y00128
X02815Y0101
X03215
X03415
X03515Y0081
Y0121
Y0161
X03415Y0181
X03215
X0327056Y01918
X03115Y0161
X02915
X0279256Y01673
X0279356Y01825
X02615Y0181
X02415
X02515Y0161
X0271856Y01588
X02815Y0141
X03015
X03215
X02915Y0121
X02715
X0253956Y01205
X0253556Y01108
X02415Y0141
X0224456Y01405
X02109Y01347
X01985Y01344
X0203156Y01228
X02139Y01134
X02338Y01234
X0183356Y01417
X01477Y01349
X01353Y01347
X01315Y0121
X01115
X00915
X01015Y0141
X01215
X01115Y0161
X00915
X01015Y0181
X01215
X01415
X01315Y0161
X01515Y0121
X00715
X00467Y01238
X00354Y01364
X00215Y0141
X00315Y0161
X00215Y0181
X00415
X00615
X00815
T02
X004568Y0060233
X005568
X006568
X007568
Y0100233
X006568
X005568
X004568
X009568
X011568
Y0060233
X010568
X009568
X008568
T03
X0144284Y01535
Y0162398
X0153182
X0163418
X0172316
Y01535
X0210184
Y0162398
X0219082
X0229318
X0238216
Y01535
T04
X0168756Y00368
Y00468
Y00568
Y00668
Y00768
Y00868
Y00968
X0179156Y00371
X0189156
X0199156
X0209156
X0219156
X0229156
X0239156
X0249156
X0168756Y01068
Y01168
Y01268
T05
X001Y001
X002
X003
X004
X005
X006
X007
X008
Y002
X007
X006
X005
X004
X003
X002
X001
X01
Y001
X011
X012
X013
X014
X015
Y002
X014
X013
X012
X011
X019
Y001
X02
X021
X022
X023
X024
Y002
X023
X022
X021
X02
X0198756Y00468
Y00568
Y00668
Y00768
Y00868
Y00968
X0208756
X0218756
X0228756
X0238756
Y00868
X0228756
X0218756
X0208756
Y00768
X0218756
X0228756
X0238756
Y00668
X0228756
X0218756
X0208756
Y00568
X0218756
X0228756
X0238756
Y00468
X0228756
X0218756
X0208756
X0188756
Y00568
Y00668
Y00768
Y00868
Y00968
X0178756
Y00868
Y00768
Y00668
Y00568
Y00468
X0248756
Y00568
Y00668
Y00768
Y00868
Y00968
X028Y002
Y001
X029
X03
X031
X032
X033
Y002
X032
X031
X03
X029
X0248756Y01068
Y01168
Y01268
X0238756
X0228756
X0218756
X0208756
X0198756
X0188756
X0178756
Y01168
X0188756
X0198756
X0208756
X0218756
X0228756
X0238756
Y01068
X0228756
X0218756
X0208756
X0198756
X0188756
X0178756
T06
X0045Y014
X0054016
X0063032
X0072047
X0081063
X0076417Y015
X0067441
X0058465
X0049488
X0040512
X0045Y016
X0054016
X0063032
X0072047
X0081063
T07
X02817Y00497
X0297448
Y0065448
X0313196
X0328944
Y00497
X0313196
Y01154
Y0131148
X0297448
Y01154
X02817
X0328944
Y0131148
T08
X0250775Y0175154
X02242Y0178303
X0197625Y0175154
X0184875
X01583Y0178303
X0131725Y0175154
T09
X0269102Y0033952
Y0099652
X0341543Y0081196
Y0146896
T10
X0111181Y015
X0012795
T11
X0301661Y01777
X0329221
M30
