M48
;Layer_Color=9474304
;FILE_FORMAT=2:5
INCH,LZ
;TYPE=PLATED
T1F00S00C0.01300
T2F00S00C0.01500
T3F00S00C0.02500
T4F00S00C0.04000
T5F00S00C0.04200
T6F00S00C0.04331
T7F00S00C0.12000
T8F00S00C0.12500
%
T01
X-0004331Y-0060697
X0011783Y-00499
X0023413Y-003635
X0038959Y-004235
X005552Y-0037004
X0064734Y-0033886
X0069362Y-004342
X0058881Y-00483
X0065187Y-0064099
X0084352Y-00511
Y-0039318
X009507Y-0046901
X0105112Y-00381
X0115369Y-0039
X01516Y-006
X0144759Y-0016257
X0143569Y00051
X0153302Y-0000479
X0119557Y00003
X0111269Y0002445
X0115212Y0011019
X0104837Y001233
X0107199Y-0010386
X0109569Y-0024551
X0097149Y0014323
X0063158Y00144
X0043027Y001233
X0042069Y00028
X0041383Y-0007791
X0062908Y-0007928
X005552Y-002428
X0011083Y-0016611
T02
X0082669Y-0062556
X01138Y-00603
X0124869Y-001552
X0136569Y-00165
X0135987Y-000334
X0137669Y00007
X0142355
X0125469
X0103654Y0003479
X0100269Y00017
X0104769Y-00032
X0119769Y00207
X0131669Y00194
X0155139Y-0016569
X0092269Y-00144
X0087669Y-00129
X0083769Y-001066
X0086869Y-0005244
X0085102Y-0002512
X0075869Y-00026
X0071546Y-0004607
X0068969Y-00028
X0065869Y-0003828
X0060069Y-00029
X0055231Y-00049
X0055369Y0006309
X0050469Y00096
X0069469Y0005629
X0082669Y00072
X0079669Y00104
X0084269Y00132
X0088969Y00116
X0094969Y00109
X0097169Y0008
X0092469Y00072
X0096469Y-00032
X0071669Y-00108
X0008169Y-00118
X0008469Y-00229
X0008569Y-00293
X0010369Y00075
X0006769Y00155
X-00096Y0015465
X00197Y0021
X0026469Y0018577
T03
X0150682Y-00451
Y-00351
X0Y0
X-0010125
T04
X0107369Y-0029
X0117369
Y-0019
X0107369
X0097369
Y-0029
X0087369
Y-0019
X0077369
Y-0029
X0067369
Y-0019
X0057369
Y-0029
X0047369
Y-0019
X0037369
X0027369
Y-0029
X0037369
T05
X0004169Y-0065
Y-0055
X0014169
X0024169
X0034169
X0044169
X0054169
Y-0065
X0044169
X0034169
X0024169
X0014169
X0094169
Y-0055
X0104169
X0114169
X0124169
X0134169
X0144169
Y-0065
X0134169
X0124169
X0114169
X0104169
T06
X0134864Y00136
X0146675
X-0004331Y-0014795
Y-0026605
T07
X0132369Y-0039
T08
X0026769Y000225
M30
