%FSLAX25Y25*%
%MOIN*%
G70*
G01*
G75*
G04 Layer_Physical_Order=1*
G04 Layer_Color=255*
%ADD10R,0.03347X0.03150*%
%ADD11R,0.03150X0.03347*%
%ADD12R,0.03937X0.03150*%
%ADD13R,0.03937X0.05906*%
%ADD14R,0.03150X0.03937*%
%ADD15R,0.05906X0.03937*%
%ADD16R,0.04528X0.02362*%
G04:AMPARAMS|DCode=17|XSize=11.81mil|YSize=47.24mil|CornerRadius=2.95mil|HoleSize=0mil|Usage=FLASHONLY|Rotation=180.000|XOffset=0mil|YOffset=0mil|HoleType=Round|Shape=RoundedRectangle|*
%AMROUNDEDRECTD17*
21,1,0.01181,0.04134,0,0,180.0*
21,1,0.00591,0.04724,0,0,180.0*
1,1,0.00591,-0.00295,0.02067*
1,1,0.00591,0.00295,0.02067*
1,1,0.00591,0.00295,-0.02067*
1,1,0.00591,-0.00295,-0.02067*
%
%ADD17ROUNDEDRECTD17*%
G04:AMPARAMS|DCode=18|XSize=94.49mil|YSize=94.49mil|CornerRadius=23.62mil|HoleSize=0mil|Usage=FLASHONLY|Rotation=180.000|XOffset=0mil|YOffset=0mil|HoleType=Round|Shape=RoundedRectangle|*
%AMROUNDEDRECTD18*
21,1,0.09449,0.04724,0,0,180.0*
21,1,0.04724,0.09449,0,0,180.0*
1,1,0.04724,-0.02362,0.02362*
1,1,0.04724,0.02362,0.02362*
1,1,0.04724,0.02362,-0.02362*
1,1,0.04724,-0.02362,-0.02362*
%
%ADD18ROUNDEDRECTD18*%
%ADD19R,0.03543X0.04921*%
%ADD20C,0.00600*%
%ADD21C,0.01000*%
%ADD22C,0.01400*%
%ADD23C,0.05500*%
%ADD24R,0.05500X0.05500*%
%ADD25R,0.05700X0.05700*%
%ADD26C,0.05700*%
%ADD27C,0.05512*%
%ADD28C,0.05906*%
%ADD29C,0.21000*%
%ADD30C,0.04000*%
%ADD31C,0.02500*%
%ADD32C,0.02700*%
G36*
X156774Y20106D02*
X152571D01*
Y15756D01*
X156774D01*
Y11444D01*
X152571D01*
Y9082D01*
X152149D01*
Y9082D01*
X147012D01*
X147012Y9082D01*
Y9082D01*
X146594Y8909D01*
X145856Y9647D01*
X146077Y10095D01*
X146675Y10017D01*
X147602Y10139D01*
X148467Y10497D01*
X149209Y11066D01*
X149778Y11808D01*
X150136Y12673D01*
X150258Y13600D01*
X150136Y14527D01*
X149778Y15392D01*
X149209Y16134D01*
X148467Y16703D01*
X147602Y17061D01*
X146675Y17183D01*
X145747Y17061D01*
X144883Y16703D01*
X144141Y16134D01*
X143571Y15392D01*
X143213Y14527D01*
X143091Y13600D01*
X143170Y13002D01*
X142722Y12781D01*
X137254Y18249D01*
X136890Y18492D01*
X136461Y18577D01*
X136461Y18577D01*
X134078D01*
X133506Y19150D01*
X133555Y19400D01*
X133412Y20122D01*
X133003Y20734D01*
X132391Y21143D01*
X131669Y21286D01*
X130947Y21143D01*
X130335Y20734D01*
X129927Y20122D01*
X129783Y19400D01*
X129927Y18678D01*
X130335Y18066D01*
X130947Y17657D01*
X131669Y17514D01*
X131920Y17564D01*
X132779Y16704D01*
X132746Y16205D01*
X132470Y15993D01*
X131932Y15292D01*
X131594Y14476D01*
X131479Y13600D01*
X131594Y12724D01*
X131932Y11908D01*
X132470Y11207D01*
X133171Y10669D01*
X133988Y10330D01*
X134864Y10215D01*
X135740Y10330D01*
X136556Y10669D01*
X137257Y11207D01*
X137795Y11908D01*
X138133Y12724D01*
X138231Y13466D01*
X138704Y13626D01*
X147012Y5319D01*
Y1976D01*
X148255D01*
Y-522D01*
X145490Y-3287D01*
X145485Y-3285D01*
X139682D01*
Y-5359D01*
X142764D01*
X142908Y-5706D01*
X142630Y-6122D01*
X140082D01*
Y-10471D01*
X140082D01*
Y-10525D01*
X139728Y-10879D01*
X139032D01*
Y-14441D01*
X140399D01*
X140590Y-14903D01*
X138083Y-17410D01*
X137884Y-17708D01*
X137814Y-18059D01*
Y-18620D01*
X137683Y-18751D01*
X137484Y-19049D01*
X137414Y-19400D01*
Y-21717D01*
X136952Y-21908D01*
X135507Y-20463D01*
Y-18581D01*
X135907D01*
Y-16900D01*
X132643D01*
Y-15900D01*
X135907D01*
Y-14219D01*
X135507D01*
Y-10879D01*
X134643D01*
Y-10471D01*
X134643D01*
Y-6122D01*
X130096D01*
Y-6122D01*
X130029D01*
X129676Y-5768D01*
Y-5359D01*
X129676D01*
X129696D01*
X130029Y-5359D01*
X130029Y-5359D01*
Y-5359D01*
X131869D01*
Y-2785D01*
Y-210D01*
X130029D01*
X130029Y-210D01*
Y-210D01*
X129887Y-210D01*
X129696Y252D01*
X131420Y1976D01*
X134432D01*
Y9082D01*
X130993D01*
Y11383D01*
X130892Y11890D01*
X130605Y12320D01*
X129288Y13637D01*
X128858Y13925D01*
X128350Y14026D01*
X125818D01*
X124550Y15294D01*
X124741Y15756D01*
X128968D01*
Y20106D01*
X123831D01*
Y16666D01*
X123369Y16475D01*
X121095Y18749D01*
Y19361D01*
X121103Y19366D01*
X121512Y19978D01*
X121655Y20700D01*
X121512Y21422D01*
X121103Y22034D01*
X120491Y22443D01*
X119769Y22586D01*
X119047Y22443D01*
X118436Y22034D01*
X118027Y21422D01*
X117883Y20700D01*
X118027Y19978D01*
X118436Y19366D01*
X118444Y19361D01*
Y18200D01*
X118545Y17693D01*
X118832Y17263D01*
X124189Y11906D01*
X123997Y11444D01*
X123831D01*
Y7095D01*
X128968D01*
X128968Y7095D01*
Y7095D01*
X128991Y7104D01*
X129295Y6799D01*
Y3601D01*
X127452Y1758D01*
X126955Y1807D01*
X126803Y2034D01*
X126191Y2443D01*
X125469Y2586D01*
X124748Y2443D01*
X124135Y2034D01*
X123727Y1422D01*
X123583Y700D01*
X123633Y450D01*
X121439Y-1744D01*
X121196Y-2108D01*
X121111Y-2537D01*
X121111Y-2537D01*
Y-14259D01*
X121111Y-14259D01*
X121196Y-14689D01*
X121398Y-14990D01*
Y-17645D01*
X120907Y-17742D01*
X120645Y-17109D01*
X120044Y-16326D01*
X119261Y-15724D01*
X118348Y-15347D01*
X117869Y-15283D01*
Y-19000D01*
Y-22716D01*
X118348Y-22654D01*
X119261Y-22276D01*
X120044Y-21675D01*
X120645Y-20891D01*
X120907Y-20258D01*
X121398Y-20355D01*
Y-21023D01*
X121398Y-21023D01*
X121483Y-21452D01*
X121726Y-21816D01*
X122463Y-22554D01*
X122272Y-23016D01*
X122232D01*
X122232Y-23016D01*
X121803Y-23101D01*
X121439Y-23344D01*
X121439Y-23344D01*
X119133Y-25650D01*
X114019D01*
Y-32350D01*
X120719D01*
Y-27236D01*
X122697Y-25259D01*
X123296D01*
Y-26312D01*
X127842D01*
Y-21962D01*
X125070D01*
X124792Y-21546D01*
X124935Y-21200D01*
X125069D01*
Y-18625D01*
Y-16050D01*
X123641D01*
Y-14547D01*
X123556Y-14117D01*
X123354Y-13815D01*
Y-3002D01*
X125219Y-1136D01*
X125469Y-1186D01*
X126191Y-1043D01*
X126584Y-780D01*
X127025Y-1016D01*
Y-7300D01*
X127126Y-7807D01*
X127413Y-8237D01*
X127413Y-8237D01*
X127413Y-8237D01*
X128410Y-9234D01*
X128840Y-9521D01*
X129347Y-9622D01*
X130096D01*
Y-10471D01*
X130096D01*
Y-10562D01*
X129780Y-10879D01*
X129780D01*
Y-12106D01*
X128142Y-13743D01*
X127855Y-14173D01*
X127754Y-14680D01*
Y-16050D01*
X126069D01*
Y-18625D01*
Y-21200D01*
X128243D01*
Y-19810D01*
X128705Y-19619D01*
X128904Y-19818D01*
X129334Y-20106D01*
X129780Y-20194D01*
Y-21921D01*
X133216D01*
X143544Y-32249D01*
Y-35870D01*
X143047Y-35928D01*
X142959Y-35559D01*
X142290Y-33945D01*
X141377Y-32455D01*
X140242Y-31127D01*
X138914Y-29992D01*
X137424Y-29079D01*
X135810Y-28411D01*
X134111Y-28003D01*
X132369Y-27866D01*
X130628Y-28003D01*
X128929Y-28411D01*
X127314Y-29079D01*
X125825Y-29992D01*
X124496Y-31127D01*
X123361Y-32455D01*
X122449Y-33945D01*
X121780Y-35559D01*
X121372Y-37258D01*
X121235Y-39000D01*
X121372Y-40742D01*
X121780Y-42441D01*
X122449Y-44055D01*
X123361Y-45545D01*
X124496Y-46873D01*
X125825Y-48008D01*
X127314Y-48921D01*
X128929Y-49589D01*
X130628Y-49997D01*
X132369Y-50134D01*
X134111Y-49997D01*
X135810Y-49589D01*
X137424Y-48921D01*
X138914Y-48008D01*
X140242Y-46873D01*
X141377Y-45545D01*
X142290Y-44055D01*
X142959Y-42441D01*
X143047Y-42072D01*
X143544Y-42130D01*
Y-51603D01*
X143269Y-51639D01*
X142429Y-51986D01*
X141709Y-52539D01*
X141156Y-53260D01*
X140808Y-54099D01*
X140690Y-55000D01*
X140808Y-55901D01*
X141156Y-56740D01*
X141709Y-57461D01*
X142429Y-58014D01*
X142844Y-58185D01*
Y-61815D01*
X142429Y-61986D01*
X141709Y-62539D01*
X141156Y-63260D01*
X140808Y-64099D01*
X140690Y-65000D01*
X140808Y-65901D01*
X141156Y-66740D01*
X141709Y-67461D01*
X142429Y-68014D01*
X143269Y-68361D01*
X144169Y-68480D01*
X145070Y-68361D01*
X145909Y-68014D01*
X146630Y-67461D01*
X147183Y-66740D01*
X147530Y-65901D01*
X147649Y-65000D01*
X147530Y-64099D01*
X147183Y-63260D01*
X146630Y-62539D01*
X145909Y-61986D01*
X145495Y-61815D01*
Y-58185D01*
X145909Y-58014D01*
X146630Y-57461D01*
X147183Y-56740D01*
X147530Y-55901D01*
X147649Y-55000D01*
X147530Y-54099D01*
X147183Y-53260D01*
X146630Y-52539D01*
X146195Y-52206D01*
Y-31700D01*
X146094Y-31193D01*
X145807Y-30763D01*
X142923Y-27880D01*
X143115Y-27418D01*
X145737D01*
X149764Y-31445D01*
Y-32666D01*
X149371Y-32829D01*
X148828Y-33246D01*
X148411Y-33789D01*
X148149Y-34421D01*
X148059Y-35100D01*
X148149Y-35779D01*
X148411Y-36411D01*
X148828Y-36954D01*
X149371Y-37371D01*
X150003Y-37633D01*
X150682Y-37722D01*
X151361Y-37633D01*
X151993Y-37371D01*
X152536Y-36954D01*
X152953Y-36411D01*
X153215Y-35779D01*
X153304Y-35100D01*
X153215Y-34421D01*
X152953Y-33789D01*
X152536Y-33246D01*
X151993Y-32829D01*
X151600Y-32666D01*
Y-31265D01*
X151580Y-31165D01*
X151600Y-31065D01*
X151530Y-30714D01*
X151331Y-30416D01*
X146766Y-25851D01*
X146468Y-25652D01*
X146117Y-25582D01*
X143352D01*
X140153Y-22383D01*
X140344Y-21921D01*
X144759D01*
Y-21518D01*
X145751D01*
Y-23661D01*
X150495D01*
Y-19471D01*
X151582Y-18383D01*
X152044Y-18575D01*
Y-20100D01*
X154816D01*
Y-20600D01*
X155316D01*
Y-24061D01*
X156774D01*
Y-69774D01*
X-14274D01*
Y23774D01*
X156774D01*
Y20106D01*
D02*
G37*
G36*
Y-8599D02*
X152644D01*
Y-14720D01*
X152644Y-14720D01*
X152644D01*
X152646Y-14724D01*
X149831Y-17539D01*
X145751D01*
Y-19682D01*
X144759D01*
Y-18359D01*
X140383D01*
X140191Y-17897D01*
X142544Y-15544D01*
X142743Y-15246D01*
X142813Y-14895D01*
X142813Y-14895D01*
X142813Y-14895D01*
Y-14895D01*
Y-14441D01*
X144759D01*
Y-12577D01*
X145951D01*
Y-14720D01*
X150695D01*
Y-8599D01*
X145951D01*
Y-10742D01*
X144628D01*
Y-10471D01*
X144628D01*
Y-7898D01*
X150518Y-2008D01*
X150805Y-1578D01*
X150906Y-1071D01*
X150906Y-1071D01*
X150906Y-1071D01*
Y-1071D01*
Y1976D01*
X152149D01*
Y7095D01*
X152571D01*
Y7095D01*
X156774D01*
Y-8599D01*
D02*
G37*
%LPC*%
G36*
X97369Y-25621D02*
X96495Y-25736D01*
X95680Y-26074D01*
X94980Y-26611D01*
X94443Y-27310D01*
X94105Y-28126D01*
X93990Y-29000D01*
X94105Y-29875D01*
X94443Y-30689D01*
X94980Y-31389D01*
X95680Y-31926D01*
X96495Y-32264D01*
X97369Y-32379D01*
X98244Y-32264D01*
X99059Y-31926D01*
X99758Y-31389D01*
X100295Y-30689D01*
X100633Y-29875D01*
X100748Y-29000D01*
X100633Y-28126D01*
X100295Y-27310D01*
X99758Y-26611D01*
X99059Y-26074D01*
X98244Y-25736D01*
X97369Y-25621D01*
D02*
G37*
G36*
X107369D02*
X106495Y-25736D01*
X105680Y-26074D01*
X104980Y-26611D01*
X104443Y-27310D01*
X104105Y-28126D01*
X103990Y-29000D01*
X104105Y-29875D01*
X104443Y-30689D01*
X104980Y-31389D01*
X105680Y-31926D01*
X106495Y-32264D01*
X107369Y-32379D01*
X108244Y-32264D01*
X109059Y-31926D01*
X109758Y-31389D01*
X110295Y-30689D01*
X110633Y-29875D01*
X110748Y-29000D01*
X110633Y-28126D01*
X110295Y-27310D01*
X109758Y-26611D01*
X109059Y-26074D01*
X108244Y-25736D01*
X107369Y-25621D01*
D02*
G37*
G36*
X-4331Y-23221D02*
X-5207Y-23336D01*
X-6023Y-23674D01*
X-6724Y-24212D01*
X-7262Y-24913D01*
X-7600Y-25729D01*
X-7716Y-26605D01*
X-7600Y-27482D01*
X-7262Y-28298D01*
X-6724Y-28999D01*
X-6023Y-29537D01*
X-5207Y-29875D01*
X-4331Y-29990D01*
X-3455Y-29875D01*
X-2638Y-29537D01*
X-1937Y-28999D01*
X-1399Y-28298D01*
X-1061Y-27482D01*
X-946Y-26605D01*
X-1061Y-25729D01*
X-1399Y-24913D01*
X-1937Y-24212D01*
X-2638Y-23674D01*
X-3455Y-23336D01*
X-4331Y-23221D01*
D02*
G37*
G36*
X-6487Y-32502D02*
X-10836D01*
Y-37639D01*
X-6487D01*
Y-32502D01*
D02*
G37*
G36*
X153642Y-45600D02*
X151182D01*
Y-48060D01*
X151465Y-48023D01*
X152195Y-47721D01*
X152822Y-47240D01*
X153302Y-46613D01*
X153605Y-45883D01*
X153642Y-45600D01*
D02*
G37*
G36*
X150182Y-42140D02*
X149899Y-42177D01*
X149169Y-42480D01*
X148542Y-42960D01*
X148061Y-43587D01*
X147759Y-44317D01*
X147722Y-44600D01*
X150182D01*
Y-42140D01*
D02*
G37*
G36*
X151182D02*
Y-44600D01*
X153642D01*
X153605Y-44317D01*
X153302Y-43587D01*
X152822Y-42960D01*
X152195Y-42480D01*
X151465Y-42177D01*
X151182Y-42140D01*
D02*
G37*
G36*
X107369Y-15621D02*
X106495Y-15736D01*
X105680Y-16074D01*
X104980Y-16611D01*
X104443Y-17311D01*
X104105Y-18125D01*
X103990Y-19000D01*
X104105Y-19874D01*
X104443Y-20689D01*
X104980Y-21389D01*
X105680Y-21926D01*
X106495Y-22264D01*
X107369Y-22379D01*
X108244Y-22264D01*
X109059Y-21926D01*
X109758Y-21389D01*
X110295Y-20689D01*
X110633Y-19874D01*
X110748Y-19000D01*
X110633Y-18125D01*
X110295Y-17311D01*
X109758Y-16611D01*
X109059Y-16074D01*
X108244Y-15736D01*
X107369Y-15621D01*
D02*
G37*
G36*
X8469Y-21014D02*
X7747Y-21157D01*
X7567Y-21278D01*
X7293Y-21132D01*
Y-21132D01*
X7293Y-21132D01*
X187D01*
Y-26269D01*
X7293D01*
Y-24869D01*
X7734Y-24634D01*
X7747Y-24643D01*
X8469Y-24786D01*
X9191Y-24643D01*
X9803Y-24234D01*
X10212Y-23622D01*
X10356Y-22900D01*
X10212Y-22178D01*
X9803Y-21566D01*
X9191Y-21157D01*
X8469Y-21014D01*
D02*
G37*
G36*
X116869Y-15283D02*
X116390Y-15347D01*
X115478Y-15724D01*
X114695Y-16326D01*
X114094Y-17109D01*
X113716Y-18021D01*
X113653Y-18500D01*
X116869D01*
Y-15283D01*
D02*
G37*
G36*
X97369Y-15621D02*
X96495Y-15736D01*
X95680Y-16074D01*
X94980Y-16611D01*
X94443Y-17311D01*
X94105Y-18125D01*
X93990Y-19000D01*
X94105Y-19874D01*
X94443Y-20689D01*
X94980Y-21389D01*
X95680Y-21926D01*
X96495Y-22264D01*
X97369Y-22379D01*
X98244Y-22264D01*
X99059Y-21926D01*
X99758Y-21389D01*
X100295Y-20689D01*
X100633Y-19874D01*
X100748Y-19000D01*
X100633Y-18125D01*
X100295Y-17311D01*
X99758Y-16611D01*
X99059Y-16074D01*
X98244Y-15736D01*
X97369Y-15621D01*
D02*
G37*
G36*
X154316Y-21100D02*
X152044D01*
Y-24061D01*
X154316D01*
Y-21100D01*
D02*
G37*
G36*
X-4331Y-11211D02*
X-5258Y-11333D01*
X-6122Y-11691D01*
X-6865Y-12261D01*
X-7434Y-13003D01*
X-7792Y-13867D01*
X-7914Y-14795D01*
X-7792Y-15722D01*
X-7434Y-16586D01*
X-6865Y-17328D01*
X-6122Y-17898D01*
X-5258Y-18256D01*
X-4331Y-18378D01*
X-3403Y-18256D01*
X-2539Y-17898D01*
X-1797Y-17328D01*
X-1227Y-16586D01*
X-869Y-15722D01*
X-747Y-14795D01*
X-869Y-13867D01*
X-1227Y-13003D01*
X-1797Y-12261D01*
X-2539Y-11691D01*
X-3403Y-11333D01*
X-4331Y-11211D01*
D02*
G37*
G36*
X116869Y-19500D02*
X113653D01*
X113716Y-19979D01*
X114094Y-20891D01*
X114695Y-21675D01*
X115478Y-22276D01*
X116390Y-22654D01*
X116869Y-22716D01*
Y-19500D01*
D02*
G37*
G36*
X150182Y-45600D02*
X147722D01*
X147759Y-45883D01*
X148061Y-46613D01*
X148542Y-47240D01*
X149169Y-47721D01*
X149899Y-48023D01*
X150182Y-48060D01*
Y-45600D01*
D02*
G37*
G36*
X133669Y-61183D02*
X133164Y-61249D01*
X132228Y-61637D01*
X131423Y-62254D01*
X130806Y-63058D01*
X130418Y-63995D01*
X130352Y-64500D01*
X133669D01*
Y-61183D01*
D02*
G37*
G36*
X134669D02*
Y-64500D01*
X137987D01*
X137920Y-63995D01*
X137532Y-63058D01*
X136915Y-62254D01*
X136111Y-61637D01*
X135174Y-61249D01*
X134669Y-61183D01*
D02*
G37*
G36*
X78964Y-59978D02*
X76790D01*
Y-62053D01*
X78964D01*
Y-59978D01*
D02*
G37*
G36*
X137987Y-65500D02*
X134669D01*
Y-68817D01*
X135174Y-68751D01*
X136111Y-68363D01*
X136915Y-67746D01*
X137532Y-66942D01*
X137920Y-66005D01*
X137987Y-65500D01*
D02*
G37*
G36*
X43669D02*
X40352D01*
X40418Y-66005D01*
X40806Y-66942D01*
X41423Y-67746D01*
X42228Y-68363D01*
X43164Y-68751D01*
X43669Y-68817D01*
Y-65500D01*
D02*
G37*
G36*
X47987D02*
X44669D01*
Y-68817D01*
X45174Y-68751D01*
X46111Y-68363D01*
X46915Y-67746D01*
X47532Y-66942D01*
X47920Y-66005D01*
X47987Y-65500D01*
D02*
G37*
G36*
X133669D02*
X130352D01*
X130418Y-66005D01*
X130806Y-66942D01*
X131423Y-67746D01*
X132228Y-68363D01*
X133164Y-68751D01*
X133669Y-68817D01*
Y-65500D01*
D02*
G37*
G36*
X82137Y-59978D02*
X79964D01*
Y-62053D01*
X82137D01*
Y-59978D01*
D02*
G37*
G36*
X81737Y-54472D02*
X77191D01*
Y-56126D01*
X75798D01*
Y-54869D01*
X71252D01*
Y-59219D01*
X75798D01*
Y-57962D01*
X77191D01*
Y-58822D01*
X81737D01*
Y-54472D01*
D02*
G37*
G36*
X133669Y-51183D02*
X133164Y-51249D01*
X132228Y-51637D01*
X131423Y-52254D01*
X130806Y-53058D01*
X130418Y-53995D01*
X130352Y-54500D01*
X133669D01*
Y-51183D01*
D02*
G37*
G36*
X134669D02*
Y-54500D01*
X137987D01*
X137920Y-53995D01*
X137532Y-53058D01*
X136915Y-52254D01*
X136111Y-51637D01*
X135174Y-51249D01*
X134669Y-51183D01*
D02*
G37*
G36*
X97619Y-51550D02*
X90719D01*
Y-58450D01*
X97619D01*
Y-51550D01*
D02*
G37*
G36*
X133669Y-55500D02*
X130352D01*
X130418Y-56005D01*
X130806Y-56942D01*
X131423Y-57746D01*
X132228Y-58363D01*
X133164Y-58751D01*
X133669Y-58817D01*
Y-55500D01*
D02*
G37*
G36*
X137987D02*
X134669D01*
Y-58817D01*
X135174Y-58751D01*
X136111Y-58363D01*
X136915Y-57746D01*
X137532Y-56942D01*
X137920Y-56005D01*
X137987Y-55500D01*
D02*
G37*
G36*
X104169Y-51520D02*
X103269Y-51639D01*
X102429Y-51986D01*
X101709Y-52539D01*
X101156Y-53260D01*
X100808Y-54099D01*
X100689Y-55000D01*
X100808Y-55901D01*
X101156Y-56740D01*
X101709Y-57461D01*
X102429Y-58014D01*
X103269Y-58361D01*
X104169Y-58480D01*
X105070Y-58361D01*
X105909Y-58014D01*
X106630Y-57461D01*
X107183Y-56740D01*
X107530Y-55901D01*
X107649Y-55000D01*
X107530Y-54099D01*
X107183Y-53260D01*
X106630Y-52539D01*
X105909Y-51986D01*
X105070Y-51639D01*
X104169Y-51520D01*
D02*
G37*
G36*
X3240Y-12389D02*
X-213D01*
Y-14857D01*
X3240D01*
Y-12389D01*
D02*
G37*
G36*
X-713Y22861D02*
X-5456D01*
Y16739D01*
X-5456Y16739D01*
X-5456D01*
X-5362Y16513D01*
X-8014Y13861D01*
X-12149D01*
Y7739D01*
X-7406D01*
Y11874D01*
X-5918Y13362D01*
X-5456Y13170D01*
Y7739D01*
X-713D01*
D01*
X-713D01*
X-380Y7407D01*
Y6581D01*
X-937Y6024D01*
X-1225Y5594D01*
X-1326Y5087D01*
Y2260D01*
X-1854Y1854D01*
X-2271Y1311D01*
X-2533Y679D01*
X-2622Y0D01*
X-2533Y-679D01*
X-2271Y-1311D01*
X-1854Y-1854D01*
X-1311Y-2271D01*
X-679Y-2533D01*
X0Y-2622D01*
X679Y-2533D01*
X1311Y-2271D01*
X1854Y-1854D01*
X2271Y-1311D01*
X2533Y-679D01*
X2622Y0D01*
X2533Y679D01*
X2271Y1311D01*
X1854Y1854D01*
X1326Y2260D01*
Y3176D01*
X1787Y3367D01*
X6462Y-1307D01*
X6892Y-1595D01*
X7074Y-1631D01*
X18536Y-13093D01*
X18536Y-13093D01*
X18900Y-13336D01*
X19329Y-13422D01*
X19329Y-13421D01*
X69325D01*
X69603Y-13837D01*
X69469Y-14162D01*
X22790D01*
X22438Y-14232D01*
X22141Y-14431D01*
X9060Y-27511D01*
X8569Y-27414D01*
X7847Y-27557D01*
X7734Y-27633D01*
X7293Y-27398D01*
Y-27037D01*
X187D01*
Y-32148D01*
X187Y-32148D01*
X187D01*
X187Y-32174D01*
X-140Y-32502D01*
X-2175D01*
Y-37639D01*
X2175D01*
Y-32528D01*
X2175Y-32528D01*
D01*
D01*
X2175Y-32502D01*
D01*
X2502Y-32174D01*
X7293D01*
Y-31203D01*
X7734Y-30967D01*
X7847Y-31043D01*
X8569Y-31186D01*
X9291Y-31043D01*
X9903Y-30634D01*
X10312Y-30022D01*
X10456Y-29300D01*
X10358Y-28809D01*
X23170Y-15997D01*
X24381D01*
X24602Y-16446D01*
X24094Y-17109D01*
X23716Y-18021D01*
X23653Y-18500D01*
X27369D01*
Y-19500D01*
X23653D01*
X23716Y-19979D01*
X24094Y-20891D01*
X24664Y-21634D01*
X24442Y-22082D01*
X24369D01*
X24076Y-22141D01*
X24018Y-22152D01*
X23720Y-22351D01*
X-230Y-46301D01*
X-428Y-46599D01*
X-498Y-46950D01*
Y-58750D01*
X-428Y-59101D01*
X-230Y-59399D01*
X2121Y-61749D01*
X2088Y-62248D01*
X1709Y-62539D01*
X1156Y-63260D01*
X808Y-64099D01*
X690Y-65000D01*
X808Y-65901D01*
X1156Y-66740D01*
X1709Y-67461D01*
X2429Y-68014D01*
X3269Y-68361D01*
X4169Y-68480D01*
X5070Y-68361D01*
X5909Y-68014D01*
X6630Y-67461D01*
X7183Y-66740D01*
X7530Y-65901D01*
X7649Y-65000D01*
X7530Y-64099D01*
X7183Y-63260D01*
X6630Y-62539D01*
X5909Y-61986D01*
X5070Y-61639D01*
X4535Y-61568D01*
X1879Y-58912D01*
X2070Y-58450D01*
X7619D01*
Y-51550D01*
X5087D01*
Y-47418D01*
X23534Y-28971D01*
X24008Y-29132D01*
X24105Y-29875D01*
X24443Y-30689D01*
X24980Y-31389D01*
X25680Y-31926D01*
X26495Y-32264D01*
X27369Y-32379D01*
X28244Y-32264D01*
X29059Y-31926D01*
X29759Y-31389D01*
X30296Y-30689D01*
X30633Y-29875D01*
X30748Y-29000D01*
X30633Y-28126D01*
X30296Y-27310D01*
X29839Y-26716D01*
X30060Y-26268D01*
X30231D01*
X30582Y-26198D01*
X30684Y-26130D01*
X34829D01*
X34990Y-26603D01*
X34980Y-26611D01*
X34443Y-27310D01*
X34106Y-28126D01*
X33990Y-29000D01*
X34106Y-29875D01*
X34443Y-30689D01*
X34980Y-31389D01*
X35680Y-31926D01*
X36495Y-32264D01*
X37369Y-32379D01*
X38244Y-32264D01*
X39059Y-31926D01*
X39759Y-31389D01*
X40295Y-30689D01*
X40633Y-29875D01*
X40748Y-29000D01*
X40633Y-28126D01*
X40295Y-27310D01*
X39759Y-26611D01*
X39749Y-26603D01*
X39909Y-26130D01*
X43201D01*
X44425Y-27354D01*
X44105Y-28126D01*
X43990Y-29000D01*
X44105Y-29875D01*
X44443Y-30689D01*
X44980Y-31389D01*
X45680Y-31926D01*
X46495Y-32264D01*
X47369Y-32379D01*
X47625Y-32345D01*
X47846Y-32794D01*
X45208Y-35432D01*
X32819D01*
X32526Y-35491D01*
X32468Y-35502D01*
X32170Y-35701D01*
X15892Y-51979D01*
X15070Y-51639D01*
X14169Y-51520D01*
X13269Y-51639D01*
X12429Y-51986D01*
X11709Y-52539D01*
X11156Y-53260D01*
X10808Y-54099D01*
X10689Y-55000D01*
X10808Y-55901D01*
X11156Y-56740D01*
X11709Y-57461D01*
X12429Y-58014D01*
X13269Y-58361D01*
X14169Y-58480D01*
X15070Y-58361D01*
X15909Y-58014D01*
X16553Y-57519D01*
X17002Y-57740D01*
Y-60870D01*
X15892Y-61979D01*
X15070Y-61639D01*
X14169Y-61520D01*
X13269Y-61639D01*
X12429Y-61986D01*
X11709Y-62539D01*
X11156Y-63260D01*
X10808Y-64099D01*
X10689Y-65000D01*
X10808Y-65901D01*
X11156Y-66740D01*
X11709Y-67461D01*
X12429Y-68014D01*
X13269Y-68361D01*
X14169Y-68480D01*
X15070Y-68361D01*
X15909Y-68014D01*
X16630Y-67461D01*
X17183Y-66740D01*
X17530Y-65901D01*
X17649Y-65000D01*
X17530Y-64099D01*
X17190Y-63277D01*
X18568Y-61899D01*
X18767Y-61601D01*
X18837Y-61250D01*
Y-56193D01*
X20248Y-54782D01*
X20689Y-55000D01*
X20808Y-55901D01*
X21156Y-56740D01*
X21709Y-57461D01*
X22429Y-58014D01*
X23269Y-58361D01*
X24169Y-58480D01*
X25070Y-58361D01*
X25909Y-58014D01*
X26630Y-57461D01*
X27183Y-56740D01*
X27531Y-55901D01*
X27649Y-55000D01*
X27531Y-54099D01*
X27190Y-53277D01*
X34149Y-46318D01*
X35597D01*
X35789Y-46780D01*
X29770Y-52798D01*
X29572Y-53096D01*
X29502Y-53447D01*
Y-58370D01*
X25892Y-61979D01*
X25070Y-61639D01*
X24169Y-61520D01*
X23269Y-61639D01*
X22429Y-61986D01*
X21709Y-62539D01*
X21156Y-63260D01*
X20808Y-64099D01*
X20689Y-65000D01*
X20808Y-65901D01*
X21156Y-66740D01*
X21709Y-67461D01*
X22429Y-68014D01*
X23269Y-68361D01*
X24169Y-68480D01*
X25070Y-68361D01*
X25909Y-68014D01*
X26630Y-67461D01*
X27183Y-66740D01*
X27531Y-65901D01*
X27649Y-65000D01*
X27531Y-64099D01*
X27190Y-63277D01*
X31068Y-59399D01*
X31267Y-59101D01*
X31279Y-59043D01*
X31337Y-58750D01*
Y-57740D01*
X31785Y-57519D01*
X32429Y-58014D01*
X33269Y-58361D01*
X34169Y-58480D01*
X35070Y-58361D01*
X35892Y-58021D01*
X37270Y-59399D01*
X37568Y-59598D01*
X37637Y-59611D01*
X37782Y-60090D01*
X35892Y-61979D01*
X35070Y-61639D01*
X34169Y-61520D01*
X33269Y-61639D01*
X32429Y-61986D01*
X31709Y-62539D01*
X31156Y-63260D01*
X30808Y-64099D01*
X30689Y-65000D01*
X30808Y-65901D01*
X31156Y-66740D01*
X31709Y-67461D01*
X32429Y-68014D01*
X33269Y-68361D01*
X34169Y-68480D01*
X35070Y-68361D01*
X35909Y-68014D01*
X36630Y-67461D01*
X37183Y-66740D01*
X37530Y-65901D01*
X37649Y-65000D01*
X37530Y-64099D01*
X37190Y-63277D01*
X38853Y-61615D01*
X41479D01*
X41640Y-62088D01*
X41423Y-62254D01*
X40806Y-63058D01*
X40418Y-63995D01*
X40352Y-64500D01*
X47987D01*
X47920Y-63995D01*
X47532Y-63058D01*
X46915Y-62254D01*
X46699Y-62088D01*
X46859Y-61615D01*
X52136D01*
X52297Y-62088D01*
X51709Y-62539D01*
X51156Y-63260D01*
X50808Y-64099D01*
X50690Y-65000D01*
X50808Y-65901D01*
X51156Y-66740D01*
X51709Y-67461D01*
X52429Y-68014D01*
X53269Y-68361D01*
X54169Y-68480D01*
X55070Y-68361D01*
X55909Y-68014D01*
X56630Y-67461D01*
X57183Y-66740D01*
X57530Y-65901D01*
X57649Y-65000D01*
X57530Y-64099D01*
X57183Y-63260D01*
X56630Y-62539D01*
X56042Y-62088D01*
X56202Y-61615D01*
X57564D01*
X57915Y-61545D01*
X58213Y-61346D01*
X78118Y-41440D01*
X78317Y-41142D01*
X78387Y-40791D01*
X78387Y-40791D01*
X78387Y-40791D01*
Y-40791D01*
Y-34442D01*
X81668Y-31161D01*
X81867Y-30863D01*
X81937Y-30512D01*
X81937Y-30512D01*
X81937Y-30512D01*
Y-30512D01*
Y-22650D01*
X81867Y-22299D01*
X81668Y-22001D01*
X80313Y-20646D01*
X80633Y-19874D01*
X80748Y-19000D01*
X80633Y-18125D01*
X80295Y-17311D01*
X79759Y-16611D01*
X79576Y-16471D01*
X79737Y-15997D01*
X85002D01*
X85162Y-16471D01*
X84980Y-16611D01*
X84443Y-17311D01*
X84105Y-18125D01*
X83990Y-19000D01*
X84105Y-19874D01*
X84443Y-20689D01*
X84980Y-21389D01*
X85680Y-21926D01*
X86495Y-22264D01*
X87369Y-22379D01*
X87776Y-22325D01*
X88152Y-22655D01*
Y-23588D01*
X88152Y-23588D01*
X88152D01*
X88222Y-23939D01*
X88420Y-24237D01*
X90060Y-25876D01*
X89978Y-26370D01*
X89653Y-26530D01*
X89059Y-26074D01*
X88244Y-25736D01*
X87369Y-25621D01*
X86495Y-25736D01*
X85680Y-26074D01*
X84980Y-26611D01*
X84443Y-27310D01*
X84105Y-28126D01*
X83990Y-29000D01*
X84105Y-29875D01*
X84443Y-30689D01*
X84980Y-31389D01*
X85680Y-31926D01*
X86495Y-32264D01*
X87369Y-32379D01*
X87529Y-32358D01*
X93920Y-38749D01*
X94218Y-38948D01*
X94569Y-39018D01*
X99722D01*
X109201Y-48497D01*
X109498Y-48696D01*
X109557Y-48707D01*
X109850Y-48765D01*
X113437D01*
X116425Y-51753D01*
X116095Y-52129D01*
X115909Y-51986D01*
X115070Y-51639D01*
X114169Y-51520D01*
X113269Y-51639D01*
X112429Y-51986D01*
X111709Y-52539D01*
X111156Y-53260D01*
X110808Y-54099D01*
X110689Y-55000D01*
X110808Y-55901D01*
X111156Y-56740D01*
X111709Y-57461D01*
X112429Y-58014D01*
X112842Y-58185D01*
X112891Y-58682D01*
X112466Y-58966D01*
X112188Y-59382D01*
X88500D01*
X88149Y-59452D01*
X87851Y-59651D01*
X83220Y-64282D01*
X82137D01*
Y-63053D01*
X76790D01*
Y-63871D01*
X76329Y-64062D01*
X75798Y-63531D01*
Y-60381D01*
X71252D01*
Y-64731D01*
X74402D01*
X75520Y-65849D01*
X75818Y-66048D01*
X76169Y-66118D01*
X83600D01*
X83951Y-66048D01*
X84249Y-65849D01*
X88880Y-61218D01*
X93004D01*
X93102Y-61708D01*
X92429Y-61986D01*
X91709Y-62539D01*
X91156Y-63260D01*
X90808Y-64099D01*
X90689Y-65000D01*
X90808Y-65901D01*
X91156Y-66740D01*
X91709Y-67461D01*
X92429Y-68014D01*
X93269Y-68361D01*
X94169Y-68480D01*
X95070Y-68361D01*
X95909Y-68014D01*
X96630Y-67461D01*
X97183Y-66740D01*
X97531Y-65901D01*
X97649Y-65000D01*
X97531Y-64099D01*
X97183Y-63260D01*
X96630Y-62539D01*
X95909Y-61986D01*
X95237Y-61708D01*
X95335Y-61218D01*
X103004D01*
X103102Y-61708D01*
X102429Y-61986D01*
X101709Y-62539D01*
X101156Y-63260D01*
X100808Y-64099D01*
X100689Y-65000D01*
X100808Y-65901D01*
X101156Y-66740D01*
X101709Y-67461D01*
X102429Y-68014D01*
X103269Y-68361D01*
X104169Y-68480D01*
X105070Y-68361D01*
X105909Y-68014D01*
X106630Y-67461D01*
X107183Y-66740D01*
X107530Y-65901D01*
X107649Y-65000D01*
X107530Y-64099D01*
X107183Y-63260D01*
X106630Y-62539D01*
X105909Y-61986D01*
X105237Y-61708D01*
X105335Y-61218D01*
X112188D01*
X112466Y-61634D01*
X112432Y-61985D01*
X112429Y-61986D01*
X111709Y-62539D01*
X111156Y-63260D01*
X110808Y-64099D01*
X110689Y-65000D01*
X110808Y-65901D01*
X111156Y-66740D01*
X111709Y-67461D01*
X112429Y-68014D01*
X113269Y-68361D01*
X114169Y-68480D01*
X115070Y-68361D01*
X115909Y-68014D01*
X116630Y-67461D01*
X117183Y-66740D01*
X117531Y-65901D01*
X117649Y-65000D01*
X117531Y-64099D01*
X117183Y-63260D01*
X116630Y-62539D01*
X115909Y-61986D01*
X115481Y-61809D01*
X115336Y-61331D01*
X115543Y-61022D01*
X115686Y-60300D01*
X115543Y-59578D01*
X115134Y-58966D01*
X114984Y-58866D01*
X115045Y-58370D01*
X115070Y-58361D01*
X115070D01*
X115070Y-58361D01*
X115909Y-58014D01*
X116630Y-57461D01*
X116755Y-57298D01*
X117228Y-57459D01*
Y-58976D01*
X117298Y-59328D01*
X117497Y-59625D01*
X121149Y-63277D01*
X120808Y-64099D01*
X120689Y-65000D01*
X120808Y-65901D01*
X121156Y-66740D01*
X121709Y-67461D01*
X122429Y-68014D01*
X123269Y-68361D01*
X124169Y-68480D01*
X125070Y-68361D01*
X125909Y-68014D01*
X126630Y-67461D01*
X127183Y-66740D01*
X127531Y-65901D01*
X127649Y-65000D01*
X127531Y-64099D01*
X127183Y-63260D01*
X126630Y-62539D01*
X125909Y-61986D01*
X125070Y-61639D01*
X124169Y-61520D01*
X123269Y-61639D01*
X122446Y-61979D01*
X119063Y-58596D01*
Y-52176D01*
X118993Y-51825D01*
X118795Y-51528D01*
X114466Y-47199D01*
X114168Y-47000D01*
X113817Y-46930D01*
X110230D01*
X100751Y-37451D01*
X100453Y-37252D01*
X100102Y-37182D01*
X94949D01*
X89686Y-31919D01*
X89719Y-31420D01*
X89758Y-31389D01*
X90295Y-30689D01*
X90767Y-30596D01*
X95320Y-35149D01*
X95320D01*
X95320Y-35149D01*
X95320Y-35149D01*
Y-35149D01*
X95618Y-35348D01*
X95969Y-35418D01*
X104589D01*
X121709Y-52537D01*
X121709Y-52539D01*
X121156Y-53260D01*
X120808Y-54099D01*
X120689Y-55000D01*
X120808Y-55901D01*
X121156Y-56740D01*
X121709Y-57461D01*
X122429Y-58014D01*
X123269Y-58361D01*
X124169Y-58480D01*
X125070Y-58361D01*
X125909Y-58014D01*
X126630Y-57461D01*
X127183Y-56740D01*
X127531Y-55901D01*
X127649Y-55000D01*
X127531Y-54099D01*
X127183Y-53260D01*
X126630Y-52539D01*
X125909Y-51986D01*
X125070Y-51639D01*
X124169Y-51520D01*
X123390Y-51623D01*
X105618Y-33851D01*
X105321Y-33652D01*
X104969Y-33582D01*
X96349D01*
X91937Y-29170D01*
Y-25538D01*
X91867Y-25187D01*
X91668Y-24889D01*
X89987Y-23208D01*
Y-21200D01*
X89970Y-21114D01*
X90295Y-20689D01*
X90633Y-19874D01*
X90748Y-19000D01*
X90633Y-18125D01*
X90295Y-17311D01*
X89758Y-16611D01*
X89576Y-16471D01*
X89737Y-15997D01*
X91330D01*
X91548Y-16143D01*
X92269Y-16286D01*
X92991Y-16143D01*
X93603Y-15734D01*
X94012Y-15122D01*
X94156Y-14400D01*
X94012Y-13678D01*
X93603Y-13066D01*
X92991Y-12657D01*
X92843Y-12628D01*
Y-11200D01*
X87496D01*
Y-13275D01*
X90311D01*
X90527Y-13678D01*
X90430Y-14162D01*
X78650D01*
X78459Y-13700D01*
X78636Y-13523D01*
X78636Y-13523D01*
X78802Y-13275D01*
X80321D01*
Y-10700D01*
Y-8125D01*
X80124D01*
X79980Y-7779D01*
X80258Y-7363D01*
X83095D01*
Y-3013D01*
X82147D01*
Y-2918D01*
X82046Y-2411D01*
X81783Y-2017D01*
X82060Y-1601D01*
X82290Y-1647D01*
Y1700D01*
X83290D01*
Y-1647D01*
X83590Y-1587D01*
X84019Y-1301D01*
X84074Y-1218D01*
X84114Y-1210D01*
Y-1210D01*
X84114Y-1210D01*
X84463Y-1280D01*
X85053D01*
X85403Y-1210D01*
X85699Y-1012D01*
X85786D01*
X86082Y-1210D01*
X86431Y-1280D01*
X87022D01*
X87371Y-1210D01*
X87668Y-1012D01*
X87754D01*
X88051Y-1210D01*
X88400Y-1280D01*
X88990D01*
X89260Y-1501D01*
Y-3013D01*
X87896D01*
Y-3168D01*
X87510Y-3485D01*
X86869Y-3358D01*
X86147Y-3501D01*
X85536Y-3910D01*
X85127Y-4522D01*
X84983Y-5244D01*
X85127Y-5966D01*
X85536Y-6578D01*
X86147Y-6987D01*
X86869Y-7130D01*
X87510Y-7003D01*
X87896Y-7320D01*
Y-7363D01*
X92443D01*
Y-4165D01*
X92905Y-3973D01*
X94930Y-5999D01*
X94930D01*
X94930Y-5999D01*
X94930D01*
X94930Y-5999D01*
Y-5999D01*
X94930Y-5999D01*
Y-5999D01*
X95228Y-6198D01*
X95579Y-6268D01*
X97360D01*
X97711Y-6198D01*
X98009Y-5999D01*
X99890Y-4118D01*
X103157D01*
X103436Y-4534D01*
X104048Y-4943D01*
X104769Y-5086D01*
X105491Y-4943D01*
X106103Y-4534D01*
X106512Y-3922D01*
X106656Y-3200D01*
X106512Y-2478D01*
X106103Y-1866D01*
X105491Y-1457D01*
X104769Y-1314D01*
X104048Y-1457D01*
X103436Y-1866D01*
X103157Y-2282D01*
X99510D01*
X99159Y-2352D01*
X98861Y-2551D01*
X96980Y-4432D01*
X95959D01*
X93969Y-2442D01*
X93994Y-1943D01*
X94101Y-1855D01*
Y1700D01*
X95101D01*
Y-1647D01*
X95401Y-1587D01*
X95830Y-1301D01*
X95885Y-1218D01*
X95925Y-1210D01*
Y-1210D01*
X95925Y-1210D01*
X96274Y-1280D01*
X96865D01*
X97214Y-1210D01*
X97510Y-1012D01*
X97708Y-716D01*
X97777Y-367D01*
Y782D01*
X98658D01*
X98936Y366D01*
X99547Y-43D01*
X100269Y-186D01*
X100991Y-43D01*
X101603Y366D01*
X102012Y978D01*
X102155Y1700D01*
X102796Y1827D01*
X102932Y1736D01*
X103654Y1593D01*
X104375Y1736D01*
X104987Y2145D01*
X105396Y2757D01*
X105540Y3479D01*
X105396Y4201D01*
X104987Y4813D01*
X104375Y5222D01*
X103654Y5365D01*
X102932Y5222D01*
X102320Y4813D01*
X102227Y4675D01*
X101730Y4626D01*
X100744Y5611D01*
X100447Y5810D01*
X100096Y5880D01*
X98187D01*
X98042Y6358D01*
X98503Y6666D01*
X98912Y7278D01*
X99055Y8000D01*
X98912Y8722D01*
X98503Y9334D01*
X97891Y9743D01*
X97169Y9886D01*
X97154Y9883D01*
X96866Y10075D01*
X96720Y10221D01*
X96855Y10900D01*
X96712Y11622D01*
X96303Y12234D01*
X95691Y12643D01*
X94969Y12786D01*
X94248Y12643D01*
X93635Y12234D01*
X93227Y11622D01*
X93196Y11468D01*
X91082D01*
X90855Y11600D01*
X90712Y12322D01*
X90303Y12934D01*
X89691Y13343D01*
X88969Y13486D01*
X88248Y13343D01*
X87635Y12934D01*
X87227Y12322D01*
X87083Y11600D01*
X87189Y11066D01*
X86872Y10680D01*
X82191D01*
X81873Y10617D01*
X81457Y10894D01*
X81412Y11122D01*
X81003Y11734D01*
X80898Y11804D01*
X81043Y12282D01*
X82657D01*
X82936Y11866D01*
X83548Y11457D01*
X84269Y11314D01*
X84991Y11457D01*
X85603Y11866D01*
X86012Y12478D01*
X86155Y13200D01*
X86012Y13922D01*
X85603Y14534D01*
X84991Y14943D01*
X84269Y15086D01*
X83548Y14943D01*
X82936Y14534D01*
X82657Y14118D01*
X79429D01*
X79078Y14048D01*
X78780Y13849D01*
X76870Y11939D01*
X76822Y11866D01*
X76789Y11817D01*
X74451Y9480D01*
X69362D01*
X69011Y9410D01*
X68713Y9211D01*
X64424Y4922D01*
X64268Y4689D01*
X63778Y4591D01*
X63749Y4610D01*
X63400Y4680D01*
X62809D01*
X62460Y4610D01*
X62164Y4412D01*
X62077D01*
X61781Y4610D01*
X61576Y4651D01*
Y5260D01*
X61967Y5651D01*
X62165Y5949D01*
X62177Y6007D01*
X62235Y6300D01*
Y8081D01*
X62165Y8432D01*
X61967Y8730D01*
X60707Y9989D01*
X60409Y10188D01*
X60058Y10258D01*
X52225D01*
X52212Y10322D01*
X51803Y10934D01*
X51191Y11343D01*
X50469Y11486D01*
X49747Y11343D01*
X49136Y10934D01*
X48855Y10515D01*
X48377Y10660D01*
Y14692D01*
X48275Y15465D01*
X47977Y16186D01*
X47502Y16805D01*
X46883Y17280D01*
X46163Y17578D01*
X45389Y17680D01*
X40665D01*
X39891Y17578D01*
X39171Y17280D01*
X38552Y16805D01*
X38077Y16186D01*
X37779Y15465D01*
X37677Y14692D01*
Y9968D01*
X37779Y9194D01*
X38077Y8474D01*
X38552Y7855D01*
X39171Y7380D01*
X39891Y7082D01*
X40665Y6980D01*
X45389D01*
X46163Y7082D01*
X46883Y7380D01*
X47502Y7855D01*
X47977Y8474D01*
X48208Y9032D01*
X48706Y8984D01*
X48727Y8878D01*
X49136Y8266D01*
X49747Y7857D01*
X50469Y7714D01*
X51191Y7857D01*
X51803Y8266D01*
X51908Y8423D01*
X54341D01*
X54486Y7944D01*
X54036Y7643D01*
X53627Y7031D01*
X53483Y6309D01*
X53627Y5588D01*
X53974Y5068D01*
X53696Y4652D01*
X53557Y4680D01*
X52967D01*
X52618Y4610D01*
X52321Y4412D01*
X52234D01*
X51938Y4610D01*
X51589Y4680D01*
X50998D01*
X50649Y4610D01*
X50353Y4412D01*
X50155Y4116D01*
X50086Y3767D01*
Y-367D01*
X50155Y-716D01*
X50353Y-1012D01*
X50649Y-1210D01*
X50998Y-1280D01*
X51589D01*
X51938Y-1210D01*
X52234Y-1012D01*
X52321D01*
X52618Y-1210D01*
X52967Y-1280D01*
X53557D01*
X53907Y-1210D01*
X54203Y-1012D01*
X54290D01*
X54586Y-1210D01*
X54935Y-1280D01*
X55526D01*
X55875Y-1210D01*
X56282Y-1818D01*
Y-2551D01*
X55722Y-3111D01*
X55231Y-3014D01*
X54509Y-3157D01*
X53897Y-3566D01*
X53488Y-4178D01*
X53345Y-4900D01*
X53488Y-5622D01*
X53897Y-6234D01*
X54509Y-6643D01*
X55231Y-6786D01*
X55953Y-6643D01*
X56564Y-6234D01*
X56973Y-5622D01*
X57117Y-4900D01*
X57019Y-4409D01*
X57840Y-3589D01*
X58337Y-3638D01*
X58736Y-4234D01*
X59347Y-4643D01*
X60069Y-4786D01*
X60791Y-4643D01*
X61403Y-4234D01*
X61812Y-3622D01*
X61955Y-2900D01*
X61812Y-2178D01*
X61487Y-1692D01*
X61679Y-1231D01*
X61781Y-1210D01*
X61791Y-1203D01*
X62253Y-1395D01*
X62257Y-1415D01*
X62456Y-1712D01*
X64081Y-3337D01*
X63983Y-3828D01*
X64127Y-4550D01*
X64535Y-5162D01*
X65148Y-5571D01*
X65869Y-5714D01*
X66591Y-5571D01*
X67203Y-5162D01*
X67612Y-4550D01*
X68011Y-4385D01*
X68247Y-4543D01*
X68969Y-4686D01*
X69611Y-4559D01*
X69660Y-4607D01*
X69803Y-5329D01*
X70212Y-5941D01*
X70824Y-6350D01*
X71546Y-6493D01*
X72268Y-6350D01*
X72355Y-6292D01*
X72796Y-6527D01*
Y-7363D01*
X76651D01*
X76804Y-7549D01*
X76636Y-8020D01*
X76108Y-8125D01*
X75569D01*
Y-10700D01*
X75069D01*
Y-11200D01*
X72396D01*
Y-12253D01*
X71385D01*
X70639Y-11507D01*
X70275Y-11264D01*
X69846Y-11178D01*
X69846Y-11178D01*
X19793D01*
X8660Y-45D01*
X8624Y137D01*
X8336Y567D01*
X5838Y3065D01*
X6030Y3527D01*
X6806D01*
Y5700D01*
X4732D01*
Y4825D01*
X4385Y4682D01*
X3969Y4959D01*
Y8473D01*
X3869D01*
Y9979D01*
X5407D01*
Y13541D01*
X-320D01*
Y13541D01*
X-393D01*
X-713Y13861D01*
Y13861D01*
X-4766D01*
X-4957Y14323D01*
X-2540Y16739D01*
X-713D01*
Y17459D01*
X-320D01*
Y17459D01*
X5407D01*
Y21021D01*
X-320D01*
Y21021D01*
X-359D01*
X-713Y21375D01*
Y22861D01*
D02*
G37*
G36*
X-9625Y2960D02*
Y500D01*
X-7165D01*
X-7203Y783D01*
X-7505Y1513D01*
X-7986Y2140D01*
X-8612Y2620D01*
X-9342Y2923D01*
X-9625Y2960D01*
D02*
G37*
G36*
X6806Y8873D02*
X4732D01*
Y6700D01*
X6806D01*
Y8873D01*
D02*
G37*
G36*
X9881Y5700D02*
X7806D01*
Y3527D01*
X9881D01*
Y5700D01*
D02*
G37*
G36*
X140338Y9082D02*
X135201D01*
Y1976D01*
X135767D01*
X136003Y1535D01*
X135927Y1422D01*
X135783Y700D01*
X135927Y-22D01*
X136336Y-634D01*
X136948Y-1043D01*
X137669Y-1186D01*
X138391Y-1043D01*
X139003Y-634D01*
X139203Y-334D01*
X139267Y-353D01*
Y-353D01*
X139682Y-479D01*
Y-2285D01*
X141855D01*
Y-210D01*
X139769D01*
D01*
X139545Y62D01*
X139545D01*
X139451Y177D01*
X139556Y700D01*
X139412Y1422D01*
X139336Y1535D01*
X139572Y1976D01*
X140338D01*
Y9082D01*
D02*
G37*
G36*
X135043Y-210D02*
X132869D01*
Y-2285D01*
X135043D01*
Y-210D01*
D02*
G37*
G36*
X-10625Y2960D02*
X-10908Y2923D01*
X-11638Y2620D01*
X-12265Y2140D01*
X-12746Y1513D01*
X-13048Y783D01*
X-13085Y500D01*
X-10625D01*
Y2960D01*
D02*
G37*
G36*
X145028Y-210D02*
X142855D01*
Y-2285D01*
X145028D01*
Y-210D01*
D02*
G37*
G36*
X9881Y8873D02*
X7806D01*
Y6700D01*
X9881D01*
Y8873D01*
D02*
G37*
G36*
X19700Y22886D02*
X18978Y22743D01*
X18366Y22334D01*
X17957Y21722D01*
X17814Y21000D01*
X17792Y20973D01*
X15439D01*
Y19821D01*
X14659D01*
Y21021D01*
X8931D01*
Y17681D01*
X8531D01*
Y16000D01*
X11795D01*
Y15000D01*
X8531D01*
Y13319D01*
X8931D01*
Y9979D01*
X14659D01*
Y11206D01*
X18551Y15098D01*
X18838Y15528D01*
X18939Y16035D01*
Y16427D01*
X19788D01*
Y18930D01*
X20240Y19143D01*
X20550Y18889D01*
Y16027D01*
X22625D01*
Y18700D01*
Y21373D01*
X21512D01*
X21443Y21722D01*
X21034Y22334D01*
X20422Y22743D01*
X19700Y22886D01*
D02*
G37*
G36*
X25700Y21373D02*
X23625D01*
Y19200D01*
X25700D01*
Y21373D01*
D02*
G37*
G36*
X-7006Y23261D02*
X-9277D01*
Y20300D01*
X-7006D01*
Y23261D01*
D02*
G37*
G36*
X-10277D02*
X-12549D01*
Y20300D01*
X-10277D01*
Y23261D01*
D02*
G37*
G36*
X25700Y18200D02*
X23625D01*
Y16027D01*
X25700D01*
Y18200D01*
D02*
G37*
G36*
X107199Y17680D02*
X102475D01*
X101701Y17578D01*
X100981Y17280D01*
X100362Y16805D01*
X99887Y16186D01*
X99589Y15465D01*
X99487Y14692D01*
Y9968D01*
X99589Y9194D01*
X99887Y8474D01*
X100362Y7855D01*
X100981Y7380D01*
X101701Y7082D01*
X102475Y6980D01*
X107199D01*
X107973Y7082D01*
X108693Y7380D01*
X109312Y7855D01*
X109787Y8474D01*
X110085Y9194D01*
X110187Y9968D01*
Y14692D01*
X110085Y15465D01*
X109787Y16186D01*
X109312Y16805D01*
X108693Y17280D01*
X107973Y17578D01*
X107199Y17680D01*
D02*
G37*
G36*
X-7006Y19300D02*
X-9277D01*
Y16339D01*
X-7006D01*
Y19300D01*
D02*
G37*
G36*
X-10277D02*
X-12549D01*
Y16339D01*
X-10277D01*
Y19300D01*
D02*
G37*
G36*
X7693Y-8920D02*
X4240D01*
Y-11389D01*
X7693D01*
Y-8920D01*
D02*
G37*
G36*
X92843Y-8125D02*
X90669D01*
Y-10200D01*
X92843D01*
Y-8125D01*
D02*
G37*
G36*
X-6487Y-3761D02*
X-10836D01*
Y-8898D01*
X-6487D01*
Y-3761D01*
D02*
G37*
G36*
X83495Y-8125D02*
X81321D01*
Y-10200D01*
X83495D01*
Y-8125D01*
D02*
G37*
G36*
X89669D02*
X87496D01*
Y-10200D01*
X89669D01*
Y-8125D01*
D02*
G37*
G36*
X74569D02*
X72396D01*
Y-10200D01*
X74569D01*
Y-8125D01*
D02*
G37*
G36*
X26769Y13384D02*
X25027Y13247D01*
X23329Y12839D01*
X21714Y12171D01*
X20225Y11258D01*
X18896Y10123D01*
X17761Y8795D01*
X16849Y7305D01*
X16180Y5691D01*
X15772Y3992D01*
X15635Y2250D01*
X15772Y508D01*
X16180Y-1191D01*
X16849Y-2805D01*
X17761Y-4295D01*
X18896Y-5623D01*
X20225Y-6758D01*
X21714Y-7671D01*
X23329Y-8339D01*
X25027Y-8747D01*
X26769Y-8884D01*
X28511Y-8747D01*
X30210Y-8339D01*
X31824Y-7671D01*
X33314Y-6758D01*
X34642Y-5623D01*
X35777Y-4295D01*
X36690Y-2805D01*
X37359Y-1191D01*
X37767Y508D01*
X37904Y2250D01*
X37767Y3992D01*
X37359Y5691D01*
X36690Y7305D01*
X35777Y8795D01*
X34642Y10123D01*
X33314Y11258D01*
X31824Y12171D01*
X30210Y12839D01*
X28511Y13247D01*
X26769Y13384D01*
D02*
G37*
G36*
X-10625Y-500D02*
X-13085D01*
X-13048Y-783D01*
X-12746Y-1513D01*
X-12265Y-2140D01*
X-11638Y-2620D01*
X-10908Y-2923D01*
X-10625Y-2960D01*
Y-500D01*
D02*
G37*
G36*
X-7165D02*
X-9625D01*
Y-2960D01*
X-9342Y-2923D01*
X-8612Y-2620D01*
X-7986Y-2140D01*
X-7505Y-1513D01*
X-7203Y-783D01*
X-7165Y-500D01*
D02*
G37*
G36*
X7693Y-12389D02*
X4240D01*
Y-14857D01*
X7693D01*
Y-12389D01*
D02*
G37*
G36*
X83495Y-11200D02*
X81321D01*
Y-13275D01*
X83495D01*
Y-11200D01*
D02*
G37*
G36*
X2175Y-3761D02*
X-2175D01*
Y-8898D01*
X-213D01*
Y-8898D01*
Y-8920D01*
X-213Y-9252D01*
X-213Y-9252D01*
X-213D01*
Y-11389D01*
X3240D01*
Y-8920D01*
X2197D01*
X2175Y-8898D01*
X2175Y-8567D01*
X2175Y-8567D01*
X2175D01*
Y-3761D01*
D02*
G37*
G36*
X135043Y-3285D02*
X132869D01*
Y-5359D01*
X135043D01*
Y-3285D01*
D02*
G37*
%LPD*%
G36*
X55162Y-16471D02*
X54980Y-16611D01*
X54443Y-17311D01*
X54106Y-18125D01*
X53990Y-19000D01*
X54106Y-19874D01*
X54443Y-20689D01*
X54980Y-21389D01*
X55680Y-21926D01*
X56495Y-22264D01*
X57369Y-22379D01*
X58244Y-22264D01*
X59016Y-21944D01*
X60102Y-23030D01*
Y-26309D01*
X59653Y-26530D01*
X59059Y-26074D01*
X58244Y-25736D01*
X57369Y-25621D01*
X56495Y-25736D01*
X55680Y-26074D01*
X54980Y-26611D01*
X54443Y-27310D01*
X54106Y-28126D01*
X53990Y-29000D01*
X54093Y-29779D01*
X53748Y-30141D01*
X50994Y-29905D01*
X50680Y-29516D01*
X50748Y-29000D01*
X50633Y-28126D01*
X50296Y-27310D01*
X49758Y-26611D01*
X49059Y-26074D01*
X48244Y-25736D01*
X47369Y-25621D01*
X46495Y-25736D01*
X45723Y-26056D01*
X44230Y-24563D01*
X43933Y-24364D01*
X43819Y-24342D01*
X43720Y-23848D01*
X44018Y-23649D01*
X44018Y-23649D01*
X44018Y-23649D01*
X45723Y-21944D01*
X46495Y-22264D01*
X47369Y-22379D01*
X48244Y-22264D01*
X49059Y-21926D01*
X49758Y-21389D01*
X50296Y-20689D01*
X50633Y-19874D01*
X50748Y-19000D01*
X50633Y-18125D01*
X50296Y-17311D01*
X49758Y-16611D01*
X49576Y-16471D01*
X49737Y-15997D01*
X55002D01*
X55162Y-16471D01*
D02*
G37*
G36*
X65162D02*
X64980Y-16611D01*
X64443Y-17311D01*
X64105Y-18125D01*
X63990Y-19000D01*
X64105Y-19874D01*
X64443Y-20689D01*
X64980Y-21389D01*
X65680Y-21926D01*
X66495Y-22264D01*
X67369Y-22379D01*
X68244Y-22264D01*
X69016Y-21944D01*
X70102Y-23030D01*
Y-26309D01*
X69653Y-26530D01*
X69059Y-26074D01*
X68244Y-25736D01*
X67369Y-25621D01*
X66495Y-25736D01*
X65680Y-26074D01*
X64980Y-26611D01*
X64443Y-27310D01*
X64105Y-28126D01*
X63990Y-29000D01*
X64105Y-29875D01*
X64152Y-29988D01*
X61720Y-32420D01*
X61522Y-32717D01*
X61452Y-33069D01*
Y-35020D01*
X51989Y-44482D01*
X33769D01*
X33418Y-44552D01*
X33120Y-44751D01*
X25892Y-51979D01*
X25070Y-51639D01*
X24169Y-51520D01*
X23951Y-51078D01*
X35712Y-39318D01*
X47683D01*
X48034Y-39248D01*
X48332Y-39049D01*
X48332Y-39049D01*
X48332Y-39049D01*
X53813Y-33568D01*
X58881D01*
X59232Y-33498D01*
X59530Y-33299D01*
X61668Y-31161D01*
X61867Y-30863D01*
X61879Y-30805D01*
X61937Y-30512D01*
Y-22650D01*
X61867Y-22299D01*
X61668Y-22001D01*
X60313Y-20646D01*
X60633Y-19874D01*
X60748Y-19000D01*
X60633Y-18125D01*
X60295Y-17311D01*
X59759Y-16611D01*
X59576Y-16471D01*
X59737Y-15997D01*
X65002D01*
X65162Y-16471D01*
D02*
G37*
G36*
X65680Y-31926D02*
X66495Y-32264D01*
X67238Y-32362D01*
X67398Y-32835D01*
X66820Y-33413D01*
X66622Y-33711D01*
X66552Y-34062D01*
Y-34320D01*
X54789Y-46082D01*
X53638D01*
X53447Y-45620D01*
X63018Y-36049D01*
X63217Y-35751D01*
X63287Y-35400D01*
Y-33449D01*
X65187Y-31548D01*
X65680Y-31926D01*
D02*
G37*
G36*
X76495Y-32264D02*
X77238Y-32362D01*
X77398Y-32835D01*
X76820Y-33413D01*
X76622Y-33711D01*
X76552Y-34062D01*
Y-40411D01*
X57184Y-59779D01*
X56644D01*
X56453Y-59317D01*
X64404Y-51366D01*
X64603Y-51068D01*
X64673Y-50717D01*
Y-43880D01*
X76318Y-32235D01*
X76341Y-32200D01*
X76495Y-32264D01*
D02*
G37*
G36*
X75162Y-16471D02*
X74980Y-16611D01*
X74443Y-17311D01*
X74106Y-18125D01*
X73990Y-19000D01*
X74106Y-19874D01*
X74443Y-20689D01*
X74980Y-21389D01*
X75680Y-21926D01*
X76495Y-22264D01*
X77369Y-22379D01*
X78244Y-22264D01*
X79016Y-21944D01*
X80102Y-23030D01*
Y-26309D01*
X79653Y-26530D01*
X79059Y-26074D01*
X78244Y-25736D01*
X77369Y-25621D01*
X76495Y-25736D01*
X75680Y-26074D01*
X74980Y-26611D01*
X74443Y-27310D01*
X74106Y-28126D01*
X73990Y-29000D01*
X74106Y-29875D01*
X74443Y-30689D01*
X74800Y-31155D01*
X74800Y-31158D01*
X63107Y-42851D01*
X62908Y-43149D01*
X62838Y-43500D01*
Y-50337D01*
X58110Y-55065D01*
X57636Y-54904D01*
X57530Y-54099D01*
X57183Y-53260D01*
X56630Y-52539D01*
X55909Y-51986D01*
X55070Y-51639D01*
X54169Y-51520D01*
X53269Y-51639D01*
X52429Y-51986D01*
X51709Y-52539D01*
X51156Y-53260D01*
X50808Y-54099D01*
X50690Y-55000D01*
X50808Y-55901D01*
X51156Y-56740D01*
X51650Y-57384D01*
X51429Y-57832D01*
X47414D01*
X47193Y-57384D01*
X47532Y-56942D01*
X47920Y-56005D01*
X47987Y-55500D01*
X40352D01*
X40418Y-56005D01*
X40806Y-56942D01*
X41146Y-57384D01*
X40925Y-57832D01*
X38299D01*
X37190Y-56723D01*
X37530Y-55901D01*
X37649Y-55000D01*
X37530Y-54099D01*
X37183Y-53260D01*
X36630Y-52539D01*
X35909Y-51986D01*
X35070Y-51639D01*
X34265Y-51533D01*
X34104Y-51059D01*
X37246Y-47918D01*
X55169D01*
X55520Y-47848D01*
X55818Y-47649D01*
X68118Y-35349D01*
X68317Y-35051D01*
X68387Y-34700D01*
X68387Y-34700D01*
D01*
X71668Y-31161D01*
D01*
X71668Y-31161D01*
X71668D01*
X71867Y-30863D01*
X71937Y-30512D01*
Y-22650D01*
X71867Y-22299D01*
X71668Y-22001D01*
X70313Y-20646D01*
X70633Y-19874D01*
X70748Y-19000D01*
X70633Y-18125D01*
X70296Y-17311D01*
X69758Y-16611D01*
X69576Y-16471D01*
X69737Y-15997D01*
X75002D01*
X75162Y-16471D01*
D02*
G37*
%LPC*%
G36*
X44669Y-51183D02*
Y-54500D01*
X47987D01*
X47920Y-53995D01*
X47532Y-53058D01*
X46915Y-52254D01*
X46111Y-51637D01*
X45174Y-51249D01*
X44669Y-51183D01*
D02*
G37*
G36*
X43669D02*
X43164Y-51249D01*
X42228Y-51637D01*
X41423Y-52254D01*
X40806Y-53058D01*
X40418Y-53995D01*
X40352Y-54500D01*
X43669D01*
Y-51183D01*
D02*
G37*
%LPD*%
D10*
X132369Y-2785D02*
D03*
Y-8297D02*
D03*
X142355Y-2785D02*
D03*
Y-8297D02*
D03*
X125569Y-24137D02*
D03*
Y-18625D02*
D03*
X90169Y-5188D02*
D03*
Y-10700D02*
D03*
X75069Y-5188D02*
D03*
Y-10700D02*
D03*
X80821Y-5188D02*
D03*
Y-10700D02*
D03*
X79464Y-56647D02*
D03*
Y-62553D02*
D03*
X73525Y-62556D02*
D03*
Y-57044D02*
D03*
D11*
X1795Y6200D02*
D03*
X7306D02*
D03*
X23125Y18700D02*
D03*
X17613D02*
D03*
D12*
X155139Y17931D02*
D03*
Y9269D02*
D03*
X126399D02*
D03*
Y17931D02*
D03*
D13*
X137769Y5529D02*
D03*
X131864D02*
D03*
X149580D02*
D03*
D14*
X-8661Y-6330D02*
D03*
X0D02*
D03*
Y-35070D02*
D03*
X-8661D02*
D03*
D15*
X3740Y-23700D02*
D03*
Y-29605D02*
D03*
Y-11889D02*
D03*
D16*
X141895Y-12660D02*
D03*
Y-20140D02*
D03*
X132643D02*
D03*
Y-16400D02*
D03*
Y-12660D02*
D03*
X11795Y11760D02*
D03*
Y15500D02*
D03*
Y19240D02*
D03*
X2543D02*
D03*
Y11760D02*
D03*
D17*
X96569Y1700D02*
D03*
X94601D02*
D03*
X92632D02*
D03*
X90664D02*
D03*
X88695D02*
D03*
X86727D02*
D03*
X84758D02*
D03*
X82790D02*
D03*
X80821D02*
D03*
X78853D02*
D03*
X76884D02*
D03*
X74916D02*
D03*
X72947D02*
D03*
X70979D02*
D03*
X69010D02*
D03*
X67042D02*
D03*
X65073D02*
D03*
X63105D02*
D03*
X61136D02*
D03*
X59168D02*
D03*
X57199D02*
D03*
X55231D02*
D03*
X53262D02*
D03*
X51294D02*
D03*
D18*
X104837Y12330D02*
D03*
X43027D02*
D03*
D19*
X148323Y-11659D02*
D03*
X155016D02*
D03*
X-3084Y10800D02*
D03*
X-9777D02*
D03*
X148123Y-20600D02*
D03*
X154816D02*
D03*
X-3084Y19800D02*
D03*
X-9777D02*
D03*
D20*
X43369Y-23000D02*
X47369Y-19000D01*
X24369Y-23000D02*
X43369D01*
X419Y-46950D02*
X24369Y-23000D01*
X73525Y-62556D02*
X76169Y-65200D01*
X83600D01*
X88500Y-60300D01*
X113800D01*
X79429Y13200D02*
X84269D01*
X75869Y-2600D02*
X76669Y-1800D01*
Y1485D02*
X76884Y1700D01*
X76669Y-1800D02*
Y1485D01*
X103654Y3479D02*
X103924Y3750D01*
X100102Y-38100D02*
X109850Y-47848D01*
X67042Y3372D02*
X67410Y3741D01*
X79732Y10400D02*
X80369Y9762D01*
X79669Y10400D02*
X79732D01*
X76631Y7362D02*
X79669Y10400D01*
X80821Y1700D02*
Y3784D01*
X84819Y6309D02*
Y6553D01*
X83560Y5050D02*
X84819Y6309D01*
X80302Y4962D02*
X82540Y7200D01*
X85236Y2178D02*
Y4262D01*
X82540Y7200D02*
X82669D01*
Y6900D02*
Y7200D01*
X74916Y1700D02*
X75394Y2178D01*
X73425Y2178D02*
Y4262D01*
X92632Y1700D02*
X93001Y1331D01*
X72947Y1700D02*
X73425Y2178D01*
X84758Y1700D02*
X85236Y2178D01*
X60658D02*
Y5641D01*
X61318Y6300D01*
Y8081D01*
X60058Y9341D02*
X61318Y8081D01*
X60658Y2178D02*
X61136Y1700D01*
X55169Y-47000D02*
X67469Y-34700D01*
X95969Y-34500D02*
X104969D01*
X91019Y-29550D02*
X95969Y-34500D01*
X91019Y-29550D02*
Y-25538D01*
X89069Y-23588D02*
X91019Y-25538D01*
X89069Y-23588D02*
Y-21200D01*
X87369Y-30900D02*
X94569Y-38100D01*
X87369Y-30900D02*
Y-29000D01*
X94569Y-38100D02*
X100102D01*
X63755Y-43500D02*
X75669Y-31586D01*
Y-31400D01*
X77469Y-34062D02*
X81019Y-30512D01*
Y-22650D01*
X77369Y-19000D02*
X81019Y-22650D01*
X77469Y-40791D02*
Y-34062D01*
X66438Y-29000D02*
X67369D01*
X62369Y-33069D02*
X66438Y-29000D01*
X62369Y-35400D02*
Y-33069D01*
X67469Y-34700D02*
Y-34062D01*
X71019Y-30512D01*
Y-22650D01*
X67369Y-19000D02*
X71019Y-22650D01*
X53433Y-32650D02*
X58881D01*
X61019Y-30512D01*
X57369Y-19000D02*
X61019Y-22650D01*
Y-30512D02*
Y-22650D01*
X52369Y-45400D02*
X62369Y-35400D01*
X55231Y-4900D02*
X57199Y-2932D01*
X43581Y-25212D02*
X47369Y-29000D01*
X50469Y9600D02*
X50729Y9341D01*
X60058D01*
X57199Y-2932D02*
Y1700D01*
X63105Y-1064D02*
Y1700D01*
Y-1064D02*
X65869Y-3828D01*
X67042Y-872D02*
X68969Y-2800D01*
X67042Y-872D02*
Y1700D01*
X70979Y-1709D02*
Y1700D01*
Y-1709D02*
X71546Y-2277D01*
Y-4607D02*
Y-2277D01*
X78591Y6162D02*
X82191Y9762D01*
X80821Y3784D02*
X82087Y5050D01*
X83560D01*
X84819Y6553D02*
X86829Y8562D01*
X82191Y9762D02*
X88131D01*
X89469Y11100D01*
X88969Y11600D02*
X89469Y11100D01*
X94619Y10550D02*
X94969Y10900D01*
X86727Y1700D02*
Y3784D01*
X91431Y6162D02*
X92469Y7200D01*
X86727Y3784D02*
X89105Y6162D01*
X91431D01*
X85236Y4262D02*
X88336Y7362D01*
X94710Y8000D02*
X97169D01*
X88336Y7362D02*
X89591D01*
X93360Y9350D02*
X94710Y8000D01*
X25857Y-25350D02*
X30231D01*
X30369Y-25212D01*
X43581D01*
X3740Y-29605D02*
X8264D01*
X8569Y-29300D01*
X3740Y-23700D02*
X7669D01*
X8469Y-22900D01*
X8569Y-29300D02*
X22790Y-15080D01*
X99510Y-3200D02*
X104769D01*
X86829Y8562D02*
X89094D01*
X91082Y10550D01*
X94619D01*
X89591Y7362D02*
X91579Y9350D01*
X93360D01*
X89873Y4962D02*
X100096D01*
X95579Y-5350D02*
X97360D01*
X99510Y-3200D01*
X100096Y4962D02*
X101579Y3479D01*
X103654D01*
X93001Y-2772D02*
Y1331D01*
Y-2772D02*
X95579Y-5350D01*
X55369Y1839D02*
Y6309D01*
X55231Y1700D02*
X55369Y1839D01*
X59168Y-1998D02*
Y1700D01*
Y-1998D02*
X60069Y-2900D01*
X22790Y-15080D02*
X91589D01*
X92269Y-14400D01*
X37919Y-58750D02*
X55723D01*
X63755Y-50717D01*
X34169Y-55000D02*
X37919Y-58750D01*
X63755Y-50717D02*
Y-43500D01*
X30419Y-58750D02*
Y-53447D01*
X24169Y-65000D02*
X30419Y-58750D01*
Y-53447D02*
X36866Y-47000D01*
X55169D01*
X33769Y-45400D02*
X52369D01*
X24169Y-55000D02*
X33769Y-45400D01*
X14169Y-65000D02*
X17919Y-61250D01*
X47683Y-38400D02*
X53433Y-32650D01*
X35332Y-38400D02*
X47683D01*
X17919Y-61250D02*
Y-55813D01*
X35332Y-38400D01*
X419Y-58750D02*
X4169Y-62500D01*
Y-55000D02*
Y-47038D01*
X25857Y-25350D01*
X419Y-58750D02*
Y-46950D01*
X124169Y-55000D02*
Y-53700D01*
X104969Y-34500D02*
X124169Y-53700D01*
X138331Y-21860D02*
Y-19400D01*
X138732Y-19000D01*
Y-18059D01*
X141895Y-14895D01*
Y-12660D01*
X142972Y-26500D02*
X146117D01*
X138331Y-21860D02*
X142972Y-26500D01*
X109850Y-47848D02*
X113817D01*
X34169Y-65000D02*
X38472Y-60697D01*
X57564D01*
X77469Y-40791D01*
X73525Y-57044D02*
X79067D01*
X79464Y-56647D01*
Y-62553D02*
X82666D01*
X82669Y-62556D01*
X14169Y-55000D02*
X32819Y-36350D01*
X45588D01*
X50838Y-31100D01*
X55269D02*
X57369Y-29000D01*
X50838Y-31100D02*
X55269D01*
X150682Y-35100D02*
Y-31265D01*
X146117Y-26500D02*
X150682Y-31065D01*
X118146Y-58976D02*
X124169Y-65000D01*
X118146Y-58976D02*
Y-52176D01*
X113817Y-47848D02*
X118146Y-52176D01*
X88695Y1700D02*
Y3784D01*
X89873Y4962D01*
X96569Y1700D02*
X100269D01*
X155016Y-13707D02*
Y-11659D01*
X142896D02*
X148323D01*
X141895Y-12660D02*
X142896Y-11659D01*
X142355Y-20600D02*
X148123D01*
X141895Y-20140D02*
X142355Y-20600D01*
X154816D02*
Y-16893D01*
X155139Y-16569D01*
X154249Y-14419D02*
X154304D01*
X155016Y-13707D01*
X148123Y-20600D02*
Y-20545D01*
X154249Y-14419D01*
X-3084Y19800D02*
X1983D01*
X2543Y19240D01*
X-3084Y17493D02*
Y19800D01*
X-9777Y10800D02*
X-3084Y17493D01*
X65073Y1700D02*
Y4274D01*
X75394Y2178D02*
Y4262D01*
X76094Y4962D01*
X80302D01*
X73425Y4262D02*
X74913Y5750D01*
X75185D01*
X75597Y6162D01*
X78591D01*
X70979Y4098D02*
X73831Y6950D01*
X74688D01*
X75100Y7362D01*
X76631D01*
X77519Y11291D02*
X79429Y13200D01*
X65073Y4274D02*
X69362Y8562D01*
X74831D01*
X77519Y11250D01*
Y11291D01*
D21*
X11335Y18700D02*
X17613D01*
X137669Y700D02*
Y5429D01*
X137769Y5529D01*
X136461Y17456D02*
X148617Y5300D01*
X149369D01*
X133613Y17456D02*
X136461D01*
X131669Y19400D02*
X133613Y17456D01*
X10795Y19240D02*
X11335Y18700D01*
X7399Y-370D02*
X19329Y-12300D01*
X86869Y-5244D02*
X89969D01*
X77198Y-13375D02*
X77842Y-12730D01*
Y-11005D02*
X78048Y-10800D01*
X19329Y-12300D02*
X69846D01*
X70921Y-13375D01*
X77198D01*
X78048Y-10800D02*
Y-7961D01*
X77842Y-12730D02*
Y-11005D01*
X78048Y-7961D02*
X80821Y-5188D01*
X125569Y-24137D02*
Y-24073D01*
X122232Y-24137D02*
X125569D01*
X117369Y-29000D02*
X122232Y-24137D01*
X122519Y-21023D02*
Y-14547D01*
Y-21023D02*
X125569Y-24073D01*
X90169Y-5244D02*
X90664Y-4750D01*
X89969Y-5244D02*
X90169Y-5444D01*
X122232Y-14259D02*
X122519Y-14547D01*
X122232Y-14259D02*
Y-2537D01*
X125469Y700D01*
D22*
X19700Y20787D02*
Y21000D01*
X17613Y18700D02*
X19700Y20787D01*
X-9677Y18800D02*
Y19800D01*
X-9777Y15643D02*
X-9600Y15465D01*
X-9777Y15643D02*
Y19800D01*
X128350Y12700D02*
X129668Y11383D01*
X125269Y12700D02*
X128350D01*
X131469Y3900D02*
Y6500D01*
X132069Y5900D01*
X129668Y8302D02*
X131469Y6500D01*
X129668Y8302D02*
Y11383D01*
X141895Y-12660D02*
Y-8926D01*
X130950Y-18881D02*
X131869Y-19800D01*
X129841Y-18881D02*
X130950D01*
X129079Y-18120D02*
X129841Y-18881D01*
X129079Y-18120D02*
Y-14680D01*
X90069Y-10756D02*
X90169D01*
X80569Y-10556D02*
X80767Y-10754D01*
X80821Y-10700D02*
X83729D01*
X83769Y-10660D01*
X71669Y-10800D02*
X71725Y-10856D01*
X74969D01*
X69010Y5170D02*
X69469Y5629D01*
X69010Y1700D02*
Y5170D01*
X87669Y-12900D02*
X89813Y-10756D01*
X90069D01*
X90969Y-9856D01*
X7125Y7191D02*
X10060D01*
X10369Y7500D01*
X23125Y18700D02*
X26346D01*
X26469Y18577D01*
X3740Y-11889D02*
X8080D01*
X8169Y-11800D01*
X1613Y5415D02*
X7399Y-370D01*
X78853Y-950D02*
Y1700D01*
X94601Y-1331D02*
Y1700D01*
Y-1331D02*
X96469Y-3200D01*
X80821Y-5188D02*
Y-2918D01*
X78853Y-950D02*
X80821Y-2918D01*
X82790Y-1400D02*
Y1700D01*
Y-1400D02*
X83902Y-2512D01*
X85102D01*
X119769Y18200D02*
Y20700D01*
Y18200D02*
X125269Y12700D01*
X132643Y-16400D02*
X136469D01*
X136569Y-16500D01*
X132643Y-20140D02*
X133309D01*
X144169Y-62500D02*
Y-55000D01*
X144869Y-54300D01*
Y-31700D01*
X133309Y-20140D02*
X144869Y-31700D01*
X11795Y11760D02*
X13339D01*
X17613Y16035D01*
Y18700D01*
X6769Y15500D02*
X11795D01*
X2543Y7630D02*
Y11760D01*
X1613Y6700D02*
X2543Y7630D01*
X783Y11000D02*
X1543Y11760D01*
X2543D01*
X-3484Y11000D02*
X783D01*
X124869Y-17925D02*
X125569Y-18625D01*
X124869Y-17925D02*
Y-15520D01*
X90169Y-5188D02*
X90586Y-4772D01*
Y1622D01*
X90664Y1700D01*
X128350Y781D02*
X131469Y3900D01*
X131100Y-12660D02*
X132643D01*
X129079Y-14680D02*
X131100Y-12660D01*
X132369Y-12386D02*
Y-8297D01*
Y-12386D02*
X132643Y-12660D01*
X129347Y-8297D02*
X132369D01*
X128350Y-7300D02*
X129347Y-8297D01*
X128350Y-7300D02*
Y781D01*
X132369Y-2785D02*
X135431D01*
X135987Y-3340D01*
X142355Y-8297D02*
X149580Y-1071D01*
Y5529D01*
X142355Y-2785D02*
Y700D01*
X0Y0D02*
Y5087D01*
X1613Y6700D01*
D23*
X27369Y-19000D02*
D03*
Y-29000D02*
D03*
X117369Y-19000D02*
D03*
X107369Y-29000D02*
D03*
Y-19000D02*
D03*
X97369Y-29000D02*
D03*
Y-19000D02*
D03*
X87369Y-29000D02*
D03*
Y-19000D02*
D03*
X77369Y-29000D02*
D03*
Y-19000D02*
D03*
X67369Y-29000D02*
D03*
Y-19000D02*
D03*
X57369Y-29000D02*
D03*
Y-19000D02*
D03*
X47369Y-29000D02*
D03*
Y-19000D02*
D03*
X37369Y-29000D02*
D03*
Y-19000D02*
D03*
D24*
X117369Y-29000D02*
D03*
D25*
X4169Y-55000D02*
D03*
X94169D02*
D03*
D26*
X14169D02*
D03*
X24169D02*
D03*
X34169D02*
D03*
X44169D02*
D03*
X54169D02*
D03*
X4169Y-65000D02*
D03*
X14169D02*
D03*
X24169D02*
D03*
X34169D02*
D03*
X44169D02*
D03*
X54169D02*
D03*
X104169Y-55000D02*
D03*
X114169D02*
D03*
X124169D02*
D03*
X134169D02*
D03*
X144169D02*
D03*
X94169Y-65000D02*
D03*
X104169D02*
D03*
X114169D02*
D03*
X124169D02*
D03*
X134169D02*
D03*
X144169D02*
D03*
D27*
X134864Y13600D02*
D03*
X-4331Y-26605D02*
D03*
D28*
X146675Y13600D02*
D03*
X-4331Y-14795D02*
D03*
D29*
X132369Y-39000D02*
D03*
X26769Y2250D02*
D03*
D30*
X150682Y-45100D02*
D03*
X-10125Y0D02*
D03*
X0D02*
D03*
X150682Y-35100D02*
D03*
D31*
X19700Y21000D02*
D03*
X113800Y-60300D02*
D03*
X-9600Y15465D02*
D03*
X125469Y700D02*
D03*
X137669D02*
D03*
X131669Y19400D02*
D03*
X71669Y-10800D02*
D03*
X79669Y10400D02*
D03*
X69469Y5629D02*
D03*
X92269Y-14400D02*
D03*
X55231Y-4900D02*
D03*
X50469Y9600D02*
D03*
X65869Y-3828D02*
D03*
X71546Y-4607D02*
D03*
X82669Y7200D02*
D03*
X94969Y10900D02*
D03*
X103654Y3479D02*
D03*
X10369Y7500D02*
D03*
X6769Y15500D02*
D03*
X26469Y18577D02*
D03*
X119769Y20700D02*
D03*
X8169Y-11800D02*
D03*
X8569Y-29300D02*
D03*
X8469Y-22900D02*
D03*
X68969Y-2800D02*
D03*
X75869Y-2600D02*
D03*
X87669Y-12900D02*
D03*
X83769Y-10660D02*
D03*
X84269Y13200D02*
D03*
X88969Y11600D02*
D03*
X92469Y7200D02*
D03*
X97169Y8000D02*
D03*
X104769Y-3200D02*
D03*
X100269Y1700D02*
D03*
X96469Y-3200D02*
D03*
X85102Y-2512D02*
D03*
X86869Y-5244D02*
D03*
X55369Y6309D02*
D03*
X60069Y-2900D02*
D03*
X136569Y-16500D02*
D03*
X82669Y-62556D02*
D03*
X124869Y-15520D02*
D03*
X135987Y-3340D02*
D03*
X142355Y700D02*
D03*
X155139Y-16569D02*
D03*
D32*
X153302Y-479D02*
D03*
X144759Y-16257D02*
D03*
X143569Y5100D02*
D03*
X119557Y300D02*
D03*
X104837Y12330D02*
D03*
X43027D02*
D03*
X105112Y-38100D02*
D03*
X64734Y-33886D02*
D03*
X63158Y14400D02*
D03*
X115212Y11019D02*
D03*
X107199Y-10386D02*
D03*
X95070Y-46901D02*
D03*
X69362Y-43420D02*
D03*
X84352Y-51100D02*
D03*
X42069Y2800D02*
D03*
X38959Y-42350D02*
D03*
X55520Y-37004D02*
D03*
X84352Y-39318D02*
D03*
X55520Y-24280D02*
D03*
X115369Y-39000D02*
D03*
X109569Y-24551D02*
D03*
X65187Y-64099D02*
D03*
X-4331Y-60697D02*
D03*
X23413Y-36350D02*
D03*
X41383Y-7791D02*
D03*
X11083Y-16611D02*
D03*
X151600Y-60000D02*
D03*
X11783Y-49900D02*
D03*
X97149Y14323D02*
D03*
X111269Y2445D02*
D03*
X62908Y-7928D02*
D03*
X58881Y-48300D02*
D03*
M02*
