%FSLAX25Y25*%
%MOIN*%
G70*
G01*
G75*
G04 Layer_Color=8421504*
%ADD10R,0.03347X0.03150*%
%ADD11R,0.03150X0.03347*%
%ADD12R,0.03937X0.03150*%
%ADD13R,0.03937X0.05906*%
%ADD14R,0.03150X0.03937*%
%ADD15R,0.05906X0.03937*%
%ADD16R,0.04528X0.02362*%
G04:AMPARAMS|DCode=17|XSize=11.81mil|YSize=47.24mil|CornerRadius=2.95mil|HoleSize=0mil|Usage=FLASHONLY|Rotation=180.000|XOffset=0mil|YOffset=0mil|HoleType=Round|Shape=RoundedRectangle|*
%AMROUNDEDRECTD17*
21,1,0.01181,0.04134,0,0,180.0*
21,1,0.00591,0.04724,0,0,180.0*
1,1,0.00591,-0.00295,0.02067*
1,1,0.00591,0.00295,0.02067*
1,1,0.00591,0.00295,-0.02067*
1,1,0.00591,-0.00295,-0.02067*
%
%ADD17ROUNDEDRECTD17*%
G04:AMPARAMS|DCode=18|XSize=94.49mil|YSize=94.49mil|CornerRadius=23.62mil|HoleSize=0mil|Usage=FLASHONLY|Rotation=180.000|XOffset=0mil|YOffset=0mil|HoleType=Round|Shape=RoundedRectangle|*
%AMROUNDEDRECTD18*
21,1,0.09449,0.04724,0,0,180.0*
21,1,0.04724,0.09449,0,0,180.0*
1,1,0.04724,-0.02362,0.02362*
1,1,0.04724,0.02362,0.02362*
1,1,0.04724,0.02362,-0.02362*
1,1,0.04724,-0.02362,-0.02362*
%
%ADD18ROUNDEDRECTD18*%
%ADD19R,0.03543X0.04921*%
%ADD20C,0.00600*%
%ADD21C,0.01000*%
%ADD22C,0.01400*%
%ADD23C,0.05500*%
%ADD24R,0.05500X0.05500*%
%ADD25R,0.05700X0.05700*%
%ADD26C,0.05700*%
%ADD27C,0.05512*%
%ADD28C,0.05906*%
%ADD29C,0.21000*%
%ADD30C,0.04000*%
%ADD31C,0.02500*%
%ADD32C,0.02700*%
%ADD33C,0.00984*%
%ADD34C,0.01969*%
%ADD35C,0.04000*%
%ADD36C,0.00787*%
%ADD37C,0.01200*%
%ADD38C,0.00591*%
%ADD39C,0.00100*%
D10*
X132369Y-2785D02*
D03*
Y-8297D02*
D03*
X142355Y-2785D02*
D03*
Y-8297D02*
D03*
X125569Y-24137D02*
D03*
Y-18625D02*
D03*
X90169Y-5188D02*
D03*
Y-10700D02*
D03*
X75069Y-5188D02*
D03*
Y-10700D02*
D03*
X80821Y-5188D02*
D03*
Y-10700D02*
D03*
X79464Y-56647D02*
D03*
Y-62553D02*
D03*
X73525Y-62556D02*
D03*
Y-57044D02*
D03*
D11*
X1795Y6200D02*
D03*
X7306D02*
D03*
X23125Y18700D02*
D03*
X17613D02*
D03*
D12*
X155139Y17931D02*
D03*
Y9269D02*
D03*
X126399D02*
D03*
Y17931D02*
D03*
D13*
X137769Y5529D02*
D03*
X131864D02*
D03*
X149580D02*
D03*
D14*
X-8661Y-6330D02*
D03*
X0D02*
D03*
Y-35070D02*
D03*
X-8661D02*
D03*
D15*
X3740Y-23700D02*
D03*
Y-29605D02*
D03*
Y-11889D02*
D03*
D16*
X141895Y-12660D02*
D03*
Y-20140D02*
D03*
X132643D02*
D03*
Y-16400D02*
D03*
Y-12660D02*
D03*
X11795Y11760D02*
D03*
Y15500D02*
D03*
Y19240D02*
D03*
X2543D02*
D03*
Y11760D02*
D03*
D17*
X96569Y1700D02*
D03*
X94601D02*
D03*
X92632D02*
D03*
X90664D02*
D03*
X88695D02*
D03*
X86727D02*
D03*
X84758D02*
D03*
X82790D02*
D03*
X80821D02*
D03*
X78853D02*
D03*
X76884D02*
D03*
X74916D02*
D03*
X72947D02*
D03*
X70979D02*
D03*
X69010D02*
D03*
X67042D02*
D03*
X65073D02*
D03*
X63105D02*
D03*
X61136D02*
D03*
X59168D02*
D03*
X57199D02*
D03*
X55231D02*
D03*
X53262D02*
D03*
X51294D02*
D03*
D18*
X104837Y12330D02*
D03*
X43027D02*
D03*
D19*
X148323Y-11659D02*
D03*
X155016D02*
D03*
X-3084Y10800D02*
D03*
X-9777D02*
D03*
X148123Y-20600D02*
D03*
X154816D02*
D03*
X-3084Y19800D02*
D03*
X-9777D02*
D03*
M02*
