%FSLAX25Y25*%
%MOIN*%
G70*
G01*
G75*
G04 Layer_Physical_Order=4*
G04 Layer_Color=16711680*
%ADD10R,0.03347X0.03150*%
%ADD11R,0.03150X0.03347*%
%ADD12R,0.03937X0.03150*%
%ADD13R,0.03937X0.05906*%
%ADD14R,0.03150X0.03937*%
%ADD15R,0.05906X0.03937*%
%ADD16R,0.04528X0.02362*%
G04:AMPARAMS|DCode=17|XSize=11.81mil|YSize=47.24mil|CornerRadius=2.95mil|HoleSize=0mil|Usage=FLASHONLY|Rotation=180.000|XOffset=0mil|YOffset=0mil|HoleType=Round|Shape=RoundedRectangle|*
%AMROUNDEDRECTD17*
21,1,0.01181,0.04134,0,0,180.0*
21,1,0.00591,0.04724,0,0,180.0*
1,1,0.00591,-0.00295,0.02067*
1,1,0.00591,0.00295,0.02067*
1,1,0.00591,0.00295,-0.02067*
1,1,0.00591,-0.00295,-0.02067*
%
%ADD17ROUNDEDRECTD17*%
G04:AMPARAMS|DCode=18|XSize=94.49mil|YSize=94.49mil|CornerRadius=23.62mil|HoleSize=0mil|Usage=FLASHONLY|Rotation=180.000|XOffset=0mil|YOffset=0mil|HoleType=Round|Shape=RoundedRectangle|*
%AMROUNDEDRECTD18*
21,1,0.09449,0.04724,0,0,180.0*
21,1,0.04724,0.09449,0,0,180.0*
1,1,0.04724,-0.02362,0.02362*
1,1,0.04724,0.02362,0.02362*
1,1,0.04724,0.02362,-0.02362*
1,1,0.04724,-0.02362,-0.02362*
%
%ADD18ROUNDEDRECTD18*%
%ADD19R,0.03543X0.04921*%
%ADD20C,0.00600*%
%ADD21C,0.01000*%
%ADD22C,0.01400*%
%ADD23C,0.05500*%
%ADD24R,0.05500X0.05500*%
%ADD25R,0.05700X0.05700*%
%ADD26C,0.05700*%
%ADD27C,0.05512*%
%ADD28C,0.05906*%
%ADD29C,0.21000*%
%ADD30C,0.04000*%
%ADD31C,0.02500*%
%ADD32C,0.02700*%
G36*
X104425Y-27354D02*
X104105Y-28126D01*
X103990Y-29000D01*
X104105Y-29875D01*
X104443Y-30689D01*
X104980Y-31389D01*
X105680Y-31926D01*
X106495Y-32264D01*
X107369Y-32379D01*
X108244Y-32264D01*
X109016Y-31944D01*
X109502Y-32430D01*
Y-47781D01*
X109040Y-47973D01*
X103137Y-42070D01*
Y-26719D01*
X103599Y-26527D01*
X104425Y-27354D01*
D02*
G37*
G36*
X99252Y-32296D02*
Y-43197D01*
X99252Y-43197D01*
X99252D01*
X99322Y-43548D01*
X99520Y-43846D01*
X107002Y-51327D01*
Y-52259D01*
X106553Y-52481D01*
X105909Y-51986D01*
X105070Y-51639D01*
X104535Y-51568D01*
X98387Y-45420D01*
Y-34615D01*
X98329Y-34323D01*
X98317Y-34264D01*
X98118Y-33967D01*
X96953Y-32802D01*
X97174Y-32353D01*
X97369Y-32379D01*
X98244Y-32264D01*
X98836Y-32019D01*
X99252Y-32296D01*
D02*
G37*
G36*
X156774Y-69774D02*
X106649D01*
X106458Y-69312D01*
X109868Y-65902D01*
X110067Y-65605D01*
X110137Y-65253D01*
X110137Y-65253D01*
X110137Y-65253D01*
Y-65253D01*
Y-62919D01*
X110599Y-62727D01*
X111149Y-63277D01*
X110808Y-64099D01*
X110689Y-65000D01*
X110808Y-65901D01*
X111156Y-66740D01*
X111709Y-67461D01*
X112429Y-68014D01*
X113269Y-68361D01*
X114169Y-68480D01*
X115070Y-68361D01*
X115909Y-68014D01*
X116630Y-67461D01*
X117183Y-66740D01*
X117531Y-65901D01*
X117649Y-65000D01*
X117531Y-64099D01*
X117183Y-63260D01*
X116630Y-62539D01*
X115909Y-61986D01*
X115481Y-61809D01*
X115424Y-61619D01*
X115722Y-61218D01*
X123004D01*
X123101Y-61708D01*
X122429Y-61986D01*
X121709Y-62539D01*
X121156Y-63260D01*
X120808Y-64099D01*
X120689Y-65000D01*
X120808Y-65901D01*
X121156Y-66740D01*
X121709Y-67461D01*
X122429Y-68014D01*
X123269Y-68361D01*
X124169Y-68480D01*
X125070Y-68361D01*
X125909Y-68014D01*
X126630Y-67461D01*
X127183Y-66740D01*
X127531Y-65901D01*
X127649Y-65000D01*
X127531Y-64099D01*
X127183Y-63260D01*
X126630Y-62539D01*
X125909Y-61986D01*
X125237Y-61708D01*
X125335Y-61218D01*
X131997D01*
X132157Y-61691D01*
X131423Y-62254D01*
X130806Y-63058D01*
X130418Y-63995D01*
X130352Y-64500D01*
X137987D01*
X137920Y-63995D01*
X137532Y-63058D01*
X136915Y-62254D01*
X136181Y-61691D01*
X136342Y-61218D01*
X139089D01*
X141149Y-63277D01*
X140808Y-64099D01*
X140690Y-65000D01*
X140808Y-65901D01*
X141156Y-66740D01*
X141709Y-67461D01*
X142429Y-68014D01*
X143269Y-68361D01*
X144169Y-68480D01*
X145070Y-68361D01*
X145909Y-68014D01*
X146630Y-67461D01*
X147183Y-66740D01*
X147530Y-65901D01*
X147649Y-65000D01*
X147530Y-64099D01*
X147183Y-63260D01*
X146630Y-62539D01*
X145909Y-61986D01*
X145070Y-61639D01*
X144169Y-61520D01*
X143269Y-61639D01*
X142446Y-61979D01*
X140118Y-59651D01*
X139821Y-59452D01*
X139469Y-59382D01*
X115412D01*
X115134Y-58966D01*
X114984Y-58866D01*
X115045Y-58370D01*
X115070Y-58361D01*
X115070D01*
X115070Y-58361D01*
X115909Y-58014D01*
X116630Y-57461D01*
X117183Y-56740D01*
X117531Y-55901D01*
X117649Y-55000D01*
X117531Y-54099D01*
X117183Y-53260D01*
X116630Y-52539D01*
X115909Y-51986D01*
X115070Y-51639D01*
X114169Y-51520D01*
X113887Y-51273D01*
Y-32350D01*
X113887D01*
X114019D01*
X114241Y-32350D01*
X114241Y-32350D01*
Y-32350D01*
X120719D01*
Y-25650D01*
X114241D01*
X114241Y-25650D01*
Y-25650D01*
X114019Y-25650D01*
X113887Y-25518D01*
Y-24300D01*
X113817Y-23949D01*
X113618Y-23651D01*
X112218Y-22251D01*
X111920Y-22052D01*
X111669Y-22002D01*
X110313Y-20646D01*
X110633Y-19874D01*
X110748Y-19000D01*
X110633Y-18125D01*
X110295Y-17311D01*
X109758Y-16611D01*
X109059Y-16074D01*
X108244Y-15736D01*
X107369Y-15621D01*
X106495Y-15736D01*
X106103Y-15899D01*
X105687Y-15621D01*
Y-4812D01*
X106103Y-4534D01*
X106512Y-3922D01*
X106656Y-3200D01*
X106512Y-2478D01*
X106103Y-1866D01*
X105491Y-1457D01*
X104769Y-1314D01*
X104048Y-1457D01*
X103978Y-1504D01*
X103537Y-1268D01*
Y1497D01*
X103654Y1593D01*
X104375Y1736D01*
X104987Y2145D01*
X105396Y2757D01*
X105540Y3479D01*
X105396Y4201D01*
X104987Y4813D01*
X104375Y5222D01*
X103654Y5365D01*
X102932Y5222D01*
X102320Y4813D01*
X101911Y4201D01*
X101767Y3479D01*
X101127Y3352D01*
X100991Y3443D01*
X100269Y3586D01*
X99547Y3443D01*
X98936Y3034D01*
X98565Y2480D01*
X98087Y2625D01*
Y6388D01*
X98503Y6666D01*
X98912Y7278D01*
X99055Y8000D01*
X98912Y8722D01*
X98503Y9334D01*
X97891Y9743D01*
X97169Y9886D01*
X97154Y9883D01*
X96866Y10075D01*
X96720Y10221D01*
X96855Y10900D01*
X96712Y11622D01*
X96303Y12234D01*
X95691Y12643D01*
X94969Y12786D01*
X94248Y12643D01*
X93635Y12234D01*
X93227Y11622D01*
X93083Y10900D01*
X93227Y10178D01*
X93635Y9566D01*
X93702Y9132D01*
X93261Y8896D01*
X93191Y8943D01*
X92469Y9086D01*
X91747Y8943D01*
X91136Y8534D01*
X90865Y8129D01*
X90387Y8275D01*
Y10392D01*
X90712Y10878D01*
X90855Y11600D01*
X90712Y12322D01*
X90303Y12934D01*
X89691Y13343D01*
X88969Y13486D01*
X88681Y14935D01*
Y16278D01*
X129669D01*
X129669Y16278D01*
X130098Y16364D01*
X130462Y16607D01*
X131419Y17564D01*
X131669Y17514D01*
X132391Y17657D01*
X133003Y18066D01*
X133412Y18678D01*
X133555Y19400D01*
X133412Y20122D01*
X133003Y20734D01*
X132391Y21143D01*
X131669Y21286D01*
X130947Y21143D01*
X130335Y20734D01*
X129927Y20122D01*
X129783Y19400D01*
X129833Y19150D01*
X129205Y18521D01*
X120700D01*
X120555Y19000D01*
X121103Y19366D01*
X121512Y19978D01*
X121655Y20700D01*
X121512Y21422D01*
X121103Y22034D01*
X120491Y22443D01*
X119769Y22586D01*
X119047Y22443D01*
X118436Y22034D01*
X118294Y21822D01*
X28134D01*
X27562Y22393D01*
X27198Y22636D01*
X26769Y22722D01*
X26769Y22722D01*
X20453D01*
X20422Y22743D01*
X19700Y22886D01*
X18978Y22743D01*
X18366Y22334D01*
X17957Y21722D01*
X17814Y21000D01*
X17957Y20278D01*
X18366Y19666D01*
X18978Y19257D01*
X19700Y19114D01*
X20422Y19257D01*
X21034Y19666D01*
X21443Y20278D01*
X21483Y20479D01*
X26305D01*
X26876Y19907D01*
X26876Y19907D01*
X27240Y19664D01*
X27240Y19664D01*
X27240Y19664D01*
D01*
X27240Y19664D01*
X27240Y19664D01*
X27669Y19579D01*
X118294D01*
X118436Y19366D01*
X118984Y19000D01*
X118838Y18521D01*
X87205D01*
X87205Y18522D01*
X87205Y18521D01*
X82669D01*
X82240Y18436D01*
X81876Y18193D01*
X81876Y18193D01*
X75076Y11393D01*
X74833Y11029D01*
X74748Y10600D01*
X74748Y10600D01*
Y-1124D01*
X74536Y-1266D01*
X74127Y-1878D01*
X73983Y-2600D01*
X74127Y-3322D01*
X74536Y-3934D01*
X75147Y-4343D01*
X75869Y-4486D01*
X76591Y-4343D01*
X77203Y-3934D01*
X77612Y-3322D01*
X77755Y-2600D01*
X77612Y-1878D01*
X77203Y-1266D01*
X76991Y-1124D01*
Y10135D01*
X77320Y10465D01*
X77799Y10320D01*
X77927Y9678D01*
X78335Y9066D01*
X78948Y8657D01*
X79669Y8514D01*
X80391Y8657D01*
X81003Y9066D01*
X81412Y9678D01*
X81555Y10400D01*
X81412Y11122D01*
X81003Y11734D01*
X80391Y12143D01*
X79749Y12270D01*
X79604Y12749D01*
X83134Y16278D01*
X86438D01*
Y14145D01*
X85960Y14000D01*
X85603Y14534D01*
X84991Y14943D01*
X84269Y15086D01*
X83548Y14943D01*
X82936Y14534D01*
X82527Y13922D01*
X82383Y13200D01*
X82527Y12478D01*
X82936Y11866D01*
X83548Y11457D01*
X83902Y11387D01*
Y9132D01*
X83461Y8896D01*
X83391Y8943D01*
X82669Y9086D01*
X81947Y8943D01*
X81336Y8534D01*
X80927Y7922D01*
X80783Y7200D01*
X80927Y6478D01*
X81336Y5866D01*
X81752Y5588D01*
Y173D01*
X80970Y-608D01*
X80771Y-906D01*
X80702Y-1257D01*
Y-11550D01*
X80702Y-11550D01*
X80702D01*
X80771Y-11902D01*
X80970Y-12199D01*
X81252Y-12481D01*
Y-23820D01*
X79016Y-26056D01*
X78244Y-25736D01*
X77369Y-25621D01*
X76495Y-25736D01*
X75680Y-26074D01*
X74980Y-26611D01*
X74443Y-27310D01*
X74106Y-28126D01*
X73990Y-29000D01*
X74106Y-29875D01*
X74443Y-30689D01*
X74980Y-31389D01*
X75680Y-31926D01*
X76495Y-32264D01*
X77369Y-32379D01*
X78244Y-32264D01*
X79059Y-31926D01*
X79759Y-31389D01*
X80295Y-30689D01*
X80633Y-29875D01*
X80748Y-29000D01*
X80633Y-28126D01*
X80313Y-27354D01*
X82818Y-24849D01*
X83017Y-24551D01*
X83087Y-24200D01*
X83087Y-24200D01*
X83087Y-24200D01*
Y-24200D01*
Y-21831D01*
X83549Y-21639D01*
X86452Y-24542D01*
Y-25754D01*
X85680Y-26074D01*
X84980Y-26611D01*
X84443Y-27310D01*
X84105Y-28126D01*
X83990Y-29000D01*
X84105Y-29875D01*
X84443Y-30689D01*
X84980Y-31389D01*
X85680Y-31926D01*
X86495Y-32264D01*
X87369Y-32379D01*
X88244Y-32264D01*
X89059Y-31926D01*
X89758Y-31389D01*
X90295Y-30689D01*
X90633Y-29875D01*
X90748Y-29000D01*
X90633Y-28126D01*
X90295Y-27310D01*
X89758Y-26611D01*
X89059Y-26074D01*
X88287Y-25754D01*
Y-24162D01*
X88217Y-23811D01*
X88018Y-23513D01*
X87340Y-22835D01*
X87501Y-22362D01*
X88244Y-22264D01*
X89059Y-21926D01*
X89758Y-21389D01*
X90295Y-20689D01*
X90633Y-19874D01*
X90748Y-19000D01*
X90633Y-18125D01*
X90313Y-17354D01*
X90468Y-17199D01*
X90667Y-16901D01*
X90679Y-16843D01*
X90737Y-16550D01*
Y-16131D01*
X90983Y-16000D01*
X91412Y-16257D01*
Y-24781D01*
X91352Y-25082D01*
Y-51550D01*
X90719D01*
Y-58450D01*
X97619D01*
Y-51550D01*
X93187D01*
Y-32284D01*
X93649Y-32093D01*
X96552Y-34995D01*
Y-45800D01*
X96622Y-46151D01*
X96820Y-46449D01*
X102121Y-51749D01*
X102088Y-52248D01*
X101709Y-52539D01*
X101156Y-53260D01*
X100808Y-54099D01*
X100689Y-55000D01*
X100808Y-55901D01*
X101156Y-56740D01*
X101709Y-57461D01*
X102429Y-58014D01*
X103269Y-58361D01*
X104169Y-58480D01*
X105070Y-58361D01*
X105909Y-58014D01*
X106553Y-57519D01*
X107002Y-57740D01*
Y-60870D01*
X105892Y-61979D01*
X105070Y-61639D01*
X104169Y-61520D01*
X103269Y-61639D01*
X102429Y-61986D01*
X101709Y-62539D01*
X101156Y-63260D01*
X100808Y-64099D01*
X100689Y-65000D01*
X100808Y-65901D01*
X101156Y-66740D01*
X101650Y-67384D01*
X101429Y-67832D01*
X100799D01*
X97601Y-64634D01*
X97531Y-64099D01*
X97183Y-63260D01*
X96630Y-62539D01*
X95909Y-61986D01*
X95070Y-61639D01*
X94169Y-61520D01*
X93269Y-61639D01*
X92429Y-61986D01*
X91709Y-62539D01*
X91156Y-63260D01*
X90808Y-64099D01*
X90689Y-65000D01*
X90808Y-65901D01*
X91156Y-66740D01*
X91709Y-67461D01*
X92429Y-68014D01*
X93269Y-68361D01*
X94169Y-68480D01*
X95070Y-68361D01*
X95909Y-68014D01*
X96630Y-67461D01*
X96921Y-67081D01*
X97420Y-67048D01*
X99684Y-69312D01*
X99492Y-69774D01*
X-14274D01*
Y23774D01*
X156774D01*
Y-69774D01*
D02*
G37*
G36*
X104980Y-21389D02*
X105680Y-21926D01*
X106495Y-22264D01*
X107369Y-22379D01*
X108244Y-22264D01*
X109016Y-21944D01*
X110620Y-23549D01*
X110918Y-23748D01*
X110976Y-23759D01*
X111169Y-23798D01*
X112052Y-24680D01*
Y-52139D01*
X111627Y-52403D01*
X111337Y-52259D01*
Y-32050D01*
X111267Y-31699D01*
X111068Y-31401D01*
X110313Y-30646D01*
X110633Y-29875D01*
X110748Y-29000D01*
X110633Y-28126D01*
X110295Y-27310D01*
X109758Y-26611D01*
X109059Y-26074D01*
X108244Y-25736D01*
X107369Y-25621D01*
X106495Y-25736D01*
X105723Y-26056D01*
X104337Y-24670D01*
Y-21329D01*
X104810Y-21168D01*
X104980Y-21389D01*
D02*
G37*
%LPC*%
G36*
X54169Y-51520D02*
X53269Y-51639D01*
X52429Y-51986D01*
X51709Y-52539D01*
X51156Y-53260D01*
X50808Y-54099D01*
X50690Y-55000D01*
X50808Y-55901D01*
X51156Y-56740D01*
X51709Y-57461D01*
X52429Y-58014D01*
X53269Y-58361D01*
X54169Y-58480D01*
X55070Y-58361D01*
X55909Y-58014D01*
X56630Y-57461D01*
X57183Y-56740D01*
X57530Y-55901D01*
X57649Y-55000D01*
X57530Y-54099D01*
X57183Y-53260D01*
X56630Y-52539D01*
X55909Y-51986D01*
X55070Y-51639D01*
X54169Y-51520D01*
D02*
G37*
G36*
X124169D02*
X123269Y-51639D01*
X122429Y-51986D01*
X121709Y-52539D01*
X121156Y-53260D01*
X120808Y-54099D01*
X120689Y-55000D01*
X120808Y-55901D01*
X121156Y-56740D01*
X121709Y-57461D01*
X122429Y-58014D01*
X123269Y-58361D01*
X124169Y-58480D01*
X125070Y-58361D01*
X125909Y-58014D01*
X126630Y-57461D01*
X127183Y-56740D01*
X127531Y-55901D01*
X127649Y-55000D01*
X127531Y-54099D01*
X127183Y-53260D01*
X126630Y-52539D01*
X125909Y-51986D01*
X125070Y-51639D01*
X124169Y-51520D01*
D02*
G37*
G36*
X14169D02*
X13269Y-51639D01*
X12429Y-51986D01*
X11709Y-52539D01*
X11156Y-53260D01*
X10808Y-54099D01*
X10689Y-55000D01*
X10808Y-55901D01*
X11156Y-56740D01*
X11709Y-57461D01*
X12429Y-58014D01*
X13269Y-58361D01*
X14169Y-58480D01*
X15070Y-58361D01*
X15909Y-58014D01*
X16630Y-57461D01*
X17183Y-56740D01*
X17530Y-55901D01*
X17649Y-55000D01*
X17530Y-54099D01*
X17183Y-53260D01*
X16630Y-52539D01*
X15909Y-51986D01*
X15070Y-51639D01*
X14169Y-51520D01*
D02*
G37*
G36*
X24169D02*
X23269Y-51639D01*
X22429Y-51986D01*
X21709Y-52539D01*
X21156Y-53260D01*
X20808Y-54099D01*
X20689Y-55000D01*
X20808Y-55901D01*
X21156Y-56740D01*
X21709Y-57461D01*
X22429Y-58014D01*
X23269Y-58361D01*
X24169Y-58480D01*
X25070Y-58361D01*
X25909Y-58014D01*
X26630Y-57461D01*
X27183Y-56740D01*
X27531Y-55901D01*
X27649Y-55000D01*
X27531Y-54099D01*
X27183Y-53260D01*
X26630Y-52539D01*
X25909Y-51986D01*
X25070Y-51639D01*
X24169Y-51520D01*
D02*
G37*
G36*
X34169D02*
X33269Y-51639D01*
X32429Y-51986D01*
X31709Y-52539D01*
X31156Y-53260D01*
X30808Y-54099D01*
X30689Y-55000D01*
X30808Y-55901D01*
X31156Y-56740D01*
X31709Y-57461D01*
X32429Y-58014D01*
X33269Y-58361D01*
X34169Y-58480D01*
X35070Y-58361D01*
X35909Y-58014D01*
X36630Y-57461D01*
X37183Y-56740D01*
X37530Y-55901D01*
X37649Y-55000D01*
X37530Y-54099D01*
X37183Y-53260D01*
X36630Y-52539D01*
X35909Y-51986D01*
X35070Y-51639D01*
X34169Y-51520D01*
D02*
G37*
G36*
X144169D02*
X143269Y-51639D01*
X142429Y-51986D01*
X141709Y-52539D01*
X141156Y-53260D01*
X140808Y-54099D01*
X140690Y-55000D01*
X140808Y-55901D01*
X141156Y-56740D01*
X141709Y-57461D01*
X142429Y-58014D01*
X143269Y-58361D01*
X144169Y-58480D01*
X145070Y-58361D01*
X145909Y-58014D01*
X146630Y-57461D01*
X147183Y-56740D01*
X147530Y-55901D01*
X147649Y-55000D01*
X147530Y-54099D01*
X147183Y-53260D01*
X146630Y-52539D01*
X145909Y-51986D01*
X145070Y-51639D01*
X144169Y-51520D01*
D02*
G37*
G36*
X133669Y-51183D02*
X133164Y-51249D01*
X132228Y-51637D01*
X131423Y-52254D01*
X130806Y-53058D01*
X130418Y-53995D01*
X130352Y-54500D01*
X133669D01*
Y-51183D01*
D02*
G37*
G36*
X134669D02*
Y-54500D01*
X137987D01*
X137920Y-53995D01*
X137532Y-53058D01*
X136915Y-52254D01*
X136111Y-51637D01*
X135174Y-51249D01*
X134669Y-51183D01*
D02*
G37*
G36*
X44669D02*
Y-54500D01*
X47987D01*
X47920Y-53995D01*
X47532Y-53058D01*
X46915Y-52254D01*
X46111Y-51637D01*
X45174Y-51249D01*
X44669Y-51183D01*
D02*
G37*
G36*
X7619Y-51550D02*
X719D01*
Y-58450D01*
X7619D01*
Y-51550D01*
D02*
G37*
G36*
X43669Y-51183D02*
X43164Y-51249D01*
X42228Y-51637D01*
X41423Y-52254D01*
X40806Y-53058D01*
X40418Y-53995D01*
X40352Y-54500D01*
X43669D01*
Y-51183D01*
D02*
G37*
G36*
X137987Y-55500D02*
X134669D01*
Y-58817D01*
X135174Y-58751D01*
X136111Y-58363D01*
X136915Y-57746D01*
X137532Y-56942D01*
X137920Y-56005D01*
X137987Y-55500D01*
D02*
G37*
G36*
X4169Y-61520D02*
X3269Y-61639D01*
X2429Y-61986D01*
X1709Y-62539D01*
X1156Y-63260D01*
X808Y-64099D01*
X690Y-65000D01*
X808Y-65901D01*
X1156Y-66740D01*
X1709Y-67461D01*
X2429Y-68014D01*
X3269Y-68361D01*
X4169Y-68480D01*
X5070Y-68361D01*
X5909Y-68014D01*
X6630Y-67461D01*
X7183Y-66740D01*
X7530Y-65901D01*
X7649Y-65000D01*
X7530Y-64099D01*
X7183Y-63260D01*
X6630Y-62539D01*
X5909Y-61986D01*
X5070Y-61639D01*
X4169Y-61520D01*
D02*
G37*
G36*
X14169D02*
X13269Y-61639D01*
X12429Y-61986D01*
X11709Y-62539D01*
X11156Y-63260D01*
X10808Y-64099D01*
X10689Y-65000D01*
X10808Y-65901D01*
X11156Y-66740D01*
X11709Y-67461D01*
X12429Y-68014D01*
X13269Y-68361D01*
X14169Y-68480D01*
X15070Y-68361D01*
X15909Y-68014D01*
X16630Y-67461D01*
X17183Y-66740D01*
X17530Y-65901D01*
X17649Y-65000D01*
X17530Y-64099D01*
X17183Y-63260D01*
X16630Y-62539D01*
X15909Y-61986D01*
X15070Y-61639D01*
X14169Y-61520D01*
D02*
G37*
G36*
X24169D02*
X23269Y-61639D01*
X22429Y-61986D01*
X21709Y-62539D01*
X21156Y-63260D01*
X20808Y-64099D01*
X20689Y-65000D01*
X20808Y-65901D01*
X21156Y-66740D01*
X21709Y-67461D01*
X22429Y-68014D01*
X23269Y-68361D01*
X24169Y-68480D01*
X25070Y-68361D01*
X25909Y-68014D01*
X26630Y-67461D01*
X27183Y-66740D01*
X27531Y-65901D01*
X27649Y-65000D01*
X27531Y-64099D01*
X27183Y-63260D01*
X26630Y-62539D01*
X25909Y-61986D01*
X25070Y-61639D01*
X24169Y-61520D01*
D02*
G37*
G36*
X137987Y-65500D02*
X134669D01*
Y-68817D01*
X135174Y-68751D01*
X136111Y-68363D01*
X136915Y-67746D01*
X137532Y-66942D01*
X137920Y-66005D01*
X137987Y-65500D01*
D02*
G37*
G36*
X43669D02*
X40352D01*
X40418Y-66005D01*
X40806Y-66942D01*
X41423Y-67746D01*
X42228Y-68363D01*
X43164Y-68751D01*
X43669Y-68817D01*
Y-65500D01*
D02*
G37*
G36*
X47987D02*
X44669D01*
Y-68817D01*
X45174Y-68751D01*
X46111Y-68363D01*
X46915Y-67746D01*
X47532Y-66942D01*
X47920Y-66005D01*
X47987Y-65500D01*
D02*
G37*
G36*
X133669D02*
X130352D01*
X130418Y-66005D01*
X130806Y-66942D01*
X131423Y-67746D01*
X132228Y-68363D01*
X133164Y-68751D01*
X133669Y-68817D01*
Y-65500D01*
D02*
G37*
G36*
X43669Y-55500D02*
X40352D01*
X40418Y-56005D01*
X40806Y-56942D01*
X41423Y-57746D01*
X42228Y-58363D01*
X43164Y-58751D01*
X43669Y-58817D01*
Y-55500D01*
D02*
G37*
G36*
X47987D02*
X44669D01*
Y-58817D01*
X45174Y-58751D01*
X46111Y-58363D01*
X46915Y-57746D01*
X47532Y-56942D01*
X47920Y-56005D01*
X47987Y-55500D01*
D02*
G37*
G36*
X133669D02*
X130352D01*
X130418Y-56005D01*
X130806Y-56942D01*
X131423Y-57746D01*
X132228Y-58363D01*
X133164Y-58751D01*
X133669Y-58817D01*
Y-55500D01*
D02*
G37*
G36*
X44669Y-61183D02*
Y-64500D01*
X47987D01*
X47920Y-63995D01*
X47532Y-63058D01*
X46915Y-62254D01*
X46111Y-61637D01*
X45174Y-61249D01*
X44669Y-61183D01*
D02*
G37*
G36*
X34169Y-61520D02*
X33269Y-61639D01*
X32429Y-61986D01*
X31709Y-62539D01*
X31156Y-63260D01*
X30808Y-64099D01*
X30689Y-65000D01*
X30808Y-65901D01*
X31156Y-66740D01*
X31709Y-67461D01*
X32429Y-68014D01*
X33269Y-68361D01*
X34169Y-68480D01*
X35070Y-68361D01*
X35909Y-68014D01*
X36630Y-67461D01*
X37183Y-66740D01*
X37530Y-65901D01*
X37649Y-65000D01*
X37530Y-64099D01*
X37183Y-63260D01*
X36630Y-62539D01*
X35909Y-61986D01*
X35070Y-61639D01*
X34169Y-61520D01*
D02*
G37*
G36*
X54169D02*
X53269Y-61639D01*
X52429Y-61986D01*
X51709Y-62539D01*
X51156Y-63260D01*
X50808Y-64099D01*
X50690Y-65000D01*
X50808Y-65901D01*
X51156Y-66740D01*
X51709Y-67461D01*
X52429Y-68014D01*
X53269Y-68361D01*
X54169Y-68480D01*
X55070Y-68361D01*
X55909Y-68014D01*
X56630Y-67461D01*
X57183Y-66740D01*
X57530Y-65901D01*
X57649Y-65000D01*
X57530Y-64099D01*
X57183Y-63260D01*
X56630Y-62539D01*
X55909Y-61986D01*
X55070Y-61639D01*
X54169Y-61520D01*
D02*
G37*
G36*
X43669Y-61183D02*
X43164Y-61249D01*
X42228Y-61637D01*
X41423Y-62254D01*
X40806Y-63058D01*
X40418Y-63995D01*
X40352Y-64500D01*
X43669D01*
Y-61183D01*
D02*
G37*
G36*
X132369Y-27866D02*
X130628Y-28003D01*
X128929Y-28411D01*
X127314Y-29079D01*
X125825Y-29992D01*
X124496Y-31127D01*
X123361Y-32455D01*
X122449Y-33945D01*
X121780Y-35559D01*
X121372Y-37258D01*
X121235Y-39000D01*
X121372Y-40742D01*
X121780Y-42441D01*
X122449Y-44055D01*
X123361Y-45545D01*
X124496Y-46873D01*
X125825Y-48008D01*
X127314Y-48921D01*
X128929Y-49589D01*
X130628Y-49997D01*
X132369Y-50134D01*
X134111Y-49997D01*
X135810Y-49589D01*
X137424Y-48921D01*
X138914Y-48008D01*
X140242Y-46873D01*
X141377Y-45545D01*
X142290Y-44055D01*
X142959Y-42441D01*
X143367Y-40742D01*
X143504Y-39000D01*
X143367Y-37258D01*
X142959Y-35559D01*
X142290Y-33945D01*
X141377Y-32455D01*
X140242Y-31127D01*
X138914Y-29992D01*
X137424Y-29079D01*
X135810Y-28411D01*
X134111Y-28003D01*
X132369Y-27866D01*
D02*
G37*
G36*
X26769Y13384D02*
X25027Y13247D01*
X23329Y12839D01*
X21714Y12171D01*
X20225Y11258D01*
X18896Y10123D01*
X17761Y8795D01*
X16849Y7305D01*
X16180Y5691D01*
X15772Y3992D01*
X15635Y2250D01*
X15772Y508D01*
X16180Y-1191D01*
X16849Y-2805D01*
X17761Y-4295D01*
X18896Y-5623D01*
X20225Y-6758D01*
X21714Y-7671D01*
X23329Y-8339D01*
X25027Y-8747D01*
X26769Y-8884D01*
X28511Y-8747D01*
X30210Y-8339D01*
X31824Y-7671D01*
X33314Y-6758D01*
X34642Y-5623D01*
X35777Y-4295D01*
X36690Y-2805D01*
X37359Y-1191D01*
X37767Y508D01*
X37904Y2250D01*
X37767Y3992D01*
X37359Y5691D01*
X36690Y7305D01*
X35777Y8795D01*
X34642Y10123D01*
X33314Y11258D01*
X31824Y12171D01*
X30210Y12839D01*
X28511Y13247D01*
X26769Y13384D01*
D02*
G37*
G36*
X-10625Y-500D02*
X-13085D01*
X-13048Y-783D01*
X-12746Y-1513D01*
X-12265Y-2140D01*
X-11638Y-2620D01*
X-10908Y-2923D01*
X-10625Y-2960D01*
Y-500D01*
D02*
G37*
G36*
X-7165D02*
X-9625D01*
Y-2960D01*
X-9342Y-2923D01*
X-8612Y-2620D01*
X-7986Y-2140D01*
X-7505Y-1513D01*
X-7203Y-783D01*
X-7165Y-500D01*
D02*
G37*
G36*
X116869Y-15283D02*
X116390Y-15347D01*
X115478Y-15724D01*
X114695Y-16326D01*
X114094Y-17109D01*
X113716Y-18021D01*
X113653Y-18500D01*
X116869D01*
Y-15283D01*
D02*
G37*
G36*
X117869D02*
Y-18500D01*
X121086D01*
X121023Y-18021D01*
X120645Y-17109D01*
X120044Y-16326D01*
X119261Y-15724D01*
X118348Y-15347D01*
X117869Y-15283D01*
D02*
G37*
G36*
X-4331Y-11211D02*
X-5258Y-11333D01*
X-6122Y-11691D01*
X-6865Y-12261D01*
X-7434Y-13003D01*
X-7792Y-13867D01*
X-7914Y-14795D01*
X-7792Y-15722D01*
X-7434Y-16586D01*
X-6865Y-17328D01*
X-6122Y-17898D01*
X-5258Y-18256D01*
X-4331Y-18378D01*
X-3403Y-18256D01*
X-2539Y-17898D01*
X-1797Y-17328D01*
X-1227Y-16586D01*
X-869Y-15722D01*
X-747Y-14795D01*
X-869Y-13867D01*
X-1227Y-13003D01*
X-1797Y-12261D01*
X-2539Y-11691D01*
X-3403Y-11333D01*
X-4331Y-11211D01*
D02*
G37*
G36*
X0Y2622D02*
X-679Y2533D01*
X-1311Y2271D01*
X-1854Y1854D01*
X-2271Y1311D01*
X-2533Y679D01*
X-2622Y0D01*
X-2533Y-679D01*
X-2271Y-1311D01*
X-1854Y-1854D01*
X-1311Y-2271D01*
X-679Y-2533D01*
X0Y-2622D01*
X679Y-2533D01*
X1311Y-2271D01*
X1854Y-1854D01*
X2271Y-1311D01*
X2533Y-679D01*
X2622Y0D01*
X2533Y679D01*
X2271Y1311D01*
X1854Y1854D01*
X1311Y2271D01*
X679Y2533D01*
X0Y2622D01*
D02*
G37*
G36*
X137669Y2586D02*
X136948Y2443D01*
X136336Y2034D01*
X136194Y1822D01*
X126945D01*
X126803Y2034D01*
X126191Y2443D01*
X125469Y2586D01*
X124748Y2443D01*
X124135Y2034D01*
X123727Y1422D01*
X123583Y700D01*
X123727Y-22D01*
X124135Y-634D01*
X124748Y-1043D01*
X125469Y-1186D01*
X126191Y-1043D01*
X126803Y-634D01*
X126945Y-422D01*
X136194D01*
X136336Y-634D01*
X136948Y-1043D01*
X137669Y-1186D01*
X138391Y-1043D01*
X139003Y-634D01*
X139412Y-22D01*
X139556Y700D01*
X139412Y1422D01*
X139003Y2034D01*
X138391Y2443D01*
X137669Y2586D01*
D02*
G37*
G36*
X146675Y17183D02*
X145747Y17061D01*
X144883Y16703D01*
X144141Y16134D01*
X143571Y15392D01*
X143213Y14527D01*
X143091Y13600D01*
X143213Y12673D01*
X143571Y11808D01*
X144141Y11066D01*
X144883Y10497D01*
X145747Y10139D01*
X146675Y10017D01*
X147602Y10139D01*
X148467Y10497D01*
X149209Y11066D01*
X149778Y11808D01*
X150136Y12673D01*
X150258Y13600D01*
X150136Y14527D01*
X149778Y15392D01*
X149209Y16134D01*
X148467Y16703D01*
X147602Y17061D01*
X146675Y17183D01*
D02*
G37*
G36*
X134864Y16985D02*
X133988Y16870D01*
X133171Y16531D01*
X132470Y15993D01*
X131932Y15292D01*
X131594Y14476D01*
X131479Y13600D01*
X131594Y12724D01*
X131932Y11908D01*
X132470Y11207D01*
X133171Y10669D01*
X133988Y10330D01*
X134864Y10215D01*
X135740Y10330D01*
X136556Y10669D01*
X137257Y11207D01*
X137795Y11908D01*
X138133Y12724D01*
X138249Y13600D01*
X138133Y14476D01*
X137795Y15292D01*
X137257Y15993D01*
X136556Y16531D01*
X135740Y16870D01*
X134864Y16985D01*
D02*
G37*
G36*
X68969Y-914D02*
X68247Y-1057D01*
X67636Y-1466D01*
X67227Y-2078D01*
X66827Y-2244D01*
X66591Y-2086D01*
X65869Y-1942D01*
X65148Y-2086D01*
X64535Y-2495D01*
X64127Y-3106D01*
X63983Y-3828D01*
X64127Y-4550D01*
X64535Y-5162D01*
X65148Y-5571D01*
X65869Y-5714D01*
X66065Y-5675D01*
X66452Y-5993D01*
Y-15754D01*
X65680Y-16074D01*
X64980Y-16611D01*
X64443Y-17311D01*
X64105Y-18125D01*
X63990Y-19000D01*
X64105Y-19874D01*
X64443Y-20689D01*
X64980Y-21389D01*
X65680Y-21926D01*
X66495Y-22264D01*
X67369Y-22379D01*
X68244Y-22264D01*
X69059Y-21926D01*
X69653Y-21470D01*
X70102Y-21691D01*
Y-24970D01*
X69016Y-26056D01*
X68244Y-25736D01*
X67369Y-25621D01*
X66495Y-25736D01*
X65680Y-26074D01*
X64980Y-26611D01*
X64443Y-27310D01*
X64105Y-28126D01*
X63990Y-29000D01*
X64105Y-29875D01*
X64443Y-30689D01*
X64980Y-31389D01*
X65680Y-31926D01*
X66495Y-32264D01*
X67369Y-32379D01*
X68244Y-32264D01*
X69059Y-31926D01*
X69758Y-31389D01*
X70296Y-30689D01*
X70633Y-29875D01*
X70748Y-29000D01*
X70633Y-28126D01*
X70313Y-27354D01*
X71668Y-25999D01*
X71867Y-25701D01*
X71937Y-25350D01*
X71937Y-25350D01*
X71937Y-25350D01*
Y-25350D01*
Y-17488D01*
X71867Y-17137D01*
X71668Y-16839D01*
X69887Y-15058D01*
Y-6254D01*
X70200Y-6087D01*
X70628Y-6344D01*
Y-7577D01*
X70628Y-7577D01*
X70628D01*
X70698Y-7928D01*
X70897Y-8226D01*
X76452Y-13780D01*
Y-15754D01*
X75680Y-16074D01*
X74980Y-16611D01*
X74443Y-17311D01*
X74106Y-18125D01*
X73990Y-19000D01*
X74106Y-19874D01*
X74443Y-20689D01*
X74980Y-21389D01*
X75680Y-21926D01*
X76495Y-22264D01*
X77369Y-22379D01*
X78244Y-22264D01*
X79059Y-21926D01*
X79759Y-21389D01*
X80295Y-20689D01*
X80633Y-19874D01*
X80748Y-19000D01*
X80633Y-18125D01*
X80295Y-17311D01*
X79759Y-16611D01*
X79059Y-16074D01*
X78287Y-15754D01*
Y-13400D01*
X78217Y-13049D01*
X78018Y-12751D01*
X72464Y-7197D01*
Y-6219D01*
X72880Y-5941D01*
X73289Y-5329D01*
X73432Y-4607D01*
X73289Y-3885D01*
X72880Y-3274D01*
X72268Y-2865D01*
X71546Y-2721D01*
X70904Y-2849D01*
X70855Y-2800D01*
X70712Y-2078D01*
X70303Y-1466D01*
X69691Y-1057D01*
X68969Y-914D01*
D02*
G37*
G36*
X-10625Y2960D02*
X-10908Y2923D01*
X-11638Y2620D01*
X-12265Y2140D01*
X-12746Y1513D01*
X-13048Y783D01*
X-13085Y500D01*
X-10625D01*
Y2960D01*
D02*
G37*
G36*
X-9625D02*
Y500D01*
X-7165D01*
X-7203Y783D01*
X-7505Y1513D01*
X-7986Y2140D01*
X-8612Y2620D01*
X-9342Y2923D01*
X-9625Y2960D01*
D02*
G37*
G36*
X27869Y-15283D02*
Y-18500D01*
X31086D01*
X31023Y-18021D01*
X30645Y-17109D01*
X30044Y-16326D01*
X29261Y-15724D01*
X28348Y-15347D01*
X27869Y-15283D01*
D02*
G37*
G36*
X151182Y-42140D02*
Y-44600D01*
X153642D01*
X153605Y-44317D01*
X153302Y-43587D01*
X152822Y-42960D01*
X152195Y-42480D01*
X151465Y-42177D01*
X151182Y-42140D01*
D02*
G37*
G36*
X150682Y-32478D02*
X150003Y-32567D01*
X149371Y-32829D01*
X148828Y-33246D01*
X148411Y-33789D01*
X148149Y-34421D01*
X148059Y-35100D01*
X148149Y-35779D01*
X148411Y-36411D01*
X148828Y-36954D01*
X149371Y-37371D01*
X150003Y-37633D01*
X150682Y-37722D01*
X151361Y-37633D01*
X151993Y-37371D01*
X152536Y-36954D01*
X152953Y-36411D01*
X153215Y-35779D01*
X153304Y-35100D01*
X153215Y-34421D01*
X152953Y-33789D01*
X152536Y-33246D01*
X151993Y-32829D01*
X151361Y-32567D01*
X150682Y-32478D01*
D02*
G37*
G36*
X-4331Y-23221D02*
X-5207Y-23336D01*
X-6023Y-23674D01*
X-6724Y-24212D01*
X-7262Y-24913D01*
X-7600Y-25729D01*
X-7716Y-26605D01*
X-7600Y-27482D01*
X-7262Y-28298D01*
X-6724Y-28999D01*
X-6023Y-29537D01*
X-5207Y-29875D01*
X-4331Y-29990D01*
X-3455Y-29875D01*
X-2638Y-29537D01*
X-1937Y-28999D01*
X-1399Y-28298D01*
X-1061Y-27482D01*
X-946Y-26605D01*
X-1061Y-25729D01*
X-1399Y-24913D01*
X-1937Y-24212D01*
X-2638Y-23674D01*
X-3455Y-23336D01*
X-4331Y-23221D01*
D02*
G37*
G36*
X150182Y-45600D02*
X147722D01*
X147759Y-45883D01*
X148061Y-46613D01*
X148542Y-47240D01*
X149169Y-47721D01*
X149899Y-48023D01*
X150182Y-48060D01*
Y-45600D01*
D02*
G37*
G36*
X153642D02*
X151182D01*
Y-48060D01*
X151465Y-48023D01*
X152195Y-47721D01*
X152822Y-47240D01*
X153302Y-46613D01*
X153605Y-45883D01*
X153642Y-45600D01*
D02*
G37*
G36*
X150182Y-42140D02*
X149899Y-42177D01*
X149169Y-42480D01*
X148542Y-42960D01*
X148061Y-43587D01*
X147759Y-44317D01*
X147722Y-44600D01*
X150182D01*
Y-42140D01*
D02*
G37*
G36*
X27369Y-25621D02*
X26495Y-25736D01*
X25680Y-26074D01*
X24980Y-26611D01*
X24443Y-27310D01*
X24105Y-28126D01*
X24072Y-28382D01*
X10181D01*
X9903Y-27966D01*
X9291Y-27557D01*
X8569Y-27414D01*
X7847Y-27557D01*
X7236Y-27966D01*
X6827Y-28578D01*
X6683Y-29300D01*
X6827Y-30022D01*
X7236Y-30634D01*
X7847Y-31043D01*
X8569Y-31186D01*
X9291Y-31043D01*
X9903Y-30634D01*
X10181Y-30218D01*
X24248D01*
X24443Y-30689D01*
X24980Y-31389D01*
X25680Y-31926D01*
X26495Y-32264D01*
X27369Y-32379D01*
X28244Y-32264D01*
X29059Y-31926D01*
X29759Y-31389D01*
X30296Y-30689D01*
X30633Y-29875D01*
X30748Y-29000D01*
X30633Y-28126D01*
X30296Y-27310D01*
X29759Y-26611D01*
X29059Y-26074D01*
X28244Y-25736D01*
X27369Y-25621D01*
D02*
G37*
G36*
X121086Y-19500D02*
X117869D01*
Y-22716D01*
X118348Y-22654D01*
X119261Y-22276D01*
X120044Y-21675D01*
X120645Y-20891D01*
X121023Y-19979D01*
X121086Y-19500D01*
D02*
G37*
G36*
X37369Y-15621D02*
X36495Y-15736D01*
X35680Y-16074D01*
X34980Y-16611D01*
X34443Y-17311D01*
X34106Y-18125D01*
X33990Y-19000D01*
X34106Y-19874D01*
X34443Y-20689D01*
X34980Y-21389D01*
X35680Y-21926D01*
X36495Y-22264D01*
X37369Y-22379D01*
X38244Y-22264D01*
X39059Y-21926D01*
X39759Y-21389D01*
X40295Y-20689D01*
X40633Y-19874D01*
X40748Y-19000D01*
X40633Y-18125D01*
X40295Y-17311D01*
X39759Y-16611D01*
X39059Y-16074D01*
X38244Y-15736D01*
X37369Y-15621D01*
D02*
G37*
G36*
X26869Y-15283D02*
X26390Y-15347D01*
X25478Y-15724D01*
X24695Y-16326D01*
X24094Y-17109D01*
X23716Y-18021D01*
X23653Y-18500D01*
X26869D01*
Y-15283D01*
D02*
G37*
G36*
X50469Y11486D02*
X49747Y11343D01*
X49136Y10934D01*
X48727Y10322D01*
X48583Y9600D01*
X48727Y8878D01*
X49136Y8266D01*
X49552Y7988D01*
Y-15520D01*
X49016Y-16056D01*
X48244Y-15736D01*
X47369Y-15621D01*
X46495Y-15736D01*
X45680Y-16074D01*
X44980Y-16611D01*
X44443Y-17311D01*
X44105Y-18125D01*
X43990Y-19000D01*
X44105Y-19874D01*
X44443Y-20689D01*
X44980Y-21389D01*
X45680Y-21926D01*
X46495Y-22264D01*
X47369Y-22379D01*
X48244Y-22264D01*
X49059Y-21926D01*
X49758Y-21389D01*
X50296Y-20689D01*
X50633Y-19874D01*
X50654Y-19716D01*
X51153Y-19749D01*
Y-23919D01*
X49016Y-26056D01*
X48244Y-25736D01*
X47369Y-25621D01*
X46495Y-25736D01*
X45680Y-26074D01*
X44980Y-26611D01*
X44443Y-27310D01*
X44105Y-28126D01*
X43990Y-29000D01*
X44105Y-29875D01*
X44443Y-30689D01*
X44980Y-31389D01*
X45680Y-31926D01*
X46495Y-32264D01*
X47369Y-32379D01*
X48244Y-32264D01*
X49059Y-31926D01*
X49758Y-31389D01*
X50296Y-30689D01*
X50633Y-29875D01*
X50748Y-29000D01*
X50633Y-28126D01*
X50313Y-27354D01*
X52719Y-24948D01*
X52918Y-24650D01*
X52930Y-24592D01*
X52988Y-24299D01*
Y-9438D01*
X55742Y-6685D01*
X55953Y-6643D01*
X56564Y-6234D01*
X56923Y-5697D01*
X57402Y-5842D01*
Y-15593D01*
X57369Y-15621D01*
X56495Y-15736D01*
X55680Y-16074D01*
X54980Y-16611D01*
X54443Y-17311D01*
X54106Y-18125D01*
X53990Y-19000D01*
X54106Y-19874D01*
X54443Y-20689D01*
X54980Y-21389D01*
X55680Y-21926D01*
X56495Y-22264D01*
X57369Y-22379D01*
X58244Y-22264D01*
X59059Y-21926D01*
X59653Y-21470D01*
X60102Y-21691D01*
Y-24970D01*
X59016Y-26056D01*
X58244Y-25736D01*
X57369Y-25621D01*
X56495Y-25736D01*
X55680Y-26074D01*
X54980Y-26611D01*
X54443Y-27310D01*
X54106Y-28126D01*
X53990Y-29000D01*
X54106Y-29875D01*
X54443Y-30689D01*
X54980Y-31389D01*
X55680Y-31926D01*
X56495Y-32264D01*
X57369Y-32379D01*
X58244Y-32264D01*
X59059Y-31926D01*
X59759Y-31389D01*
X60295Y-30689D01*
X60633Y-29875D01*
X60748Y-29000D01*
X60633Y-28126D01*
X60313Y-27354D01*
X61668Y-25999D01*
X61867Y-25701D01*
X61937Y-25350D01*
X61937Y-25350D01*
X61937Y-25350D01*
Y-25350D01*
Y-17488D01*
X61879Y-17195D01*
X61867Y-17137D01*
X61668Y-16839D01*
X60987Y-16158D01*
Y-4512D01*
X61403Y-4234D01*
X61812Y-3622D01*
X61955Y-2900D01*
X61812Y-2178D01*
X61403Y-1566D01*
X60791Y-1157D01*
X60069Y-1014D01*
X59623Y-1102D01*
X59237Y-785D01*
Y3359D01*
X59167Y3711D01*
X58968Y4008D01*
X57158Y5819D01*
X57256Y6309D01*
X57112Y7031D01*
X56703Y7643D01*
X56091Y8052D01*
X55369Y8196D01*
X54647Y8052D01*
X54036Y7643D01*
X53627Y7031D01*
X53483Y6309D01*
X53627Y5588D01*
X54036Y4976D01*
X54647Y4567D01*
X55369Y4423D01*
X55860Y4521D01*
X57402Y2979D01*
Y-1229D01*
X57270Y-1361D01*
X57072Y-1658D01*
X57002Y-2010D01*
Y-3274D01*
X56599Y-3543D01*
X56561Y-3564D01*
X55953Y-3157D01*
X55231Y-3014D01*
X54509Y-3157D01*
X53897Y-3566D01*
X53488Y-4178D01*
X53345Y-4900D01*
X53488Y-5622D01*
X53777Y-6054D01*
X51849Y-7982D01*
X51387Y-7791D01*
Y7988D01*
X51803Y8266D01*
X52212Y8878D01*
X52355Y9600D01*
X52212Y10322D01*
X51803Y10934D01*
X51191Y11343D01*
X50469Y11486D01*
D02*
G37*
G36*
X31086Y-19500D02*
X23653D01*
X23716Y-19979D01*
X24094Y-20891D01*
X24695Y-21675D01*
X25478Y-22276D01*
X26242Y-22592D01*
X26144Y-23082D01*
X10505D01*
X10356Y-22900D01*
X10212Y-22178D01*
X9803Y-21566D01*
X9191Y-21157D01*
X8469Y-21014D01*
X7747Y-21157D01*
X7136Y-21566D01*
X6727Y-22178D01*
X6583Y-22900D01*
X6727Y-23622D01*
X7136Y-24234D01*
X7747Y-24643D01*
X8469Y-24786D01*
X8975Y-24686D01*
X9218Y-24848D01*
X9276Y-24859D01*
X9569Y-24918D01*
X31989D01*
X34425Y-27354D01*
X34106Y-28126D01*
X33990Y-29000D01*
X34106Y-29875D01*
X34443Y-30689D01*
X34980Y-31389D01*
X35680Y-31926D01*
X36495Y-32264D01*
X37369Y-32379D01*
X38244Y-32264D01*
X39059Y-31926D01*
X39759Y-31389D01*
X40295Y-30689D01*
X40633Y-29875D01*
X40748Y-29000D01*
X40633Y-28126D01*
X40295Y-27310D01*
X39759Y-26611D01*
X39059Y-26074D01*
X38244Y-25736D01*
X37369Y-25621D01*
X36495Y-25736D01*
X35723Y-26056D01*
X33018Y-23351D01*
X32720Y-23152D01*
X32369Y-23082D01*
X28594D01*
X28497Y-22592D01*
X29261Y-22276D01*
X30044Y-21675D01*
X30645Y-20891D01*
X31023Y-19979D01*
X31086Y-19500D01*
D02*
G37*
G36*
X116869D02*
X113653D01*
X113716Y-19979D01*
X114094Y-20891D01*
X114695Y-21675D01*
X115478Y-22276D01*
X116390Y-22654D01*
X116869Y-22716D01*
Y-19500D01*
D02*
G37*
%LPD*%
D20*
X32369Y-24000D02*
X37369Y-29000D01*
X9569Y-24000D02*
X32369D01*
X8469Y-22900D02*
X9569Y-24000D01*
X113800Y-60300D02*
X139469D01*
X144169Y-65000D01*
X84819Y246D02*
Y12650D01*
X84269Y13200D02*
X84819Y12650D01*
X92269Y-14400D02*
X92369D01*
X97469Y-45800D02*
Y-34615D01*
X93469Y-30615D02*
X97469Y-34615D01*
X93469Y-30615D02*
Y-25579D01*
X107369Y-19000D02*
X111269Y-22900D01*
X92269Y-25082D02*
X92329Y-25022D01*
X93529Y-25519D02*
Y-22840D01*
X92329Y-14440D02*
X92369Y-14400D01*
X92329Y-25022D02*
Y-14440D01*
X93469Y-25579D02*
X93529Y-25519D01*
Y-22840D02*
X97369Y-19000D01*
X100969Y-20562D02*
X101019Y-20512D01*
X103419Y-25050D02*
X107369Y-29000D01*
X100969Y-25400D02*
Y-20562D01*
X97369Y-29000D02*
X100169Y-31800D01*
Y-43197D02*
Y-31800D01*
X97369Y-29000D02*
X100969Y-25400D01*
X87369Y-29000D02*
Y-24162D01*
X50469Y-15900D02*
Y9600D01*
X47369Y-19000D02*
X50469Y-15900D01*
X57369Y-19000D02*
X58319Y-18050D01*
X71546Y-7577D02*
Y-4607D01*
Y-7577D02*
X77369Y-13400D01*
Y-19000D02*
Y-13400D01*
X68969Y-15438D02*
X71019Y-17488D01*
X67369Y-29000D02*
X71019Y-25350D01*
Y-17488D01*
X94669Y-16300D02*
X97369Y-19000D01*
X88969Y11600D02*
X89469Y11100D01*
X94619Y10550D02*
X94969Y10900D01*
X94619Y5409D02*
Y10550D01*
X97169Y-13638D02*
X100100Y-16569D01*
X92319Y7050D02*
X92469Y7200D01*
X94319Y5109D02*
X94619Y5409D01*
X101019Y-20512D02*
Y-17135D01*
X100277Y-16392D02*
X101019Y-17135D01*
X100269Y-14687D02*
X102219Y-16637D01*
X104769Y-16400D02*
X107369Y-19000D01*
X102219Y-42450D02*
Y-16637D01*
X107369Y-29000D02*
X110419Y-32050D01*
X102219Y-42450D02*
X109219Y-49450D01*
X111269Y-22900D02*
X111569D01*
X112969Y-24300D01*
X89469Y-11659D02*
X89819Y-12009D01*
X87369Y-19000D02*
X89819Y-16550D01*
X8569Y-29300D02*
X27069D01*
X27369Y-29000D01*
X65869Y-3828D02*
X67369Y-5328D01*
Y-19000D02*
Y-5328D01*
X68969Y-15438D02*
Y-2800D01*
X89819Y-16550D02*
Y-12009D01*
X100269Y-14687D02*
Y1700D01*
X104769Y-16400D02*
Y-3200D01*
X103419Y-25050D02*
Y-4891D01*
X102619Y-4091D02*
X103419Y-4891D01*
X102619Y-4091D02*
Y2445D01*
X103654Y3479D01*
X97169Y-860D02*
Y8000D01*
X94319Y-4091D02*
X94669Y-4441D01*
X94319Y-4091D02*
Y5109D01*
X98619Y-4091D02*
Y-2310D01*
X97169Y-860D02*
X98619Y-2310D01*
X97169Y-13638D02*
Y-5541D01*
X98619Y-4091D01*
X94669Y-16300D02*
Y-4441D01*
X92319Y-14350D02*
Y7050D01*
X83719Y-13750D02*
X85919Y-11550D01*
X82669Y-207D02*
Y7200D01*
X81619Y-1257D02*
X82669Y-207D01*
X82952Y-1622D02*
X84819Y246D01*
X89469Y-11659D02*
Y11100D01*
X85919Y-11550D02*
Y-7335D01*
X82952Y-4367D02*
X85919Y-7335D01*
X82952Y-4367D02*
Y-1622D01*
X83719Y-20512D02*
Y-13750D01*
Y-20512D02*
X87369Y-24162D01*
X47369Y-29000D02*
X52070Y-24299D01*
X55231Y-5898D02*
Y-4900D01*
X52070Y-24299D02*
Y-9058D01*
X55231Y-5898D01*
X55369Y6309D02*
X58319Y3359D01*
X57919Y-3791D02*
X58319Y-4191D01*
X57919Y-3791D02*
Y-2010D01*
X58319Y-1609D01*
Y3359D01*
Y-18050D02*
Y-4191D01*
X60069Y-16538D02*
Y-2900D01*
Y-16538D02*
X61019Y-17488D01*
Y-25350D02*
Y-17488D01*
X57369Y-29000D02*
X61019Y-25350D01*
X77369Y-29000D02*
X82169Y-24200D01*
Y-12100D01*
X81619Y-11550D02*
X82169Y-12100D01*
X81619Y-11550D02*
Y-1257D01*
X92319Y-14350D02*
X92369Y-14400D01*
X92269Y-53100D02*
X94169Y-55000D01*
X92269Y-53100D02*
Y-25082D01*
X97469Y-45800D02*
X104169Y-52500D01*
Y-55000D02*
Y-52500D01*
X100169Y-43197D02*
X107919Y-50947D01*
X105723Y-68750D02*
X109219Y-65253D01*
X100419Y-68750D02*
X105723D01*
X109219Y-65253D02*
Y-49450D01*
X104169Y-65000D02*
X107919Y-61250D01*
X94169Y-62500D02*
X100419Y-68750D01*
X107919Y-61250D02*
Y-50947D01*
X110419Y-61250D02*
X114169Y-65000D01*
X110419Y-61250D02*
Y-32050D01*
X112969Y-53800D02*
X114169Y-55000D01*
X112969Y-53800D02*
Y-24300D01*
D21*
X19700Y21600D02*
X26769D01*
X86619Y10627D02*
X87560Y9686D01*
X86619Y10627D02*
Y12573D01*
X87560Y13514D01*
Y-1257D02*
Y9686D01*
X125469Y700D02*
X137669D01*
X75869Y10600D02*
X82669Y17400D01*
X75869Y-2600D02*
Y10600D01*
X82669Y17400D02*
X87205D01*
X87560Y17045D01*
X26769Y21600D02*
X27669Y20700D01*
X119769D01*
X87560Y13514D02*
Y17045D01*
X86869Y-5244D02*
X87452Y-4662D01*
Y-1365D02*
X87560Y-1257D01*
X87452Y-4662D02*
Y-1365D01*
X87560Y-2990D02*
Y-1257D01*
X87205Y17400D02*
X129669D01*
X131669Y19400D01*
D23*
X27369Y-19000D02*
D03*
Y-29000D02*
D03*
X117369Y-19000D02*
D03*
X107369Y-29000D02*
D03*
Y-19000D02*
D03*
X97369Y-29000D02*
D03*
Y-19000D02*
D03*
X87369Y-29000D02*
D03*
Y-19000D02*
D03*
X77369Y-29000D02*
D03*
Y-19000D02*
D03*
X67369Y-29000D02*
D03*
Y-19000D02*
D03*
X57369Y-29000D02*
D03*
Y-19000D02*
D03*
X47369Y-29000D02*
D03*
Y-19000D02*
D03*
X37369Y-29000D02*
D03*
Y-19000D02*
D03*
D24*
X117369Y-29000D02*
D03*
D25*
X4169Y-55000D02*
D03*
X94169D02*
D03*
D26*
X14169D02*
D03*
X24169D02*
D03*
X34169D02*
D03*
X44169D02*
D03*
X54169D02*
D03*
X4169Y-65000D02*
D03*
X14169D02*
D03*
X24169D02*
D03*
X34169D02*
D03*
X44169D02*
D03*
X54169D02*
D03*
X104169Y-55000D02*
D03*
X114169D02*
D03*
X124169D02*
D03*
X134169D02*
D03*
X144169D02*
D03*
X94169Y-65000D02*
D03*
X104169D02*
D03*
X114169D02*
D03*
X124169D02*
D03*
X134169D02*
D03*
X144169D02*
D03*
D27*
X134864Y13600D02*
D03*
X-4331Y-26605D02*
D03*
D28*
X146675Y13600D02*
D03*
X-4331Y-14795D02*
D03*
D29*
X132369Y-39000D02*
D03*
X26769Y2250D02*
D03*
D30*
X150682Y-45100D02*
D03*
X-10125Y0D02*
D03*
X0D02*
D03*
X150682Y-35100D02*
D03*
D31*
X19700Y21000D02*
D03*
X113800Y-60300D02*
D03*
X-9600Y15465D02*
D03*
X125469Y700D02*
D03*
X137669D02*
D03*
X131669Y19400D02*
D03*
X71669Y-10800D02*
D03*
X79669Y10400D02*
D03*
X69469Y5629D02*
D03*
X92269Y-14400D02*
D03*
X55231Y-4900D02*
D03*
X50469Y9600D02*
D03*
X65869Y-3828D02*
D03*
X71546Y-4607D02*
D03*
X82669Y7200D02*
D03*
X94969Y10900D02*
D03*
X103654Y3479D02*
D03*
X10369Y7500D02*
D03*
X6769Y15500D02*
D03*
X26469Y18577D02*
D03*
X119769Y20700D02*
D03*
X8169Y-11800D02*
D03*
X8569Y-29300D02*
D03*
X8469Y-22900D02*
D03*
X68969Y-2800D02*
D03*
X75869Y-2600D02*
D03*
X87669Y-12900D02*
D03*
X83769Y-10660D02*
D03*
X84269Y13200D02*
D03*
X88969Y11600D02*
D03*
X92469Y7200D02*
D03*
X97169Y8000D02*
D03*
X104769Y-3200D02*
D03*
X100269Y1700D02*
D03*
X96469Y-3200D02*
D03*
X85102Y-2512D02*
D03*
X86869Y-5244D02*
D03*
X55369Y6309D02*
D03*
X60069Y-2900D02*
D03*
X136569Y-16500D02*
D03*
X82669Y-62556D02*
D03*
X124869Y-15520D02*
D03*
X135987Y-3340D02*
D03*
X142355Y700D02*
D03*
X155139Y-16569D02*
D03*
D32*
X153302Y-479D02*
D03*
X144759Y-16257D02*
D03*
X143569Y5100D02*
D03*
X119557Y300D02*
D03*
X104837Y12330D02*
D03*
X43027D02*
D03*
X105112Y-38100D02*
D03*
X64734Y-33886D02*
D03*
X63158Y14400D02*
D03*
X115212Y11019D02*
D03*
X107199Y-10386D02*
D03*
X95070Y-46901D02*
D03*
X69362Y-43420D02*
D03*
X84352Y-51100D02*
D03*
X42069Y2800D02*
D03*
X38959Y-42350D02*
D03*
X55520Y-37004D02*
D03*
X84352Y-39318D02*
D03*
X55520Y-24280D02*
D03*
X115369Y-39000D02*
D03*
X109569Y-24551D02*
D03*
X65187Y-64099D02*
D03*
X-4331Y-60697D02*
D03*
X23413Y-36350D02*
D03*
X41383Y-7791D02*
D03*
X11083Y-16611D02*
D03*
X151600Y-60000D02*
D03*
X11783Y-49900D02*
D03*
X97149Y14323D02*
D03*
X111269Y2445D02*
D03*
X62908Y-7928D02*
D03*
X58881Y-48300D02*
D03*
M02*
