%FSLAX25Y25*%
%MOIN*%
G70*
G01*
G75*
G04 Layer_Physical_Order=1*
G04 Layer_Color=255*
%ADD10C,0.00800*%
%ADD11O,0.01575X0.05331*%
%ADD12O,0.01575X0.06315*%
%ADD13O,0.01575X0.08874*%
%ADD14O,0.01575X0.04331*%
%ADD15O,0.05331X0.01575*%
%ADD16O,0.06315X0.01575*%
%ADD17R,0.02362X0.04724*%
%ADD18R,0.03347X0.03150*%
%ADD19R,0.03150X0.03347*%
%ADD20R,0.06890X0.03937*%
%ADD21R,0.02600X0.03300*%
%ADD22R,0.07874X0.02559*%
%ADD23C,0.00600*%
%ADD24C,0.01400*%
%ADD25C,0.02000*%
%ADD26C,0.10000*%
%ADD27C,0.05500*%
%ADD28R,0.05500X0.05500*%
%ADD29C,0.03300*%
%ADD30R,0.05500X0.05500*%
%ADD31R,0.05700X0.05700*%
%ADD32C,0.05700*%
%ADD33C,0.07480*%
%ADD34C,0.02700*%
G36*
X71773Y101509D02*
Y95170D01*
X71529Y95122D01*
X70937Y94727D01*
X70901Y94672D01*
X70401D01*
X70365Y94727D01*
X69774Y95122D01*
X69627Y95151D01*
Y95180D01*
X69519Y95726D01*
X69395Y95912D01*
X69209Y96189D01*
X69209Y96189D01*
X63789Y101609D01*
X63326Y101919D01*
X62780Y102027D01*
X62780Y102027D01*
X62607D01*
X62455Y102527D01*
X62496Y102554D01*
X63014Y103330D01*
X63196Y104245D01*
X63177D01*
Y104773D01*
X68509D01*
X71773Y101509D01*
D02*
G37*
G36*
X153874Y108550D02*
X147250D01*
Y103618D01*
X146526Y102894D01*
X146526Y102894D01*
X145643Y102011D01*
X145267Y101448D01*
X145135Y100785D01*
Y92480D01*
X142424D01*
Y91245D01*
X141713D01*
Y92480D01*
X132824D01*
Y86543D01*
X141713D01*
Y87779D01*
X142424D01*
Y86543D01*
X151313D01*
Y92480D01*
X148602D01*
Y100067D01*
X148978Y100443D01*
X148978Y100443D01*
X149585Y101050D01*
X153874D01*
Y-7174D01*
X118538D01*
X118302Y-6733D01*
X118514Y-6417D01*
X118696Y-5500D01*
X118688Y-5462D01*
X119006Y-5076D01*
X133450D01*
X133957Y-4975D01*
X134387Y-4687D01*
X136584Y-2490D01*
X137083Y-2523D01*
X137254Y-2746D01*
X138058Y-3363D01*
X138995Y-3751D01*
X140000Y-3883D01*
X141005Y-3751D01*
X141942Y-3363D01*
X142746Y-2746D01*
X143363Y-1942D01*
X143751Y-1005D01*
X143883Y0D01*
X143751Y1005D01*
X143363Y1942D01*
X142746Y2746D01*
X141942Y3363D01*
X141005Y3751D01*
X140000Y3883D01*
X138995Y3751D01*
X138058Y3363D01*
X137254Y2746D01*
X136637Y1942D01*
X136249Y1005D01*
X136237Y911D01*
X134235Y-1091D01*
X133772Y-847D01*
X133883Y0D01*
X133751Y1005D01*
X133363Y1942D01*
X132746Y2746D01*
X131942Y3363D01*
X131005Y3751D01*
X130000Y3883D01*
X128995Y3751D01*
X128058Y3363D01*
X127254Y2746D01*
X126637Y1942D01*
X126488Y1582D01*
X125920Y1500D01*
X122732Y4687D01*
X122302Y4975D01*
X121795Y5076D01*
X121496D01*
X120801Y5770D01*
X120962Y6243D01*
X121005Y6249D01*
X121942Y6637D01*
X122746Y7254D01*
X123363Y8058D01*
X123751Y8995D01*
X123883Y10000D01*
X123751Y11005D01*
X123363Y11942D01*
X122746Y12746D01*
X121942Y13363D01*
X121005Y13751D01*
X120000Y13883D01*
X118995Y13751D01*
X118379Y13496D01*
X116462Y15413D01*
X116653Y15875D01*
X122251D01*
X126504Y11621D01*
X126249Y11005D01*
X126117Y10000D01*
X126249Y8995D01*
X126637Y8058D01*
X127254Y7254D01*
X128058Y6637D01*
X128995Y6249D01*
X130000Y6117D01*
X131005Y6249D01*
X131942Y6637D01*
X132746Y7254D01*
X133363Y8058D01*
X133751Y8995D01*
X133757Y9038D01*
X134230Y9199D01*
X134366Y9063D01*
X134796Y8775D01*
X135303Y8675D01*
X136150D01*
Y6150D01*
X143850D01*
Y13850D01*
X136150D01*
Y11735D01*
X135650Y11528D01*
X132491Y14687D01*
X132061Y14975D01*
X131610Y15064D01*
X126287Y20387D01*
X125857Y20675D01*
X125350Y20775D01*
X96950D01*
X96443Y20675D01*
X96013Y20387D01*
X94268Y18643D01*
X94000Y18696D01*
X93083Y18514D01*
X92306Y17994D01*
X91786Y17217D01*
X91604Y16300D01*
X91718Y15725D01*
X91336Y15225D01*
X69941D01*
X69694Y15594D01*
X68917Y16114D01*
X68000Y16296D01*
X67083Y16114D01*
X66306Y15594D01*
X65786Y14817D01*
X65604Y13900D01*
X65543Y13826D01*
X64341D01*
X64094Y14194D01*
X63317Y14714D01*
X62400Y14896D01*
X61483Y14714D01*
X60706Y14194D01*
X60186Y13417D01*
X60004Y12500D01*
X60186Y11583D01*
X60392Y11276D01*
X60125Y10775D01*
X58071D01*
X57564Y10675D01*
X57134Y10387D01*
X55537Y8791D01*
X55076Y8982D01*
Y13223D01*
X54975Y13730D01*
X54687Y14160D01*
X54160Y14687D01*
X53730Y14975D01*
X53223Y15076D01*
X46777D01*
X46270Y14975D01*
X45840Y14687D01*
X45313Y14160D01*
X45025Y13730D01*
X44925Y13223D01*
Y9899D01*
X44291Y9265D01*
X43817Y9499D01*
X43883Y10000D01*
X43751Y11005D01*
X43363Y11942D01*
X42746Y12746D01*
X42564Y12886D01*
X42656Y13445D01*
X43283Y13864D01*
X43803Y14642D01*
X43985Y15559D01*
X43818Y16398D01*
X44049Y16898D01*
X46396D01*
X46396Y16898D01*
X46396Y16898D01*
X46396Y16898D01*
X46804Y17119D01*
X52069D01*
Y22131D01*
X52069Y22269D01*
X52069Y22269D01*
Y22631D01*
X52069D01*
X52069Y22631D01*
Y24706D01*
X49396D01*
Y25206D01*
X48896D01*
Y27781D01*
X46723D01*
X46396Y28145D01*
Y28300D01*
X45056D01*
X40264Y33092D01*
X39602Y33534D01*
X38822Y33689D01*
X36378D01*
X35598Y33534D01*
X34936Y33092D01*
X33955Y32111D01*
X16804D01*
X16613Y32573D01*
X30301Y46261D01*
X32116D01*
X32469Y45907D01*
Y45732D01*
X32469Y45627D01*
X32469Y45627D01*
X32469D01*
X32569Y45273D01*
Y45273D01*
X32569Y44778D01*
Y39927D01*
X37581D01*
X37719Y39927D01*
X37900D01*
X38081D01*
X38219Y39927D01*
X43231D01*
Y39927D01*
X43457Y40112D01*
X44000Y40004D01*
X44917Y40186D01*
X45694Y40706D01*
X46214Y41483D01*
X46396Y42400D01*
X46214Y43317D01*
X45694Y44094D01*
X44917Y44614D01*
X44000Y44796D01*
X43617Y44720D01*
X43405Y44894D01*
X43379Y45475D01*
X43642Y45735D01*
X43800Y45704D01*
X44717Y45886D01*
X45494Y46406D01*
X46014Y47183D01*
X46196Y48100D01*
X46014Y49017D01*
X45494Y49794D01*
X44717Y50314D01*
X43800Y50496D01*
X43517Y50440D01*
X43131Y50757D01*
Y50973D01*
X40034D01*
X39891Y51473D01*
X39900Y51483D01*
X40113Y51801D01*
X40323Y52011D01*
X40794D01*
X41574Y52166D01*
X42205Y52587D01*
X43370D01*
Y53527D01*
X45861D01*
X46524Y53659D01*
X47086Y54035D01*
X53803Y60752D01*
X54362Y60604D01*
X54674Y60137D01*
X54728Y60101D01*
Y59601D01*
X54674Y59565D01*
X54278Y58974D01*
X54140Y58276D01*
X54278Y57579D01*
X54674Y56988D01*
X54728Y56952D01*
Y56452D01*
X54674Y56415D01*
X54347Y55927D01*
X53500Y56096D01*
X52583Y55914D01*
X51806Y55394D01*
X51286Y54617D01*
X51104Y53700D01*
X51286Y52783D01*
X51806Y52006D01*
X52583Y51486D01*
X53500Y51304D01*
X54102Y51424D01*
X54344Y51181D01*
X54674Y50688D01*
X55137Y50379D01*
X54941Y49908D01*
X54500Y49996D01*
X53583Y49814D01*
X52806Y49294D01*
X52286Y48517D01*
X52104Y47600D01*
X52286Y46683D01*
X52806Y45906D01*
X53583Y45386D01*
X54500Y45204D01*
X55417Y45386D01*
X56194Y45906D01*
X56441Y46275D01*
X60955D01*
Y45162D01*
X61093Y44465D01*
X61488Y43874D01*
X62080Y43479D01*
X62777Y43340D01*
X62801Y43345D01*
X63104Y43300D01*
X63286Y42383D01*
X63806Y41606D01*
X64583Y41086D01*
X65500Y40904D01*
X66417Y41086D01*
X67194Y41606D01*
X67347Y41834D01*
X67878Y41728D01*
X67936Y41433D01*
X68456Y40656D01*
X69233Y40136D01*
X70150Y39954D01*
X70574Y40038D01*
X71074Y39628D01*
Y36693D01*
X70810Y36490D01*
X70385Y35936D01*
X70118Y35292D01*
X70027Y34600D01*
X70118Y33908D01*
X70385Y33264D01*
X70710Y32840D01*
X70100Y32231D01*
X66727D01*
Y27219D01*
X66727Y27081D01*
Y26900D01*
Y26719D01*
X66727Y26581D01*
Y24644D01*
X69400D01*
Y24144D01*
X69900D01*
Y21569D01*
X72073D01*
Y21669D01*
X73800D01*
Y24244D01*
X74300D01*
Y24744D01*
X76973D01*
Y26681D01*
X76973Y26819D01*
Y27000D01*
Y27181D01*
X76973Y27319D01*
Y32331D01*
X76701D01*
Y43775D01*
X77201Y43927D01*
X77237Y43874D01*
X77828Y43479D01*
X78525Y43340D01*
X79223Y43479D01*
X79814Y43874D01*
X79850Y43928D01*
X80350D01*
X80386Y43874D01*
X80977Y43479D01*
X81675Y43340D01*
X82372Y43479D01*
X82964Y43874D01*
X82999Y43927D01*
X83499Y43775D01*
Y38149D01*
X82650Y37301D01*
X82508Y37282D01*
X81864Y37015D01*
X81310Y36590D01*
X80885Y36036D01*
X80618Y35392D01*
X80527Y34700D01*
X80618Y34008D01*
X80885Y33364D01*
X81217Y32931D01*
X81077Y32530D01*
X80996Y32431D01*
X80327D01*
Y27419D01*
X80327Y27281D01*
Y27100D01*
Y26919D01*
X80327Y26781D01*
Y24844D01*
X85673D01*
Y26781D01*
X85673Y26919D01*
Y27100D01*
Y27281D01*
X85673Y27419D01*
Y32431D01*
X85357D01*
X85183Y32931D01*
X85515Y33364D01*
X85782Y34008D01*
X85873Y34700D01*
X85782Y35392D01*
X85515Y36036D01*
X85350Y36251D01*
X85762Y36663D01*
X86049Y37093D01*
X86150Y37600D01*
Y43775D01*
X86650Y43927D01*
X86685Y43874D01*
X87277Y43479D01*
X87974Y43340D01*
X88671Y43479D01*
X89263Y43874D01*
X89763Y43894D01*
X90124Y43562D01*
Y36240D01*
X90064Y36215D01*
X89510Y35790D01*
X89085Y35236D01*
X88818Y34592D01*
X88727Y33900D01*
X88818Y33208D01*
X88892Y33031D01*
X88558Y32531D01*
X86327D01*
Y27381D01*
X86327D01*
Y27019D01*
X86327D01*
Y21869D01*
X86327Y21869D01*
X86327D01*
X86537Y21369D01*
X86404Y20700D01*
X86586Y19783D01*
X87106Y19006D01*
X87883Y18486D01*
X88800Y18304D01*
X89717Y18486D01*
X90494Y19006D01*
X91014Y19783D01*
X91196Y20700D01*
X91063Y21369D01*
X91401Y21869D01*
X91673D01*
Y24534D01*
X92060Y24852D01*
X92300Y24804D01*
X93217Y24986D01*
X93994Y25506D01*
X94514Y26283D01*
X94671Y27075D01*
X143259D01*
X143506Y26706D01*
X144283Y26186D01*
X145200Y26004D01*
X146117Y26186D01*
X146894Y26706D01*
X147414Y27483D01*
X147596Y28400D01*
X147414Y29317D01*
X146894Y30094D01*
X146117Y30614D01*
X145200Y30796D01*
X144283Y30614D01*
X143506Y30094D01*
X143259Y29726D01*
X127968D01*
Y30686D01*
X125393D01*
Y31186D01*
X124893D01*
Y33859D01*
X122818D01*
Y33859D01*
X122456D01*
Y33859D01*
X118972D01*
X118874Y33925D01*
X118431Y34013D01*
X118481Y34513D01*
X122218D01*
X122356Y34513D01*
X122537D01*
X122718D01*
X122856Y34513D01*
X124793D01*
Y37186D01*
Y39859D01*
X122856D01*
X122718Y39859D01*
X122537D01*
X122356D01*
X122218Y39859D01*
X117206D01*
Y38511D01*
X112583D01*
X112394Y38794D01*
X111617Y39314D01*
X110700Y39496D01*
X110265Y39410D01*
X102685Y46989D01*
Y50155D01*
X104238D01*
X104935Y50293D01*
X105526Y50688D01*
X105921Y51280D01*
X105938Y51364D01*
X106417Y51509D01*
X113963Y43963D01*
X114393Y43675D01*
X114900Y43575D01*
X117269D01*
Y42227D01*
X122281D01*
X122419Y42227D01*
X122600D01*
X122781D01*
X122919Y42227D01*
X126338D01*
X126486Y41483D01*
X127006Y40706D01*
X127524Y40359D01*
X127373Y39859D01*
X125793D01*
Y37686D01*
X127868D01*
Y39660D01*
X128273Y40089D01*
X128700Y40004D01*
X129617Y40186D01*
X130394Y40706D01*
X130914Y41483D01*
X131096Y42400D01*
X130914Y43317D01*
X130394Y44094D01*
X129617Y44614D01*
X128769Y44782D01*
X127931Y45621D01*
Y47168D01*
X127931Y47442D01*
Y47573D01*
X127831Y48032D01*
Y48073D01*
Y49800D01*
X125256D01*
Y50800D01*
X127831D01*
Y52927D01*
X127931D01*
Y55100D01*
X125356D01*
Y56100D01*
X127931D01*
Y58161D01*
X147771D01*
X147883Y58086D01*
X148800Y57904D01*
X149717Y58086D01*
X150494Y58606D01*
X151014Y59383D01*
X151196Y60300D01*
X151104Y60763D01*
X151273Y60969D01*
X151273D01*
Y66119D01*
X151273D01*
Y66481D01*
X151273D01*
Y71631D01*
X147875D01*
X147520Y71868D01*
X147013Y71969D01*
X144121D01*
Y74006D01*
X139933D01*
Y75520D01*
X141713D01*
Y76755D01*
X142424D01*
Y75520D01*
X151313D01*
Y81457D01*
X142424D01*
Y80221D01*
X141713D01*
Y81457D01*
X132824D01*
Y75606D01*
X132806Y75594D01*
X132286Y74817D01*
X132104Y73900D01*
X132279Y73021D01*
Y67281D01*
X135686D01*
X136019Y66919D01*
Y61628D01*
X124139D01*
X124139Y61628D01*
X123475Y61496D01*
X122913Y61120D01*
X120066Y58273D01*
X117269D01*
Y57872D01*
X117100Y57733D01*
X115062D01*
X113547Y59248D01*
X113514Y59417D01*
X112994Y60194D01*
X112217Y60714D01*
X112048Y60747D01*
X111955Y60840D01*
X111851Y61361D01*
X111476Y61923D01*
X107465Y65934D01*
X106903Y66309D01*
X106240Y66441D01*
X106060D01*
X105824Y66882D01*
X105921Y67028D01*
X106060Y67725D01*
X105921Y68423D01*
X105526Y69014D01*
X105472Y69050D01*
Y69550D01*
X105526Y69586D01*
X105921Y70177D01*
X106060Y70875D01*
X105921Y71572D01*
X105526Y72163D01*
X105472Y72200D01*
Y72700D01*
X105526Y72736D01*
X105921Y73327D01*
X105961Y73524D01*
X97775D01*
X97814Y73327D01*
X98209Y72736D01*
X98263Y72700D01*
Y72200D01*
X98209Y72163D01*
X97814Y71572D01*
X97675Y70875D01*
X97814Y70177D01*
X98209Y69586D01*
X98263Y69550D01*
Y69050D01*
X98209Y69014D01*
X97814Y68423D01*
X97675Y67725D01*
X97814Y67028D01*
X98209Y66436D01*
X98263Y66400D01*
Y65900D01*
X98209Y65864D01*
X97814Y65273D01*
X97675Y64576D01*
X97814Y63878D01*
X98209Y63287D01*
X98263Y63251D01*
Y62751D01*
X98209Y62715D01*
X97814Y62123D01*
X97775Y61926D01*
X101868D01*
Y60926D01*
X97775D01*
X97814Y60729D01*
X98209Y60137D01*
X98263Y60101D01*
Y59601D01*
X98209Y59565D01*
X97814Y58974D01*
X97675Y58276D01*
X97814Y57579D01*
X98209Y56988D01*
X98263Y56952D01*
Y56452D01*
X98209Y56415D01*
X97814Y55824D01*
X97675Y55127D01*
X97814Y54429D01*
X98209Y53838D01*
X98800Y53443D01*
X98951Y52903D01*
X98798Y52675D01*
X98659Y51977D01*
X98798Y51280D01*
X99193Y50688D01*
X99784Y50293D01*
X100034Y50244D01*
Y47111D01*
X99572Y46920D01*
X99245Y47247D01*
Y48918D01*
X99107Y49615D01*
X98712Y50207D01*
X98120Y50602D01*
X97423Y50740D01*
X96725Y50602D01*
X96497Y50449D01*
X95957Y50600D01*
X95562Y51191D01*
X94971Y51586D01*
X94773Y51625D01*
Y47532D01*
Y43439D01*
X94971Y43479D01*
X95542Y43860D01*
X95674Y43928D01*
X96098D01*
X96134Y43874D01*
X96725Y43479D01*
X97423Y43340D01*
X98120Y43479D01*
X98712Y43874D01*
X98856Y43888D01*
X109510Y33233D01*
X109404Y32700D01*
X109586Y31783D01*
X110106Y31006D01*
X110883Y30486D01*
X111800Y30304D01*
X112046Y30353D01*
X112162Y30226D01*
X111942Y29726D01*
X93500D01*
X92993Y29625D01*
X92801Y29496D01*
X92300Y29596D01*
X92060Y29548D01*
X91673Y29865D01*
Y30755D01*
X92339Y31421D01*
X92736Y31585D01*
X93290Y32010D01*
X93715Y32564D01*
X93982Y33208D01*
X94073Y33900D01*
X93982Y34592D01*
X93715Y35236D01*
X93290Y35790D01*
X92775Y36185D01*
Y43412D01*
X93275Y43679D01*
X93576Y43479D01*
X93773Y43439D01*
Y47532D01*
Y51625D01*
X93576Y51586D01*
X93005Y51205D01*
X92873Y51137D01*
X92524D01*
X92392Y51205D01*
X92230Y51313D01*
X92137Y51928D01*
X92345Y52239D01*
X92894Y52606D01*
X93414Y53383D01*
X93596Y54300D01*
X93414Y55217D01*
X92894Y55994D01*
X92117Y56514D01*
X91200Y56696D01*
X90283Y56514D01*
X89506Y55994D01*
X88986Y55217D01*
X88804Y54300D01*
X88986Y53383D01*
X89330Y52869D01*
X88150Y51690D01*
X87974Y51725D01*
X87277Y51586D01*
X86705Y51205D01*
X86573Y51137D01*
X86225D01*
X86093Y51205D01*
X85522Y51586D01*
X84824Y51725D01*
X84127Y51586D01*
X83536Y51191D01*
X83500Y51138D01*
X83000Y51290D01*
Y53864D01*
X83414Y54483D01*
X83596Y55400D01*
X83414Y56317D01*
X82894Y57094D01*
X82117Y57614D01*
X81200Y57796D01*
X80283Y57614D01*
X79506Y57094D01*
X78986Y56317D01*
X78811Y55435D01*
X78000Y55596D01*
X77083Y55414D01*
X76306Y54894D01*
X75786Y54117D01*
X75604Y53200D01*
X75786Y52283D01*
X75887Y52133D01*
X75586Y51683D01*
X75376Y51725D01*
X74678Y51586D01*
X74087Y51191D01*
X74051Y51137D01*
X73551D01*
X73515Y51191D01*
X72923Y51586D01*
X72226Y51725D01*
X71529Y51586D01*
X70957Y51204D01*
X70825Y51137D01*
X70477D01*
X70345Y51204D01*
X69774Y51586D01*
X69076Y51725D01*
X68379Y51586D01*
X67808Y51205D01*
X67676Y51137D01*
X67327D01*
X67195Y51205D01*
X66624Y51586D01*
X65927Y51725D01*
X65229Y51586D01*
X64638Y51191D01*
X64243Y50600D01*
X63703Y50449D01*
X63475Y50602D01*
X62777Y50740D01*
X62080Y50602D01*
X61488Y50207D01*
X61093Y49615D01*
X60956Y48926D01*
X56441D01*
X56194Y49294D01*
X55545Y49728D01*
X55740Y50199D01*
X55962Y50155D01*
X59718D01*
X60416Y50293D01*
X61007Y50688D01*
X61402Y51280D01*
X61541Y51977D01*
X61402Y52675D01*
X61249Y52903D01*
X61381Y53374D01*
X61462Y53485D01*
X61484Y53500D01*
X61975Y53402D01*
X62106Y53206D01*
X62883Y52686D01*
X63800Y52504D01*
X64717Y52686D01*
X65494Y53206D01*
X66014Y53983D01*
X66196Y54900D01*
X66014Y55817D01*
X65494Y56594D01*
X65361Y56683D01*
Y57183D01*
X65394Y57206D01*
X65914Y57983D01*
X66096Y58900D01*
X66012Y59325D01*
X66111Y59446D01*
X66606Y59606D01*
X67383Y59086D01*
X68300Y58904D01*
X69217Y59086D01*
X69994Y59606D01*
X70514Y60383D01*
X70696Y61300D01*
X70584Y61861D01*
X70973Y62361D01*
X78222D01*
X78483Y62186D01*
X79400Y62004D01*
X80317Y62186D01*
X81094Y62706D01*
X81614Y63483D01*
X81796Y64400D01*
X81614Y65317D01*
X81094Y66094D01*
X80317Y66614D01*
X79400Y66796D01*
X78483Y66614D01*
X78222Y66439D01*
X65072D01*
X64821Y66389D01*
X62779D01*
X62586Y66428D01*
X62368Y66729D01*
X62287Y66880D01*
X62386Y67028D01*
X62425Y67225D01*
X54239D01*
X54278Y67028D01*
X54507Y66686D01*
X54511Y66250D01*
X54360Y66075D01*
X53950Y65801D01*
X45143Y56994D01*
X43370D01*
Y57934D01*
X43225D01*
X42908Y58320D01*
X42935Y58461D01*
X42753Y59378D01*
X42234Y60155D01*
X41456Y60674D01*
X40539Y60857D01*
X39623Y60674D01*
X38845Y60155D01*
X38326Y59378D01*
X38143Y58461D01*
X38175Y58303D01*
X37738Y57934D01*
X35783D01*
Y55261D01*
X35283D01*
Y54761D01*
X32709D01*
Y52587D01*
X35406D01*
X35711Y52216D01*
Y51736D01*
X35497Y51416D01*
X35426Y51059D01*
X35340Y50973D01*
X32469D01*
Y50339D01*
X29456D01*
X28675Y50184D01*
X28014Y49742D01*
X9786Y31514D01*
X4958Y26686D01*
X2235Y23963D01*
X1773Y24154D01*
Y26031D01*
X-400D01*
Y23456D01*
X-900D01*
Y22956D01*
X-3573D01*
Y20881D01*
X-3573Y20881D01*
Y20881D01*
Y20519D01*
X-3573D01*
X-3573Y20381D01*
Y15369D01*
X-2733D01*
Y12755D01*
X-2746Y12746D01*
X-3363Y11942D01*
X-3751Y11005D01*
X-3883Y10000D01*
X-3751Y8995D01*
X-3363Y8058D01*
X-2746Y7254D01*
X-1942Y6637D01*
X-1733Y6551D01*
Y3449D01*
X-1942Y3363D01*
X-2746Y2746D01*
X-3363Y1942D01*
X-3449Y1733D01*
X-6250D01*
Y3750D01*
X-13750D01*
Y-3750D01*
X-6250D01*
Y-1733D01*
X-3449D01*
X-3363Y-1942D01*
X-2746Y-2746D01*
X-1942Y-3363D01*
X-1005Y-3751D01*
X0Y-3883D01*
X1005Y-3751D01*
X1213Y-3665D01*
X4261Y-6712D01*
X4070Y-7174D01*
X-15274D01*
Y110574D01*
X73162D01*
X73398Y110133D01*
X73186Y109817D01*
X73004Y108900D01*
X73186Y107983D01*
X73706Y107206D01*
X74483Y106686D01*
X75400Y106504D01*
X75869Y106597D01*
X76369Y106227D01*
Y106227D01*
X77211D01*
Y102493D01*
X76924Y102063D01*
X76792Y101400D01*
Y95490D01*
X76302Y95218D01*
X76027Y95381D01*
Y102680D01*
X76027Y102680D01*
X75919Y103226D01*
X75609Y103689D01*
X75609Y103689D01*
X70689Y108609D01*
X70226Y108919D01*
X69680Y109027D01*
X69680Y109027D01*
X39220D01*
X39220Y109027D01*
X38674Y108919D01*
X38488Y108795D01*
X38211Y108609D01*
X38211Y108609D01*
X29191Y99589D01*
X28881Y99126D01*
X28773Y98580D01*
X28773Y98580D01*
Y95179D01*
X24800D01*
Y92900D01*
X24300D01*
Y92400D01*
X19363D01*
Y91612D01*
X18354Y90603D01*
X18044Y90140D01*
X17936Y89594D01*
X17936Y89594D01*
Y86206D01*
X17936Y86206D01*
X18044Y85660D01*
X18354Y85197D01*
X19363Y84188D01*
Y80620D01*
X19363D01*
Y80180D01*
X19363D01*
Y78400D01*
X29237D01*
Y80180D01*
X29237D01*
Y80620D01*
X29237D01*
Y85120D01*
X29237Y85180D01*
X29237Y85180D01*
Y85620D01*
X29237D01*
X29237Y85620D01*
Y87218D01*
X30208Y88190D01*
X30240Y88211D01*
X31646Y89617D01*
X31646Y89617D01*
X31668Y89649D01*
X31911Y89892D01*
X32373Y89701D01*
Y79391D01*
X29809Y76827D01*
X29237D01*
Y77400D01*
X19363D01*
Y76545D01*
X19160Y76409D01*
X19160Y76409D01*
X18191Y75440D01*
X17881Y74977D01*
X17773Y74431D01*
X17773Y74431D01*
Y70400D01*
X17773Y70400D01*
X17881Y69854D01*
X18191Y69391D01*
X19363Y68218D01*
Y65680D01*
X19363Y65620D01*
Y65400D01*
Y65180D01*
X19363Y65121D01*
Y63400D01*
X29237D01*
Y65121D01*
X29237Y65180D01*
Y65400D01*
Y65620D01*
X29237Y65680D01*
Y70121D01*
X29237Y70179D01*
X29237Y70179D01*
Y70621D01*
X29237D01*
X29237Y70621D01*
Y71473D01*
X30000D01*
X30000Y71473D01*
X30546Y71581D01*
X31009Y71891D01*
X36209Y77091D01*
X36519Y77554D01*
X36627Y78100D01*
X36627Y78100D01*
Y90409D01*
X37527Y91308D01*
X38027Y91101D01*
Y86719D01*
X38027Y86581D01*
Y86400D01*
Y86219D01*
X38027Y86081D01*
Y84144D01*
X43373D01*
Y86081D01*
X43373Y86219D01*
Y86400D01*
Y86581D01*
X43373Y86719D01*
Y87862D01*
X54110D01*
X54346Y87421D01*
X54278Y87320D01*
X54239Y87123D01*
X61441D01*
X61402Y87320D01*
X61335Y87421D01*
X61570Y87862D01*
X61813D01*
X62288Y87957D01*
X62777Y87859D01*
X63475Y87998D01*
X63703Y88151D01*
X64243Y88000D01*
X64638Y87409D01*
X65229Y87014D01*
X65927Y86875D01*
X66624Y87014D01*
X67195Y87396D01*
X67327Y87463D01*
X67676D01*
X67808Y87396D01*
X68379Y87014D01*
X69076Y86875D01*
X69774Y87014D01*
X70365Y87409D01*
X70401Y87463D01*
X70901D01*
X70937Y87409D01*
X71529Y87014D01*
X72226Y86875D01*
X72923Y87014D01*
X73515Y87409D01*
X73551Y87463D01*
X74051D01*
X74087Y87409D01*
X74678Y87014D01*
X75376Y86875D01*
X75986Y86997D01*
X76486Y86734D01*
Y84916D01*
X76286Y84617D01*
X76104Y83700D01*
X76207Y83183D01*
X75797Y82683D01*
X71418D01*
X70776Y83326D01*
X70213Y83701D01*
X69550Y83833D01*
X65836D01*
X65117Y84314D01*
X64200Y84496D01*
X63283Y84314D01*
X62916Y84069D01*
X62386Y84171D01*
X61991Y84762D01*
X61400Y85157D01*
X61249Y85697D01*
X61402Y85925D01*
X61441Y86123D01*
X54239D01*
X54278Y85925D01*
X54674Y85334D01*
X54687Y85325D01*
X54535Y84825D01*
X52500D01*
X51993Y84725D01*
X51939Y84689D01*
X51400Y84796D01*
X50483Y84614D01*
X49706Y84094D01*
X49186Y83317D01*
X49004Y82400D01*
X49186Y81483D01*
X49706Y80706D01*
X50483Y80186D01*
X51400Y80004D01*
X52317Y80186D01*
X53094Y80706D01*
X53614Y81483D01*
X53751Y82174D01*
X54615D01*
X54661Y82106D01*
X54674Y81612D01*
X54278Y81021D01*
X54239Y80824D01*
X58332D01*
Y79824D01*
X54239D01*
X54278Y79626D01*
X54674Y79035D01*
X54423Y78601D01*
X54305Y78475D01*
X52765D01*
X52644Y78500D01*
X49588D01*
X49417Y78614D01*
X48500Y78796D01*
X47583Y78614D01*
X46806Y78094D01*
X46286Y77317D01*
X46104Y76400D01*
X46286Y75483D01*
X46806Y74706D01*
X47583Y74186D01*
X48500Y74004D01*
X49417Y74186D01*
X50194Y74706D01*
X50714Y75483D01*
X50786Y75849D01*
X52547D01*
X52668Y75824D01*
X54539D01*
X54691Y75324D01*
X54674Y75313D01*
X54278Y74722D01*
X54239Y74524D01*
X62425D01*
X62386Y74722D01*
X61991Y75313D01*
X61937Y75349D01*
Y75849D01*
X61991Y75885D01*
X62386Y76477D01*
X62525Y77174D01*
X62386Y77871D01*
X61991Y78463D01*
X61937Y78499D01*
Y78999D01*
X61991Y79035D01*
X62386Y79626D01*
X62431Y79854D01*
X62987Y80084D01*
X63283Y79886D01*
X64200Y79704D01*
X65117Y79886D01*
X65836Y80367D01*
X68832D01*
X69474Y79724D01*
X70037Y79349D01*
X70700Y79217D01*
X70700Y79217D01*
X82898D01*
X83561Y79349D01*
X84123Y79724D01*
X85926Y81527D01*
X86301Y82089D01*
X86433Y82752D01*
Y86976D01*
X86933Y87243D01*
X87277Y87014D01*
X87974Y86875D01*
X88671Y87014D01*
X89263Y87409D01*
X89299Y87463D01*
X89799D01*
X89835Y87409D01*
X90426Y87014D01*
X91124Y86875D01*
X91821Y87014D01*
X92073Y87182D01*
X92557Y87008D01*
X92619Y86815D01*
X92286Y86317D01*
X92104Y85400D01*
X92286Y84483D01*
X92806Y83706D01*
X93583Y83186D01*
X94500Y83004D01*
X95417Y83186D01*
X96194Y83706D01*
X96714Y84483D01*
X96896Y85400D01*
X96714Y86317D01*
X96194Y87094D01*
X95906Y87287D01*
X95808Y87778D01*
X95957Y88000D01*
X96029Y88362D01*
X96584Y88592D01*
X96725Y88498D01*
X97423Y88359D01*
X98120Y88498D01*
X98712Y88893D01*
X99107Y89485D01*
X99245Y90182D01*
Y92849D01*
X99617Y93180D01*
X100000Y93104D01*
X100917Y93286D01*
X101694Y93806D01*
X102214Y94583D01*
X102396Y95500D01*
X102214Y96417D01*
X101694Y97194D01*
X100917Y97714D01*
X100000Y97896D01*
X99083Y97714D01*
X98306Y97194D01*
X97786Y96417D01*
X97604Y95500D01*
X97677Y95133D01*
X97348Y94745D01*
X96725Y94621D01*
X96354Y94373D01*
X96122Y94234D01*
X95714Y94498D01*
X95562Y94727D01*
X94971Y95122D01*
X94273Y95260D01*
X93576Y95122D01*
X93570Y95118D01*
X93120Y95418D01*
X93196Y95800D01*
X93014Y96717D01*
X92494Y97494D01*
X91717Y98014D01*
X90800Y98196D01*
X89883Y98014D01*
X89106Y97494D01*
X88586Y96717D01*
X88404Y95800D01*
X88411Y95762D01*
X88054Y95346D01*
X87635Y95340D01*
X87110Y95865D01*
X87196Y96300D01*
X87014Y97217D01*
X86494Y97994D01*
X85717Y98514D01*
X84800Y98696D01*
X83883Y98514D01*
X83106Y97994D01*
X82586Y97217D01*
X82404Y96300D01*
X82552Y95557D01*
X82207Y95188D01*
X82175Y95172D01*
Y91068D01*
X81175D01*
Y95161D01*
X80977Y95122D01*
X80759Y94975D01*
X80259Y95243D01*
Y100726D01*
X80546Y101156D01*
X80677Y101819D01*
X80677Y101819D01*
Y106227D01*
X81519D01*
Y106227D01*
X81881D01*
Y106227D01*
X83956D01*
Y108900D01*
X84456D01*
Y109400D01*
X87031D01*
Y110574D01*
X153874D01*
Y108550D01*
D02*
G37*
G36*
X45623Y104245D02*
X45604D01*
X45786Y103330D01*
X46304Y102554D01*
X46345Y102527D01*
X46193Y102027D01*
X42820D01*
X42820Y102027D01*
X42274Y101919D01*
X42088Y101795D01*
X41811Y101609D01*
X41811Y101609D01*
X33489Y93288D01*
X33027Y93479D01*
Y97409D01*
X40391Y104773D01*
X45623D01*
Y104245D01*
D02*
G37*
G36*
X35300Y27738D02*
Y26150D01*
X39900D01*
Y27035D01*
X40362Y27226D01*
X41796Y25792D01*
Y23000D01*
X42771D01*
Y22198D01*
X41796D01*
Y18510D01*
X41296Y18303D01*
X39900Y19699D01*
Y22198D01*
X35300D01*
Y16898D01*
X37799D01*
X39207Y15490D01*
X39375Y14642D01*
X39629Y14263D01*
X39422Y13807D01*
X38995Y13751D01*
X38058Y13363D01*
X37254Y12746D01*
X36637Y11942D01*
X36249Y11005D01*
X36117Y10000D01*
X36249Y8995D01*
X36637Y8058D01*
X37254Y7254D01*
X37748Y6876D01*
X37578Y6375D01*
X36200D01*
X35948Y6325D01*
X34949D01*
X33299Y7975D01*
X33363Y8058D01*
X33751Y8995D01*
X33883Y10000D01*
X33751Y11005D01*
X33363Y11942D01*
X32746Y12746D01*
X31942Y13363D01*
X31005Y13751D01*
X30626Y13801D01*
Y16569D01*
X31973D01*
Y21719D01*
X31973D01*
Y22081D01*
X31973D01*
Y27231D01*
X28976D01*
X28712Y27283D01*
X25373D01*
Y27431D01*
X20027D01*
Y27283D01*
X12154D01*
X11939Y27768D01*
X12151Y28033D01*
X34800D01*
X34914Y28055D01*
X35300Y27738D01*
D02*
G37*
G36*
X20027Y22281D02*
X20027D01*
Y21919D01*
X20027D01*
Y16769D01*
X20163D01*
X20480Y16383D01*
X20404Y16000D01*
X20586Y15083D01*
X21030Y14420D01*
X21013Y14221D01*
X20552Y13811D01*
X20000Y13883D01*
X18995Y13751D01*
X18058Y13363D01*
X17254Y12746D01*
X16637Y11942D01*
X16249Y11005D01*
X16117Y10000D01*
X16249Y8995D01*
X16637Y8058D01*
X17254Y7254D01*
X18058Y6637D01*
X18995Y6249D01*
X20000Y6117D01*
X21005Y6249D01*
X21942Y6637D01*
X22746Y7254D01*
X23299Y7975D01*
X23858Y8122D01*
X27975Y4006D01*
Y3299D01*
X27254Y2746D01*
X26637Y1942D01*
X26249Y1005D01*
X26117Y0D01*
X26249Y-1005D01*
X26637Y-1942D01*
X27254Y-2746D01*
X27617Y-3025D01*
X27448Y-3525D01*
X25399D01*
X23496Y-1621D01*
X23751Y-1005D01*
X23883Y0D01*
X23751Y1005D01*
X23363Y1942D01*
X22746Y2746D01*
X21942Y3363D01*
X21005Y3751D01*
X20000Y3883D01*
X18995Y3751D01*
X18058Y3363D01*
X17254Y2746D01*
X16637Y1942D01*
X16249Y1005D01*
X16117Y0D01*
X16249Y-1005D01*
X16637Y-1942D01*
X17254Y-2746D01*
X18058Y-3363D01*
X18995Y-3751D01*
X20000Y-3883D01*
X21005Y-3751D01*
X21621Y-3496D01*
X22430Y-4305D01*
X22239Y-4767D01*
X7218D01*
X3665Y-1213D01*
X3751Y-1005D01*
X3883Y0D01*
X3751Y1005D01*
X3363Y1942D01*
X2746Y2746D01*
X1942Y3363D01*
X1733Y3449D01*
Y6551D01*
X1942Y6637D01*
X2746Y7254D01*
X3363Y8058D01*
X3751Y8995D01*
X3883Y10000D01*
X3751Y11005D01*
X3363Y11942D01*
X2746Y12746D01*
X1942Y13363D01*
X1005Y13751D01*
X733Y13787D01*
Y15369D01*
X1773D01*
Y17733D01*
X7245Y23205D01*
X20027D01*
Y22281D01*
D02*
G37*
G36*
X61933Y97448D02*
X61933Y97448D01*
X63291Y96091D01*
X63291Y96091D01*
X64029Y95353D01*
X63710Y94964D01*
X63475Y95122D01*
X62777Y95260D01*
X62080Y95122D01*
X61488Y94726D01*
X61093Y94135D01*
X60955Y93438D01*
Y91329D01*
X43542D01*
X43388Y91797D01*
X43404Y91868D01*
X43414Y91883D01*
X43596Y92800D01*
X43414Y93717D01*
X42894Y94494D01*
X42117Y95014D01*
X41899Y95057D01*
X41754Y95535D01*
X43991Y97773D01*
X46123D01*
Y96745D01*
X46104D01*
X46286Y95830D01*
X46804Y95054D01*
X47580Y94536D01*
X48215Y94410D01*
X48227Y94407D01*
X48227Y94407D01*
X48495Y94354D01*
X48495D01*
X48498D01*
X48701D01*
X48705D01*
D01*
X48973Y94407D01*
X48973Y94407D01*
X48987Y94410D01*
X49620Y94536D01*
X50396Y95054D01*
X50450Y95136D01*
X50950D01*
X51004Y95054D01*
X51780Y94536D01*
X52415Y94410D01*
X52427Y94407D01*
X52427Y94407D01*
X52695Y94354D01*
X52695D01*
X52698D01*
X52901D01*
X52905D01*
D01*
X53173Y94407D01*
X53173Y94407D01*
X53187Y94410D01*
X53820Y94536D01*
X54596Y95054D01*
X54650Y95136D01*
X55150D01*
X55204Y95054D01*
X55980Y94536D01*
X56615Y94410D01*
X56627Y94407D01*
X56627Y94407D01*
X56895Y94354D01*
X56895D01*
X56898D01*
X57101D01*
X57105D01*
D01*
X57373Y94407D01*
X57373Y94407D01*
X57387Y94410D01*
X58020Y94536D01*
X58796Y95054D01*
X59314Y95830D01*
X59496Y96745D01*
X59477D01*
Y97773D01*
X61609D01*
X61933Y97448D01*
D02*
G37*
G36*
X81186Y3983D02*
X81622Y3331D01*
X81436Y2831D01*
X79327D01*
Y34D01*
X77801Y-1492D01*
X77577Y-1827D01*
X77217Y-1586D01*
X76300Y-1404D01*
X75383Y-1586D01*
X74606Y-2106D01*
X74359Y-2475D01*
X73471D01*
X73314Y-1683D01*
X72794Y-906D01*
X72017Y-386D01*
X71100Y-204D01*
X70183Y-386D01*
X69406Y-906D01*
X69159Y-1275D01*
X58452D01*
X55365Y1813D01*
X55557Y2275D01*
X74326D01*
X74706Y1706D01*
X75483Y1186D01*
X76400Y1004D01*
X77317Y1186D01*
X78094Y1706D01*
X78614Y2483D01*
X78796Y3400D01*
X78614Y4317D01*
X78536Y4434D01*
X78771Y4874D01*
X81009D01*
X81186Y3983D01*
D02*
G37*
G36*
X86637Y-1942D02*
X87254Y-2746D01*
X88058Y-3363D01*
X88995Y-3751D01*
X90000Y-3883D01*
X91005Y-3751D01*
X91213Y-3665D01*
X94223Y-6674D01*
X94192Y-6887D01*
X94046Y-7174D01*
X84673D01*
Y-5756D01*
X82000D01*
Y-4756D01*
X84673D01*
Y-2681D01*
X84673Y-2681D01*
Y-2681D01*
Y-2319D01*
X84673D01*
X84673Y-2181D01*
Y-1477D01*
X86445D01*
X86637Y-1942D01*
D02*
G37*
%LPC*%
G36*
X85673Y23844D02*
X83500D01*
Y21769D01*
X85673D01*
Y23844D01*
D02*
G37*
G36*
X37100Y25150D02*
X35300D01*
Y23000D01*
X37100D01*
Y25150D01*
D02*
G37*
G36*
X82500Y23844D02*
X80327D01*
Y21769D01*
X82500D01*
Y23844D01*
D02*
G37*
G36*
X68900Y23644D02*
X66727D01*
Y21569D01*
X68900D01*
Y23644D01*
D02*
G37*
G36*
X76973Y23744D02*
X74800D01*
Y21669D01*
X76973D01*
Y23744D01*
D02*
G37*
G36*
X39900Y25150D02*
X38100D01*
Y23000D01*
X39900D01*
Y25150D01*
D02*
G37*
G36*
X127968Y33859D02*
X125893D01*
Y31686D01*
X127968D01*
Y33859D01*
D02*
G37*
G36*
X127868Y36686D02*
X125793D01*
Y34513D01*
X127868D01*
Y36686D01*
D02*
G37*
G36*
X14509Y52400D02*
X10293D01*
X10390Y51663D01*
X10868Y50510D01*
X11628Y49519D01*
X12618Y48759D01*
X13771Y48282D01*
X14509Y48185D01*
Y52400D01*
D02*
G37*
G36*
X-1400Y26031D02*
X-3573D01*
Y23956D01*
X-1400D01*
Y26031D01*
D02*
G37*
G36*
X49896Y27781D02*
Y25706D01*
X52069D01*
Y27781D01*
X49896D01*
D02*
G37*
G36*
X-10000Y33782D02*
X-10979Y33654D01*
X-11891Y33276D01*
X-12675Y32675D01*
X-13276Y31891D01*
X-13654Y30979D01*
X-13782Y30000D01*
X-13654Y29021D01*
X-13276Y28109D01*
X-12675Y27325D01*
X-11891Y26724D01*
X-10979Y26346D01*
X-10000Y26218D01*
X-9021Y26346D01*
X-8109Y26724D01*
X-7326Y27325D01*
X-6724Y28109D01*
X-6346Y29021D01*
X-6218Y30000D01*
X-6346Y30979D01*
X-6724Y31891D01*
X-7326Y32675D01*
X-8109Y33276D01*
X-9021Y33654D01*
X-10000Y33782D01*
D02*
G37*
G36*
X-6284Y9500D02*
X-9500D01*
Y6284D01*
X-9021Y6346D01*
X-8109Y6724D01*
X-7326Y7326D01*
X-6724Y8109D01*
X-6346Y9021D01*
X-6284Y9500D01*
D02*
G37*
G36*
X-10500Y13716D02*
X-10979Y13654D01*
X-11891Y13276D01*
X-12675Y12675D01*
X-13276Y11891D01*
X-13654Y10979D01*
X-13716Y10500D01*
X-10500D01*
Y13716D01*
D02*
G37*
G36*
X-9500D02*
Y10500D01*
X-6284D01*
X-6346Y10979D01*
X-6724Y11891D01*
X-7326Y12675D01*
X-8109Y13276D01*
X-9021Y13654D01*
X-9500Y13716D01*
D02*
G37*
G36*
X9500Y9500D02*
X6183D01*
X6249Y8995D01*
X6637Y8058D01*
X7254Y7254D01*
X8058Y6637D01*
X8995Y6249D01*
X9500Y6183D01*
Y9500D01*
D02*
G37*
G36*
X13817D02*
X10500D01*
Y6183D01*
X11005Y6249D01*
X11942Y6637D01*
X12746Y7254D01*
X13363Y8058D01*
X13751Y8995D01*
X13817Y9500D01*
D02*
G37*
G36*
X-10500D02*
X-13716D01*
X-13654Y9021D01*
X-13276Y8109D01*
X-12675Y7326D01*
X-11891Y6724D01*
X-10979Y6346D01*
X-10500Y6284D01*
Y9500D01*
D02*
G37*
G36*
X9500Y13817D02*
X8995Y13751D01*
X8058Y13363D01*
X7254Y12746D01*
X6637Y11942D01*
X6249Y11005D01*
X6183Y10500D01*
X9500D01*
Y13817D01*
D02*
G37*
G36*
X13817Y-500D02*
X10500D01*
Y-3817D01*
X11005Y-3751D01*
X11942Y-3363D01*
X12746Y-2746D01*
X13363Y-1942D01*
X13751Y-1005D01*
X13817Y-500D01*
D02*
G37*
G36*
X9500D02*
X6183D01*
X6249Y-1005D01*
X6637Y-1942D01*
X7254Y-2746D01*
X8058Y-3363D01*
X8995Y-3751D01*
X9500Y-3817D01*
Y-500D01*
D02*
G37*
G36*
X-10000Y23782D02*
X-10979Y23653D01*
X-11891Y23276D01*
X-12675Y22674D01*
X-13276Y21891D01*
X-13654Y20979D01*
X-13782Y20000D01*
X-13654Y19021D01*
X-13276Y18109D01*
X-12675Y17325D01*
X-11891Y16724D01*
X-10979Y16346D01*
X-10000Y16218D01*
X-9021Y16346D01*
X-8109Y16724D01*
X-7326Y17325D01*
X-6724Y18109D01*
X-6346Y19021D01*
X-6218Y20000D01*
X-6346Y20979D01*
X-6724Y21891D01*
X-7326Y22674D01*
X-8109Y23276D01*
X-9021Y23653D01*
X-10000Y23782D01*
D02*
G37*
G36*
X10500Y13817D02*
Y10500D01*
X13817D01*
X13751Y11005D01*
X13363Y11942D01*
X12746Y12746D01*
X11942Y13363D01*
X11005Y13751D01*
X10500Y13817D01*
D02*
G37*
G36*
Y3817D02*
Y500D01*
X13817D01*
X13751Y1005D01*
X13363Y1942D01*
X12746Y2746D01*
X11942Y3363D01*
X11005Y3751D01*
X10500Y3817D01*
D02*
G37*
G36*
X9500D02*
X8995Y3751D01*
X8058Y3363D01*
X7254Y2746D01*
X6637Y1942D01*
X6249Y1005D01*
X6183Y500D01*
X9500D01*
Y3817D01*
D02*
G37*
G36*
X19724Y52400D02*
X15509D01*
Y48185D01*
X16246Y48282D01*
X17399Y48759D01*
X18389Y49519D01*
X19149Y50510D01*
X19627Y51663D01*
X19724Y52400D01*
D02*
G37*
G36*
X134134Y108850D02*
X126634D01*
Y101350D01*
X134134D01*
Y108850D01*
D02*
G37*
G36*
X119884Y104600D02*
X116667D01*
X116730Y104121D01*
X117108Y103209D01*
X117709Y102426D01*
X118492Y101824D01*
X119404Y101446D01*
X119884Y101383D01*
Y104600D01*
D02*
G37*
G36*
X124100D02*
X120884D01*
Y101383D01*
X121362Y101446D01*
X122275Y101824D01*
X123058Y102426D01*
X123659Y103209D01*
X124037Y104121D01*
X124100Y104600D01*
D02*
G37*
G36*
X144717Y104300D02*
X141500D01*
Y101084D01*
X141979Y101146D01*
X142891Y101524D01*
X143675Y102126D01*
X144276Y102909D01*
X144653Y103821D01*
X144717Y104300D01*
D02*
G37*
G36*
X14509Y102400D02*
X10293D01*
X10390Y101663D01*
X10868Y100510D01*
X11628Y99519D01*
X12618Y98760D01*
X13771Y98282D01*
X14509Y98185D01*
Y102400D01*
D02*
G37*
G36*
X19724D02*
X15509D01*
Y98185D01*
X16246Y98282D01*
X17399Y98760D01*
X18389Y99519D01*
X19149Y100510D01*
X19627Y101663D01*
X19724Y102400D01*
D02*
G37*
G36*
X140500Y104300D02*
X137284D01*
X137346Y103821D01*
X137724Y102909D01*
X138326Y102126D01*
X139109Y101524D01*
X140021Y101146D01*
X140500Y101084D01*
Y104300D01*
D02*
G37*
G36*
X119884Y108817D02*
X119404Y108754D01*
X118492Y108376D01*
X117709Y107774D01*
X117108Y106991D01*
X116730Y106079D01*
X116667Y105600D01*
X119884D01*
Y108817D01*
D02*
G37*
G36*
X120884D02*
Y105600D01*
X124100D01*
X124037Y106079D01*
X123659Y106991D01*
X123058Y107774D01*
X122275Y108376D01*
X121362Y108754D01*
X120884Y108817D01*
D02*
G37*
G36*
X87031Y108400D02*
X84956D01*
Y106227D01*
X87031D01*
Y108400D01*
D02*
G37*
G36*
X141500Y108517D02*
Y105300D01*
X144717D01*
X144653Y105779D01*
X144276Y106691D01*
X143675Y107475D01*
X142891Y108076D01*
X141979Y108454D01*
X141500Y108517D01*
D02*
G37*
G36*
X14509Y107615D02*
X13771Y107518D01*
X12618Y107041D01*
X11628Y106281D01*
X10868Y105290D01*
X10390Y104137D01*
X10293Y103400D01*
X14509D01*
Y107615D01*
D02*
G37*
G36*
X15509D02*
Y103400D01*
X19724D01*
X19627Y104137D01*
X19149Y105290D01*
X18389Y106281D01*
X17399Y107041D01*
X16246Y107518D01*
X15509Y107615D01*
D02*
G37*
G36*
X140500Y108517D02*
X140021Y108454D01*
X139109Y108076D01*
X138326Y107475D01*
X137724Y106691D01*
X137346Y105779D01*
X137284Y105300D01*
X140500D01*
Y108517D01*
D02*
G37*
G36*
X23800Y95179D02*
X19363D01*
Y93400D01*
X23800D01*
Y95179D01*
D02*
G37*
G36*
X29237Y62400D02*
X24800D01*
Y60620D01*
X29237D01*
Y62400D01*
D02*
G37*
G36*
X40730Y75329D02*
X39554Y75213D01*
X38423Y74870D01*
X37380Y74313D01*
X36467Y73563D01*
X35717Y72650D01*
X35160Y71607D01*
X34817Y70476D01*
X34701Y69300D01*
X34817Y68124D01*
X35160Y66993D01*
X35717Y65951D01*
X36467Y65037D01*
X37380Y64287D01*
X38423Y63730D01*
X39554Y63387D01*
X40730Y63271D01*
X41906Y63387D01*
X43037Y63730D01*
X44080Y64287D01*
X44993Y65037D01*
X45743Y65951D01*
X46300Y66993D01*
X46643Y68124D01*
X46759Y69300D01*
X46643Y70476D01*
X46300Y71607D01*
X45743Y72650D01*
X44993Y73563D01*
X44080Y74313D01*
X43037Y74870D01*
X41906Y75213D01*
X40730Y75329D01*
D02*
G37*
G36*
X119470D02*
X118294Y75213D01*
X117163Y74870D01*
X116121Y74313D01*
X115207Y73563D01*
X114457Y72650D01*
X113900Y71607D01*
X113557Y70476D01*
X113441Y69300D01*
X113557Y68124D01*
X113900Y66993D01*
X114457Y65951D01*
X115207Y65037D01*
X116121Y64287D01*
X117163Y63730D01*
X118294Y63387D01*
X119470Y63271D01*
X120646Y63387D01*
X121777Y63730D01*
X122820Y64287D01*
X123733Y65037D01*
X124483Y65951D01*
X125040Y66993D01*
X125383Y68124D01*
X125499Y69300D01*
X125383Y70476D01*
X125040Y71607D01*
X124483Y72650D01*
X123733Y73563D01*
X122820Y74313D01*
X121777Y74870D01*
X120646Y75213D01*
X119470Y75329D01*
D02*
G37*
G36*
X23800Y62400D02*
X19363D01*
Y60620D01*
X23800D01*
Y62400D01*
D02*
G37*
G36*
X14509Y57615D02*
X13771Y57518D01*
X12618Y57041D01*
X11628Y56281D01*
X10868Y55291D01*
X10390Y54137D01*
X10293Y53400D01*
X14509D01*
Y57615D01*
D02*
G37*
G36*
X15509D02*
Y53400D01*
X19724D01*
X19627Y54137D01*
X19149Y55291D01*
X18389Y56281D01*
X17399Y57041D01*
X16246Y57518D01*
X15509Y57615D01*
D02*
G37*
G36*
X34784Y57934D02*
X32709D01*
Y55761D01*
X34784D01*
Y57934D01*
D02*
G37*
G36*
X127131Y83500D02*
X125056D01*
Y81327D01*
X127131D01*
Y83500D01*
D02*
G37*
G36*
X125056Y92373D02*
Y90200D01*
X127131D01*
Y92373D01*
X125056D01*
D02*
G37*
G36*
X121981Y92373D02*
X121800D01*
X121619D01*
X121481Y92373D01*
X116469D01*
Y91433D01*
X114044D01*
X113381Y91301D01*
X112819Y90926D01*
X112818Y90926D01*
X111141Y89248D01*
X110900Y89296D01*
X109983Y89114D01*
X109428Y89344D01*
X109314Y89917D01*
X108794Y90694D01*
X108017Y91214D01*
X107100Y91396D01*
X106183Y91214D01*
X105406Y90694D01*
X104886Y89917D01*
X104704Y89000D01*
X104736Y88837D01*
X104327Y88428D01*
X104238Y88445D01*
X100482D01*
X99784Y88306D01*
X99193Y87911D01*
X98798Y87320D01*
X98659Y86623D01*
X98798Y85925D01*
X98951Y85697D01*
X98800Y85157D01*
X98209Y84762D01*
X97814Y84171D01*
X97675Y83473D01*
X97814Y82776D01*
X98209Y82185D01*
X98263Y82148D01*
Y81648D01*
X98209Y81612D01*
X97814Y81021D01*
X97675Y80324D01*
X97814Y79626D01*
X98209Y79035D01*
X98263Y78999D01*
Y78499D01*
X98209Y78463D01*
X97814Y77871D01*
X97675Y77174D01*
X97814Y76477D01*
X98209Y75885D01*
X98263Y75849D01*
Y75349D01*
X98209Y75313D01*
X97814Y74722D01*
X97775Y74524D01*
X105961D01*
X105921Y74722D01*
X105758Y74967D01*
X106025Y75467D01*
X107000D01*
X107663Y75599D01*
X108226Y75974D01*
X112268Y80017D01*
X112617Y80086D01*
X113394Y80606D01*
X113914Y81383D01*
X113983Y81732D01*
X114518Y82267D01*
X116469D01*
Y81327D01*
X121481D01*
X121619Y81327D01*
X121800D01*
X121981D01*
X122119Y81327D01*
X124056D01*
Y84000D01*
X124556D01*
Y84500D01*
X127131D01*
Y86527D01*
X127131Y86673D01*
Y86850D01*
Y87027D01*
X127131Y87173D01*
Y89200D01*
X124556D01*
Y89700D01*
X124056D01*
Y92373D01*
X122119D01*
X121981Y92373D01*
D02*
G37*
G36*
X43373Y83144D02*
X41200D01*
Y81069D01*
X43373D01*
Y83144D01*
D02*
G37*
G36*
X62425Y70375D02*
X54239D01*
X54278Y70177D01*
X54674Y69586D01*
X54728Y69550D01*
Y69050D01*
X54674Y69014D01*
X54278Y68423D01*
X54239Y68225D01*
X62425D01*
X62386Y68423D01*
X61991Y69014D01*
X61937Y69050D01*
Y69550D01*
X61991Y69586D01*
X62386Y70177D01*
X62425Y70375D01*
D02*
G37*
G36*
Y73524D02*
X54239D01*
X54278Y73327D01*
X54674Y72736D01*
X54728Y72700D01*
Y72200D01*
X54674Y72163D01*
X54278Y71572D01*
X54239Y71375D01*
X62425D01*
X62386Y71572D01*
X61991Y72163D01*
X61937Y72200D01*
Y72700D01*
X61991Y72736D01*
X62386Y73327D01*
X62425Y73524D01*
D02*
G37*
G36*
X40200Y83144D02*
X38027D01*
Y81069D01*
X40200D01*
Y83144D01*
D02*
G37*
%LPD*%
D10*
X58995Y99200D02*
G03*
X58050Y98255I0J-945D01*
G01*
X57105Y95800D02*
G03*
X58050Y96745I0J945D01*
G01*
X55950D02*
G03*
X56895Y95800I945J0D01*
G01*
X55950Y98255D02*
G03*
X55005Y99200I-945J0D01*
G01*
X54795D02*
G03*
X53850Y98255I0J-945D01*
G01*
X52905Y95800D02*
G03*
X53850Y96745I0J945D01*
G01*
X51750D02*
G03*
X52695Y95800I945J0D01*
G01*
X51750Y98255D02*
G03*
X50805Y99200I-945J0D01*
G01*
X50595D02*
G03*
X49650Y98255I0J-945D01*
G01*
X48705Y95800D02*
G03*
X49650Y96745I0J945D01*
G01*
X47550D02*
G03*
X48495Y95800I945J0D01*
G01*
X47550Y98255D02*
G03*
X46605Y99200I-945J0D01*
G01*
X62695Y106200D02*
G03*
X61750Y105255I0J-945D01*
G01*
X60805Y103300D02*
G03*
X61750Y104245I0J945D01*
G01*
X59650D02*
G03*
X60595Y103300I945J0D01*
G01*
X59650Y105255D02*
G03*
X58705Y106200I-945J0D01*
G01*
X58495D02*
G03*
X57550Y105255I0J-945D01*
G01*
X56605Y103300D02*
G03*
X57550Y104245I0J945D01*
G01*
X55450D02*
G03*
X56395Y103300I945J0D01*
G01*
X55450Y105255D02*
G03*
X54505Y106200I-945J0D01*
G01*
X54295D02*
G03*
X53350Y105255I0J-945D01*
G01*
X52405Y103300D02*
G03*
X53350Y104245I0J945D01*
G01*
X51250D02*
G03*
X52195Y103300I945J0D01*
G01*
X51250Y105255D02*
G03*
X50305Y106200I-945J0D01*
G01*
X50095D02*
G03*
X49150Y105255I0J-945D01*
G01*
X48205Y103300D02*
G03*
X49150Y104245I0J945D01*
G01*
X47050D02*
G03*
X47995Y103300I945J0D01*
G01*
X47050Y105255D02*
G03*
X46105Y106200I-945J0D01*
G01*
X64300Y97100D02*
X66800Y94600D01*
X62942Y98457D02*
X64300Y97100D01*
X62200Y99200D02*
X62942Y98457D01*
X43400Y99200D02*
X44400D01*
X60150D02*
X62200D01*
X58995D02*
X60150D01*
X58050Y96745D02*
Y98255D01*
X56895Y95800D02*
X57105D01*
X55950Y96745D02*
Y98255D01*
X54795Y99200D02*
X55005D01*
X53850Y96745D02*
Y98255D01*
X52695Y95800D02*
X52905D01*
X51750Y96745D02*
Y98255D01*
X50595Y99200D02*
X50805D01*
X49650Y96745D02*
Y98255D01*
X48495Y95800D02*
X48705D01*
X47550Y96745D02*
Y98255D01*
X45450Y99200D02*
X46605D01*
X44400D02*
X45450D01*
X30200Y98580D02*
X39220Y107600D01*
X31600Y98000D02*
X39800Y106200D01*
X74600Y90843D02*
Y102680D01*
X69680Y107600D02*
X74600Y102680D01*
X73200Y91042D02*
Y102100D01*
X69100Y106200D02*
X73200Y102100D01*
X39220Y107600D02*
X69680D01*
X74600Y90843D02*
X75376Y90068D01*
X72226D02*
X73200Y91042D01*
X21700Y67900D02*
X24300D01*
X19200Y70400D02*
X21700Y67900D01*
X19200Y70400D02*
Y74431D01*
X20169Y75400D01*
X30400D01*
X33800Y78800D01*
X42820Y100600D02*
X62780D01*
X33800Y91580D02*
X42820Y100600D01*
X68200Y90944D02*
Y95180D01*
X62780Y100600D02*
X68200Y95180D01*
X66800Y90941D02*
Y94600D01*
X30000Y72900D02*
X35200Y78100D01*
X33800Y78800D02*
Y91580D01*
X35200Y78100D02*
Y91000D01*
X24300Y72900D02*
X30000D01*
X35200Y91000D02*
X43400Y99200D01*
X65927Y90068D02*
X66800Y90941D01*
X68200Y90944D02*
X69076Y90068D01*
X19363Y89594D02*
X20390Y90620D01*
X19363Y86206D02*
Y89594D01*
Y86206D02*
X22669Y82900D01*
X24300D01*
Y87900D02*
X27900D01*
X31600Y91600D02*
Y98000D01*
X30200Y92180D02*
Y98580D01*
X28651Y90620D02*
X29237Y91206D01*
Y91217D01*
X30200Y92180D01*
X27900Y87900D02*
X29221Y89220D01*
X29231D01*
X30637Y90626D01*
Y90637D01*
X31600Y91600D01*
X20390Y90620D02*
X28651D01*
X62695Y106200D02*
X62800D01*
X61750Y104245D02*
Y105255D01*
X60595Y103300D02*
X60805D01*
X59650Y104245D02*
Y105255D01*
X58495Y106200D02*
X58705D01*
X57550Y104245D02*
Y105255D01*
X56395Y103300D02*
X56605D01*
X55450Y104245D02*
Y105255D01*
X54295Y106200D02*
X54505D01*
X53350Y104245D02*
Y105255D01*
X52195Y103300D02*
X52405D01*
X51250Y104245D02*
Y105255D01*
X50095Y106200D02*
X50305D01*
X49150Y104245D02*
Y105255D01*
X47995Y103300D02*
X48205D01*
X47050Y104245D02*
Y105255D01*
X46100Y106200D02*
X46105D01*
X39800D02*
X46100D01*
X62800D02*
X69100D01*
D11*
X62777Y91560D02*
D03*
X97423Y47040D02*
D03*
X62777D02*
D03*
D12*
X65927Y91068D02*
D03*
X69076D02*
D03*
X72226D02*
D03*
X75376D02*
D03*
X81675D02*
D03*
X87974D02*
D03*
X91124D02*
D03*
X94273D02*
D03*
Y47532D02*
D03*
X91124D02*
D03*
X87974D02*
D03*
X84824D02*
D03*
X81675D02*
D03*
X78525D02*
D03*
X75376D02*
D03*
X72226D02*
D03*
X69076D02*
D03*
X65927D02*
D03*
X84824Y91068D02*
D03*
D13*
X78525Y89887D02*
D03*
D14*
X97423Y91560D02*
D03*
D15*
X102360Y86623D02*
D03*
Y51977D02*
D03*
X57840D02*
D03*
Y86623D02*
D03*
D16*
X101868Y83473D02*
D03*
Y80324D02*
D03*
Y77174D02*
D03*
Y74024D02*
D03*
Y70875D02*
D03*
Y67725D02*
D03*
Y64576D02*
D03*
Y61426D02*
D03*
Y58276D02*
D03*
Y55127D02*
D03*
X58332D02*
D03*
Y58276D02*
D03*
Y61426D02*
D03*
Y64576D02*
D03*
Y67725D02*
D03*
Y70875D02*
D03*
Y74024D02*
D03*
Y77174D02*
D03*
Y80324D02*
D03*
Y83473D02*
D03*
D17*
X138200Y63557D02*
D03*
X134460Y70643D02*
D03*
X141940D02*
D03*
D18*
X148600Y69056D02*
D03*
Y63544D02*
D03*
X29300Y24656D02*
D03*
Y19144D02*
D03*
X49396Y25206D02*
D03*
Y19694D02*
D03*
X22700Y19344D02*
D03*
Y24856D02*
D03*
X82000Y256D02*
D03*
Y-5256D02*
D03*
X-900Y17944D02*
D03*
Y23456D02*
D03*
X69400Y29656D02*
D03*
Y24144D02*
D03*
X74300Y29756D02*
D03*
Y24244D02*
D03*
X83000Y29856D02*
D03*
Y24344D02*
D03*
X89000Y29956D02*
D03*
Y24444D02*
D03*
X40700Y83644D02*
D03*
Y89156D02*
D03*
D19*
X125393Y31186D02*
D03*
X119881D02*
D03*
X125293Y37186D02*
D03*
X119781D02*
D03*
X119844Y44900D02*
D03*
X125356D02*
D03*
X119744Y50300D02*
D03*
X125256D02*
D03*
X125356Y55600D02*
D03*
X119844D02*
D03*
X124556Y89700D02*
D03*
X119044D02*
D03*
X124556Y84000D02*
D03*
X119044D02*
D03*
X84456Y108900D02*
D03*
X78944D02*
D03*
X35283Y55261D02*
D03*
X40795D02*
D03*
X40656Y42600D02*
D03*
X35144D02*
D03*
X40556Y48300D02*
D03*
X35044D02*
D03*
D20*
X137268Y89512D02*
D03*
Y78488D02*
D03*
X146869Y89512D02*
D03*
Y78488D02*
D03*
D21*
X37600Y25650D02*
D03*
X44096D02*
D03*
Y19548D02*
D03*
X37600D02*
D03*
D22*
X24300Y92900D02*
D03*
Y87900D02*
D03*
Y82900D02*
D03*
Y77900D02*
D03*
Y72900D02*
D03*
Y67900D02*
D03*
Y62900D02*
D03*
D23*
X53400Y3600D02*
X76400D01*
X76850Y8450D02*
X77500Y9100D01*
X69032Y8450D02*
X76850D01*
X88000Y49665D02*
X91200Y52865D01*
X88000Y48558D02*
Y49665D01*
X87974Y48532D02*
X88000Y48558D01*
X101868Y83473D02*
X105273D01*
X106100Y84300D01*
X101437Y86700D02*
X102360D01*
X104723Y86623D02*
X107100Y89000D01*
X102360Y86623D02*
X104723D01*
X91124Y91068D02*
Y95476D01*
X91124Y90068D02*
Y91068D01*
X90800Y95800D02*
X91124Y95476D01*
X52668Y77150D02*
X59308D01*
X59332Y77174D01*
X52644D02*
X52668Y77150D01*
X49274Y77174D02*
X52644D01*
X53700Y53700D02*
X55423Y51977D01*
X53500Y53700D02*
X53700D01*
X55423Y51977D02*
X57840D01*
X59306Y83500D02*
X59332Y83473D01*
X52500Y83500D02*
X59306D01*
X51400Y82400D02*
X52500Y83500D01*
X62253Y47600D02*
Y48665D01*
X54500Y47600D02*
X62253D01*
X68684Y48532D02*
X69000Y48217D01*
Y43500D02*
Y48217D01*
Y43500D02*
X70150Y42350D01*
X72226Y48532D02*
X72400Y48358D01*
X69400Y29656D02*
X72400Y32656D01*
Y48358D01*
X114900Y44900D02*
X119844D01*
X104673Y55127D02*
X114900Y44900D01*
X100476Y55127D02*
X104673D01*
X93500Y28400D02*
X145200D01*
X92300Y27200D02*
X93500Y28400D01*
X29300Y16600D02*
Y19144D01*
Y10700D02*
Y16600D01*
X26400Y16400D02*
X26600Y16600D01*
X29300D01*
X22700Y13653D02*
Y19344D01*
Y13653D02*
X23750Y12603D01*
X40556Y48300D02*
X40756Y48100D01*
X43800D01*
X40656Y42600D02*
X43800D01*
X44000Y42400D01*
X44096Y19548D02*
Y25419D01*
X46777Y13750D02*
X53223D01*
X52547Y6150D02*
X53647Y5050D01*
X47453Y6150D02*
X52547D01*
X46353Y5050D02*
X47453Y6150D01*
X52050Y4950D02*
X53400Y3600D01*
X47950Y4950D02*
X52050D01*
X46850Y3850D02*
X47950Y4950D01*
X51553Y3750D02*
X57903Y-2600D01*
X48447Y3750D02*
X51553D01*
X44697Y0D02*
X48447Y3750D01*
X24850Y-4850D02*
X72132D01*
X73182Y-3800D01*
X20000Y0D02*
X24850Y-4850D01*
X57903Y-2600D02*
X71100D01*
X53750Y7371D02*
X54871Y6250D01*
X53750Y7371D02*
Y13223D01*
X46250Y9350D02*
Y13223D01*
X43150Y6250D02*
X46250Y9350D01*
X36200Y5050D02*
X46353D01*
X53223Y13750D02*
X53750Y13223D01*
X46250D02*
X46777Y13750D01*
X53647Y5050D02*
X55368D01*
X37747Y3850D02*
X46850D01*
X73182Y-3800D02*
X76300D01*
X147013Y70643D02*
X148600Y69056D01*
X141940Y70643D02*
X147013D01*
X105100Y6500D02*
X105350Y6250D01*
X105750Y4250D02*
X110000Y0D01*
X104168Y4250D02*
X105750D01*
X103468Y4950D02*
X104168Y4250D01*
X86532Y4950D02*
X103468D01*
X117732Y-3750D02*
X133450D01*
X117232Y-3250D02*
X117732Y-3750D01*
X115368Y-3250D02*
X117232D01*
X114868Y-3750D02*
X115368Y-3250D01*
X108447Y-3750D02*
X114868D01*
X106250Y-1553D02*
X108447Y-3750D01*
X106250Y-1553D02*
Y-1100D01*
X103750Y1400D02*
X106250Y-1100D01*
X103750Y1400D02*
Y1553D01*
X101553Y3750D02*
X103750Y1553D01*
X125545Y0D02*
X130000D01*
X121795Y3750D02*
X125545Y0D01*
X120947Y3750D02*
X121795D01*
X113750Y10947D02*
X120947Y3750D01*
X137200Y0D02*
X140000D01*
X133450Y-3750D02*
X137200Y0D01*
X113750Y6250D02*
X120000Y0D01*
X84550Y3750D02*
X101553D01*
Y6250D02*
X105303Y10000D01*
X86929Y6250D02*
X101553D01*
X95200Y11295D02*
Y11700D01*
X68000Y13900D02*
X96900D01*
X94000Y16300D02*
Y16500D01*
X29700Y9700D02*
X34400Y5000D01*
X29300Y10700D02*
X30000Y10000D01*
X23750Y10105D02*
X29300Y4555D01*
X23750Y10105D02*
Y12603D01*
X58808Y61558D02*
X59216Y61150D01*
X68150D01*
X68300Y61300D01*
X81675Y48532D02*
Y54925D01*
X21594Y19344D02*
X22700D01*
X83400Y4900D02*
X84550Y3750D01*
X69782Y12500D02*
X80679D01*
X84332Y7150D02*
X86532Y4950D01*
X80679Y12500D02*
X86929Y6250D01*
X82468Y7150D02*
X84332D01*
X81518Y6200D02*
X82468Y7150D01*
X68479Y6200D02*
X81518D01*
X68029Y5750D02*
X68479Y6200D01*
X63076Y58276D02*
X63700Y58900D01*
X63573Y55127D02*
X63800Y54900D01*
X58568Y8250D02*
X64368D01*
X55368Y5050D02*
X58568Y8250D01*
X58071Y9450D02*
X66350D01*
X54871Y6250D02*
X58071Y9450D01*
X62400Y12500D02*
X66218D01*
X67068Y11650D01*
X59332Y58276D02*
X63076D01*
X84800Y96300D02*
X87974Y93126D01*
Y90068D02*
Y93126D01*
X96900Y13900D02*
X97950Y14950D01*
X95200Y11700D02*
X96200Y12700D01*
X94000Y16500D02*
X96950Y19450D01*
X91450Y32406D02*
Y48206D01*
X89000Y29956D02*
X91450Y32406D01*
X91200Y52865D02*
Y54300D01*
X94273Y85627D02*
X94500Y85400D01*
X94273Y85627D02*
Y90068D01*
X97423Y90560D02*
Y92923D01*
X100000Y95500D01*
X97950Y14950D02*
X115050D01*
X101360Y86623D02*
X101437Y86700D01*
X105400Y17200D02*
X122800D01*
X118367Y32700D02*
X119881Y31186D01*
X83000Y29856D02*
Y34500D01*
X84824Y37600D02*
Y48532D01*
X83200Y35976D02*
X84824Y37600D01*
X83200Y34700D02*
Y35976D01*
X83000Y34500D02*
X83200Y34700D01*
X88800Y20700D02*
Y21600D01*
X88900Y21700D01*
X89000Y21600D01*
X67532Y6950D02*
X69032Y8450D01*
X65668Y6950D02*
X67532D01*
X68932Y11650D02*
X69782Y12500D01*
X67068Y11650D02*
X68932D01*
X105444Y58200D02*
X113344Y50300D01*
X119744D01*
X110786Y37186D02*
X119781D01*
X110700Y37100D02*
X110786Y37186D01*
X97423Y47195D02*
X113432Y31186D01*
X119881D01*
X75376Y30832D02*
Y48532D01*
X74300Y29756D02*
X75376Y30832D01*
X91124Y48532D02*
X91450Y48206D01*
X96950Y19450D02*
X125350D01*
X131050Y13750D01*
X122800Y17200D02*
X130000Y10000D01*
X131050Y13750D02*
X131553D01*
X135303Y10000D01*
X140000D01*
X113750Y10947D02*
Y11553D01*
X111553Y13750D02*
X113750Y11553D01*
X98447Y13750D02*
X111553D01*
X105350Y6250D02*
X113750D01*
X105303Y10000D02*
X110000D01*
X115050Y14950D02*
X120000Y10000D01*
X97397Y12700D02*
X98447Y13750D01*
X96200Y12700D02*
X97397D01*
X39300Y100D02*
X39700Y-300D01*
X40000Y0D02*
X44697D01*
X66350Y9450D02*
X66600Y9200D01*
X64368Y8250D02*
X65668Y6950D01*
X89000Y21600D02*
Y24444D01*
X97423Y47195D02*
Y48040D01*
X145100Y66300D02*
X147856Y69056D01*
X148600D01*
X101360Y46440D02*
Y51977D01*
Y46440D02*
X110700Y37100D01*
X65927Y43727D02*
Y45427D01*
X39300Y10100D02*
X43150Y6250D01*
X59500Y6000D02*
X64921D01*
X65171Y5750D01*
X68029D01*
X65500Y43300D02*
X65927Y43727D01*
X68684Y48532D02*
X69076D01*
X58808Y55259D02*
X59332D01*
Y55127D02*
X63573D01*
X100868Y58200D02*
X105444D01*
X100868D02*
Y58276D01*
X119744Y50300D02*
Y50344D01*
X78000Y53200D02*
X78525Y52675D01*
Y48532D02*
Y52675D01*
X81200Y55400D02*
X81675Y54925D01*
X100343Y55259D02*
X100868D01*
X64800Y44300D02*
X65927Y45427D01*
Y48532D01*
X100343Y55259D02*
X100476Y55127D01*
X36697Y2800D02*
X37747Y3850D01*
X34100Y2800D02*
X36697D01*
X36150Y5000D02*
X36200Y5050D01*
X34400Y5000D02*
X36150D01*
X31400Y100D02*
X34100Y2800D01*
X29300Y100D02*
X31400D01*
X29300D02*
Y4555D01*
X74200Y24144D02*
X74300Y24244D01*
X69400Y24144D02*
X74200D01*
X48500Y76400D02*
X49274Y77174D01*
X35044Y42700D02*
Y48300D01*
Y42700D02*
X35144Y42600D01*
D24*
X83000Y20100D02*
Y24144D01*
X58332Y80324D02*
X62229D01*
X64052Y78500D02*
X64900D01*
X62229Y80324D02*
X64052Y78500D01*
X94273Y53373D02*
X94700Y53800D01*
X94273Y47532D02*
Y53373D01*
X110900Y86556D02*
Y86900D01*
Y84100D02*
Y86556D01*
X107124Y80324D02*
X110900Y84100D01*
Y86556D02*
X114044Y89700D01*
X107000Y77200D02*
X113800Y84000D01*
X100868Y80324D02*
X101868D01*
X107124D01*
X54155Y86755D02*
X58808D01*
X53600Y86200D02*
X54155Y86755D01*
X62023Y86623D02*
X62200Y86800D01*
X57840Y86623D02*
X62023D01*
X54524Y80324D02*
X58332D01*
X53600Y79400D02*
X54524Y80324D01*
X55176Y64576D02*
X59332D01*
X45861Y55261D02*
X55176Y64576D01*
X40795Y55261D02*
X45861D01*
X30200Y62900D02*
X30400Y63100D01*
X24300Y62900D02*
X30200D01*
X18100Y92800D02*
X18200Y92900D01*
X24300D01*
X18300Y77600D02*
X18600Y77900D01*
X24300D01*
X-10000Y0D02*
X0D01*
X146869Y100785D02*
X147752Y101669D01*
X44096Y25419D02*
Y25650D01*
Y25419D02*
X47184Y22331D01*
X47415D01*
X49396Y20350D01*
Y19694D02*
Y20350D01*
X6500Y-6500D02*
X78048D01*
X41139Y89595D02*
X61813D01*
X62777Y90560D01*
X40700Y92300D02*
X41200Y92800D01*
X43944Y83644D02*
X44500Y84200D01*
X-1000Y10400D02*
Y17944D01*
X-200Y9800D02*
X0Y10000D01*
Y0D02*
Y10000D01*
Y0D02*
X6500Y-6500D01*
X78048D02*
X79027Y-5521D01*
Y-2717D01*
X82000Y256D01*
X146869Y89512D02*
Y100785D01*
X147752Y101669D02*
X150883Y104800D01*
X117100Y55703D02*
Y56000D01*
X114344D02*
X117100D01*
X110250Y60094D02*
X114344Y56000D01*
X128586Y31186D02*
X128600Y31200D01*
X125393Y31186D02*
X128586D01*
X128486Y37186D02*
X128500Y37200D01*
X125293Y37186D02*
X128486D01*
X148600Y60500D02*
X148800Y60300D01*
X148600Y60500D02*
Y63544D01*
X117100Y55703D02*
X119844D01*
X148395Y59895D02*
X148800Y60300D01*
X124139Y59895D02*
X148395D01*
X119844Y55600D02*
X124139Y59895D01*
X84700Y82752D02*
Y89943D01*
X70700Y80950D02*
X82898D01*
X84700Y82752D01*
X81200Y83600D02*
X81800D01*
X81150Y83650D02*
X81200Y83600D01*
X34700Y52200D02*
X35079D01*
X35179Y52100D01*
X35283Y52205D01*
X95500Y-5500D02*
X116300D01*
X90000Y0D02*
X95500Y-5500D01*
X85656Y-5256D02*
X85800Y-5400D01*
X82000Y-5256D02*
X85656D01*
X89744Y256D02*
X90000Y0D01*
X82000Y256D02*
X89744D01*
X37600Y25650D02*
Y28700D01*
Y19548D02*
X41589Y15559D01*
X50600Y26410D02*
Y29400D01*
X49396Y25206D02*
X50600Y26410D01*
X64200Y82100D02*
X69550D01*
X70700Y80950D01*
X40700Y89156D02*
X41139Y89595D01*
X78525Y88887D02*
Y101400D01*
X64024Y74024D02*
X64300Y74300D01*
X59332Y74024D02*
X64024D01*
X-3600Y24100D02*
X-1000D01*
X-4700Y25200D02*
X-3600Y24100D01*
X58808Y67857D02*
X63243D01*
X50700Y67500D02*
X50925Y67725D01*
X59332D01*
X105774Y61426D02*
X107600Y59600D01*
X96926Y61426D02*
X105774D01*
X100343Y64708D02*
X106240D01*
X110250Y60698D01*
Y60094D02*
Y60698D01*
X107524Y74024D02*
X107600Y74100D01*
X96924Y74024D02*
X107524D01*
X96800Y61300D02*
X96926Y61426D01*
X96800Y73900D02*
X96924Y74024D01*
X83000Y24144D02*
X83100Y24244D01*
X74500Y21400D02*
Y23444D01*
X78525Y108581D02*
X78944Y109000D01*
X75500D02*
X78944D01*
Y101819D02*
Y108900D01*
X78525Y101400D02*
X78944Y101819D01*
X40700Y83644D02*
X43944D01*
X40700Y89156D02*
Y92300D01*
X114044Y89700D02*
X119044D01*
X113800Y84000D02*
X119044D01*
X22700Y24856D02*
X22956Y24600D01*
X26100D01*
X84700Y89943D02*
X84824Y90068D01*
X137268Y89512D02*
X146869D01*
X137268Y78488D02*
X146869D01*
X137268D02*
X138200Y77557D01*
Y63557D02*
Y77557D01*
X74200Y23744D02*
X74500Y23444D01*
X87700Y108500D02*
X87800Y108600D01*
X84356Y108500D02*
X87700D01*
X126200Y44900D02*
X128700Y42400D01*
X125356Y44900D02*
X126200D01*
X128956Y46600D02*
X129400D01*
X125256Y50300D02*
X128956Y46600D01*
X128900Y55600D02*
X129000Y55500D01*
X125356Y55600D02*
X128900D01*
X83000Y24344D02*
X83100Y24244D01*
X124556Y80756D02*
Y84000D01*
X100894Y77200D02*
X107000D01*
X100868Y77174D02*
X100894Y77200D01*
X100476Y64576D02*
X100868D01*
X100343Y64708D02*
X100476Y64576D01*
X-1000Y10400D02*
X-700Y10100D01*
X81150Y83650D02*
Y90200D01*
X63243Y67857D02*
X63800Y67300D01*
X63693Y71007D02*
X63900Y70800D01*
X58808Y71007D02*
X63693D01*
X74200Y23744D02*
X74500Y24044D01*
X74300Y24244D02*
X74500Y24044D01*
X26100Y24600D02*
X26156Y24656D01*
X29300D01*
X35283Y52205D02*
Y55261D01*
X40795D02*
Y58205D01*
X124556Y92656D02*
X124700Y92800D01*
X124556Y89700D02*
Y92656D01*
X119844Y55600D02*
Y55703D01*
X40539Y58461D02*
X40795Y58205D01*
X75400Y108900D02*
X75500Y109000D01*
D25*
X65072Y64400D02*
X79400D01*
X65022Y64350D02*
X65072Y64400D01*
X62578Y64350D02*
X65022D01*
X62528Y64400D02*
X62578Y64350D01*
X59508Y64400D02*
X62528D01*
X59332Y64576D02*
X59508Y64400D01*
X6400Y25244D02*
X28712D01*
X29300Y24656D01*
X11228Y30072D02*
X29456Y48300D01*
X6400Y25244D02*
X11228Y30072D01*
X34800D01*
X36378Y31650D01*
X38822D01*
X44096Y26376D01*
Y25650D02*
Y26376D01*
X-900Y17944D02*
X6400Y25244D01*
X78500Y83700D02*
X78525Y83725D01*
Y88887D01*
X29456Y48300D02*
X35044D01*
X40795Y54051D02*
Y55261D01*
X40794Y54050D02*
X40795Y54051D01*
X39478Y54050D02*
X40794D01*
X38458Y53030D02*
X39478Y54050D01*
X38458Y52925D02*
Y53030D01*
X37750Y52216D02*
X38458Y52925D01*
X37750Y51005D02*
Y52216D01*
X37381Y50636D02*
X37750Y51005D01*
X37381Y50130D02*
Y50636D01*
X35551Y48300D02*
X37381Y50130D01*
X35044Y48300D02*
X35551D01*
D26*
X40730Y69300D02*
D03*
X119470D02*
D03*
D27*
X-10000Y30000D02*
D03*
Y10000D02*
D03*
Y20000D02*
D03*
X120384Y105100D02*
D03*
X141000Y104800D02*
D03*
D28*
X-10000Y0D02*
D03*
D29*
X91400Y33900D02*
D03*
X115700Y50300D02*
D03*
X72700Y34600D02*
D03*
X83200Y34700D02*
D03*
D30*
X130384Y105100D02*
D03*
X151000Y104800D02*
D03*
D31*
X50000Y10000D02*
D03*
X140000D02*
D03*
D32*
X40000D02*
D03*
X30000D02*
D03*
X20000D02*
D03*
X10000D02*
D03*
X0D02*
D03*
X50000Y0D02*
D03*
X40000D02*
D03*
X30000D02*
D03*
X20000D02*
D03*
X10000D02*
D03*
X0D02*
D03*
X130000Y10000D02*
D03*
X120000D02*
D03*
X110000D02*
D03*
X100000D02*
D03*
X90000D02*
D03*
X140000Y0D02*
D03*
X130000D02*
D03*
X120000D02*
D03*
X110000D02*
D03*
X100000D02*
D03*
X90000D02*
D03*
D33*
X15009Y102900D02*
D03*
Y52900D02*
D03*
D34*
X83000Y20100D02*
D03*
X77500Y9100D02*
D03*
X64900Y78500D02*
D03*
X94700Y53800D02*
D03*
X106100Y84300D02*
D03*
X107100Y89000D02*
D03*
X90800Y95800D02*
D03*
X53600Y86200D02*
D03*
X62200Y86800D02*
D03*
X53600Y79400D02*
D03*
X53500Y53700D02*
D03*
X70150Y42350D02*
D03*
X98400Y33800D02*
D03*
X82100Y71500D02*
D03*
X72000Y84600D02*
D03*
X30400Y63100D02*
D03*
X18100Y92800D02*
D03*
X18300Y77600D02*
D03*
X23300Y98400D02*
D03*
X15200Y71400D02*
D03*
X27300Y55100D02*
D03*
X4400Y39600D02*
D03*
X51300Y34800D02*
D03*
X33700Y22000D02*
D03*
X42700Y35600D02*
D03*
X28800Y36100D02*
D03*
X2300Y26900D02*
D03*
X5400Y15700D02*
D03*
X15600Y5100D02*
D03*
X148600Y4400D02*
D03*
X125800Y4900D02*
D03*
X64600Y800D02*
D03*
X74400Y17200D02*
D03*
X93600Y21500D02*
D03*
X108100Y32300D02*
D03*
X109700Y23700D02*
D03*
X136800Y22200D02*
D03*
X149600Y41300D02*
D03*
X136800Y36400D02*
D03*
X135400Y52000D02*
D03*
X130300Y65600D02*
D03*
X130000Y84700D02*
D03*
X141200Y96800D02*
D03*
X114700Y97300D02*
D03*
X104200Y102900D02*
D03*
X71500Y73700D02*
D03*
X87900Y78500D02*
D03*
X89700Y102900D02*
D03*
X28400Y103300D02*
D03*
X52500Y93400D02*
D03*
X43300Y77800D02*
D03*
X43500Y62000D02*
D03*
X58600Y29900D02*
D03*
X82500Y39900D02*
D03*
X109000Y43400D02*
D03*
X108300Y69300D02*
D03*
X88000Y64700D02*
D03*
X72800Y56700D02*
D03*
X26400Y16400D02*
D03*
X22800Y16000D02*
D03*
X43800Y48100D02*
D03*
X44000Y42400D02*
D03*
X41200Y92800D02*
D03*
X44500Y84200D02*
D03*
X71100Y-2600D02*
D03*
X76300Y-3800D02*
D03*
X128600Y31200D02*
D03*
X128500Y37200D02*
D03*
X148800Y60300D02*
D03*
X79400Y64400D02*
D03*
X81800Y83600D02*
D03*
X78500Y83700D02*
D03*
X34700Y52200D02*
D03*
X111300Y58500D02*
D03*
X110900Y86900D02*
D03*
X111700Y82300D02*
D03*
X105100Y6500D02*
D03*
X116300Y-5500D02*
D03*
X95200Y11295D02*
D03*
X94000Y16300D02*
D03*
X85800Y-5400D02*
D03*
X37600Y28700D02*
D03*
X41589Y15559D02*
D03*
X50600Y29400D02*
D03*
X64200Y82100D02*
D03*
X51400Y82400D02*
D03*
X64300Y74300D02*
D03*
X83400Y4900D02*
D03*
X76400Y3400D02*
D03*
X63700Y58900D02*
D03*
X63800Y54900D02*
D03*
X68300Y61300D02*
D03*
X50700Y67500D02*
D03*
X107600Y59600D02*
D03*
Y74100D02*
D03*
X96800Y61300D02*
D03*
Y73900D02*
D03*
X62400Y12500D02*
D03*
X84800Y96300D02*
D03*
X91200Y54300D02*
D03*
X94500Y85400D02*
D03*
X100000Y95500D02*
D03*
X105400Y17200D02*
D03*
X111800Y32700D02*
D03*
X110700Y37100D02*
D03*
X92300Y27200D02*
D03*
X88800Y20700D02*
D03*
X74500Y21400D02*
D03*
X68000Y13900D02*
D03*
X145200Y28400D02*
D03*
X145100Y66300D02*
D03*
X134500Y73900D02*
D03*
X66600Y9200D02*
D03*
X65500Y43300D02*
D03*
X54500Y47600D02*
D03*
X87800Y108600D02*
D03*
X128700Y42400D02*
D03*
X129400Y46600D02*
D03*
X129000Y55500D02*
D03*
X59500Y6000D02*
D03*
X124556Y80756D02*
D03*
X-4700Y25200D02*
D03*
X63800Y67300D02*
D03*
X63900Y70800D02*
D03*
X81200Y55400D02*
D03*
X78000Y53200D02*
D03*
X26100Y24600D02*
D03*
X124700Y92800D02*
D03*
X48500Y76400D02*
D03*
X40539Y58461D02*
D03*
X75400Y108900D02*
D03*
M02*
