%FSLAX25Y25*%
%MOIN*%
G70*
G01*
G75*
G04 Layer_Color=16711935*
%ADD10C,0.00800*%
%ADD11O,0.01575X0.05331*%
%ADD12O,0.01575X0.06315*%
%ADD13O,0.01575X0.08874*%
%ADD14O,0.01575X0.04331*%
%ADD15O,0.05331X0.01575*%
%ADD16O,0.06315X0.01575*%
%ADD17R,0.02362X0.04724*%
%ADD18R,0.03347X0.03150*%
%ADD19R,0.03150X0.03347*%
%ADD20R,0.06890X0.03937*%
%ADD21R,0.02600X0.03300*%
%ADD22R,0.07874X0.02559*%
%ADD23C,0.00600*%
%ADD24C,0.01400*%
%ADD25C,0.02000*%
%ADD26C,0.10000*%
%ADD27C,0.05500*%
%ADD28R,0.05500X0.05500*%
%ADD29C,0.03300*%
%ADD30R,0.05500X0.05500*%
%ADD31R,0.05700X0.05700*%
%ADD32C,0.05700*%
%ADD33C,0.07480*%
%ADD34C,0.02700*%
%ADD35C,0.05000*%
%ADD36C,0.01000*%
%ADD37R,0.05000X0.02500*%
%ADD38R,0.02500X0.05000*%
%ADD39C,0.01575*%
%ADD40C,0.00984*%
%ADD41C,0.02500*%
%ADD42C,0.01969*%
%ADD43C,0.00787*%
%ADD44O,0.02375X0.06131*%
%ADD45O,0.02375X0.07115*%
%ADD46O,0.02375X0.09674*%
%ADD47O,0.02375X0.05131*%
%ADD48O,0.06131X0.02375*%
%ADD49O,0.07115X0.02375*%
%ADD50R,0.03162X0.05524*%
%ADD51R,0.04147X0.03950*%
%ADD52R,0.03950X0.04147*%
%ADD53R,0.07690X0.04737*%
%ADD54R,0.03400X0.04100*%
%ADD55R,0.08674X0.03359*%
%ADD56C,0.10800*%
%ADD57C,0.06300*%
%ADD58R,0.06300X0.06300*%
%ADD59C,0.04100*%
%ADD60R,0.06300X0.06300*%
%ADD61R,0.06500X0.06500*%
%ADD62C,0.06500*%
%ADD63C,0.08280*%
%ADD64C,0.00100*%
%ADD65R,0.05800X0.06300*%
%ADD66R,0.06300X0.05800*%
%ADD67C,0.05800*%
G36*
X9000Y72348D02*
X8269Y72126D01*
Y70972D01*
X9000Y70750D01*
Y69819D01*
X5386Y71047D01*
Y72034D01*
X9000Y73256D01*
Y72348D01*
D02*
G37*
G36*
X7356Y76391D02*
X7510Y76374D01*
X7652Y76351D01*
X7790Y76323D01*
X7909Y76288D01*
X8024Y76248D01*
X8126Y76203D01*
X8218Y76157D01*
X8303Y76117D01*
X8378Y76071D01*
X8435Y76031D01*
X8486Y75997D01*
X8526Y75968D01*
X8555Y75946D01*
X8572Y75928D01*
X8578Y75923D01*
X8663Y75832D01*
X8737Y75729D01*
X8806Y75626D01*
X8863Y75517D01*
X8909Y75409D01*
X8949Y75300D01*
X8983Y75198D01*
X9006Y75095D01*
X9029Y74998D01*
X9040Y74912D01*
X9051Y74832D01*
X9063Y74764D01*
Y74707D01*
X9069Y74661D01*
Y74638D01*
Y74627D01*
Y74535D01*
X9063Y74455D01*
X9057Y74387D01*
X9051Y74330D01*
Y74284D01*
X9046Y74250D01*
X9040Y74227D01*
Y74221D01*
X9017Y74107D01*
X9006Y74056D01*
X8994Y74004D01*
X8983Y73964D01*
X8971Y73930D01*
X8966Y73907D01*
Y73901D01*
X8931Y73799D01*
X8920Y73759D01*
X8903Y73713D01*
X8891Y73685D01*
X8880Y73656D01*
X8869Y73639D01*
Y73633D01*
X8823Y73542D01*
X8806Y73502D01*
X8789Y73467D01*
X8777Y73439D01*
X8766Y73416D01*
X8760Y73405D01*
Y73399D01*
X7909D01*
Y73485D01*
X7961Y73536D01*
X8006Y73587D01*
X8024Y73610D01*
X8041Y73627D01*
X8046Y73639D01*
X8052Y73645D01*
X8109Y73719D01*
X8155Y73787D01*
X8172Y73816D01*
X8189Y73839D01*
X8195Y73856D01*
X8201Y73861D01*
X8252Y73947D01*
X8292Y74038D01*
X8309Y74079D01*
X8320Y74107D01*
X8332Y74130D01*
Y74136D01*
X8366Y74256D01*
X8378Y74313D01*
X8383Y74364D01*
Y74410D01*
X8389Y74450D01*
Y74472D01*
Y74478D01*
X8378Y74604D01*
X8372Y74661D01*
X8360Y74718D01*
X8349Y74764D01*
X8343Y74798D01*
X8332Y74821D01*
Y74827D01*
X8303Y74889D01*
X8275Y74946D01*
X8241Y74998D01*
X8206Y75043D01*
X8178Y75084D01*
X8155Y75112D01*
X8138Y75129D01*
X8132Y75135D01*
X8075Y75186D01*
X8018Y75232D01*
X7955Y75278D01*
X7898Y75312D01*
X7847Y75340D01*
X7807Y75358D01*
X7778Y75369D01*
X7767Y75375D01*
X7675Y75403D01*
X7584Y75426D01*
X7487Y75437D01*
X7395Y75449D01*
X7321Y75455D01*
X7259Y75460D01*
X7201D01*
X7081Y75455D01*
X6979Y75449D01*
X6882Y75432D01*
X6802Y75415D01*
X6733Y75403D01*
X6682Y75386D01*
X6653Y75380D01*
X6642Y75375D01*
X6556Y75340D01*
X6488Y75306D01*
X6419Y75266D01*
X6368Y75232D01*
X6328Y75198D01*
X6294Y75175D01*
X6276Y75158D01*
X6271Y75152D01*
X6219Y75095D01*
X6174Y75043D01*
X6134Y74986D01*
X6105Y74941D01*
X6082Y74901D01*
X6065Y74872D01*
X6054Y74849D01*
Y74844D01*
X6031Y74781D01*
X6019Y74718D01*
X6008Y74655D01*
X5996Y74604D01*
Y74552D01*
X5991Y74518D01*
Y74490D01*
Y74484D01*
X6002Y74364D01*
X6008Y74313D01*
X6019Y74261D01*
X6031Y74221D01*
X6036Y74193D01*
X6048Y74170D01*
Y74164D01*
X6088Y74056D01*
X6111Y74010D01*
X6134Y73964D01*
X6151Y73930D01*
X6168Y73907D01*
X6174Y73890D01*
X6179Y73884D01*
X6236Y73799D01*
X6259Y73759D01*
X6282Y73725D01*
X6305Y73702D01*
X6322Y73679D01*
X6328Y73667D01*
X6333Y73662D01*
X6391Y73593D01*
X6431Y73542D01*
X6459Y73507D01*
X6470Y73496D01*
Y73399D01*
X5614D01*
X5580Y73473D01*
X5540Y73553D01*
X5528Y73587D01*
X5517Y73616D01*
X5505Y73633D01*
Y73639D01*
X5466Y73742D01*
X5448Y73787D01*
X5431Y73827D01*
X5420Y73861D01*
X5414Y73884D01*
X5408Y73901D01*
Y73907D01*
X5380Y74027D01*
X5368Y74084D01*
X5357Y74130D01*
X5351Y74176D01*
X5346Y74210D01*
X5340Y74233D01*
Y74238D01*
X5323Y74370D01*
X5317Y74438D01*
Y74495D01*
X5311Y74547D01*
Y74592D01*
Y74615D01*
Y74627D01*
X5317Y74775D01*
X5334Y74912D01*
X5357Y75049D01*
X5391Y75169D01*
X5431Y75283D01*
X5471Y75392D01*
X5523Y75489D01*
X5568Y75574D01*
X5614Y75654D01*
X5660Y75723D01*
X5705Y75780D01*
X5745Y75832D01*
X5780Y75866D01*
X5802Y75894D01*
X5819Y75911D01*
X5825Y75917D01*
X5922Y76003D01*
X6031Y76077D01*
X6145Y76140D01*
X6254Y76197D01*
X6373Y76243D01*
X6482Y76277D01*
X6596Y76311D01*
X6705Y76334D01*
X6802Y76357D01*
X6899Y76374D01*
X6979Y76380D01*
X7053Y76391D01*
X7116D01*
X7156Y76397D01*
X7196D01*
X7356Y76391D01*
D02*
G37*
G36*
X7738Y63521D02*
X7070D01*
Y65131D01*
X7738D01*
Y63521D01*
D02*
G37*
G36*
X9000Y68608D02*
X6607D01*
X8149Y67957D01*
Y67335D01*
X6607Y66678D01*
X9000D01*
Y65770D01*
X5386D01*
Y66827D01*
X7173Y67620D01*
X5386Y68420D01*
Y69465D01*
X9000D01*
Y68608D01*
D02*
G37*
G36*
X7356Y84636D02*
X7510Y84619D01*
X7652Y84596D01*
X7790Y84562D01*
X7915Y84528D01*
X8029Y84482D01*
X8132Y84436D01*
X8223Y84391D01*
X8309Y84345D01*
X8378Y84299D01*
X8440Y84254D01*
X8492Y84219D01*
X8532Y84185D01*
X8560Y84162D01*
X8578Y84145D01*
X8583Y84140D01*
X8669Y84042D01*
X8743Y83934D01*
X8812Y83825D01*
X8869Y83711D01*
X8914Y83597D01*
X8954Y83489D01*
X8989Y83374D01*
X9011Y83272D01*
X9034Y83169D01*
X9046Y83077D01*
X9057Y82992D01*
X9069Y82923D01*
Y82860D01*
X9074Y82820D01*
Y82792D01*
Y82780D01*
X9069Y82644D01*
X9057Y82506D01*
X9046Y82381D01*
X9029Y82267D01*
X9011Y82170D01*
X9006Y82130D01*
X8994Y82095D01*
X8989Y82067D01*
Y82050D01*
X8983Y82038D01*
Y82033D01*
X8949Y81896D01*
X8914Y81776D01*
X8880Y81667D01*
X8851Y81576D01*
X8829Y81507D01*
X8812Y81456D01*
X8800Y81422D01*
X8794Y81410D01*
X7013D01*
Y82992D01*
X7692D01*
Y82289D01*
X8406D01*
X8412Y82329D01*
Y82369D01*
Y82398D01*
Y82404D01*
Y82409D01*
Y82455D01*
Y82489D01*
Y82512D01*
Y82518D01*
X8406Y82621D01*
X8400Y82712D01*
X8383Y82803D01*
X8366Y82889D01*
X8343Y82963D01*
X8320Y83038D01*
X8292Y83100D01*
X8263Y83163D01*
X8235Y83214D01*
X8206Y83260D01*
X8184Y83300D01*
X8161Y83334D01*
X8144Y83357D01*
X8126Y83374D01*
X8121Y83386D01*
X8115Y83391D01*
X8052Y83449D01*
X7989Y83494D01*
X7915Y83534D01*
X7841Y83574D01*
X7687Y83631D01*
X7532Y83666D01*
X7464Y83677D01*
X7395Y83688D01*
X7333Y83694D01*
X7281Y83700D01*
X7241Y83706D01*
X7179D01*
X7070Y83700D01*
X6973Y83694D01*
X6882Y83683D01*
X6807Y83666D01*
X6745Y83649D01*
X6699Y83637D01*
X6670Y83631D01*
X6659Y83626D01*
X6579Y83591D01*
X6505Y83551D01*
X6442Y83517D01*
X6385Y83477D01*
X6339Y83449D01*
X6311Y83420D01*
X6288Y83403D01*
X6282Y83397D01*
X6231Y83340D01*
X6185Y83283D01*
X6145Y83226D01*
X6116Y83175D01*
X6088Y83129D01*
X6071Y83095D01*
X6065Y83066D01*
X6059Y83060D01*
X6036Y82986D01*
X6014Y82912D01*
X6002Y82838D01*
X5996Y82775D01*
X5991Y82718D01*
X5985Y82672D01*
Y82644D01*
Y82632D01*
Y82558D01*
X5996Y82489D01*
X6002Y82427D01*
X6014Y82369D01*
X6025Y82324D01*
X6031Y82284D01*
X6042Y82261D01*
Y82255D01*
X6065Y82192D01*
X6088Y82130D01*
X6111Y82078D01*
X6134Y82033D01*
X6151Y81993D01*
X6168Y81964D01*
X6174Y81947D01*
X6179Y81941D01*
X6231Y81855D01*
X6282Y81776D01*
X6305Y81747D01*
X6322Y81724D01*
X6333Y81707D01*
X6339Y81701D01*
X6373Y81656D01*
X6396Y81621D01*
X6425Y81587D01*
X6442Y81559D01*
X6459Y81542D01*
X6465Y81524D01*
X6476Y81513D01*
Y81427D01*
X5631D01*
X5580Y81542D01*
X5534Y81650D01*
X5494Y81753D01*
X5466Y81838D01*
X5437Y81913D01*
X5420Y81970D01*
X5414Y81993D01*
X5408Y82010D01*
X5403Y82015D01*
Y82021D01*
X5374Y82135D01*
X5351Y82255D01*
X5334Y82375D01*
X5323Y82489D01*
X5317Y82592D01*
X5311Y82638D01*
Y82678D01*
Y82706D01*
Y82729D01*
Y82746D01*
Y82752D01*
X5317Y82912D01*
X5334Y83066D01*
X5357Y83209D01*
X5391Y83340D01*
X5431Y83466D01*
X5471Y83580D01*
X5523Y83683D01*
X5568Y83774D01*
X5614Y83860D01*
X5660Y83934D01*
X5705Y83997D01*
X5745Y84048D01*
X5780Y84088D01*
X5802Y84117D01*
X5819Y84134D01*
X5825Y84140D01*
X5922Y84225D01*
X6031Y84305D01*
X6139Y84374D01*
X6254Y84431D01*
X6368Y84476D01*
X6482Y84516D01*
X6596Y84551D01*
X6699Y84579D01*
X6802Y84602D01*
X6893Y84613D01*
X6979Y84625D01*
X7047Y84636D01*
X7110D01*
X7150Y84642D01*
X7190D01*
X7356Y84636D01*
D02*
G37*
G36*
Y88462D02*
X7504Y88445D01*
X7641Y88422D01*
X7772Y88393D01*
X7898Y88359D01*
X8006Y88319D01*
X8109Y88279D01*
X8206Y88234D01*
X8286Y88194D01*
X8360Y88154D01*
X8423Y88114D01*
X8475Y88079D01*
X8515Y88045D01*
X8543Y88022D01*
X8560Y88011D01*
X8566Y88005D01*
X8657Y87914D01*
X8732Y87817D01*
X8800Y87714D01*
X8857Y87606D01*
X8909Y87497D01*
X8949Y87394D01*
X8983Y87286D01*
X9011Y87189D01*
X9034Y87092D01*
X9046Y87006D01*
X9057Y86926D01*
X9069Y86857D01*
Y86800D01*
X9074Y86755D01*
Y86732D01*
Y86720D01*
X9069Y86572D01*
X9051Y86429D01*
X9029Y86298D01*
X8994Y86172D01*
X8960Y86058D01*
X8914Y85955D01*
X8874Y85858D01*
X8823Y85773D01*
X8777Y85693D01*
X8732Y85624D01*
X8692Y85567D01*
X8657Y85521D01*
X8623Y85481D01*
X8600Y85458D01*
X8583Y85441D01*
X8578Y85436D01*
X8480Y85350D01*
X8372Y85281D01*
X8263Y85213D01*
X8149Y85162D01*
X8035Y85116D01*
X7921Y85076D01*
X7807Y85047D01*
X7698Y85019D01*
X7595Y85002D01*
X7498Y84985D01*
X7413Y84979D01*
X7338Y84967D01*
X7281D01*
X7236Y84962D01*
X7196D01*
X7036Y84967D01*
X6887Y84985D01*
X6745Y85007D01*
X6613Y85036D01*
X6488Y85070D01*
X6373Y85110D01*
X6271Y85156D01*
X6179Y85196D01*
X6099Y85242D01*
X6025Y85287D01*
X5962Y85327D01*
X5911Y85361D01*
X5871Y85390D01*
X5842Y85413D01*
X5825Y85430D01*
X5819Y85436D01*
X5728Y85527D01*
X5654Y85624D01*
X5585Y85727D01*
X5528Y85835D01*
X5477Y85938D01*
X5437Y86047D01*
X5403Y86155D01*
X5374Y86252D01*
X5351Y86349D01*
X5340Y86435D01*
X5328Y86515D01*
X5317Y86583D01*
Y86641D01*
X5311Y86686D01*
Y86709D01*
Y86720D01*
X5317Y86869D01*
X5334Y87012D01*
X5357Y87143D01*
X5391Y87263D01*
X5431Y87383D01*
X5471Y87486D01*
X5517Y87583D01*
X5563Y87668D01*
X5614Y87748D01*
X5660Y87811D01*
X5700Y87874D01*
X5740Y87919D01*
X5774Y87954D01*
X5797Y87982D01*
X5814Y87999D01*
X5819Y88005D01*
X5917Y88085D01*
X6025Y88159D01*
X6134Y88222D01*
X6248Y88274D01*
X6362Y88319D01*
X6476Y88354D01*
X6590Y88388D01*
X6699Y88411D01*
X6802Y88428D01*
X6893Y88445D01*
X6979Y88451D01*
X7053Y88462D01*
X7110D01*
X7156Y88468D01*
X7196D01*
X7356Y88462D01*
D02*
G37*
G36*
X7738Y76819D02*
X7070D01*
Y78430D01*
X7738D01*
Y76819D01*
D02*
G37*
G36*
X9000Y78926D02*
X8372D01*
Y79446D01*
X6014D01*
Y78926D01*
X5386D01*
Y80873D01*
X6014D01*
Y80354D01*
X8372D01*
Y80873D01*
X9000D01*
Y78926D01*
D02*
G37*
G36*
Y60472D02*
X8309D01*
Y61979D01*
X5386D01*
Y62887D01*
X9000D01*
Y60472D01*
D02*
G37*
G36*
X7367Y42753D02*
X7521Y42748D01*
X7658Y42736D01*
X7778Y42719D01*
X7829Y42713D01*
X7875Y42708D01*
X7915Y42702D01*
X7949Y42696D01*
X7978Y42691D01*
X7995D01*
X8006Y42685D01*
X8012D01*
X8138Y42651D01*
X8252Y42616D01*
X8349Y42576D01*
X8435Y42537D01*
X8503Y42502D01*
X8555Y42474D01*
X8583Y42451D01*
X8595Y42445D01*
X8680Y42377D01*
X8755Y42308D01*
X8812Y42234D01*
X8863Y42171D01*
X8903Y42108D01*
X8931Y42063D01*
X8949Y42028D01*
X8954Y42017D01*
X8994Y41914D01*
X9023Y41800D01*
X9046Y41691D01*
X9057Y41589D01*
X9069Y41503D01*
Y41463D01*
X9074Y41429D01*
Y41400D01*
Y41383D01*
Y41372D01*
Y41366D01*
X9069Y41229D01*
X9057Y41103D01*
X9034Y40995D01*
X9011Y40898D01*
X8994Y40824D01*
X8971Y40766D01*
X8966Y40749D01*
X8960Y40732D01*
X8954Y40726D01*
Y40721D01*
X8903Y40629D01*
X8846Y40544D01*
X8789Y40469D01*
X8732Y40407D01*
X8680Y40361D01*
X8640Y40321D01*
X8612Y40298D01*
X8600Y40292D01*
X8509Y40235D01*
X8412Y40184D01*
X8315Y40144D01*
X8223Y40110D01*
X8138Y40087D01*
X8075Y40064D01*
X8052Y40058D01*
X8035D01*
X8024Y40053D01*
X8018D01*
X7881Y40024D01*
X7738Y40007D01*
X7601Y39990D01*
X7475Y39984D01*
X7418Y39978D01*
X7361D01*
X7316Y39973D01*
X7196D01*
X7030Y39978D01*
X6876Y39984D01*
X6739Y39996D01*
X6619Y40007D01*
X6567Y40018D01*
X6522Y40024D01*
X6488Y40030D01*
X6453Y40036D01*
X6425Y40041D01*
X6408D01*
X6396Y40047D01*
X6391D01*
X6265Y40081D01*
X6151Y40115D01*
X6054Y40155D01*
X5968Y40195D01*
X5894Y40230D01*
X5842Y40258D01*
X5814Y40281D01*
X5802Y40287D01*
X5717Y40355D01*
X5643Y40424D01*
X5580Y40498D01*
X5528Y40567D01*
X5488Y40629D01*
X5460Y40675D01*
X5443Y40709D01*
X5437Y40715D01*
Y40721D01*
X5397Y40824D01*
X5363Y40932D01*
X5340Y41035D01*
X5328Y41137D01*
X5317Y41229D01*
Y41269D01*
X5311Y41303D01*
Y41326D01*
Y41349D01*
Y41360D01*
Y41366D01*
X5317Y41497D01*
X5328Y41623D01*
X5351Y41731D01*
X5368Y41823D01*
X5391Y41903D01*
X5414Y41960D01*
X5420Y41977D01*
X5426Y41994D01*
X5431Y42000D01*
Y42005D01*
X5483Y42103D01*
X5540Y42188D01*
X5597Y42262D01*
X5654Y42325D01*
X5711Y42371D01*
X5751Y42411D01*
X5780Y42434D01*
X5791Y42439D01*
X5888Y42502D01*
X5985Y42554D01*
X6082Y42599D01*
X6179Y42634D01*
X6259Y42656D01*
X6322Y42674D01*
X6345Y42685D01*
X6362D01*
X6373Y42691D01*
X6379D01*
X6510Y42713D01*
X6647Y42731D01*
X6785Y42742D01*
X6916Y42748D01*
X6973Y42753D01*
X7024D01*
X7076Y42759D01*
X7196D01*
X7367Y42753D01*
D02*
G37*
G36*
X9000Y45277D02*
X7675D01*
Y44958D01*
X9000Y43947D01*
Y42839D01*
X7470Y44061D01*
X7407Y43947D01*
X7338Y43850D01*
X7270Y43764D01*
X7207Y43690D01*
X7150Y43633D01*
X7099Y43593D01*
X7070Y43564D01*
X7059Y43558D01*
X6956Y43496D01*
X6842Y43450D01*
X6727Y43416D01*
X6619Y43393D01*
X6522Y43382D01*
X6482Y43376D01*
X6448Y43370D01*
X6379D01*
X6276Y43376D01*
X6179Y43387D01*
X6099Y43404D01*
X6031Y43427D01*
X5974Y43450D01*
X5934Y43467D01*
X5905Y43479D01*
X5900Y43484D01*
X5831Y43530D01*
X5768Y43581D01*
X5717Y43633D01*
X5671Y43684D01*
X5631Y43730D01*
X5608Y43764D01*
X5591Y43787D01*
X5585Y43798D01*
X5545Y43873D01*
X5511Y43941D01*
X5483Y44010D01*
X5460Y44072D01*
X5443Y44129D01*
X5431Y44170D01*
X5426Y44198D01*
Y44210D01*
X5414Y44295D01*
X5403Y44387D01*
X5397Y44472D01*
X5391Y44558D01*
X5386Y44626D01*
Y44683D01*
Y44706D01*
Y44723D01*
Y44729D01*
Y44735D01*
Y46185D01*
X9000D01*
Y45277D01*
D02*
G37*
G36*
Y35210D02*
X8320D01*
Y36746D01*
X8292Y36707D01*
X8252Y36661D01*
X8178Y36564D01*
X8144Y36518D01*
X8115Y36484D01*
X8092Y36461D01*
X8086Y36450D01*
X7955Y36295D01*
X7886Y36221D01*
X7829Y36158D01*
X7778Y36101D01*
X7732Y36061D01*
X7710Y36033D01*
X7698Y36021D01*
X7567Y35901D01*
X7447Y35799D01*
X7333Y35713D01*
X7236Y35645D01*
X7150Y35587D01*
X7087Y35553D01*
X7064Y35542D01*
X7047Y35530D01*
X7041Y35525D01*
X7036D01*
X6922Y35473D01*
X6807Y35433D01*
X6699Y35410D01*
X6607Y35388D01*
X6528Y35376D01*
X6465Y35370D01*
X6408D01*
X6311Y35376D01*
X6225Y35388D01*
X6139Y35399D01*
X6065Y35422D01*
X5991Y35450D01*
X5922Y35479D01*
X5865Y35507D01*
X5808Y35536D01*
X5762Y35570D01*
X5723Y35599D01*
X5683Y35627D01*
X5654Y35656D01*
X5631Y35679D01*
X5614Y35690D01*
X5608Y35702D01*
X5603Y35707D01*
X5551Y35770D01*
X5505Y35844D01*
X5466Y35919D01*
X5431Y35998D01*
X5380Y36158D01*
X5346Y36318D01*
X5334Y36393D01*
X5328Y36455D01*
X5323Y36518D01*
X5317Y36575D01*
X5311Y36615D01*
Y36649D01*
Y36672D01*
Y36678D01*
X5317Y36792D01*
X5323Y36906D01*
X5334Y37009D01*
X5351Y37106D01*
X5368Y37186D01*
X5380Y37249D01*
X5386Y37272D01*
Y37289D01*
X5391Y37300D01*
Y37306D01*
X5420Y37420D01*
X5448Y37517D01*
X5471Y37597D01*
X5494Y37666D01*
X5511Y37717D01*
X5528Y37751D01*
X5534Y37774D01*
X5540Y37780D01*
X6328D01*
Y37712D01*
X6305Y37677D01*
X6276Y37632D01*
X6254Y37597D01*
X6242Y37592D01*
Y37586D01*
X6202Y37512D01*
X6168Y37443D01*
X6151Y37415D01*
X6145Y37392D01*
X6134Y37375D01*
Y37369D01*
X6094Y37277D01*
X6082Y37238D01*
X6065Y37198D01*
X6054Y37169D01*
X6048Y37146D01*
X6042Y37129D01*
Y37123D01*
X6019Y37026D01*
X6014Y36986D01*
Y36946D01*
X6008Y36912D01*
Y36884D01*
Y36866D01*
Y36861D01*
X6014Y36764D01*
X6031Y36684D01*
X6054Y36610D01*
X6076Y36552D01*
X6099Y36507D01*
X6122Y36472D01*
X6139Y36450D01*
X6145Y36444D01*
X6202Y36393D01*
X6265Y36353D01*
X6328Y36330D01*
X6391Y36307D01*
X6448Y36295D01*
X6493Y36290D01*
X6533D01*
X6613Y36295D01*
X6693Y36307D01*
X6767Y36330D01*
X6836Y36347D01*
X6887Y36370D01*
X6933Y36393D01*
X6956Y36404D01*
X6967Y36410D01*
X7047Y36461D01*
X7133Y36518D01*
X7213Y36581D01*
X7293Y36644D01*
X7361Y36701D01*
X7413Y36746D01*
X7447Y36781D01*
X7453Y36786D01*
X7458Y36792D01*
X7538Y36872D01*
X7618Y36952D01*
X7692Y37032D01*
X7761Y37106D01*
X7824Y37169D01*
X7869Y37220D01*
X7898Y37255D01*
X7904Y37260D01*
X7909Y37266D01*
X8001Y37369D01*
X8092Y37472D01*
X8178Y37574D01*
X8252Y37666D01*
X8320Y37746D01*
X8372Y37809D01*
X8389Y37831D01*
X8406Y37848D01*
X8412Y37860D01*
X8418Y37866D01*
X9000D01*
Y35210D01*
D02*
G37*
G36*
Y38579D02*
X8046D01*
Y39436D01*
X9000D01*
Y38579D01*
D02*
G37*
G36*
Y55561D02*
Y55424D01*
X8994Y55293D01*
X8983Y55173D01*
X8971Y55070D01*
X8966Y54984D01*
X8960Y54944D01*
X8954Y54916D01*
Y54893D01*
X8949Y54876D01*
Y54864D01*
Y54859D01*
X8926Y54733D01*
X8891Y54619D01*
X8851Y54516D01*
X8812Y54425D01*
X8777Y54350D01*
X8743Y54293D01*
X8732Y54270D01*
X8720Y54253D01*
X8715Y54248D01*
Y54242D01*
X8629Y54122D01*
X8532Y54014D01*
X8429Y53917D01*
X8332Y53837D01*
X8241Y53768D01*
X8201Y53745D01*
X8166Y53722D01*
X8144Y53705D01*
X8121Y53694D01*
X8109Y53682D01*
X8104D01*
X7949Y53608D01*
X7795Y53551D01*
X7641Y53511D01*
X7504Y53488D01*
X7441Y53477D01*
X7384Y53471D01*
X7333Y53465D01*
X7287D01*
X7253Y53460D01*
X7201D01*
X7013Y53471D01*
X6836Y53494D01*
X6682Y53528D01*
X6613Y53545D01*
X6545Y53562D01*
X6488Y53585D01*
X6436Y53602D01*
X6396Y53620D01*
X6356Y53637D01*
X6328Y53654D01*
X6305Y53659D01*
X6294Y53671D01*
X6288D01*
X6151Y53757D01*
X6025Y53842D01*
X5922Y53939D01*
X5831Y54025D01*
X5762Y54105D01*
X5711Y54173D01*
X5694Y54196D01*
X5683Y54213D01*
X5671Y54225D01*
Y54230D01*
X5608Y54339D01*
X5557Y54453D01*
X5511Y54556D01*
X5483Y54653D01*
X5460Y54739D01*
X5448Y54801D01*
X5443Y54824D01*
X5437Y54842D01*
Y54853D01*
Y54859D01*
X5408Y55110D01*
X5397Y55230D01*
X5391Y55338D01*
X5386Y55435D01*
Y55475D01*
Y55510D01*
Y55532D01*
Y55555D01*
Y55567D01*
Y55572D01*
Y56691D01*
X9000D01*
Y55561D01*
D02*
G37*
G36*
Y59215D02*
Y58267D01*
X5386Y57023D01*
Y57942D01*
X7841Y58730D01*
X5386Y59518D01*
Y60454D01*
X9000Y59215D01*
D02*
G37*
G36*
X7738Y48275D02*
X7070D01*
Y49885D01*
X7738D01*
Y48275D01*
D02*
G37*
G36*
X8869Y52917D02*
X8903Y52820D01*
X8926Y52729D01*
X8949Y52655D01*
X8966Y52592D01*
X8977Y52569D01*
Y52552D01*
X8983Y52546D01*
Y52540D01*
X9011Y52421D01*
X9029Y52295D01*
X9046Y52175D01*
X9051Y52061D01*
X9057Y51964D01*
X9063Y51918D01*
Y51884D01*
Y51855D01*
Y51832D01*
Y51821D01*
Y51815D01*
X9057Y51684D01*
X9051Y51558D01*
X9034Y51444D01*
X9011Y51336D01*
X8989Y51233D01*
X8960Y51136D01*
X8931Y51050D01*
X8897Y50976D01*
X8869Y50907D01*
X8840Y50845D01*
X8812Y50793D01*
X8789Y50747D01*
X8766Y50719D01*
X8749Y50690D01*
X8743Y50679D01*
X8737Y50673D01*
X8675Y50599D01*
X8606Y50530D01*
X8538Y50473D01*
X8463Y50428D01*
X8395Y50382D01*
X8320Y50348D01*
X8252Y50319D01*
X8184Y50296D01*
X8121Y50279D01*
X8064Y50268D01*
X8012Y50256D01*
X7966Y50251D01*
X7926Y50245D01*
X7875D01*
X7738Y50251D01*
X7624Y50274D01*
X7515Y50302D01*
X7430Y50336D01*
X7361Y50376D01*
X7310Y50405D01*
X7281Y50428D01*
X7270Y50433D01*
X7190Y50508D01*
X7116Y50599D01*
X7053Y50690D01*
X7001Y50776D01*
X6961Y50862D01*
X6927Y50924D01*
X6916Y50953D01*
X6910Y50970D01*
X6904Y50981D01*
Y50987D01*
X6859Y51124D01*
X6842Y51187D01*
X6825Y51244D01*
X6813Y51290D01*
X6802Y51324D01*
X6796Y51347D01*
Y51353D01*
X6767Y51478D01*
X6750Y51535D01*
X6739Y51587D01*
X6733Y51632D01*
X6722Y51673D01*
X6716Y51695D01*
Y51701D01*
X6693Y51798D01*
X6665Y51878D01*
X6642Y51941D01*
X6619Y51992D01*
X6602Y52032D01*
X6585Y52061D01*
X6579Y52072D01*
X6573Y52078D01*
X6539Y52112D01*
X6505Y52135D01*
X6465Y52152D01*
X6431Y52163D01*
X6396Y52169D01*
X6373Y52175D01*
X6351D01*
X6288Y52163D01*
X6231Y52146D01*
X6196Y52129D01*
X6191Y52118D01*
X6185D01*
X6134Y52066D01*
X6099Y52021D01*
X6076Y51981D01*
X6071Y51975D01*
Y51969D01*
X6036Y51895D01*
X6019Y51832D01*
X6008Y51810D01*
Y51792D01*
X6002Y51781D01*
Y51775D01*
X5991Y51701D01*
X5985Y51632D01*
Y51604D01*
Y51581D01*
Y51564D01*
Y51558D01*
X5991Y51444D01*
X6002Y51336D01*
X6025Y51233D01*
X6042Y51147D01*
X6065Y51073D01*
X6088Y51016D01*
X6094Y50993D01*
X6099Y50976D01*
X6105Y50970D01*
Y50964D01*
X6151Y50862D01*
X6202Y50765D01*
X6248Y50679D01*
X6294Y50610D01*
X6333Y50553D01*
X6362Y50508D01*
X6385Y50485D01*
X6391Y50473D01*
Y50388D01*
X5568D01*
X5528Y50485D01*
X5494Y50587D01*
X5460Y50685D01*
X5437Y50770D01*
X5420Y50850D01*
X5403Y50913D01*
X5397Y50936D01*
X5391Y50947D01*
Y50959D01*
Y50964D01*
X5368Y51084D01*
X5351Y51199D01*
X5340Y51307D01*
X5328Y51404D01*
Y51484D01*
X5323Y51547D01*
Y51570D01*
Y51587D01*
Y51598D01*
Y51604D01*
X5328Y51724D01*
X5334Y51832D01*
X5351Y51941D01*
X5374Y52038D01*
X5397Y52135D01*
X5420Y52221D01*
X5448Y52306D01*
X5477Y52375D01*
X5511Y52443D01*
X5540Y52500D01*
X5563Y52552D01*
X5585Y52592D01*
X5608Y52626D01*
X5625Y52655D01*
X5631Y52666D01*
X5637Y52672D01*
X5700Y52746D01*
X5762Y52814D01*
X5831Y52872D01*
X5900Y52917D01*
X5968Y52963D01*
X6036Y52997D01*
X6099Y53026D01*
X6168Y53049D01*
X6225Y53066D01*
X6282Y53077D01*
X6333Y53088D01*
X6373Y53094D01*
X6408D01*
X6436Y53100D01*
X6459D01*
X6596Y53094D01*
X6716Y53071D01*
X6825Y53043D01*
X6916Y53009D01*
X6990Y52980D01*
X7041Y52952D01*
X7076Y52929D01*
X7081Y52923D01*
X7087D01*
X7173Y52843D01*
X7253Y52752D01*
X7321Y52649D01*
X7378Y52552D01*
X7418Y52460D01*
X7441Y52421D01*
X7453Y52386D01*
X7464Y52358D01*
X7475Y52335D01*
X7481Y52323D01*
Y52318D01*
X7527Y52181D01*
X7544Y52112D01*
X7561Y52055D01*
X7572Y52004D01*
X7584Y51964D01*
X7590Y51941D01*
Y51929D01*
X7607Y51850D01*
X7624Y51781D01*
X7641Y51712D01*
X7652Y51655D01*
X7664Y51604D01*
X7675Y51570D01*
X7681Y51541D01*
Y51535D01*
X7715Y51433D01*
X7738Y51387D01*
X7761Y51353D01*
X7778Y51318D01*
X7795Y51296D01*
X7801Y51284D01*
X7807Y51279D01*
X7841Y51244D01*
X7875Y51216D01*
X7915Y51199D01*
X7949Y51181D01*
X7978Y51176D01*
X8001Y51170D01*
X8064D01*
X8104Y51181D01*
X8166Y51204D01*
X8189Y51216D01*
X8206Y51227D01*
X8212Y51233D01*
X8218Y51239D01*
X8269Y51290D01*
X8303Y51341D01*
X8315Y51364D01*
X8326Y51381D01*
X8332Y51393D01*
Y51398D01*
X8355Y51461D01*
X8378Y51530D01*
X8383Y51558D01*
Y51581D01*
X8389Y51598D01*
Y51604D01*
X8395Y51690D01*
Y51724D01*
X8400Y51752D01*
Y51775D01*
Y51792D01*
Y51804D01*
Y51810D01*
X8395Y51924D01*
X8383Y52038D01*
X8360Y52146D01*
X8338Y52243D01*
X8320Y52323D01*
X8298Y52386D01*
X8292Y52409D01*
X8286Y52426D01*
X8281Y52438D01*
Y52443D01*
X8229Y52563D01*
X8172Y52672D01*
X8115Y52775D01*
X8058Y52866D01*
X8006Y52940D01*
X7966Y52997D01*
X7949Y53014D01*
X7938Y53031D01*
X7926Y53037D01*
Y53043D01*
Y53123D01*
X8789D01*
X8869Y52917D01*
D02*
G37*
G36*
X15581Y80055D02*
X16700D01*
Y79401D01*
X15581D01*
Y78830D01*
X15011D01*
Y79401D01*
X12256D01*
Y79857D01*
X15102Y81844D01*
X15581D01*
Y80055D01*
D02*
G37*
G36*
X16441Y78214D02*
X16502Y78206D01*
X16548Y78183D01*
X16593Y78160D01*
X16632Y78145D01*
X16654Y78122D01*
X16670Y78115D01*
X16677Y78107D01*
X16715Y78061D01*
X16746Y78008D01*
X16761Y77962D01*
X16776Y77909D01*
X16784Y77871D01*
X16791Y77841D01*
Y77818D01*
Y77810D01*
X16784Y77749D01*
X16776Y77688D01*
X16753Y77643D01*
X16730Y77597D01*
X16715Y77559D01*
X16692Y77536D01*
X16685Y77521D01*
X16677Y77513D01*
X16632Y77475D01*
X16578Y77445D01*
X16533Y77422D01*
X16479Y77407D01*
X16441Y77399D01*
X16411Y77392D01*
X16380D01*
X16319Y77399D01*
X16266Y77407D01*
X16213Y77430D01*
X16175Y77452D01*
X16137Y77475D01*
X16114Y77491D01*
X16099Y77506D01*
X16091Y77513D01*
X16053Y77559D01*
X16023Y77612D01*
X16000Y77658D01*
X15985Y77704D01*
X15977Y77749D01*
X15969Y77780D01*
Y77803D01*
Y77810D01*
X15977Y77871D01*
X15985Y77932D01*
X16007Y77978D01*
X16030Y78023D01*
X16053Y78061D01*
X16068Y78084D01*
X16084Y78099D01*
X16091Y78107D01*
X16137Y78145D01*
X16190Y78175D01*
X16236Y78191D01*
X16282Y78206D01*
X16319Y78214D01*
X16350Y78221D01*
X16380D01*
X16441Y78214D01*
D02*
G37*
G36*
X14714Y76798D02*
X14866Y76790D01*
X15011Y76775D01*
X15148Y76752D01*
X15277Y76730D01*
X15399Y76699D01*
X15513Y76669D01*
X15619Y76631D01*
X15711Y76600D01*
X15794Y76570D01*
X15870Y76539D01*
X15924Y76516D01*
X15977Y76494D01*
X16007Y76478D01*
X16030Y76463D01*
X16038D01*
X16167Y76380D01*
X16282Y76296D01*
X16380Y76205D01*
X16472Y76113D01*
X16540Y76022D01*
X16601Y75938D01*
X16654Y75847D01*
X16692Y75763D01*
X16723Y75687D01*
X16746Y75618D01*
X16761Y75550D01*
X16769Y75497D01*
X16776Y75451D01*
X16784Y75421D01*
Y75398D01*
Y75390D01*
X16776Y75269D01*
X16746Y75147D01*
X16708Y75033D01*
X16662Y74934D01*
X16616Y74842D01*
X16578Y74781D01*
X16548Y74736D01*
X16540Y74721D01*
X16434Y74599D01*
X16319Y74485D01*
X16190Y74386D01*
X16061Y74302D01*
X15947Y74241D01*
X15893Y74211D01*
X15848Y74188D01*
X15817Y74173D01*
X15787Y74157D01*
X15772Y74150D01*
X15764D01*
X15559Y74074D01*
X15338Y74020D01*
X15125Y73982D01*
X14927Y73959D01*
X14836Y73944D01*
X14752Y73937D01*
X14676D01*
X14607Y73929D01*
X14485D01*
X14288Y73937D01*
X14105Y73952D01*
X13930Y73975D01*
X13762Y74005D01*
X13618Y74043D01*
X13473Y74089D01*
X13344Y74135D01*
X13230Y74180D01*
X13131Y74226D01*
X13040Y74272D01*
X12964Y74317D01*
X12895Y74355D01*
X12849Y74386D01*
X12811Y74409D01*
X12788Y74424D01*
X12781Y74431D01*
X12689Y74507D01*
X12606Y74584D01*
X12537Y74667D01*
X12476Y74743D01*
X12423Y74827D01*
X12385Y74903D01*
X12347Y74979D01*
X12324Y75048D01*
X12286Y75169D01*
X12271Y75223D01*
X12263Y75269D01*
X12256Y75306D01*
Y75337D01*
Y75352D01*
Y75360D01*
X12263Y75459D01*
X12279Y75550D01*
X12301Y75634D01*
X12332Y75717D01*
X12362Y75778D01*
X12385Y75832D01*
X12400Y75862D01*
X12408Y75877D01*
X12469Y75969D01*
X12530Y76052D01*
X12598Y76128D01*
X12667Y76197D01*
X12720Y76250D01*
X12766Y76288D01*
X12796Y76311D01*
X12811Y76319D01*
X12941Y76410D01*
X13078Y76486D01*
X13207Y76547D01*
X13329Y76600D01*
X13443Y76638D01*
X13527Y76669D01*
X13557Y76676D01*
X13580Y76684D01*
X13595Y76692D01*
X13603D01*
X13778Y76730D01*
X13945Y76760D01*
X14105Y76775D01*
X14250Y76790D01*
X14371Y76798D01*
X14425Y76806D01*
X14554D01*
X14714Y76798D01*
D02*
G37*
G36*
X12986Y84385D02*
X12956Y84294D01*
X12933Y84218D01*
X12918Y84157D01*
X12903Y84111D01*
Y84081D01*
X12895Y84050D01*
Y84043D01*
Y84035D01*
X12903Y83997D01*
X12910Y83959D01*
X12918Y83944D01*
X12925Y83936D01*
X12956Y83913D01*
X12986Y83891D01*
X13017Y83883D01*
X13032Y83875D01*
X13093Y83868D01*
X13177Y83860D01*
X13268Y83852D01*
X13367Y83845D01*
X16106D01*
X16175Y83852D01*
X16228D01*
X16266Y83860D01*
X16289D01*
X16304Y83868D01*
X16358Y83898D01*
X16388Y83929D01*
X16411Y83959D01*
X16418Y83974D01*
X16434Y84012D01*
X16441Y84066D01*
X16449Y84134D01*
X16456Y84203D01*
Y84271D01*
X16464Y84324D01*
Y84362D01*
Y84370D01*
Y84378D01*
X16700D01*
Y82658D01*
X16464D01*
X16456Y82772D01*
Y82871D01*
X16449Y82939D01*
X16441Y82993D01*
X16434Y83031D01*
X16426Y83061D01*
X16418Y83069D01*
Y83076D01*
X16388Y83122D01*
X16350Y83145D01*
X16319Y83160D01*
X16312Y83168D01*
X16274Y83175D01*
X16213Y83183D01*
X16145D01*
X16068Y83191D01*
X12256D01*
Y83381D01*
X12796Y84461D01*
X12986Y84385D01*
D02*
G37*
G36*
X15619Y94392D02*
X15718Y94385D01*
X15909Y94347D01*
X16068Y94293D01*
X16198Y94233D01*
X16304Y94172D01*
X16388Y94118D01*
X16411Y94096D01*
X16434Y94080D01*
X16441Y94065D01*
X16449D01*
X16510Y93997D01*
X16563Y93936D01*
X16647Y93791D01*
X16708Y93654D01*
X16746Y93517D01*
X16776Y93396D01*
X16784Y93350D01*
Y93304D01*
X16791Y93266D01*
Y93243D01*
Y93228D01*
Y93221D01*
X16784Y93084D01*
X16776Y93007D01*
X16769Y92946D01*
Y92886D01*
X16761Y92840D01*
X16753Y92809D01*
Y92802D01*
X16746Y92741D01*
X16738Y92680D01*
Y92634D01*
X16730Y92596D01*
Y92566D01*
Y92543D01*
Y92536D01*
Y92528D01*
Y92475D01*
X16746Y92429D01*
X16769Y92361D01*
X16799Y92315D01*
X16806Y92300D01*
X16814D01*
X16852Y92269D01*
X16890Y92246D01*
X16974Y92216D01*
X17012D01*
X17042Y92208D01*
X17073D01*
X17157Y92216D01*
X17225Y92224D01*
X17286Y92246D01*
X17339Y92269D01*
X17377Y92292D01*
X17408Y92307D01*
X17423Y92322D01*
X17431Y92330D01*
X17476Y92376D01*
X17507Y92429D01*
X17529Y92475D01*
X17545Y92520D01*
X17552Y92566D01*
X17560Y92596D01*
Y92619D01*
Y92627D01*
X17552Y92711D01*
X17537Y92794D01*
Y92825D01*
X17529Y92855D01*
X17522Y92870D01*
Y92878D01*
X17499Y92969D01*
X17491Y93038D01*
X17484Y93084D01*
Y93091D01*
Y93099D01*
X17499Y93175D01*
X17522Y93243D01*
X17545Y93281D01*
X17560Y93289D01*
Y93297D01*
X17590Y93327D01*
X17628Y93342D01*
X17689Y93373D01*
X17735Y93380D01*
X17750D01*
X17796Y93373D01*
X17842Y93365D01*
X17902Y93335D01*
X17940Y93312D01*
X17956Y93297D01*
X18001Y93236D01*
X18032Y93167D01*
X18055Y93099D01*
X18070Y93030D01*
X18077Y92977D01*
X18085Y92924D01*
Y92893D01*
Y92886D01*
X18070Y92733D01*
X18032Y92589D01*
X17986Y92467D01*
X17925Y92361D01*
X17864Y92277D01*
X17819Y92208D01*
X17781Y92170D01*
X17765Y92155D01*
X17636Y92056D01*
X17507Y91980D01*
X17370Y91927D01*
X17240Y91889D01*
X17126Y91866D01*
X17073Y91858D01*
X17035D01*
X16997Y91851D01*
X16951D01*
X16799Y91858D01*
X16670Y91881D01*
X16563Y91919D01*
X16464Y91957D01*
X16396Y92003D01*
X16342Y92033D01*
X16304Y92064D01*
X16297Y92071D01*
X16213Y92155D01*
X16152Y92246D01*
X16114Y92345D01*
X16084Y92429D01*
X16068Y92513D01*
X16053Y92574D01*
Y92619D01*
Y92627D01*
Y92634D01*
Y92688D01*
Y92741D01*
X16061Y92855D01*
X16068Y92908D01*
Y92946D01*
X16076Y92977D01*
Y92984D01*
X16084Y93061D01*
X16091Y93137D01*
Y93205D01*
X16099Y93259D01*
Y93304D01*
Y93335D01*
Y93357D01*
Y93365D01*
X16091Y93472D01*
X16068Y93563D01*
X16038Y93647D01*
X16000Y93715D01*
X15969Y93776D01*
X15939Y93814D01*
X15916Y93844D01*
X15909Y93852D01*
X15833Y93913D01*
X15749Y93959D01*
X15665Y93997D01*
X15589Y94020D01*
X15520Y94035D01*
X15467Y94042D01*
X15421D01*
X15307Y94035D01*
X15193Y94020D01*
X15087Y93997D01*
X14988Y93966D01*
X14912Y93943D01*
X14843Y93921D01*
X14805Y93905D01*
X14790Y93898D01*
X14676Y93837D01*
X14569Y93776D01*
X14485Y93715D01*
X14417Y93654D01*
X14371Y93601D01*
X14333Y93563D01*
X14311Y93533D01*
X14303Y93525D01*
X14250Y93441D01*
X14211Y93350D01*
X14189Y93274D01*
X14166Y93198D01*
X14158Y93137D01*
X14151Y93091D01*
Y93053D01*
Y93045D01*
Y92984D01*
X14166Y92916D01*
X14196Y92779D01*
X14211Y92718D01*
X14227Y92672D01*
X14234Y92642D01*
X14242Y92627D01*
X14272Y92528D01*
X14295Y92444D01*
X14311Y92376D01*
X14318Y92315D01*
X14326Y92277D01*
X14333Y92239D01*
Y92224D01*
Y92216D01*
X14318Y92125D01*
X14295Y92049D01*
X14272Y92003D01*
X14257Y91995D01*
Y91988D01*
X14227Y91957D01*
X14189Y91934D01*
X14120Y91904D01*
X14090D01*
X14067Y91896D01*
X14044D01*
X13983Y91904D01*
X13930Y91919D01*
X13877Y91950D01*
X13839Y91980D01*
X13801Y92010D01*
X13778Y92041D01*
X13762Y92056D01*
X13755Y92064D01*
X13709Y92132D01*
X13679Y92216D01*
X13656Y92307D01*
X13641Y92399D01*
X13633Y92475D01*
X13626Y92543D01*
Y92589D01*
Y92596D01*
Y92604D01*
X13633Y92741D01*
X13641Y92870D01*
X13664Y92992D01*
X13686Y93106D01*
X13717Y93213D01*
X13755Y93312D01*
X13793Y93403D01*
X13831Y93487D01*
X13869Y93555D01*
X13907Y93616D01*
X13938Y93669D01*
X13976Y93715D01*
X13998Y93753D01*
X14021Y93776D01*
X14029Y93791D01*
X14037Y93799D01*
X14151Y93905D01*
X14265Y93997D01*
X14387Y94080D01*
X14508Y94149D01*
X14630Y94202D01*
X14752Y94255D01*
X14874Y94293D01*
X14988Y94324D01*
X15094Y94347D01*
X15193Y94370D01*
X15284Y94385D01*
X15361Y94392D01*
X15421D01*
X15475Y94400D01*
X15513D01*
X15619Y94392D01*
D02*
G37*
G36*
X16700Y89012D02*
X15756Y88692D01*
Y88921D01*
X15833Y88967D01*
X15893Y89012D01*
X15939Y89058D01*
X15977Y89103D01*
X16007Y89141D01*
X16023Y89172D01*
X16038Y89187D01*
Y89195D01*
X16061Y89263D01*
X16076Y89355D01*
X16084Y89446D01*
X16091Y89545D01*
X16099Y89644D01*
Y89720D01*
Y89743D01*
Y89766D01*
Y89781D01*
Y89788D01*
Y90823D01*
X16076Y90785D01*
X16038Y90732D01*
X15992Y90671D01*
X15931Y90603D01*
X15863Y90526D01*
X15787Y90450D01*
X15627Y90291D01*
X15467Y90138D01*
X15399Y90070D01*
X15330Y90009D01*
X15277Y89956D01*
X15239Y89918D01*
X15208Y89895D01*
X15201Y89887D01*
X14988Y89697D01*
X14775Y89537D01*
X14584Y89408D01*
X14409Y89301D01*
X14333Y89256D01*
X14265Y89218D01*
X14204Y89187D01*
X14151Y89157D01*
X14105Y89134D01*
X14074Y89119D01*
X14059Y89111D01*
X14052D01*
X13945Y89058D01*
X13839Y89020D01*
X13732Y88989D01*
X13641Y88974D01*
X13557Y88959D01*
X13489Y88951D01*
X13435D01*
X13344Y88959D01*
X13260Y88967D01*
X13101Y89004D01*
X12964Y89065D01*
X12842Y89134D01*
X12743Y89202D01*
X12667Y89256D01*
X12621Y89301D01*
X12613Y89309D01*
X12606Y89316D01*
X12545Y89385D01*
X12492Y89461D01*
X12400Y89613D01*
X12340Y89766D01*
X12301Y89910D01*
X12271Y90039D01*
X12263Y90093D01*
Y90138D01*
X12256Y90176D01*
Y90207D01*
Y90222D01*
Y90230D01*
Y90321D01*
X12271Y90412D01*
X12309Y90580D01*
X12362Y90724D01*
X12416Y90846D01*
X12476Y90945D01*
X12530Y91021D01*
X12568Y91067D01*
X12575Y91074D01*
X12583Y91082D01*
X12652Y91143D01*
X12720Y91196D01*
X12880Y91295D01*
X13040Y91364D01*
X13207Y91417D01*
X13352Y91455D01*
X13412Y91470D01*
X13473Y91485D01*
X13519Y91493D01*
X13550D01*
X13572Y91501D01*
X13580D01*
Y91272D01*
X13451Y91219D01*
X13336Y91158D01*
X13245Y91105D01*
X13169Y91044D01*
X13116Y90991D01*
X13070Y90953D01*
X13047Y90922D01*
X13040Y90915D01*
X12979Y90823D01*
X12941Y90740D01*
X12910Y90648D01*
X12887Y90565D01*
X12872Y90496D01*
X12865Y90443D01*
Y90405D01*
Y90390D01*
X12872Y90275D01*
X12903Y90176D01*
X12941Y90078D01*
X12986Y90001D01*
X13032Y89941D01*
X13070Y89887D01*
X13101Y89857D01*
X13108Y89849D01*
X13199Y89773D01*
X13306Y89720D01*
X13405Y89674D01*
X13504Y89651D01*
X13588Y89636D01*
X13656Y89621D01*
X13717D01*
X13869Y89636D01*
X14021Y89667D01*
X14166Y89705D01*
X14303Y89758D01*
X14409Y89811D01*
X14463Y89834D01*
X14501Y89849D01*
X14531Y89872D01*
X14554Y89880D01*
X14569Y89895D01*
X14577D01*
X14721Y89986D01*
X14866Y90093D01*
X15026Y90215D01*
X15186Y90344D01*
X15498Y90633D01*
X15657Y90778D01*
X15802Y90922D01*
X15939Y91059D01*
X16068Y91189D01*
X16183Y91310D01*
X16282Y91417D01*
X16365Y91501D01*
X16426Y91569D01*
X16464Y91607D01*
X16479Y91622D01*
X16700D01*
Y89012D01*
D02*
G37*
G36*
X14714Y88251D02*
X14866Y88244D01*
X15011Y88228D01*
X15148Y88205D01*
X15277Y88183D01*
X15399Y88152D01*
X15513Y88122D01*
X15619Y88084D01*
X15711Y88053D01*
X15794Y88023D01*
X15870Y87992D01*
X15924Y87970D01*
X15977Y87947D01*
X16007Y87932D01*
X16030Y87916D01*
X16038D01*
X16167Y87833D01*
X16282Y87749D01*
X16380Y87657D01*
X16472Y87566D01*
X16540Y87475D01*
X16601Y87391D01*
X16654Y87300D01*
X16692Y87216D01*
X16723Y87140D01*
X16746Y87072D01*
X16761Y87003D01*
X16769Y86950D01*
X16776Y86904D01*
X16784Y86874D01*
Y86851D01*
Y86843D01*
X16776Y86721D01*
X16746Y86600D01*
X16708Y86486D01*
X16662Y86387D01*
X16616Y86295D01*
X16578Y86234D01*
X16548Y86189D01*
X16540Y86174D01*
X16434Y86052D01*
X16319Y85938D01*
X16190Y85839D01*
X16061Y85755D01*
X15947Y85694D01*
X15893Y85664D01*
X15848Y85641D01*
X15817Y85626D01*
X15787Y85611D01*
X15772Y85603D01*
X15764D01*
X15559Y85527D01*
X15338Y85474D01*
X15125Y85435D01*
X14927Y85413D01*
X14836Y85397D01*
X14752Y85390D01*
X14676D01*
X14607Y85382D01*
X14485D01*
X14288Y85390D01*
X14105Y85405D01*
X13930Y85428D01*
X13762Y85458D01*
X13618Y85496D01*
X13473Y85542D01*
X13344Y85588D01*
X13230Y85633D01*
X13131Y85679D01*
X13040Y85725D01*
X12964Y85770D01*
X12895Y85808D01*
X12849Y85839D01*
X12811Y85862D01*
X12788Y85877D01*
X12781Y85884D01*
X12689Y85961D01*
X12606Y86037D01*
X12537Y86120D01*
X12476Y86196D01*
X12423Y86280D01*
X12385Y86356D01*
X12347Y86432D01*
X12324Y86501D01*
X12286Y86623D01*
X12271Y86676D01*
X12263Y86721D01*
X12256Y86760D01*
Y86790D01*
Y86805D01*
Y86813D01*
X12263Y86912D01*
X12279Y87003D01*
X12301Y87087D01*
X12332Y87170D01*
X12362Y87231D01*
X12385Y87285D01*
X12400Y87315D01*
X12408Y87330D01*
X12469Y87422D01*
X12530Y87505D01*
X12598Y87581D01*
X12667Y87650D01*
X12720Y87703D01*
X12766Y87741D01*
X12796Y87764D01*
X12811Y87772D01*
X12941Y87863D01*
X13078Y87939D01*
X13207Y88000D01*
X13329Y88053D01*
X13443Y88091D01*
X13527Y88122D01*
X13557Y88129D01*
X13580Y88137D01*
X13595Y88145D01*
X13603D01*
X13778Y88183D01*
X13945Y88213D01*
X14105Y88228D01*
X14250Y88244D01*
X14371Y88251D01*
X14425Y88259D01*
X14554D01*
X14714Y88251D01*
D02*
G37*
G36*
X16373Y65269D02*
X16434Y65246D01*
X16495Y65216D01*
X16540Y65178D01*
X16586Y65147D01*
X16616Y65117D01*
X16632Y65094D01*
X16639Y65086D01*
X16685Y65003D01*
X16723Y64911D01*
X16746Y64812D01*
X16769Y64713D01*
X16776Y64622D01*
X16784Y64554D01*
Y64523D01*
Y64500D01*
Y64493D01*
Y64485D01*
X16776Y64325D01*
X16746Y64166D01*
X16715Y64021D01*
X16670Y63899D01*
X16632Y63785D01*
X16593Y63701D01*
X16586Y63671D01*
X16571Y63648D01*
X16563Y63640D01*
Y63633D01*
X16472Y63481D01*
X16365Y63351D01*
X16266Y63237D01*
X16167Y63138D01*
X16076Y63070D01*
X16007Y63016D01*
X15977Y62994D01*
X15954Y62978D01*
X15947Y62971D01*
X15939D01*
X15787Y62895D01*
X15642Y62834D01*
X15505Y62796D01*
X15376Y62765D01*
X15269Y62750D01*
X15193Y62735D01*
X15117D01*
X15011Y62742D01*
X14904Y62758D01*
X14797Y62780D01*
X14699Y62811D01*
X14516Y62887D01*
X14356Y62971D01*
X14288Y63016D01*
X14227Y63054D01*
X14174Y63100D01*
X14128Y63130D01*
X14090Y63161D01*
X14067Y63184D01*
X14052Y63199D01*
X14044Y63207D01*
X13960Y63298D01*
X13884Y63397D01*
X13808Y63496D01*
X13747Y63602D01*
X13648Y63815D01*
X13565Y64013D01*
X13534Y64105D01*
X13511Y64196D01*
X13489Y64272D01*
X13473Y64341D01*
X13466Y64394D01*
X13458Y64432D01*
X13451Y64462D01*
Y64470D01*
X13002Y64219D01*
Y62940D01*
X12340Y62666D01*
Y64302D01*
X14113Y65140D01*
X14120Y64957D01*
X14135Y64789D01*
X14158Y64653D01*
X14174Y64538D01*
X14189Y64447D01*
X14204Y64386D01*
X14211Y64348D01*
X14219Y64333D01*
X14257Y64226D01*
X14295Y64135D01*
X14341Y64044D01*
X14379Y63968D01*
X14417Y63899D01*
X14447Y63854D01*
X14470Y63815D01*
X14478Y63808D01*
X14546Y63724D01*
X14615Y63640D01*
X14683Y63579D01*
X14752Y63519D01*
X14813Y63481D01*
X14858Y63442D01*
X14889Y63427D01*
X14896Y63420D01*
X14988Y63374D01*
X15087Y63336D01*
X15170Y63313D01*
X15254Y63290D01*
X15330Y63283D01*
X15383Y63275D01*
X15437D01*
X15574Y63283D01*
X15696Y63313D01*
X15802Y63359D01*
X15893Y63405D01*
X15969Y63450D01*
X16023Y63496D01*
X16053Y63526D01*
X16068Y63534D01*
X16152Y63633D01*
X16213Y63739D01*
X16259Y63838D01*
X16289Y63930D01*
X16304Y64013D01*
X16312Y64074D01*
X16319Y64120D01*
Y64127D01*
Y64135D01*
X16312Y64211D01*
X16297Y64295D01*
X16274Y64363D01*
X16243Y64432D01*
X16221Y64485D01*
X16198Y64531D01*
X16183Y64561D01*
X16175Y64569D01*
X16106Y64668D01*
X16068Y64736D01*
X16046Y64782D01*
X16038Y64797D01*
X16023Y64850D01*
X16007Y64904D01*
Y64942D01*
Y64949D01*
Y64957D01*
Y65010D01*
X16023Y65056D01*
X16053Y65132D01*
X16068Y65155D01*
X16084Y65178D01*
X16091Y65185D01*
X16099Y65193D01*
X16129Y65223D01*
X16167Y65238D01*
X16236Y65269D01*
X16259D01*
X16282Y65276D01*
X16304D01*
X16373Y65269D01*
D02*
G37*
G36*
X16441Y70033D02*
X16502Y70025D01*
X16548Y70002D01*
X16593Y69980D01*
X16632Y69964D01*
X16654Y69942D01*
X16670Y69934D01*
X16677Y69926D01*
X16715Y69881D01*
X16746Y69827D01*
X16761Y69782D01*
X16776Y69728D01*
X16784Y69690D01*
X16791Y69660D01*
Y69637D01*
Y69629D01*
X16784Y69569D01*
X16776Y69508D01*
X16753Y69462D01*
X16730Y69416D01*
X16715Y69378D01*
X16692Y69355D01*
X16685Y69340D01*
X16677Y69333D01*
X16632Y69295D01*
X16578Y69264D01*
X16533Y69241D01*
X16479Y69226D01*
X16441Y69218D01*
X16411Y69211D01*
X16380D01*
X16319Y69218D01*
X16266Y69226D01*
X16213Y69249D01*
X16175Y69272D01*
X16137Y69295D01*
X16114Y69310D01*
X16099Y69325D01*
X16091Y69333D01*
X16053Y69378D01*
X16023Y69432D01*
X16000Y69477D01*
X15985Y69523D01*
X15977Y69569D01*
X15969Y69599D01*
Y69622D01*
Y69629D01*
X15977Y69690D01*
X15985Y69751D01*
X16007Y69797D01*
X16030Y69842D01*
X16053Y69881D01*
X16068Y69903D01*
X16084Y69919D01*
X16091Y69926D01*
X16137Y69964D01*
X16190Y69995D01*
X16236Y70010D01*
X16282Y70025D01*
X16319Y70033D01*
X16350Y70040D01*
X16380D01*
X16441Y70033D01*
D02*
G37*
G36*
X9000Y88685D02*
X8309D01*
Y90192D01*
X5386D01*
Y91100D01*
X9000D01*
Y88685D01*
D02*
G37*
G36*
X12986Y68024D02*
X12956Y67932D01*
X12933Y67856D01*
X12918Y67795D01*
X12903Y67750D01*
Y67719D01*
X12895Y67689D01*
Y67681D01*
Y67674D01*
X12903Y67636D01*
X12910Y67598D01*
X12918Y67582D01*
X12925Y67575D01*
X12956Y67552D01*
X12986Y67529D01*
X13017Y67522D01*
X13032Y67514D01*
X13093Y67506D01*
X13177Y67499D01*
X13268Y67491D01*
X13367Y67483D01*
X16106D01*
X16175Y67491D01*
X16228D01*
X16266Y67499D01*
X16289D01*
X16304Y67506D01*
X16358Y67537D01*
X16388Y67567D01*
X16411Y67598D01*
X16418Y67613D01*
X16434Y67651D01*
X16441Y67704D01*
X16449Y67773D01*
X16456Y67841D01*
Y67910D01*
X16464Y67963D01*
Y68001D01*
Y68009D01*
Y68016D01*
X16700D01*
Y66296D01*
X16464D01*
X16456Y66410D01*
Y66509D01*
X16449Y66578D01*
X16441Y66631D01*
X16434Y66669D01*
X16426Y66700D01*
X16418Y66707D01*
Y66715D01*
X16388Y66760D01*
X16350Y66783D01*
X16319Y66799D01*
X16312Y66806D01*
X16274Y66814D01*
X16213Y66821D01*
X16145D01*
X16068Y66829D01*
X12256D01*
Y67019D01*
X12796Y68100D01*
X12986Y68024D01*
D02*
G37*
G36*
X13938Y73503D02*
X14044Y73495D01*
X14234Y73457D01*
X14402Y73404D01*
X14539Y73343D01*
X14653Y73282D01*
X14691Y73252D01*
X14729Y73229D01*
X14760Y73206D01*
X14782Y73191D01*
X14790Y73176D01*
X14797D01*
X14858Y73115D01*
X14919Y73046D01*
X15011Y72909D01*
X15071Y72772D01*
X15117Y72643D01*
X15140Y72529D01*
X15155Y72438D01*
X15163Y72407D01*
Y72384D01*
Y72369D01*
Y72361D01*
X15148Y72202D01*
X15140Y72126D01*
X15125Y72057D01*
X15110Y72004D01*
X15102Y71958D01*
X15087Y71928D01*
Y71920D01*
X15049Y71836D01*
X15011Y71768D01*
X14973Y71699D01*
X14934Y71646D01*
X14904Y71608D01*
X14874Y71570D01*
X14858Y71555D01*
X14851Y71547D01*
X15018Y71600D01*
X15186Y71669D01*
X15338Y71737D01*
X15475Y71813D01*
X15589Y71882D01*
X15635Y71912D01*
X15680Y71935D01*
X15711Y71958D01*
X15733Y71973D01*
X15749Y71981D01*
X15756Y71988D01*
X15909Y72110D01*
X16038Y72224D01*
X16145Y72339D01*
X16228Y72438D01*
X16297Y72521D01*
X16335Y72582D01*
X16365Y72628D01*
X16373Y72635D01*
Y72643D01*
X16434Y72772D01*
X16472Y72909D01*
X16510Y73039D01*
X16533Y73160D01*
X16540Y73267D01*
X16548Y73351D01*
X16555Y73381D01*
Y73404D01*
Y73419D01*
Y73427D01*
X16791D01*
Y73183D01*
X16784Y73069D01*
X16776Y72955D01*
X16738Y72742D01*
X16685Y72552D01*
X16624Y72384D01*
X16593Y72308D01*
X16563Y72240D01*
X16533Y72179D01*
X16510Y72133D01*
X16487Y72095D01*
X16472Y72065D01*
X16456Y72049D01*
Y72042D01*
X16289Y71821D01*
X16114Y71623D01*
X15939Y71448D01*
X15779Y71311D01*
X15703Y71250D01*
X15635Y71197D01*
X15574Y71151D01*
X15520Y71121D01*
X15475Y71091D01*
X15444Y71068D01*
X15421Y71060D01*
X15414Y71052D01*
X15292Y70992D01*
X15178Y70931D01*
X14942Y70847D01*
X14714Y70779D01*
X14508Y70740D01*
X14409Y70725D01*
X14326Y70710D01*
X14257Y70702D01*
X14189D01*
X14135Y70695D01*
X14067D01*
X13915Y70702D01*
X13778Y70718D01*
X13641Y70740D01*
X13511Y70771D01*
X13390Y70809D01*
X13283Y70847D01*
X13177Y70893D01*
X13085Y70931D01*
X13002Y70976D01*
X12925Y71022D01*
X12857Y71060D01*
X12804Y71098D01*
X12758Y71129D01*
X12728Y71151D01*
X12712Y71167D01*
X12705Y71174D01*
X12621Y71250D01*
X12552Y71327D01*
X12492Y71403D01*
X12438Y71486D01*
X12393Y71562D01*
X12362Y71646D01*
X12301Y71791D01*
X12271Y71920D01*
X12263Y71973D01*
X12256Y72027D01*
X12248Y72065D01*
Y72095D01*
Y72110D01*
Y72118D01*
X12256Y72224D01*
X12271Y72323D01*
X12294Y72422D01*
X12317Y72514D01*
X12393Y72681D01*
X12476Y72826D01*
X12560Y72940D01*
X12598Y72986D01*
X12636Y73023D01*
X12659Y73054D01*
X12682Y73084D01*
X12697Y73092D01*
X12705Y73100D01*
X12788Y73168D01*
X12880Y73237D01*
X12979Y73290D01*
X13070Y73335D01*
X13260Y73412D01*
X13435Y73457D01*
X13519Y73472D01*
X13595Y73488D01*
X13664Y73495D01*
X13717Y73503D01*
X13762Y73511D01*
X13831D01*
X13938Y73503D01*
D02*
G37*
%LPC*%
G36*
X7253Y87531D02*
X7196D01*
X7081Y87525D01*
X6973Y87520D01*
X6882Y87508D01*
X6796Y87497D01*
X6733Y87486D01*
X6682Y87474D01*
X6653Y87463D01*
X6642D01*
X6556Y87434D01*
X6482Y87406D01*
X6419Y87377D01*
X6368Y87349D01*
X6322Y87326D01*
X6294Y87303D01*
X6271Y87291D01*
X6265Y87286D01*
X6213Y87234D01*
X6168Y87189D01*
X6128Y87143D01*
X6099Y87103D01*
X6082Y87069D01*
X6065Y87046D01*
X6054Y87029D01*
Y87023D01*
X6031Y86972D01*
X6019Y86915D01*
X6008Y86863D01*
X5996Y86818D01*
Y86778D01*
X5991Y86743D01*
Y86720D01*
Y86715D01*
Y86658D01*
X6002Y86601D01*
X6014Y86549D01*
X6025Y86503D01*
X6036Y86469D01*
X6048Y86435D01*
X6054Y86418D01*
X6059Y86412D01*
X6088Y86361D01*
X6116Y86309D01*
X6156Y86264D01*
X6191Y86224D01*
X6219Y86195D01*
X6248Y86167D01*
X6265Y86155D01*
X6271Y86149D01*
X6328Y86110D01*
X6391Y86075D01*
X6453Y86041D01*
X6516Y86012D01*
X6567Y85995D01*
X6607Y85978D01*
X6636Y85972D01*
X6647Y85967D01*
X6733Y85944D01*
X6825Y85927D01*
X6916Y85915D01*
X7007Y85904D01*
X7081D01*
X7139Y85898D01*
X7316D01*
X7424Y85910D01*
X7515Y85921D01*
X7595Y85932D01*
X7658Y85944D01*
X7704Y85955D01*
X7732Y85961D01*
X7744Y85967D01*
X7818Y85989D01*
X7892Y86018D01*
X7955Y86052D01*
X8006Y86081D01*
X8052Y86104D01*
X8086Y86127D01*
X8109Y86138D01*
X8115Y86144D01*
X8166Y86184D01*
X8206Y86229D01*
X8246Y86275D01*
X8275Y86315D01*
X8298Y86349D01*
X8315Y86378D01*
X8320Y86401D01*
X8326Y86406D01*
X8349Y86463D01*
X8366Y86515D01*
X8378Y86566D01*
X8383Y86618D01*
X8389Y86658D01*
X8395Y86686D01*
Y86709D01*
Y86715D01*
X8389Y86772D01*
X8383Y86829D01*
X8372Y86880D01*
X8360Y86926D01*
X8349Y86966D01*
X8343Y86994D01*
X8332Y87017D01*
Y87023D01*
X8303Y87075D01*
X8275Y87126D01*
X8235Y87172D01*
X8201Y87212D01*
X8172Y87240D01*
X8144Y87263D01*
X8126Y87280D01*
X8121Y87286D01*
X8064Y87326D01*
X8001Y87360D01*
X7938Y87394D01*
X7881Y87417D01*
X7829Y87440D01*
X7790Y87457D01*
X7767Y87463D01*
X7755Y87468D01*
X7670Y87491D01*
X7572Y87503D01*
X7481Y87514D01*
X7390Y87525D01*
X7316D01*
X7253Y87531D01*
D02*
G37*
G36*
X14668Y87513D02*
X14379D01*
X14196Y87498D01*
X14029Y87490D01*
X13869Y87475D01*
X13740Y87460D01*
X13679Y87452D01*
X13633D01*
X13595Y87445D01*
X13565Y87437D01*
X13542D01*
X13352Y87406D01*
X13192Y87368D01*
X13062Y87330D01*
X12956Y87292D01*
X12880Y87262D01*
X12826Y87231D01*
X12788Y87216D01*
X12781Y87209D01*
X12720Y87132D01*
X12674Y87056D01*
X12636Y86988D01*
X12613Y86927D01*
X12598Y86881D01*
X12591Y86843D01*
Y86820D01*
Y86813D01*
X12598Y86714D01*
X12613Y86638D01*
X12636Y86592D01*
X12644Y86577D01*
X12712Y86508D01*
X12781Y86448D01*
X12849Y86402D01*
X12918Y86356D01*
X12979Y86326D01*
X13024Y86303D01*
X13055Y86288D01*
X13062Y86280D01*
X13275Y86227D01*
X13496Y86189D01*
X13709Y86166D01*
X13900Y86143D01*
X13991D01*
X14067Y86136D01*
X14143D01*
X14204Y86128D01*
X14501D01*
X14668Y86136D01*
X14828Y86143D01*
X14973Y86151D01*
X15110Y86158D01*
X15231Y86174D01*
X15345Y86189D01*
X15452Y86196D01*
X15543Y86212D01*
X15619Y86227D01*
X15688Y86242D01*
X15741Y86250D01*
X15787Y86257D01*
X15817Y86265D01*
X15833Y86273D01*
X15840D01*
X15954Y86311D01*
X16053Y86349D01*
X16137Y86394D01*
X16198Y86432D01*
X16251Y86470D01*
X16282Y86501D01*
X16304Y86524D01*
X16312Y86531D01*
X16358Y86592D01*
X16388Y86645D01*
X16418Y86699D01*
X16434Y86744D01*
X16441Y86782D01*
X16449Y86813D01*
Y86828D01*
Y86836D01*
X16441Y86919D01*
X16411Y86996D01*
X16365Y87064D01*
X16319Y87117D01*
X16274Y87163D01*
X16228Y87201D01*
X16198Y87224D01*
X16190Y87231D01*
X16091Y87277D01*
X15985Y87323D01*
X15863Y87361D01*
X15733Y87391D01*
X15467Y87445D01*
X15201Y87475D01*
X15071Y87490D01*
X14950Y87498D01*
X14843Y87505D01*
X14752D01*
X14668Y87513D01*
D02*
G37*
G36*
X7304Y41851D02*
X7076D01*
X6961Y41846D01*
X6859Y41840D01*
X6762Y41834D01*
X6676Y41828D01*
X6602Y41817D01*
X6533Y41806D01*
X6470Y41794D01*
X6419Y41788D01*
X6373Y41777D01*
X6333Y41766D01*
X6305Y41760D01*
X6282Y41754D01*
X6265Y41748D01*
X6259Y41743D01*
X6254D01*
X6208Y41720D01*
X6162Y41691D01*
X6094Y41634D01*
X6048Y41572D01*
X6014Y41509D01*
X5991Y41457D01*
X5985Y41406D01*
X5979Y41377D01*
Y41366D01*
X5985Y41320D01*
X5991Y41274D01*
X6019Y41195D01*
X6065Y41132D01*
X6116Y41080D01*
X6168Y41040D01*
X6208Y41018D01*
X6242Y41001D01*
X6248Y40995D01*
X6254D01*
X6311Y40972D01*
X6373Y40955D01*
X6442Y40943D01*
X6516Y40926D01*
X6670Y40909D01*
X6825Y40892D01*
X6899D01*
X6967Y40886D01*
X7030D01*
X7087Y40881D01*
X7316D01*
X7424Y40886D01*
X7527Y40892D01*
X7624Y40898D01*
X7704Y40909D01*
X7784Y40915D01*
X7852Y40926D01*
X7909Y40938D01*
X7966Y40949D01*
X8012Y40960D01*
X8046Y40966D01*
X8081Y40978D01*
X8104Y40983D01*
X8121Y40989D01*
X8126Y40995D01*
X8132D01*
X8178Y41018D01*
X8223Y41046D01*
X8292Y41103D01*
X8338Y41160D01*
X8372Y41223D01*
X8389Y41280D01*
X8400Y41326D01*
X8406Y41355D01*
Y41360D01*
Y41366D01*
X8400Y41412D01*
X8395Y41457D01*
X8360Y41537D01*
X8320Y41600D01*
X8269Y41651D01*
X8218Y41691D01*
X8172Y41720D01*
X8144Y41737D01*
X8138Y41743D01*
X8132D01*
X8075Y41760D01*
X8012Y41777D01*
X7944Y41794D01*
X7869Y41806D01*
X7715Y41823D01*
X7561Y41840D01*
X7487D01*
X7418Y41846D01*
X7356D01*
X7304Y41851D01*
D02*
G37*
G36*
X7024Y45277D02*
X6048D01*
Y44980D01*
Y44923D01*
Y44878D01*
X6054Y44832D01*
Y44792D01*
Y44763D01*
X6059Y44741D01*
Y44729D01*
Y44723D01*
X6071Y44649D01*
X6088Y44586D01*
X6094Y44563D01*
X6099Y44546D01*
X6105Y44541D01*
Y44535D01*
X6128Y44495D01*
X6151Y44455D01*
X6179Y44427D01*
X6202Y44404D01*
X6225Y44387D01*
X6242Y44375D01*
X6254Y44364D01*
X6259D01*
X6339Y44329D01*
X6413Y44312D01*
X6442Y44306D01*
X6550D01*
X6596Y44312D01*
X6642Y44318D01*
X6676Y44329D01*
X6705Y44335D01*
X6727Y44346D01*
X6739Y44352D01*
X6745D01*
X6807Y44387D01*
X6859Y44432D01*
X6893Y44466D01*
X6899Y44472D01*
X6904Y44478D01*
X6950Y44552D01*
X6979Y44621D01*
X6990Y44655D01*
X6996Y44678D01*
X7001Y44695D01*
Y44701D01*
X7013Y44803D01*
X7019Y44860D01*
Y44912D01*
X7024Y44952D01*
Y44986D01*
Y45015D01*
Y45020D01*
Y45277D01*
D02*
G37*
G36*
X14668Y76060D02*
X14379D01*
X14196Y76045D01*
X14029Y76037D01*
X13869Y76022D01*
X13740Y76007D01*
X13679Y75999D01*
X13633D01*
X13595Y75991D01*
X13565Y75984D01*
X13542D01*
X13352Y75953D01*
X13192Y75915D01*
X13062Y75877D01*
X12956Y75839D01*
X12880Y75809D01*
X12826Y75778D01*
X12788Y75763D01*
X12781Y75756D01*
X12720Y75679D01*
X12674Y75603D01*
X12636Y75535D01*
X12613Y75474D01*
X12598Y75428D01*
X12591Y75390D01*
Y75367D01*
Y75360D01*
X12598Y75261D01*
X12613Y75185D01*
X12636Y75139D01*
X12644Y75124D01*
X12712Y75055D01*
X12781Y74994D01*
X12849Y74949D01*
X12918Y74903D01*
X12979Y74873D01*
X13024Y74850D01*
X13055Y74835D01*
X13062Y74827D01*
X13275Y74774D01*
X13496Y74736D01*
X13709Y74713D01*
X13900Y74690D01*
X13991D01*
X14067Y74682D01*
X14143D01*
X14204Y74675D01*
X14501D01*
X14668Y74682D01*
X14828Y74690D01*
X14973Y74698D01*
X15110Y74705D01*
X15231Y74721D01*
X15345Y74736D01*
X15452Y74743D01*
X15543Y74759D01*
X15619Y74774D01*
X15688Y74789D01*
X15741Y74797D01*
X15787Y74804D01*
X15817Y74812D01*
X15833Y74819D01*
X15840D01*
X15954Y74857D01*
X16053Y74896D01*
X16137Y74941D01*
X16198Y74979D01*
X16251Y75017D01*
X16282Y75048D01*
X16304Y75071D01*
X16312Y75078D01*
X16358Y75139D01*
X16388Y75192D01*
X16418Y75246D01*
X16434Y75291D01*
X16441Y75329D01*
X16449Y75360D01*
Y75375D01*
Y75383D01*
X16441Y75466D01*
X16411Y75542D01*
X16365Y75611D01*
X16319Y75664D01*
X16274Y75710D01*
X16228Y75748D01*
X16198Y75771D01*
X16190Y75778D01*
X16091Y75824D01*
X15985Y75870D01*
X15863Y75908D01*
X15733Y75938D01*
X15467Y75991D01*
X15201Y76022D01*
X15071Y76037D01*
X14950Y76045D01*
X14843Y76052D01*
X14752D01*
X14668Y76060D01*
D02*
G37*
G36*
X13580Y72818D02*
X13519D01*
X13352Y72810D01*
X13207Y72788D01*
X13093Y72757D01*
X12994Y72719D01*
X12918Y72689D01*
X12865Y72658D01*
X12826Y72635D01*
X12819Y72628D01*
X12743Y72552D01*
X12682Y72476D01*
X12644Y72407D01*
X12613Y72339D01*
X12598Y72278D01*
X12583Y72232D01*
Y72194D01*
Y72186D01*
X12591Y72110D01*
X12613Y72042D01*
X12636Y71973D01*
X12667Y71920D01*
X12705Y71874D01*
X12728Y71836D01*
X12750Y71813D01*
X12758Y71806D01*
X12826Y71745D01*
X12910Y71692D01*
X13002Y71639D01*
X13085Y71600D01*
X13161Y71570D01*
X13222Y71547D01*
X13260Y71540D01*
X13268Y71532D01*
X13275D01*
X13397Y71494D01*
X13519Y71471D01*
X13626Y71448D01*
X13717Y71441D01*
X13801Y71433D01*
X13861Y71425D01*
X14006D01*
X14105Y71433D01*
X14204Y71448D01*
X14303Y71456D01*
X14387Y71471D01*
X14463Y71486D01*
X14508Y71494D01*
X14524D01*
X14592Y71593D01*
X14645Y71692D01*
X14668Y71737D01*
X14676Y71768D01*
X14691Y71791D01*
Y71798D01*
X14729Y71928D01*
X14737Y71981D01*
X14744Y72027D01*
X14752Y72065D01*
Y72095D01*
Y72110D01*
Y72118D01*
X14744Y72209D01*
X14714Y72293D01*
X14676Y72369D01*
X14630Y72430D01*
X14584Y72483D01*
X14546Y72521D01*
X14516Y72544D01*
X14508Y72552D01*
X14364Y72643D01*
X14204Y72704D01*
X14044Y72750D01*
X13884Y72788D01*
X13740Y72803D01*
X13679Y72810D01*
X13626D01*
X13580Y72818D01*
D02*
G37*
G36*
X7607Y71926D02*
X6402Y71549D01*
X7607Y71178D01*
Y71926D01*
D02*
G37*
G36*
X15011Y81394D02*
X13055Y80055D01*
X15011D01*
Y81394D01*
D02*
G37*
G36*
X8320Y55784D02*
X6059D01*
Y55772D01*
Y55669D01*
Y55578D01*
X6065Y55492D01*
Y55424D01*
Y55367D01*
X6071Y55321D01*
Y55298D01*
Y55287D01*
X6076Y55213D01*
X6094Y55138D01*
X6111Y55076D01*
X6134Y55013D01*
X6151Y54967D01*
X6168Y54933D01*
X6179Y54904D01*
X6185Y54899D01*
X6242Y54807D01*
X6305Y54733D01*
X6373Y54664D01*
X6436Y54613D01*
X6493Y54573D01*
X6545Y54545D01*
X6573Y54527D01*
X6579Y54522D01*
X6585D01*
X6682Y54482D01*
X6785Y54448D01*
X6887Y54425D01*
X6979Y54413D01*
X7064Y54402D01*
X7133Y54396D01*
X7190D01*
X7321Y54402D01*
X7435Y54413D01*
X7538Y54436D01*
X7630Y54453D01*
X7698Y54476D01*
X7750Y54499D01*
X7784Y54510D01*
X7790Y54516D01*
X7795D01*
X7881Y54562D01*
X7961Y54619D01*
X8024Y54670D01*
X8081Y54727D01*
X8126Y54779D01*
X8155Y54819D01*
X8178Y54842D01*
X8184Y54853D01*
X8223Y54921D01*
X8252Y54996D01*
X8275Y55064D01*
X8292Y55121D01*
X8303Y55178D01*
X8309Y55218D01*
X8315Y55241D01*
Y55253D01*
Y55338D01*
X8320Y55424D01*
Y55510D01*
Y55589D01*
Y55664D01*
Y55721D01*
Y55744D01*
Y55761D01*
Y55766D01*
Y55772D01*
Y55784D01*
D02*
G37*
%LPD*%
D56*
X40730Y69300D02*
D03*
X119470D02*
D03*
D57*
X-10000Y30000D02*
D03*
Y10000D02*
D03*
Y20000D02*
D03*
X120384Y105100D02*
D03*
X141000Y104800D02*
D03*
D58*
X-10000Y0D02*
D03*
D59*
X91400Y33900D02*
D03*
X115700Y50300D02*
D03*
X72700Y34600D02*
D03*
X83200Y34700D02*
D03*
D60*
X130384Y105100D02*
D03*
X151000Y104800D02*
D03*
D61*
X50000Y10000D02*
D03*
X140000D02*
D03*
D62*
X40000D02*
D03*
X30000D02*
D03*
X20000D02*
D03*
X10000D02*
D03*
X0D02*
D03*
X50000Y0D02*
D03*
X40000D02*
D03*
X30000D02*
D03*
X20000D02*
D03*
X10000D02*
D03*
X0D02*
D03*
X130000Y10000D02*
D03*
X120000D02*
D03*
X110000D02*
D03*
X100000D02*
D03*
X90000D02*
D03*
X140000Y0D02*
D03*
X130000D02*
D03*
X120000D02*
D03*
X110000D02*
D03*
X100000D02*
D03*
X90000D02*
D03*
D63*
X15009Y102900D02*
D03*
Y52900D02*
D03*
D64*
X-14400Y94600D02*
Y95900D01*
X-14300Y94300D02*
Y96200D01*
X-14200Y94200D02*
Y96400D01*
X-14100Y94100D02*
Y96600D01*
X-14000Y95800D02*
Y96800D01*
Y94000D02*
Y95000D01*
X-13900Y96100D02*
Y96900D01*
Y93900D02*
Y94800D01*
X-13800Y96400D02*
Y97100D01*
Y93800D02*
Y94600D01*
X-13700Y104600D02*
Y105500D01*
Y96500D02*
Y97200D01*
Y93700D02*
Y94500D01*
X-13600Y104400D02*
Y105600D01*
Y96700D02*
Y97300D01*
Y93700D02*
Y94400D01*
X-13500Y104300D02*
Y105700D01*
Y96900D02*
Y97500D01*
Y93600D02*
Y94300D01*
X-13400Y104200D02*
Y105800D01*
Y97000D02*
Y97600D01*
Y93600D02*
Y94300D01*
X-13300Y104200D02*
Y105900D01*
Y97200D02*
Y97700D01*
Y93500D02*
Y94200D01*
X-13200Y104100D02*
Y106000D01*
Y97300D02*
Y97800D01*
Y93500D02*
Y94100D01*
X-13100Y104800D02*
Y106300D01*
Y104100D02*
Y104200D01*
Y97400D02*
Y97900D01*
Y93500D02*
Y94100D01*
X-13000Y104900D02*
Y106700D01*
Y104100D02*
Y104800D01*
Y97500D02*
Y98100D01*
Y93400D02*
Y94100D01*
X-12900Y105000D02*
Y106900D01*
Y103700D02*
Y104900D01*
Y97700D02*
Y98200D01*
Y93400D02*
Y94000D01*
X-12800Y105000D02*
Y107200D01*
Y103300D02*
Y104900D01*
Y97800D02*
Y98300D01*
Y93400D02*
Y94000D01*
X-12700Y103000D02*
Y107300D01*
Y97900D02*
Y98400D01*
Y93300D02*
Y94000D01*
X-12600Y106500D02*
Y107500D01*
Y102700D02*
Y106100D01*
Y98000D02*
Y98500D01*
Y93300D02*
Y93900D01*
X-12500Y106800D02*
Y107600D01*
Y105000D02*
Y106000D01*
Y102500D02*
Y104900D01*
Y98100D02*
Y98600D01*
Y93300D02*
Y93900D01*
X-12400Y107000D02*
Y107700D01*
Y105000D02*
Y106000D01*
Y102200D02*
Y104900D01*
Y98200D02*
Y98700D01*
Y93300D02*
Y93900D01*
X-12300Y107100D02*
Y107800D01*
Y104900D02*
Y106000D01*
Y101900D02*
Y104800D01*
Y98300D02*
Y98700D01*
Y93200D02*
Y93900D01*
X-12200Y107300D02*
Y107900D01*
Y104800D02*
Y105900D01*
Y101700D02*
Y104500D01*
Y98400D02*
Y98800D01*
Y93200D02*
Y93800D01*
X-12100Y107400D02*
Y108000D01*
Y104400D02*
Y105800D01*
Y101500D02*
Y104000D01*
Y98500D02*
Y98900D01*
Y93200D02*
Y93800D01*
X-12000Y107500D02*
Y108100D01*
Y104300D02*
Y105700D01*
Y101300D02*
Y103600D01*
Y98600D02*
Y99000D01*
Y93200D02*
Y93800D01*
X-11900Y107600D02*
Y108100D01*
Y104400D02*
Y105600D01*
Y101100D02*
Y103200D01*
Y98700D02*
Y99100D01*
Y93200D02*
Y93800D01*
X-11800Y107700D02*
Y108200D01*
Y104600D02*
Y105400D01*
Y100900D02*
Y102900D01*
Y98700D02*
Y99200D01*
Y93200D02*
Y93800D01*
X-11700Y107700D02*
Y108300D01*
Y100700D02*
Y102600D01*
Y98800D02*
Y99300D01*
Y93200D02*
Y93800D01*
X-11600Y107800D02*
Y108300D01*
Y100500D02*
Y102300D01*
Y98900D02*
Y99400D01*
Y93200D02*
Y93800D01*
X-11500Y107800D02*
Y108300D01*
Y100300D02*
Y102000D01*
Y99000D02*
Y99400D01*
Y93200D02*
Y93800D01*
X-11400Y107900D02*
Y108400D01*
Y100100D02*
Y101800D01*
Y99100D02*
Y99500D01*
Y93200D02*
Y93800D01*
X-11300Y107900D02*
Y108400D01*
Y100000D02*
Y101500D01*
Y99200D02*
Y99600D01*
Y93200D02*
Y93800D01*
X-11200Y108000D02*
Y108400D01*
Y99800D02*
Y101300D01*
Y99200D02*
Y99600D01*
Y93200D02*
Y93800D01*
X-11100Y108000D02*
Y108500D01*
Y99600D02*
Y101100D01*
Y99300D02*
Y99500D01*
Y93200D02*
Y93800D01*
X-11000Y108000D02*
Y108500D01*
Y99500D02*
Y100900D01*
Y93200D02*
Y93800D01*
X-10900Y108000D02*
Y108500D01*
Y99300D02*
Y100700D01*
Y93200D02*
Y93800D01*
X-10800Y108100D02*
Y108500D01*
Y99200D02*
Y100500D01*
Y93200D02*
Y93800D01*
X-10700Y108100D02*
Y108500D01*
Y99000D02*
Y100300D01*
Y93200D02*
Y93800D01*
X-10600Y108100D02*
Y108500D01*
Y98900D02*
Y100100D01*
Y93200D02*
Y93800D01*
X-10500Y108100D02*
Y108500D01*
Y100100D02*
Y100200D01*
Y98700D02*
Y99900D01*
Y93200D02*
Y93800D01*
X-10400Y108100D02*
Y108500D01*
Y99900D02*
Y100300D01*
Y98600D02*
Y99800D01*
Y93200D02*
Y93800D01*
X-10300Y108100D02*
Y108500D01*
Y99900D02*
Y100300D01*
Y98400D02*
Y99600D01*
Y93200D02*
Y93800D01*
X-10200Y108100D02*
Y108500D01*
Y100000D02*
Y100400D01*
Y98300D02*
Y99400D01*
Y93200D02*
Y93800D01*
X-10100Y108100D02*
Y108500D01*
Y100000D02*
Y100500D01*
Y98200D02*
Y99300D01*
Y93200D02*
Y93800D01*
X-10000Y108100D02*
Y108500D01*
Y100100D02*
Y100500D01*
Y98000D02*
Y99100D01*
Y93200D02*
Y93800D01*
X-9900Y108100D02*
Y108500D01*
Y100200D02*
Y100600D01*
Y97900D02*
Y99000D01*
Y93200D02*
Y93800D01*
X-9800Y108100D02*
Y108500D01*
Y100200D02*
Y100700D01*
Y97800D02*
Y98800D01*
Y93200D02*
Y93800D01*
X-9700Y108100D02*
Y108500D01*
Y100300D02*
Y100700D01*
Y97600D02*
Y98700D01*
Y93200D02*
Y93800D01*
X-9600Y108000D02*
Y108500D01*
Y100400D02*
Y100800D01*
Y97500D02*
Y98600D01*
Y93200D02*
Y93900D01*
X-9500Y108000D02*
Y108500D01*
Y100400D02*
Y100800D01*
Y97400D02*
Y98400D01*
Y93200D02*
Y93900D01*
X-9400Y108000D02*
Y108400D01*
Y100500D02*
Y100900D01*
Y97300D02*
Y98300D01*
Y93300D02*
Y93900D01*
X-9300Y108000D02*
Y108400D01*
Y100600D02*
Y101000D01*
Y97100D02*
Y98100D01*
Y93300D02*
Y93900D01*
X-9200Y108000D02*
Y108400D01*
Y100600D02*
Y101000D01*
Y97000D02*
Y98000D01*
Y93300D02*
Y93900D01*
X-9100Y107900D02*
Y108400D01*
Y100700D02*
Y101100D01*
Y96900D02*
Y97900D01*
Y93300D02*
Y93900D01*
X-9000Y107900D02*
Y108400D01*
Y100800D02*
Y101200D01*
Y96800D02*
Y97800D01*
Y93300D02*
Y93900D01*
X-8900Y107900D02*
Y108300D01*
Y100800D02*
Y101200D01*
Y96700D02*
Y97600D01*
Y93300D02*
Y94000D01*
Y43300D02*
Y44400D01*
Y36300D02*
Y37300D01*
X-8800Y107900D02*
Y108300D01*
Y100900D02*
Y101300D01*
Y96500D02*
Y97500D01*
Y93300D02*
Y94000D01*
Y43300D02*
Y44700D01*
Y36000D02*
Y37300D01*
X-8700Y107800D02*
Y108300D01*
Y100900D02*
Y101300D01*
Y96400D02*
Y97400D01*
Y93400D02*
Y94000D01*
Y43300D02*
Y44900D01*
Y35900D02*
Y37400D01*
X-8600Y107800D02*
Y108300D01*
Y101000D02*
Y101400D01*
Y96300D02*
Y97300D01*
Y93400D02*
Y94000D01*
Y43400D02*
Y45000D01*
Y35700D02*
Y37400D01*
X-8500Y107800D02*
Y108200D01*
Y101000D02*
Y101400D01*
Y96200D02*
Y97100D01*
Y93400D02*
Y94000D01*
Y85100D02*
Y87700D01*
Y80100D02*
Y81500D01*
Y70900D02*
Y73100D01*
Y52800D02*
Y55100D01*
Y46400D02*
Y51300D01*
Y43400D02*
Y45200D01*
Y35700D02*
Y37400D01*
X-8400Y107700D02*
Y108200D01*
Y101100D02*
Y101500D01*
Y96100D02*
Y97000D01*
Y93400D02*
Y94100D01*
Y85100D02*
Y87700D01*
Y80100D02*
Y81500D01*
Y70900D02*
Y73100D01*
Y52800D02*
Y55100D01*
Y46400D02*
Y51300D01*
Y43400D02*
Y45300D01*
Y35600D02*
Y37400D01*
X-8300Y107700D02*
Y108200D01*
Y101200D02*
Y101600D01*
Y96000D02*
Y96900D01*
Y93400D02*
Y94100D01*
Y85100D02*
Y87700D01*
Y80100D02*
Y81600D01*
Y70900D02*
Y73200D01*
Y52800D02*
Y55100D01*
Y46400D02*
Y51300D01*
Y43400D02*
Y45400D01*
Y35500D02*
Y37500D01*
X-8200Y107700D02*
Y108100D01*
Y101200D02*
Y101600D01*
Y95900D02*
Y96800D01*
Y93500D02*
Y94100D01*
Y85100D02*
Y87700D01*
Y80200D02*
Y81600D01*
Y70900D02*
Y73200D01*
Y52800D02*
Y55100D01*
Y46400D02*
Y51300D01*
Y43400D02*
Y45500D01*
Y35500D02*
Y37500D01*
X-8100Y107600D02*
Y108100D01*
Y101300D02*
Y101700D01*
Y95800D02*
Y96700D01*
Y93500D02*
Y94100D01*
Y85100D02*
Y87700D01*
Y80300D02*
Y81600D01*
Y70900D02*
Y73200D01*
Y52900D02*
Y55100D01*
Y46400D02*
Y51400D01*
Y43500D02*
Y45500D01*
Y35400D02*
Y37500D01*
X-8000Y107600D02*
Y108100D01*
Y101500D02*
Y101600D01*
Y98500D02*
Y100500D01*
Y98200D02*
Y98400D01*
Y95700D02*
Y96600D01*
Y93500D02*
Y94100D01*
Y85000D02*
Y87700D01*
Y80300D02*
Y81700D01*
Y70900D02*
Y73200D01*
Y52900D02*
Y55200D01*
Y46400D02*
Y51400D01*
Y43500D02*
Y45600D01*
Y35400D02*
Y37500D01*
X-7900Y107500D02*
Y108000D01*
Y96800D02*
Y101900D01*
Y95600D02*
Y96500D01*
Y93500D02*
Y94200D01*
Y85000D02*
Y87600D01*
Y80300D02*
Y81700D01*
Y71000D02*
Y73200D01*
Y52900D02*
Y55200D01*
Y46400D02*
Y51400D01*
Y44200D02*
Y45700D01*
Y35400D02*
Y36800D01*
X-7800Y107500D02*
Y108000D01*
Y96500D02*
Y102900D01*
Y95500D02*
Y96400D01*
Y93500D02*
Y94200D01*
Y85000D02*
Y87600D01*
Y80400D02*
Y81800D01*
Y71000D02*
Y73300D01*
Y52900D02*
Y55200D01*
Y46500D02*
Y51400D01*
Y44400D02*
Y45700D01*
Y35400D02*
Y36700D01*
X-7700Y107500D02*
Y107900D01*
Y96400D02*
Y103600D01*
Y95400D02*
Y96300D01*
Y95000D02*
Y95200D01*
Y93600D02*
Y94200D01*
Y85000D02*
Y87600D01*
Y80400D02*
Y81800D01*
Y71000D02*
Y73300D01*
Y52900D02*
Y55200D01*
Y46500D02*
Y51400D01*
Y44500D02*
Y45800D01*
Y35400D02*
Y36600D01*
X-7600Y107400D02*
Y107900D01*
Y101100D02*
Y104200D01*
Y96300D02*
Y97600D01*
Y95300D02*
Y96200D01*
Y94400D02*
Y95200D01*
Y93600D02*
Y94200D01*
Y85000D02*
Y87600D01*
Y80500D02*
Y81900D01*
Y71000D02*
Y73300D01*
Y53000D02*
Y55200D01*
Y46500D02*
Y51500D01*
Y44600D02*
Y45800D01*
Y35400D02*
Y36600D01*
X-7500Y107400D02*
Y107900D01*
Y102500D02*
Y104800D01*
Y95200D02*
Y96100D01*
Y94300D02*
Y95100D01*
Y93600D02*
Y94200D01*
Y85000D02*
Y87600D01*
Y80600D02*
Y81900D01*
Y71000D02*
Y73300D01*
Y53000D02*
Y55200D01*
Y50400D02*
Y51500D01*
Y44700D02*
Y45900D01*
Y35400D02*
Y36500D01*
X-7400Y107300D02*
Y107800D01*
Y103200D02*
Y105200D01*
Y101700D02*
Y102000D01*
Y95100D02*
Y96000D01*
Y93600D02*
Y95000D01*
Y85000D02*
Y87600D01*
Y80600D02*
Y82000D01*
Y71000D02*
Y73300D01*
Y53000D02*
Y55300D01*
Y50400D02*
Y51500D01*
Y44700D02*
Y45900D01*
Y35400D02*
Y36500D01*
X-7300Y107300D02*
Y107800D01*
Y103900D02*
Y105600D01*
Y101700D02*
Y102100D01*
Y95000D02*
Y95800D01*
Y94400D02*
Y94800D01*
Y93700D02*
Y94300D01*
Y93100D02*
Y93600D01*
Y85000D02*
Y87600D01*
Y80700D02*
Y82000D01*
Y71100D02*
Y73300D01*
Y53000D02*
Y55300D01*
Y50400D02*
Y51500D01*
Y44800D02*
Y46000D01*
Y35400D02*
Y36500D01*
X-7200Y107200D02*
Y107700D01*
Y104500D02*
Y106000D01*
Y101700D02*
Y102100D01*
Y94900D02*
Y95700D01*
Y93700D02*
Y94300D01*
Y92700D02*
Y93600D01*
Y90300D02*
Y90800D01*
Y85000D02*
Y87500D01*
Y80700D02*
Y82100D01*
Y71100D02*
Y73400D01*
Y53000D02*
Y55300D01*
Y50400D02*
Y51500D01*
Y44900D02*
Y46000D01*
Y35400D02*
Y36500D01*
X-7100Y107200D02*
Y107700D01*
Y105000D02*
Y106400D01*
Y101800D02*
Y102200D01*
Y94800D02*
Y95600D01*
Y93700D02*
Y94400D01*
Y92300D02*
Y93600D01*
Y90000D02*
Y91000D01*
Y85000D02*
Y87500D01*
Y80800D02*
Y82100D01*
Y71100D02*
Y73400D01*
Y53000D02*
Y55300D01*
Y50500D02*
Y51600D01*
Y44900D02*
Y46000D01*
Y35400D02*
Y36500D01*
X-7000Y107100D02*
Y107600D01*
Y105400D02*
Y106700D01*
Y101900D02*
Y102200D01*
Y94700D02*
Y95600D01*
Y93700D02*
Y94400D01*
Y92000D02*
Y93300D01*
Y89900D02*
Y91200D01*
Y84900D02*
Y87500D01*
Y80800D02*
Y82200D01*
Y71100D02*
Y73400D01*
Y53100D02*
Y55300D01*
Y50500D02*
Y51600D01*
Y44900D02*
Y46100D01*
Y35400D02*
Y36500D01*
X-6900Y107200D02*
Y107600D01*
Y105800D02*
Y107000D01*
Y101900D02*
Y102300D01*
Y94600D02*
Y95500D01*
Y93700D02*
Y94400D01*
Y91700D02*
Y92900D01*
Y89800D02*
Y91300D01*
Y84900D02*
Y87500D01*
Y80900D02*
Y82200D01*
Y71100D02*
Y73400D01*
Y53100D02*
Y55400D01*
Y50500D02*
Y51600D01*
Y45000D02*
Y46100D01*
Y35400D02*
Y36500D01*
X-6800Y106200D02*
Y107200D01*
Y102000D02*
Y102300D01*
Y94500D02*
Y95400D01*
Y93800D02*
Y94400D01*
Y91500D02*
Y92600D01*
Y89700D02*
Y91400D01*
Y84900D02*
Y87500D01*
Y80900D02*
Y82200D01*
Y71200D02*
Y73400D01*
Y53100D02*
Y55400D01*
Y50500D02*
Y51600D01*
Y45000D02*
Y46100D01*
Y42700D02*
Y43900D01*
Y37900D02*
Y39200D01*
Y35400D02*
Y36500D01*
X-6700Y106500D02*
Y107500D01*
Y102000D02*
Y102400D01*
Y93800D02*
Y95300D01*
Y91500D02*
Y92200D01*
Y89600D02*
Y91400D01*
Y84900D02*
Y87500D01*
Y81000D02*
Y82300D01*
Y71200D02*
Y73500D01*
Y53100D02*
Y55400D01*
Y50500D02*
Y51600D01*
Y45000D02*
Y46100D01*
Y42600D02*
Y43800D01*
Y38000D02*
Y39300D01*
Y35400D02*
Y36500D01*
X-6600Y106800D02*
Y107800D01*
Y102000D02*
Y102400D01*
Y94600D02*
Y95200D01*
Y93800D02*
Y94500D01*
Y89600D02*
Y91900D01*
Y84900D02*
Y87500D01*
Y81000D02*
Y82300D01*
Y71200D02*
Y73500D01*
Y53100D02*
Y55400D01*
Y50500D02*
Y51600D01*
Y45000D02*
Y46200D01*
Y42600D02*
Y43800D01*
Y38100D02*
Y39400D01*
Y35400D02*
Y36600D01*
X-6500Y107100D02*
Y108000D01*
Y102100D02*
Y102500D01*
Y94600D02*
Y95100D01*
Y93900D02*
Y94500D01*
Y89500D02*
Y91500D01*
Y84900D02*
Y87400D01*
Y81100D02*
Y82400D01*
Y71200D02*
Y73500D01*
Y53200D02*
Y55400D01*
Y50600D02*
Y51700D01*
Y45100D02*
Y46200D01*
Y42500D02*
Y43700D01*
Y38200D02*
Y39400D01*
Y35400D02*
Y36600D01*
X-6400Y107300D02*
Y108200D01*
Y106800D02*
Y107200D01*
Y102100D02*
Y102500D01*
Y98800D02*
Y99700D01*
Y94600D02*
Y95000D01*
Y93900D02*
Y94500D01*
Y89500D02*
Y91500D01*
Y84900D02*
Y87400D01*
Y81100D02*
Y82400D01*
Y77900D02*
Y78700D01*
Y71200D02*
Y73500D01*
Y67000D02*
Y67800D01*
Y59100D02*
Y59800D01*
Y53200D02*
Y55500D01*
Y50600D02*
Y51700D01*
Y45100D02*
Y46200D01*
Y42500D02*
Y43700D01*
Y38300D02*
Y39500D01*
Y35500D02*
Y36600D01*
X-6300Y107600D02*
Y108400D01*
Y106700D02*
Y107200D01*
Y102200D02*
Y102600D01*
Y98400D02*
Y100000D01*
Y93900D02*
Y94900D01*
Y90200D02*
Y91500D01*
Y89500D02*
Y89800D01*
Y84900D02*
Y87400D01*
Y81200D02*
Y82500D01*
Y77400D02*
Y79300D01*
Y71300D02*
Y73500D01*
Y66400D02*
Y68400D01*
Y58600D02*
Y60300D01*
Y53200D02*
Y55500D01*
Y50600D02*
Y51700D01*
Y45100D02*
Y46200D01*
Y42400D02*
Y43600D01*
Y38300D02*
Y39600D01*
Y35500D02*
Y36600D01*
X-6200Y107800D02*
Y108600D01*
Y106700D02*
Y107200D01*
Y102200D02*
Y102600D01*
Y98200D02*
Y100300D01*
Y94700D02*
Y94800D01*
Y93900D02*
Y94600D01*
Y90400D02*
Y91500D01*
Y89800D02*
Y90200D01*
Y89500D02*
Y89700D01*
Y84900D02*
Y87400D01*
Y81200D02*
Y82500D01*
Y77200D02*
Y79600D01*
Y71300D02*
Y73500D01*
Y66100D02*
Y68700D01*
Y58300D02*
Y60600D01*
Y53200D02*
Y55500D01*
Y50600D02*
Y51700D01*
Y45100D02*
Y46300D01*
Y42400D02*
Y43600D01*
Y38400D02*
Y39700D01*
Y35500D02*
Y36600D01*
X-6100Y108000D02*
Y108800D01*
Y106600D02*
Y107100D01*
Y102300D02*
Y102700D01*
Y98000D02*
Y100400D01*
Y94000D02*
Y94600D01*
Y90400D02*
Y91500D01*
Y89700D02*
Y90300D01*
Y84800D02*
Y87400D01*
Y81300D02*
Y82600D01*
Y77000D02*
Y79900D01*
Y74000D02*
Y76300D01*
Y71300D02*
Y73600D01*
Y65900D02*
Y69000D01*
Y61400D02*
Y63500D01*
Y58100D02*
Y60800D01*
Y53200D02*
Y55500D01*
Y50600D02*
Y51700D01*
Y45200D02*
Y46300D01*
Y42300D02*
Y43500D01*
Y38500D02*
Y39800D01*
Y35500D02*
Y36600D01*
X-6000Y108200D02*
Y108900D01*
Y106600D02*
Y107100D01*
Y102300D02*
Y102700D01*
Y97900D02*
Y100600D01*
Y94000D02*
Y94700D01*
Y90500D02*
Y91500D01*
Y89500D02*
Y90400D01*
Y84800D02*
Y87400D01*
Y81300D02*
Y82600D01*
Y76800D02*
Y80100D01*
Y74000D02*
Y76300D01*
Y71300D02*
Y73600D01*
Y65700D02*
Y69200D01*
Y61400D02*
Y63500D01*
Y57900D02*
Y61000D01*
Y53200D02*
Y55500D01*
Y50700D02*
Y51700D01*
Y45200D02*
Y46300D01*
Y42300D02*
Y43500D01*
Y38600D02*
Y39900D01*
Y35500D02*
Y36700D01*
X-5900Y108400D02*
Y109100D01*
Y106500D02*
Y107000D01*
Y102400D02*
Y102800D01*
Y97800D02*
Y100700D01*
Y93800D02*
Y94700D01*
Y90500D02*
Y91500D01*
Y89400D02*
Y90400D01*
Y84800D02*
Y87400D01*
Y81400D02*
Y82700D01*
Y76700D02*
Y80300D01*
Y74100D02*
Y76300D01*
Y71300D02*
Y73600D01*
Y65500D02*
Y69400D01*
Y61400D02*
Y63500D01*
Y57800D02*
Y61100D01*
Y53300D02*
Y55500D01*
Y50700D02*
Y51800D01*
Y45200D02*
Y46300D01*
Y42200D02*
Y43400D01*
Y38700D02*
Y40000D01*
Y35600D02*
Y36700D01*
X-5800Y108600D02*
Y109200D01*
Y106400D02*
Y106900D01*
Y102400D02*
Y102800D01*
Y97700D02*
Y100800D01*
Y94100D02*
Y94700D01*
Y93700D02*
Y94000D01*
Y90500D02*
Y91500D01*
Y89200D02*
Y90400D01*
Y84800D02*
Y87300D01*
Y81400D02*
Y82700D01*
Y76600D02*
Y80400D01*
Y74100D02*
Y76300D01*
Y71300D02*
Y73600D01*
Y65400D02*
Y69500D01*
Y61400D02*
Y63600D01*
Y57700D02*
Y61200D01*
Y53300D02*
Y55600D01*
Y50700D02*
Y51800D01*
Y45200D02*
Y46400D01*
Y42200D02*
Y43400D01*
Y38800D02*
Y40000D01*
Y35600D02*
Y36700D01*
X-5700Y108700D02*
Y109400D01*
Y106400D02*
Y106900D01*
Y102500D02*
Y102800D01*
Y97600D02*
Y100900D01*
Y94100D02*
Y94800D01*
Y93600D02*
Y94000D01*
Y90400D02*
Y91400D01*
Y89100D02*
Y90300D01*
Y84800D02*
Y87300D01*
Y81500D02*
Y82800D01*
Y76500D02*
Y80600D01*
Y74100D02*
Y76400D01*
Y71400D02*
Y73600D01*
Y65300D02*
Y69700D01*
Y61400D02*
Y63600D01*
Y57600D02*
Y61300D01*
Y53300D02*
Y55600D01*
Y50700D02*
Y51800D01*
Y45200D02*
Y46400D01*
Y42100D02*
Y43300D01*
Y38900D02*
Y40100D01*
Y35600D02*
Y36700D01*
X-5600Y108900D02*
Y109500D01*
Y106300D02*
Y106800D01*
Y102500D02*
Y102900D01*
Y97500D02*
Y101000D01*
Y93500D02*
Y94800D01*
Y90300D02*
Y91300D01*
Y89000D02*
Y90100D01*
Y84800D02*
Y87300D01*
Y81500D02*
Y82800D01*
Y76500D02*
Y80700D01*
Y74100D02*
Y76400D01*
Y71400D02*
Y73700D01*
Y65100D02*
Y69900D01*
Y61500D02*
Y63600D01*
Y57500D02*
Y61400D01*
Y53300D02*
Y55600D01*
Y45300D02*
Y46400D01*
Y42100D02*
Y43300D01*
Y39000D02*
Y40200D01*
Y35600D02*
Y36800D01*
X-5500Y109000D02*
Y109600D01*
Y106200D02*
Y106800D01*
Y102600D02*
Y102900D01*
Y97400D02*
Y101100D01*
Y94200D02*
Y94800D01*
Y93400D02*
Y94100D01*
Y90100D02*
Y91200D01*
Y88900D02*
Y90000D01*
Y84800D02*
Y87300D01*
Y81600D02*
Y82800D01*
Y74100D02*
Y80900D01*
Y71400D02*
Y73700D01*
Y65000D02*
Y70000D01*
Y57400D02*
Y63600D01*
Y53300D02*
Y55600D01*
Y45300D02*
Y46400D01*
Y42000D02*
Y43200D01*
Y39000D02*
Y40300D01*
Y35600D02*
Y36800D01*
X-5400Y109200D02*
Y109700D01*
Y106200D02*
Y106700D01*
Y102600D02*
Y103000D01*
Y97300D02*
Y101100D01*
Y94200D02*
Y94900D01*
Y93400D02*
Y94100D01*
Y90000D02*
Y91100D01*
Y88800D02*
Y89800D01*
Y84800D02*
Y87300D01*
Y81600D02*
Y82900D01*
Y74100D02*
Y81000D01*
Y71400D02*
Y73700D01*
Y64900D02*
Y70100D01*
Y57400D02*
Y63600D01*
Y53400D02*
Y55600D01*
Y45300D02*
Y46400D01*
Y42000D02*
Y43200D01*
Y39100D02*
Y40400D01*
Y35700D02*
Y36800D01*
X-5300Y109300D02*
Y109800D01*
Y106100D02*
Y106600D01*
Y102600D02*
Y103000D01*
Y97300D02*
Y101200D01*
Y94200D02*
Y94900D01*
Y93300D02*
Y94000D01*
Y90100D02*
Y91000D01*
Y88700D02*
Y89700D01*
Y84800D02*
Y87300D01*
Y81700D02*
Y82900D01*
Y74200D02*
Y81100D01*
Y71400D02*
Y73700D01*
Y64900D02*
Y70200D01*
Y57300D02*
Y63600D01*
Y47900D02*
Y56700D01*
Y45300D02*
Y46500D01*
Y41900D02*
Y43100D01*
Y39200D02*
Y40500D01*
Y35700D02*
Y36800D01*
X-5200Y109400D02*
Y109900D01*
Y106000D02*
Y106600D01*
Y102700D02*
Y103100D01*
Y97200D02*
Y101200D01*
Y94300D02*
Y94900D01*
Y93200D02*
Y94000D01*
Y90500D02*
Y90600D01*
Y88600D02*
Y89600D01*
Y84800D02*
Y87200D01*
Y81700D02*
Y83000D01*
Y74200D02*
Y81200D01*
Y71500D02*
Y73700D01*
Y64800D02*
Y70400D01*
Y57300D02*
Y63700D01*
Y47900D02*
Y56700D01*
Y45400D02*
Y46500D01*
Y41900D02*
Y43100D01*
Y39300D02*
Y40500D01*
Y35700D02*
Y36800D01*
X-5100Y109500D02*
Y110000D01*
Y105900D02*
Y106500D01*
Y102700D02*
Y103100D01*
Y97200D02*
Y101300D01*
Y94300D02*
Y95000D01*
Y93100D02*
Y93900D01*
Y88600D02*
Y89400D01*
Y84700D02*
Y87200D01*
Y81800D02*
Y83000D01*
Y74200D02*
Y81300D01*
Y71500D02*
Y73800D01*
Y64700D02*
Y70500D01*
Y57300D02*
Y63700D01*
Y47900D02*
Y56800D01*
Y45400D02*
Y46500D01*
Y41800D02*
Y43000D01*
Y39400D02*
Y40600D01*
Y35700D02*
Y36900D01*
X-5000Y109600D02*
Y110100D01*
Y105900D02*
Y106400D01*
Y102800D02*
Y103200D01*
Y97100D02*
Y101300D01*
Y94300D02*
Y95000D01*
Y93100D02*
Y93800D01*
Y88500D02*
Y89300D01*
Y84700D02*
Y87200D01*
Y81800D02*
Y83100D01*
Y74200D02*
Y81400D01*
Y71500D02*
Y73800D01*
Y64700D02*
Y70600D01*
Y57200D02*
Y63700D01*
Y47900D02*
Y56800D01*
Y45400D02*
Y46500D01*
Y41800D02*
Y43000D01*
Y39500D02*
Y40700D01*
Y35700D02*
Y36900D01*
X-4900Y109600D02*
Y110100D01*
Y105800D02*
Y106300D01*
Y102800D02*
Y103200D01*
Y97100D02*
Y101400D01*
Y94400D02*
Y95000D01*
Y93000D02*
Y93700D01*
Y88400D02*
Y89300D01*
Y84700D02*
Y87200D01*
Y81900D02*
Y83100D01*
Y74200D02*
Y81500D01*
Y71500D02*
Y73800D01*
Y64600D02*
Y70700D01*
Y57200D02*
Y63700D01*
Y47900D02*
Y56800D01*
Y45400D02*
Y46500D01*
Y41700D02*
Y42900D01*
Y39600D02*
Y40800D01*
Y35800D02*
Y36900D01*
X-4800Y109700D02*
Y110200D01*
Y105700D02*
Y106300D01*
Y102900D02*
Y103200D01*
Y97100D02*
Y101400D01*
Y94400D02*
Y95100D01*
Y92900D02*
Y93600D01*
Y88400D02*
Y89200D01*
Y84700D02*
Y87200D01*
Y81900D02*
Y83200D01*
Y74300D02*
Y81600D01*
Y71500D02*
Y73800D01*
Y64500D02*
Y70800D01*
Y57200D02*
Y63700D01*
Y48000D02*
Y56800D01*
Y45400D02*
Y46600D01*
Y41700D02*
Y42900D01*
Y39700D02*
Y40900D01*
Y35800D02*
Y36900D01*
X-4700Y109800D02*
Y110300D01*
Y105700D02*
Y106200D01*
Y102900D02*
Y103300D01*
Y97000D02*
Y101400D01*
Y94400D02*
Y95100D01*
Y92900D02*
Y93600D01*
Y88300D02*
Y89100D01*
Y84700D02*
Y87200D01*
Y82000D02*
Y83200D01*
Y74300D02*
Y81700D01*
Y71500D02*
Y73800D01*
Y64500D02*
Y70800D01*
Y57200D02*
Y63800D01*
Y48000D02*
Y56800D01*
Y45500D02*
Y46600D01*
Y41600D02*
Y42800D01*
Y39700D02*
Y41000D01*
Y35800D02*
Y37000D01*
X-4600Y109800D02*
Y110300D01*
Y105600D02*
Y106100D01*
Y102900D02*
Y103300D01*
Y97000D02*
Y101400D01*
Y94500D02*
Y95200D01*
Y92800D02*
Y93500D01*
Y88300D02*
Y89100D01*
Y84700D02*
Y87200D01*
Y82000D02*
Y83300D01*
Y74300D02*
Y81800D01*
Y71600D02*
Y73800D01*
Y64400D02*
Y70900D01*
Y57200D02*
Y63800D01*
Y48000D02*
Y56800D01*
Y45500D02*
Y46600D01*
Y41500D02*
Y42800D01*
Y39800D02*
Y41100D01*
Y35800D02*
Y37000D01*
X-4500Y109800D02*
Y110400D01*
Y105500D02*
Y106100D01*
Y103000D02*
Y103400D01*
Y97000D02*
Y101400D01*
Y94500D02*
Y95200D01*
Y92700D02*
Y93400D01*
Y88300D02*
Y89000D01*
Y84700D02*
Y87100D01*
Y82100D02*
Y83300D01*
Y74300D02*
Y81800D01*
Y71600D02*
Y73900D01*
Y64400D02*
Y71000D01*
Y57200D02*
Y63800D01*
Y48000D02*
Y56900D01*
Y45500D02*
Y46600D01*
Y41500D02*
Y42700D01*
Y39900D02*
Y41100D01*
Y35900D02*
Y37000D01*
X-4400Y109900D02*
Y110400D01*
Y105400D02*
Y106000D01*
Y103000D02*
Y103400D01*
Y97000D02*
Y101500D01*
Y94500D02*
Y95200D01*
Y92700D02*
Y93300D01*
Y88200D02*
Y89000D01*
Y84700D02*
Y87100D01*
Y82100D02*
Y83300D01*
Y74300D02*
Y81900D01*
Y71600D02*
Y73900D01*
Y68300D02*
Y71100D01*
Y64400D02*
Y67200D01*
Y57200D02*
Y63800D01*
Y48000D02*
Y56900D01*
Y45500D02*
Y46600D01*
Y41400D02*
Y42700D01*
Y40000D02*
Y41200D01*
Y35900D02*
Y37000D01*
X-4300Y109900D02*
Y110400D01*
Y105300D02*
Y105900D01*
Y103000D02*
Y103400D01*
Y97000D02*
Y101500D01*
Y94600D02*
Y95300D01*
Y92600D02*
Y93300D01*
Y88200D02*
Y89000D01*
Y84700D02*
Y87100D01*
Y82200D02*
Y83400D01*
Y74300D02*
Y82000D01*
Y71600D02*
Y73900D01*
Y68500D02*
Y71200D01*
Y64300D02*
Y66900D01*
Y57200D02*
Y63800D01*
Y48100D02*
Y56900D01*
Y45500D02*
Y46700D01*
Y41400D02*
Y42600D01*
Y40100D02*
Y41300D01*
Y35900D02*
Y37000D01*
X-4200Y109900D02*
Y110400D01*
Y105300D02*
Y105800D01*
Y103100D02*
Y103500D01*
Y97000D02*
Y101500D01*
Y94600D02*
Y95300D01*
Y92500D02*
Y93200D01*
Y88200D02*
Y88900D01*
Y84700D02*
Y87100D01*
Y82200D02*
Y83400D01*
Y78900D02*
Y82000D01*
Y74400D02*
Y77800D01*
Y71600D02*
Y73900D01*
Y68700D02*
Y71200D01*
Y64300D02*
Y66800D01*
Y60900D02*
Y63900D01*
Y57200D02*
Y60000D01*
Y48100D02*
Y56900D01*
Y45600D02*
Y46700D01*
Y40200D02*
Y42600D01*
Y35900D02*
Y37100D01*
X-4100Y109900D02*
Y110400D01*
Y105200D02*
Y105800D01*
Y103100D02*
Y103500D01*
Y97000D02*
Y101500D01*
Y94600D02*
Y95300D01*
Y92500D02*
Y93100D01*
Y88200D02*
Y88900D01*
Y84600D02*
Y87100D01*
Y82300D02*
Y83500D01*
Y79200D02*
Y82100D01*
Y74400D02*
Y77600D01*
Y71700D02*
Y73900D01*
Y68900D02*
Y71300D01*
Y64300D02*
Y66700D01*
Y61100D02*
Y63900D01*
Y57200D02*
Y59800D01*
Y48200D02*
Y56900D01*
Y45600D02*
Y46700D01*
Y40300D02*
Y42500D01*
Y35900D02*
Y37100D01*
X-4000Y109900D02*
Y110400D01*
Y105100D02*
Y105700D01*
Y103200D02*
Y103600D01*
Y97000D02*
Y101500D01*
Y94700D02*
Y95400D01*
Y92400D02*
Y93100D01*
Y88200D02*
Y88900D01*
Y84600D02*
Y87100D01*
Y82300D02*
Y83500D01*
Y79400D02*
Y82100D01*
Y74400D02*
Y77400D01*
Y71700D02*
Y74000D01*
Y69000D02*
Y71300D01*
Y64300D02*
Y66600D01*
Y61300D02*
Y63900D01*
Y57200D02*
Y59700D01*
Y53600D02*
Y55900D01*
Y45600D02*
Y46700D01*
Y40400D02*
Y42500D01*
Y36000D02*
Y37100D01*
X-3900Y109900D02*
Y110400D01*
Y105000D02*
Y105600D01*
Y103200D02*
Y103600D01*
Y97000D02*
Y101400D01*
Y94700D02*
Y95400D01*
Y92300D02*
Y93000D01*
Y88200D02*
Y88900D01*
Y84600D02*
Y87100D01*
Y82400D02*
Y83600D01*
Y79500D02*
Y82200D01*
Y74400D02*
Y77300D01*
Y71700D02*
Y74000D01*
Y69100D02*
Y71400D01*
Y64200D02*
Y66500D01*
Y61400D02*
Y63900D01*
Y57200D02*
Y59600D01*
Y53600D02*
Y55900D01*
Y45600D02*
Y46800D01*
Y40500D02*
Y42400D01*
Y36000D02*
Y37100D01*
X-3800Y109900D02*
Y110400D01*
Y104900D02*
Y105500D01*
Y103200D02*
Y103600D01*
Y97000D02*
Y101400D01*
Y94800D02*
Y95500D01*
Y92300D02*
Y92900D01*
Y88200D02*
Y89000D01*
Y84600D02*
Y87000D01*
Y82400D02*
Y83600D01*
Y79600D02*
Y82200D01*
Y74400D02*
Y77200D01*
Y71700D02*
Y74000D01*
Y69200D02*
Y71500D01*
Y64200D02*
Y66500D01*
Y61500D02*
Y63900D01*
Y57200D02*
Y59600D01*
Y53600D02*
Y55900D01*
Y45600D02*
Y46800D01*
Y40500D02*
Y42400D01*
Y36000D02*
Y37100D01*
X-3700Y109900D02*
Y110400D01*
Y104800D02*
Y105400D01*
Y103300D02*
Y103700D01*
Y97000D02*
Y101400D01*
Y94800D02*
Y95500D01*
Y92200D02*
Y92900D01*
Y88200D02*
Y89000D01*
Y84600D02*
Y87000D01*
Y82500D02*
Y83700D01*
Y79700D02*
Y82300D01*
Y74500D02*
Y77100D01*
Y71700D02*
Y74000D01*
Y69300D02*
Y71500D01*
Y64200D02*
Y66400D01*
Y61500D02*
Y64000D01*
Y57200D02*
Y59600D01*
Y53700D02*
Y56000D01*
Y51100D02*
Y52200D01*
Y45700D02*
Y46800D01*
Y40600D02*
Y42300D01*
Y36000D02*
Y37200D01*
X-3600Y109800D02*
Y110400D01*
Y104800D02*
Y105300D01*
Y103300D02*
Y103700D01*
Y97100D02*
Y101400D01*
Y94800D02*
Y95500D01*
Y92200D02*
Y92800D01*
Y88200D02*
Y89000D01*
Y84600D02*
Y87000D01*
Y82500D02*
Y83700D01*
Y79800D02*
Y82300D01*
Y74500D02*
Y77100D01*
Y71800D02*
Y74000D01*
Y69300D02*
Y71600D01*
Y64200D02*
Y66400D01*
Y61600D02*
Y64000D01*
Y57200D02*
Y59600D01*
Y53700D02*
Y56000D01*
Y51100D02*
Y52200D01*
Y45700D02*
Y46800D01*
Y40700D02*
Y42300D01*
Y36100D02*
Y37200D01*
X-3500Y109800D02*
Y110400D01*
Y104700D02*
Y105300D01*
Y103400D02*
Y103700D01*
Y97100D02*
Y101400D01*
Y94900D02*
Y95600D01*
Y92100D02*
Y92700D01*
Y88300D02*
Y89100D01*
Y84600D02*
Y87000D01*
Y82600D02*
Y83800D01*
Y79900D02*
Y82400D01*
Y74500D02*
Y77000D01*
Y71800D02*
Y74000D01*
Y69400D02*
Y71600D01*
Y64200D02*
Y66400D01*
Y61600D02*
Y64000D01*
Y57200D02*
Y59600D01*
Y53700D02*
Y56000D01*
Y51100D02*
Y52200D01*
Y45700D02*
Y46800D01*
Y40800D02*
Y42200D01*
Y36100D02*
Y37200D01*
X-3400Y109700D02*
Y110400D01*
Y104600D02*
Y105200D01*
Y103400D02*
Y103800D01*
Y97100D02*
Y101300D01*
Y94900D02*
Y95600D01*
Y92100D02*
Y92700D01*
Y88300D02*
Y89100D01*
Y84600D02*
Y87000D01*
Y82600D02*
Y83800D01*
Y80000D02*
Y82400D01*
Y74500D02*
Y77000D01*
Y71800D02*
Y74100D01*
Y69400D02*
Y71600D01*
Y64200D02*
Y66400D01*
Y61700D02*
Y64000D01*
Y57300D02*
Y59600D01*
Y53700D02*
Y56000D01*
Y51100D02*
Y52200D01*
Y45700D02*
Y46900D01*
Y40900D02*
Y42100D01*
Y36100D02*
Y37200D01*
X-3300Y109700D02*
Y110300D01*
Y104500D02*
Y105100D01*
Y103400D02*
Y103800D01*
Y97200D02*
Y101300D01*
Y95000D02*
Y95700D01*
Y92000D02*
Y92600D01*
Y88300D02*
Y89200D01*
Y84600D02*
Y87000D01*
Y82700D02*
Y83900D01*
Y80100D02*
Y82500D01*
Y74500D02*
Y77000D01*
Y71800D02*
Y74100D01*
Y64200D02*
Y71700D01*
Y61700D02*
Y64000D01*
Y57300D02*
Y59600D01*
Y53700D02*
Y56000D01*
Y51100D02*
Y52200D01*
Y45800D02*
Y46900D01*
Y40900D02*
Y42200D01*
Y36100D02*
Y37200D01*
X-3200Y109600D02*
Y110300D01*
Y104400D02*
Y105000D01*
Y103500D02*
Y103800D01*
Y97200D02*
Y101200D01*
Y95000D02*
Y95700D01*
Y92000D02*
Y92600D01*
Y88400D02*
Y89200D01*
Y84600D02*
Y87000D01*
Y82700D02*
Y83900D01*
Y80100D02*
Y82500D01*
Y74600D02*
Y76900D01*
Y71800D02*
Y74100D01*
Y64200D02*
Y71700D01*
Y61800D02*
Y64000D01*
Y57300D02*
Y59600D01*
Y53800D02*
Y56000D01*
Y51200D02*
Y52300D01*
Y45800D02*
Y46900D01*
Y40800D02*
Y42300D01*
Y36100D02*
Y37300D01*
X-3100Y109500D02*
Y110300D01*
Y104300D02*
Y104900D01*
Y103500D02*
Y103900D01*
Y97300D02*
Y101200D01*
Y95100D02*
Y95800D01*
Y91900D02*
Y92500D01*
Y88400D02*
Y89300D01*
Y84500D02*
Y86900D01*
Y82800D02*
Y83900D01*
Y80200D02*
Y82500D01*
Y74600D02*
Y76900D01*
Y71800D02*
Y74100D01*
Y64200D02*
Y71700D01*
Y61800D02*
Y64100D01*
Y57300D02*
Y59600D01*
Y53800D02*
Y56100D01*
Y51200D02*
Y52300D01*
Y45800D02*
Y46900D01*
Y40800D02*
Y42400D01*
Y36200D02*
Y37300D01*
X-3000Y109500D02*
Y110200D01*
Y104200D02*
Y104800D01*
Y103500D02*
Y103900D01*
Y97400D02*
Y101100D01*
Y95100D02*
Y95800D01*
Y91800D02*
Y92500D01*
Y88500D02*
Y89400D01*
Y84500D02*
Y86900D01*
Y82800D02*
Y84000D01*
Y80200D02*
Y82500D01*
Y74600D02*
Y76900D01*
Y71900D02*
Y74100D01*
Y64200D02*
Y71800D01*
Y61800D02*
Y64100D01*
Y57300D02*
Y59600D01*
Y53800D02*
Y56100D01*
Y51200D02*
Y52300D01*
Y45800D02*
Y47000D01*
Y40700D02*
Y42500D01*
Y36200D02*
Y37300D01*
X-2900Y109400D02*
Y110100D01*
Y104100D02*
Y104700D01*
Y103600D02*
Y103900D01*
Y97400D02*
Y101000D01*
Y95100D02*
Y95800D01*
Y91800D02*
Y92400D01*
Y88600D02*
Y89500D01*
Y84500D02*
Y86900D01*
Y82900D02*
Y84000D01*
Y80300D02*
Y82600D01*
Y74600D02*
Y76900D01*
Y71900D02*
Y74200D01*
Y64200D02*
Y71800D01*
Y61800D02*
Y64100D01*
Y57300D02*
Y59600D01*
Y53800D02*
Y56100D01*
Y51200D02*
Y52300D01*
Y45800D02*
Y47000D01*
Y40700D02*
Y42500D01*
Y36200D02*
Y37300D01*
X-2800Y109200D02*
Y110100D01*
Y104100D02*
Y104600D01*
Y103600D02*
Y104000D01*
Y97500D02*
Y101000D01*
Y95200D02*
Y95900D01*
Y91700D02*
Y92300D01*
Y88700D02*
Y89600D01*
Y84500D02*
Y86900D01*
Y82900D02*
Y84100D01*
Y80300D02*
Y82600D01*
Y74600D02*
Y76900D01*
Y71900D02*
Y74200D01*
Y64200D02*
Y71800D01*
Y61800D02*
Y64100D01*
Y57400D02*
Y59700D01*
Y53800D02*
Y56100D01*
Y51200D02*
Y52300D01*
Y45900D02*
Y47000D01*
Y40600D02*
Y42600D01*
Y36200D02*
Y37400D01*
X-2700Y109100D02*
Y110000D01*
Y104100D02*
Y104600D01*
Y103600D02*
Y104000D01*
Y97600D02*
Y100900D01*
Y95200D02*
Y95900D01*
Y91700D02*
Y92300D01*
Y88700D02*
Y89700D01*
Y84500D02*
Y86900D01*
Y83000D02*
Y84100D01*
Y80300D02*
Y82600D01*
Y74600D02*
Y76900D01*
Y64200D02*
Y74200D01*
Y61900D02*
Y64100D01*
Y57400D02*
Y59700D01*
Y53900D02*
Y56100D01*
Y51200D02*
Y52300D01*
Y45900D02*
Y47000D01*
Y40600D02*
Y42700D01*
Y36200D02*
Y37400D01*
X-2600Y109000D02*
Y109900D01*
Y104100D02*
Y104500D01*
Y103700D02*
Y104000D01*
Y97700D02*
Y100800D01*
Y95300D02*
Y96000D01*
Y91700D02*
Y92200D01*
Y88800D02*
Y89800D01*
Y84500D02*
Y86900D01*
Y83100D02*
Y84200D01*
Y80400D02*
Y82600D01*
Y74700D02*
Y76900D01*
Y64200D02*
Y74200D01*
Y61900D02*
Y64100D01*
Y57400D02*
Y59700D01*
Y53900D02*
Y56200D01*
Y51300D02*
Y52400D01*
Y45900D02*
Y47000D01*
Y40500D02*
Y42800D01*
Y36300D02*
Y37400D01*
X-2500Y108900D02*
Y109800D01*
Y103700D02*
Y104400D01*
Y97800D02*
Y100700D01*
Y95300D02*
Y96000D01*
Y91600D02*
Y92200D01*
Y88900D02*
Y90000D01*
Y84500D02*
Y86800D01*
Y83100D02*
Y84200D01*
Y80400D02*
Y82700D01*
Y74700D02*
Y77000D01*
Y72000D02*
Y74200D01*
Y64300D02*
Y71900D01*
Y61900D02*
Y64200D01*
Y57400D02*
Y59700D01*
Y53900D02*
Y56200D01*
Y51300D02*
Y52400D01*
Y45900D02*
Y47100D01*
Y40500D02*
Y42900D01*
Y36300D02*
Y37400D01*
X-2400Y108700D02*
Y109700D01*
Y103700D02*
Y104100D01*
Y97900D02*
Y100500D01*
Y95400D02*
Y96100D01*
Y91600D02*
Y92100D01*
Y89000D02*
Y90100D01*
Y84500D02*
Y86800D01*
Y83200D02*
Y84300D01*
Y80400D02*
Y82700D01*
Y74700D02*
Y77000D01*
Y72000D02*
Y74300D01*
Y64300D02*
Y71900D01*
Y61900D02*
Y64200D01*
Y57400D02*
Y59700D01*
Y53900D02*
Y56200D01*
Y51300D02*
Y52400D01*
Y45900D02*
Y47100D01*
Y41800D02*
Y43000D01*
Y40400D02*
Y41600D01*
Y36300D02*
Y37400D01*
X-2300Y108600D02*
Y109600D01*
Y103800D02*
Y104100D01*
Y103500D02*
Y103700D01*
Y98100D02*
Y100400D01*
Y95400D02*
Y96100D01*
Y91500D02*
Y92100D01*
Y89200D02*
Y90300D01*
Y84500D02*
Y86800D01*
Y83200D02*
Y84300D01*
Y80400D02*
Y82700D01*
Y74700D02*
Y77000D01*
Y72000D02*
Y74300D01*
Y69700D02*
Y71900D01*
Y61900D02*
Y64200D01*
Y57500D02*
Y59700D01*
Y53900D02*
Y56200D01*
Y51300D02*
Y52400D01*
Y46000D02*
Y47100D01*
Y41800D02*
Y43100D01*
Y40400D02*
Y41600D01*
Y36300D02*
Y37500D01*
X-2200Y108400D02*
Y109500D01*
Y103800D02*
Y104200D01*
Y103400D02*
Y103700D01*
Y98300D02*
Y100200D01*
Y95400D02*
Y96200D01*
Y91500D02*
Y92000D01*
Y89300D02*
Y90400D01*
Y84500D02*
Y86800D01*
Y83200D02*
Y84400D01*
Y80400D02*
Y82700D01*
Y74700D02*
Y77000D01*
Y72000D02*
Y74300D01*
Y69700D02*
Y71900D01*
Y61900D02*
Y64200D01*
Y57500D02*
Y59800D01*
Y53900D02*
Y56200D01*
Y51300D02*
Y52400D01*
Y46000D02*
Y47100D01*
Y41900D02*
Y43100D01*
Y40300D02*
Y41500D01*
Y36400D02*
Y37500D01*
X-2100Y108200D02*
Y109300D01*
Y103800D02*
Y104200D01*
Y103300D02*
Y103700D01*
Y98500D02*
Y100000D01*
Y95500D02*
Y96200D01*
Y91400D02*
Y92000D01*
Y89400D02*
Y90600D01*
Y84500D02*
Y86800D01*
Y83300D02*
Y84400D01*
Y80400D02*
Y82700D01*
Y74800D02*
Y77100D01*
Y69700D02*
Y74300D01*
Y62000D02*
Y64300D01*
Y57500D02*
Y59800D01*
Y54000D02*
Y56300D01*
Y51400D02*
Y52500D01*
Y46000D02*
Y47100D01*
Y42000D02*
Y43200D01*
Y40300D02*
Y41500D01*
Y36400D02*
Y37500D01*
X-2000Y108000D02*
Y109200D01*
Y103200D02*
Y104200D01*
Y98900D02*
Y99600D01*
Y95500D02*
Y96300D01*
Y91400D02*
Y92000D01*
Y89600D02*
Y90800D01*
Y83400D02*
Y86800D01*
Y80400D02*
Y82700D01*
Y74800D02*
Y77100D01*
Y69800D02*
Y74300D01*
Y62000D02*
Y64300D01*
Y57500D02*
Y59800D01*
Y54000D02*
Y56300D01*
Y51400D02*
Y52500D01*
Y46000D02*
Y47200D01*
Y42100D02*
Y43300D01*
Y40300D02*
Y41500D01*
Y36400D02*
Y37500D01*
X-1900Y107800D02*
Y109000D01*
Y103900D02*
Y104200D01*
Y103100D02*
Y103800D01*
Y95600D02*
Y96300D01*
Y91400D02*
Y91900D01*
Y89700D02*
Y91000D01*
Y83400D02*
Y86700D01*
Y80400D02*
Y82700D01*
Y74800D02*
Y77200D01*
Y72100D02*
Y74300D01*
Y69800D02*
Y72000D01*
Y62000D02*
Y64300D01*
Y57500D02*
Y59800D01*
Y54000D02*
Y56300D01*
Y51400D02*
Y52500D01*
Y46100D02*
Y47200D01*
Y42200D02*
Y43400D01*
Y40200D02*
Y41400D01*
Y36400D02*
Y37500D01*
X-1800Y107600D02*
Y108900D01*
Y103900D02*
Y104300D01*
Y103000D02*
Y103700D01*
Y95600D02*
Y96400D01*
Y91400D02*
Y91900D01*
Y89900D02*
Y91200D01*
Y83500D02*
Y86700D01*
Y80400D02*
Y82700D01*
Y74800D02*
Y77200D01*
Y72100D02*
Y74400D01*
Y69800D02*
Y72000D01*
Y62000D02*
Y64300D01*
Y57600D02*
Y59800D01*
Y54000D02*
Y56300D01*
Y51400D02*
Y52500D01*
Y46100D02*
Y47200D01*
Y42300D02*
Y43500D01*
Y40200D02*
Y41400D01*
Y36400D02*
Y37600D01*
X-1700Y107300D02*
Y108700D01*
Y103900D02*
Y104300D01*
Y102900D02*
Y103600D01*
Y95700D02*
Y96400D01*
Y91700D02*
Y91800D01*
Y90000D02*
Y91500D01*
Y83500D02*
Y86700D01*
Y80300D02*
Y82700D01*
Y74800D02*
Y77300D01*
Y72100D02*
Y74400D01*
Y69800D02*
Y72000D01*
Y62000D02*
Y64300D01*
Y57600D02*
Y59800D01*
Y54000D02*
Y56300D01*
Y51400D02*
Y52500D01*
Y46100D02*
Y47200D01*
Y42300D02*
Y43600D01*
Y40100D02*
Y41300D01*
Y36500D02*
Y37600D01*
X-1600Y107000D02*
Y108500D01*
Y103900D02*
Y104300D01*
Y102800D02*
Y103500D01*
Y95700D02*
Y96500D01*
Y90200D02*
Y91700D01*
Y83600D02*
Y86700D01*
Y80300D02*
Y82700D01*
Y74800D02*
Y77400D01*
Y72100D02*
Y74400D01*
Y69700D02*
Y72000D01*
Y62100D02*
Y64300D01*
Y57600D02*
Y59900D01*
Y54100D02*
Y56300D01*
Y51500D02*
Y52500D01*
Y46100D02*
Y47200D01*
Y42400D02*
Y43600D01*
Y40100D02*
Y41300D01*
Y36500D02*
Y37600D01*
X-1500Y106800D02*
Y108400D01*
Y104000D02*
Y104400D01*
Y102700D02*
Y103300D01*
Y95800D02*
Y96500D01*
Y90400D02*
Y92100D01*
Y83600D02*
Y86700D01*
Y80200D02*
Y82700D01*
Y74900D02*
Y77500D01*
Y72100D02*
Y74400D01*
Y69700D02*
Y72000D01*
Y62100D02*
Y64400D01*
Y57600D02*
Y59900D01*
Y54100D02*
Y56400D01*
Y51500D02*
Y52600D01*
Y46100D02*
Y47300D01*
Y42500D02*
Y43700D01*
Y40000D02*
Y41200D01*
Y36500D02*
Y37600D01*
X-1400Y106400D02*
Y108100D01*
Y104000D02*
Y104400D01*
Y102600D02*
Y103200D01*
Y95800D02*
Y96600D01*
Y90600D02*
Y92400D01*
Y83700D02*
Y86700D01*
Y80200D02*
Y82700D01*
Y74900D02*
Y77500D01*
Y72200D02*
Y74400D01*
Y69700D02*
Y71900D01*
Y62100D02*
Y64400D01*
Y57600D02*
Y59900D01*
Y54100D02*
Y56400D01*
Y51500D02*
Y52600D01*
Y46200D02*
Y47300D01*
Y42600D02*
Y43800D01*
Y40000D02*
Y41200D01*
Y36500D02*
Y37700D01*
X-1300Y106100D02*
Y107900D01*
Y104000D02*
Y104400D01*
Y102400D02*
Y103100D01*
Y95900D02*
Y96600D01*
Y90900D02*
Y92700D01*
Y83700D02*
Y86700D01*
Y80100D02*
Y82700D01*
Y74900D02*
Y77600D01*
Y72200D02*
Y74500D01*
Y69700D02*
Y71900D01*
Y62100D02*
Y64400D01*
Y57600D02*
Y59900D01*
Y54100D02*
Y56400D01*
Y51500D02*
Y52600D01*
Y46200D02*
Y47300D01*
Y42700D02*
Y43900D01*
Y39900D02*
Y41100D01*
Y36500D02*
Y37700D01*
X-1200Y105800D02*
Y107700D01*
Y104000D02*
Y104400D01*
Y102300D02*
Y103000D01*
Y95900D02*
Y96700D01*
Y91100D02*
Y93000D01*
Y83800D02*
Y86700D01*
Y80100D02*
Y82700D01*
Y74900D02*
Y77800D01*
Y72200D02*
Y74500D01*
Y69600D02*
Y71900D01*
Y64800D02*
Y67100D01*
Y62100D02*
Y64400D01*
Y57700D02*
Y59900D01*
Y54100D02*
Y56400D01*
Y51500D02*
Y52600D01*
Y46200D02*
Y47300D01*
Y42800D02*
Y44000D01*
Y39900D02*
Y41100D01*
Y36600D02*
Y37700D01*
X-1100Y105300D02*
Y107400D01*
Y104100D02*
Y104500D01*
Y102200D02*
Y102900D01*
Y96000D02*
Y96700D01*
Y91400D02*
Y93400D01*
Y83800D02*
Y86600D01*
Y79900D02*
Y82700D01*
Y74900D02*
Y77900D01*
Y72200D02*
Y74500D01*
Y69600D02*
Y71900D01*
Y64800D02*
Y67200D01*
Y62100D02*
Y64400D01*
Y57700D02*
Y60000D01*
Y54100D02*
Y56400D01*
Y51500D02*
Y52600D01*
Y46200D02*
Y47400D01*
Y42900D02*
Y44100D01*
Y39800D02*
Y41000D01*
Y36600D02*
Y37700D01*
X-1000Y104900D02*
Y107200D01*
Y104100D02*
Y104400D01*
Y102100D02*
Y102800D01*
Y96000D02*
Y96800D01*
Y91600D02*
Y93900D01*
Y91100D02*
Y91400D01*
Y83900D02*
Y86600D01*
Y79800D02*
Y82700D01*
Y75000D02*
Y78100D01*
Y72200D02*
Y74500D01*
Y69500D02*
Y71900D01*
Y64900D02*
Y67300D01*
Y62200D02*
Y64500D01*
Y57700D02*
Y60000D01*
Y54200D02*
Y56500D01*
Y51600D02*
Y52700D01*
Y46300D02*
Y47400D01*
Y42900D02*
Y44200D01*
Y39800D02*
Y41000D01*
Y36600D02*
Y37700D01*
X-900Y104400D02*
Y106900D01*
Y102000D02*
Y102700D01*
Y96100D02*
Y96800D01*
Y91900D02*
Y94400D01*
Y91000D02*
Y91500D01*
Y83900D02*
Y86600D01*
Y79600D02*
Y82600D01*
Y75000D02*
Y78300D01*
Y72300D02*
Y74500D01*
Y69400D02*
Y71800D01*
Y64900D02*
Y67400D01*
Y62200D02*
Y64500D01*
Y57700D02*
Y60000D01*
Y54200D02*
Y56500D01*
Y51600D02*
Y52700D01*
Y46300D02*
Y47400D01*
Y43000D02*
Y44200D01*
Y39700D02*
Y40900D01*
Y36600D02*
Y37800D01*
X-800Y103800D02*
Y106600D01*
Y101800D02*
Y102600D01*
Y96100D02*
Y96900D01*
Y92200D02*
Y94900D01*
Y91000D02*
Y91500D01*
Y84000D02*
Y86600D01*
Y79300D02*
Y82600D01*
Y75000D02*
Y78700D01*
Y72300D02*
Y74500D01*
Y69200D02*
Y71800D01*
Y65000D02*
Y67600D01*
Y62200D02*
Y64500D01*
Y57700D02*
Y60000D01*
Y54200D02*
Y56500D01*
Y51600D02*
Y52700D01*
Y46300D02*
Y47400D01*
Y43100D02*
Y44300D01*
Y39700D02*
Y40900D01*
Y36600D02*
Y37800D01*
X-700Y103100D02*
Y106300D01*
Y101800D02*
Y102400D01*
Y96200D02*
Y96900D01*
Y92500D02*
Y95600D01*
Y91000D02*
Y91500D01*
Y84000D02*
Y86600D01*
Y75000D02*
Y82600D01*
Y72300D02*
Y74600D01*
Y69000D02*
Y71800D01*
Y65100D02*
Y67800D01*
Y62200D02*
Y64500D01*
Y57800D02*
Y60000D01*
Y54200D02*
Y56500D01*
Y51600D02*
Y52700D01*
Y46300D02*
Y47400D01*
Y43200D02*
Y44400D01*
Y39600D02*
Y40800D01*
Y36700D02*
Y37800D01*
X-600Y102300D02*
Y105900D01*
Y92900D02*
Y96500D01*
Y91000D02*
Y91500D01*
Y84100D02*
Y86600D01*
Y75000D02*
Y82600D01*
Y72300D02*
Y74600D01*
Y65100D02*
Y71700D01*
Y62300D02*
Y64500D01*
Y57800D02*
Y60100D01*
Y54200D02*
Y56500D01*
Y51600D02*
Y52700D01*
Y46300D02*
Y47400D01*
Y43300D02*
Y44500D01*
Y39600D02*
Y40800D01*
Y36700D02*
Y37800D01*
X-500Y100600D02*
Y105500D01*
Y93300D02*
Y98100D01*
Y90900D02*
Y91500D01*
Y84100D02*
Y86500D01*
Y75100D02*
Y82500D01*
Y72300D02*
Y74600D01*
Y65200D02*
Y71700D01*
Y62300D02*
Y64500D01*
Y57800D02*
Y60100D01*
Y54300D02*
Y56500D01*
Y51600D02*
Y52700D01*
Y46300D02*
Y47500D01*
Y43400D02*
Y44600D01*
Y39500D02*
Y40700D01*
Y36700D02*
Y37900D01*
X-400Y93700D02*
Y105100D01*
Y90900D02*
Y91400D01*
Y84200D02*
Y86500D01*
Y75100D02*
Y82500D01*
Y72300D02*
Y74600D01*
Y65300D02*
Y71600D01*
Y62300D02*
Y64600D01*
Y57800D02*
Y60100D01*
Y54300D02*
Y56600D01*
Y51700D02*
Y52800D01*
Y46400D02*
Y47500D01*
Y43400D02*
Y44700D01*
Y39500D02*
Y40700D01*
Y36800D02*
Y37900D01*
X-300Y94200D02*
Y104600D01*
Y90900D02*
Y91400D01*
Y84200D02*
Y86500D01*
Y75100D02*
Y82400D01*
Y72400D02*
Y74600D01*
Y65400D02*
Y71600D01*
Y62300D02*
Y64600D01*
Y57800D02*
Y60100D01*
Y54300D02*
Y56600D01*
Y51700D02*
Y52800D01*
Y46400D02*
Y47500D01*
Y43500D02*
Y44800D01*
Y39400D02*
Y40600D01*
Y36800D02*
Y37900D01*
X-200Y104500D02*
Y104600D01*
Y94700D02*
Y104100D01*
Y90900D02*
Y91400D01*
Y84300D02*
Y86500D01*
Y75100D02*
Y82400D01*
Y72400D02*
Y74700D01*
Y65500D02*
Y71500D01*
Y62300D02*
Y64600D01*
Y57800D02*
Y60100D01*
Y54300D02*
Y56600D01*
Y51700D02*
Y52800D01*
Y46400D02*
Y47500D01*
Y43600D02*
Y44800D01*
Y39400D02*
Y40600D01*
Y36800D02*
Y38000D01*
X-100Y104300D02*
Y104700D01*
Y95300D02*
Y103400D01*
Y90900D02*
Y91400D01*
Y84300D02*
Y86500D01*
Y75100D02*
Y82300D01*
Y72400D02*
Y74700D01*
Y65600D02*
Y71500D01*
Y62300D02*
Y64600D01*
Y57900D02*
Y60100D01*
Y54300D02*
Y56600D01*
Y51700D02*
Y52800D01*
Y46400D02*
Y47500D01*
Y43700D02*
Y44900D01*
Y39300D02*
Y40500D01*
Y36900D02*
Y38000D01*
X0Y104300D02*
Y104700D01*
Y96200D02*
Y102600D01*
Y90900D02*
Y91400D01*
Y84400D02*
Y86500D01*
Y75100D02*
Y82300D01*
Y72400D02*
Y74700D01*
Y65700D02*
Y71400D01*
Y62400D02*
Y64600D01*
Y57900D02*
Y60200D01*
Y54400D02*
Y56600D01*
Y51700D02*
Y52800D01*
Y46400D02*
Y47500D01*
Y43800D02*
Y45000D01*
Y39300D02*
Y40500D01*
Y36900D02*
Y38100D01*
X100Y104300D02*
Y104700D01*
Y97400D02*
Y101500D01*
Y90900D02*
Y91400D01*
Y84400D02*
Y86500D01*
Y75200D02*
Y82200D01*
Y72400D02*
Y74700D01*
Y65800D02*
Y71300D01*
Y62400D02*
Y64600D01*
Y57900D02*
Y60200D01*
Y54400D02*
Y56700D01*
Y51800D02*
Y52800D01*
Y46300D02*
Y47500D01*
Y43900D02*
Y45100D01*
Y39200D02*
Y40400D01*
Y36900D02*
Y38100D01*
X200Y104300D02*
Y104700D01*
Y96700D02*
Y97400D01*
Y90900D02*
Y91400D01*
Y84500D02*
Y86400D01*
Y75200D02*
Y82200D01*
Y72400D02*
Y74700D01*
Y65900D02*
Y71300D01*
Y62400D02*
Y64700D01*
Y57900D02*
Y60200D01*
Y54400D02*
Y56700D01*
Y51800D02*
Y52900D01*
Y46300D02*
Y47500D01*
Y43900D02*
Y45200D01*
Y39200D02*
Y40400D01*
Y37000D02*
Y38200D01*
X300Y104300D02*
Y104700D01*
Y100400D02*
Y101100D01*
Y96700D02*
Y97500D01*
Y90800D02*
Y91400D01*
Y84500D02*
Y86400D01*
Y75200D02*
Y82100D01*
Y72500D02*
Y74800D01*
Y66000D02*
Y71200D01*
Y62400D02*
Y64700D01*
Y57900D02*
Y60200D01*
Y54400D02*
Y56700D01*
Y51800D02*
Y52900D01*
Y46300D02*
Y47500D01*
Y37000D02*
Y38200D01*
X400Y104400D02*
Y104700D01*
Y100200D02*
Y101000D01*
Y96800D02*
Y97600D01*
Y90800D02*
Y91400D01*
Y84600D02*
Y86400D01*
Y75200D02*
Y82000D01*
Y72500D02*
Y74800D01*
Y66100D02*
Y71100D01*
Y62400D02*
Y64700D01*
Y58000D02*
Y60200D01*
Y54400D02*
Y56700D01*
Y51800D02*
Y52900D01*
Y46300D02*
Y47500D01*
Y37100D02*
Y38300D01*
X500Y104400D02*
Y104700D01*
Y100100D02*
Y100900D01*
Y96800D02*
Y97600D01*
Y90800D02*
Y91400D01*
Y84600D02*
Y86400D01*
Y75200D02*
Y81900D01*
Y72500D02*
Y74800D01*
Y66300D02*
Y71000D01*
Y62500D02*
Y64700D01*
Y58000D02*
Y60300D01*
Y54400D02*
Y56700D01*
Y51800D02*
Y52900D01*
Y46200D02*
Y47500D01*
Y37100D02*
Y38500D01*
X600Y104400D02*
Y104800D01*
Y99900D02*
Y100700D01*
Y96900D02*
Y97700D01*
Y90800D02*
Y91400D01*
Y84700D02*
Y86400D01*
Y77600D02*
Y81800D01*
Y75300D02*
Y77500D01*
Y72500D02*
Y74800D01*
Y66400D02*
Y70900D01*
Y62500D02*
Y64800D01*
Y58000D02*
Y60300D01*
Y54500D02*
Y56800D01*
Y51800D02*
Y52900D01*
Y46000D02*
Y47500D01*
Y37200D02*
Y38600D01*
X700Y104400D02*
Y104800D01*
Y99800D02*
Y100600D01*
Y97000D02*
Y97700D01*
Y90800D02*
Y91400D01*
Y84700D02*
Y86400D01*
Y77700D02*
Y81700D01*
Y75300D02*
Y77600D01*
Y72500D02*
Y74800D01*
Y66600D02*
Y70800D01*
Y62500D02*
Y64800D01*
Y58000D02*
Y60300D01*
Y54500D02*
Y56800D01*
Y51900D02*
Y53000D01*
Y45400D02*
Y47500D01*
Y37200D02*
Y39400D01*
X800Y104400D02*
Y104800D01*
Y99600D02*
Y100500D01*
Y97000D02*
Y97800D01*
Y90900D02*
Y91400D01*
Y84800D02*
Y86300D01*
Y77900D02*
Y81600D01*
Y75300D02*
Y77600D01*
Y72600D02*
Y74800D01*
Y66800D02*
Y70600D01*
Y62500D02*
Y64800D01*
Y58000D02*
Y60300D01*
Y54500D02*
Y56800D01*
Y51900D02*
Y53000D01*
Y45400D02*
Y47400D01*
Y37300D02*
Y39400D01*
X900Y104400D02*
Y104800D01*
Y99400D02*
Y100300D01*
Y97100D02*
Y97900D01*
Y90900D02*
Y91400D01*
Y84800D02*
Y86300D01*
Y78000D02*
Y81400D01*
Y75300D02*
Y77600D01*
Y72600D02*
Y74900D01*
Y66900D02*
Y70400D01*
Y62500D02*
Y64800D01*
Y58100D02*
Y60300D01*
Y54500D02*
Y56800D01*
Y51900D02*
Y53000D01*
Y45400D02*
Y47400D01*
Y37400D02*
Y39400D01*
X1000Y104400D02*
Y104800D01*
Y99300D02*
Y100200D01*
Y97100D02*
Y97900D01*
Y90900D02*
Y91400D01*
Y84900D02*
Y86300D01*
Y78200D02*
Y81300D01*
Y75300D02*
Y77600D01*
Y72600D02*
Y74900D01*
Y67200D02*
Y70300D01*
Y62500D02*
Y64800D01*
Y58100D02*
Y60300D01*
Y54500D02*
Y56800D01*
Y51900D02*
Y53000D01*
Y45400D02*
Y47300D01*
Y37500D02*
Y39400D01*
X1100Y104400D02*
Y104800D01*
Y99100D02*
Y100000D01*
Y97200D02*
Y98000D01*
Y90900D02*
Y91400D01*
Y85000D02*
Y86200D01*
Y78400D02*
Y81100D01*
Y75400D02*
Y77600D01*
Y72700D02*
Y74800D01*
Y67400D02*
Y70100D01*
Y62600D02*
Y64800D01*
Y58200D02*
Y60300D01*
Y54600D02*
Y56800D01*
Y52000D02*
Y53000D01*
Y45400D02*
Y47300D01*
Y37600D02*
Y39500D01*
X1200Y104400D02*
Y104800D01*
Y98900D02*
Y99800D01*
Y97300D02*
Y98100D01*
Y90900D02*
Y91400D01*
Y78700D02*
Y80800D01*
Y67700D02*
Y69800D01*
Y45400D02*
Y47200D01*
Y37700D02*
Y39500D01*
X1300Y104400D02*
Y104800D01*
Y98700D02*
Y99700D01*
Y97300D02*
Y98100D01*
Y90900D02*
Y91500D01*
Y79100D02*
Y80400D01*
Y68200D02*
Y69300D01*
Y45500D02*
Y47100D01*
Y37800D02*
Y39500D01*
X1400Y104400D02*
Y104800D01*
Y98600D02*
Y99500D01*
Y97400D02*
Y98200D01*
Y91000D02*
Y91500D01*
Y45500D02*
Y47000D01*
Y38000D02*
Y39500D01*
X1500Y104500D02*
Y104800D01*
Y98400D02*
Y99300D01*
Y97400D02*
Y98300D01*
Y91000D02*
Y91600D01*
Y45500D02*
Y46800D01*
Y38200D02*
Y39500D01*
X1600Y104500D02*
Y104800D01*
Y98400D02*
Y99200D01*
Y97500D02*
Y98300D01*
Y91000D02*
Y91600D01*
Y45500D02*
Y46500D01*
Y38500D02*
Y39500D01*
X1700Y104500D02*
Y104900D01*
Y98500D02*
Y99000D01*
Y97600D02*
Y98400D01*
Y91100D02*
Y91700D01*
X1800Y104500D02*
Y104900D01*
Y98600D02*
Y98800D01*
Y97700D02*
Y98500D01*
Y91100D02*
Y91700D01*
X1900Y104500D02*
Y104800D01*
Y97700D02*
Y98500D01*
Y91100D02*
Y91800D01*
X2000Y104500D02*
Y104900D01*
Y97800D02*
Y98600D01*
Y97300D02*
Y97700D01*
Y91200D02*
Y91900D01*
X2100Y104500D02*
Y104900D01*
Y97900D02*
Y98700D01*
Y97100D02*
Y97800D01*
Y91300D02*
Y91900D01*
X2200Y104500D02*
Y104900D01*
Y97900D02*
Y98800D01*
Y96800D02*
Y97800D01*
Y91300D02*
Y92100D01*
X2300Y104500D02*
Y104900D01*
Y98000D02*
Y98800D01*
Y96500D02*
Y97800D01*
Y91400D02*
Y92200D01*
X2400Y104500D02*
Y104900D01*
Y98100D02*
Y98900D01*
Y96300D02*
Y97600D01*
Y91500D02*
Y92300D01*
X2500Y104500D02*
Y104900D01*
Y98100D02*
Y99000D01*
Y96000D02*
Y97400D01*
Y91600D02*
Y92500D01*
X2600Y104500D02*
Y104900D01*
Y98200D02*
Y99100D01*
Y95600D02*
Y97100D01*
Y91700D02*
Y92700D01*
X2700Y104500D02*
Y104900D01*
Y98300D02*
Y99200D01*
Y95100D02*
Y96800D01*
Y91800D02*
Y93100D01*
X2800Y104500D02*
Y104900D01*
Y98400D02*
Y99200D01*
Y94300D02*
Y96500D01*
Y91900D02*
Y93700D01*
X2900Y104500D02*
Y104800D01*
Y98400D02*
Y99300D01*
Y92100D02*
Y96300D01*
X3000Y104500D02*
Y104800D01*
Y98500D02*
Y99400D01*
Y92300D02*
Y96000D01*
X3100Y104500D02*
Y104800D01*
Y98600D02*
Y99500D01*
Y92500D02*
Y95600D01*
X3200Y104400D02*
Y104800D01*
Y98700D02*
Y99600D01*
Y92900D02*
Y95100D01*
X3300Y104400D02*
Y104800D01*
Y98700D02*
Y99700D01*
Y93700D02*
Y94100D01*
X3400Y104400D02*
Y104800D01*
Y98800D02*
Y99800D01*
X3500Y104400D02*
Y104800D01*
Y98900D02*
Y99800D01*
X3600Y104400D02*
Y104800D01*
Y99000D02*
Y99900D01*
X3700Y104400D02*
Y104800D01*
Y103500D02*
Y104100D01*
Y99100D02*
Y100000D01*
X3800Y104500D02*
Y104800D01*
Y103200D02*
Y104400D01*
Y99200D02*
Y100200D01*
X3900Y103000D02*
Y104500D01*
Y99300D02*
Y100200D01*
X4000Y102900D02*
Y104700D01*
Y99400D02*
Y100300D01*
X4100Y102700D02*
Y104800D01*
Y99400D02*
Y100500D01*
X4200Y102600D02*
Y104900D01*
Y99500D02*
Y100600D01*
X4300Y102600D02*
Y105000D01*
Y99600D02*
Y100700D01*
X4400Y102500D02*
Y105100D01*
Y99700D02*
Y100800D01*
X4500Y102400D02*
Y105100D01*
Y99800D02*
Y100900D01*
X4600Y102400D02*
Y105200D01*
Y99900D02*
Y101100D01*
X4700Y102400D02*
Y105200D01*
Y100100D02*
Y101200D01*
X4800Y102300D02*
Y105200D01*
Y100200D02*
Y101400D01*
X4900Y102300D02*
Y105300D01*
Y100300D02*
Y101500D01*
X5000Y102300D02*
Y105300D01*
Y100400D02*
Y101700D01*
X5100Y102300D02*
Y105300D01*
Y100500D02*
Y101900D01*
X5200Y103400D02*
Y105300D01*
Y102500D02*
Y103100D01*
Y100700D02*
Y102200D01*
X5300Y103600D02*
Y105300D01*
Y103100D02*
Y103400D01*
Y100800D02*
Y102600D01*
X5400Y103700D02*
Y105300D01*
Y100900D02*
Y103600D01*
X5500Y103700D02*
Y105300D01*
Y101100D02*
Y103600D01*
X5600Y101300D02*
Y105200D01*
X5700Y103800D02*
Y105200D01*
Y101500D02*
Y103700D01*
X5800Y101700D02*
Y105200D01*
X5900Y103700D02*
Y105100D01*
Y101900D02*
Y103600D01*
X6000D02*
Y105000D01*
Y102200D02*
Y103500D01*
X6100Y103400D02*
Y105000D01*
X6200Y102700D02*
Y104900D01*
X6300Y102700D02*
Y104800D01*
X6400Y102900D02*
Y104700D01*
X6500Y103000D02*
Y104500D01*
X6600Y103300D02*
Y104300D01*
D65*
X41200Y22650D02*
D03*
X139599Y83859D02*
D03*
X146870Y83327D02*
D03*
X47500Y22450D02*
D03*
D66*
X116023Y37187D02*
D03*
X116141Y30701D02*
D03*
D67*
X41201Y25809D02*
D03*
Y20009D02*
D03*
X139600Y80700D02*
D03*
Y86500D02*
D03*
X113381Y37186D02*
D03*
X119181D02*
D03*
X113500Y30700D02*
D03*
X119300D02*
D03*
X146869Y80168D02*
D03*
Y85969D02*
D03*
X47501Y25609D02*
D03*
Y19809D02*
D03*
M02*
