%FSLAX25Y25*%
%MOIN*%
G70*
G01*
G75*
G04 Layer_Physical_Order=3*
G04 Layer_Color=16440176*
%ADD10C,0.00800*%
%ADD11O,0.01575X0.05331*%
%ADD12O,0.01575X0.06315*%
%ADD13O,0.01575X0.08874*%
%ADD14O,0.01575X0.04331*%
%ADD15O,0.05331X0.01575*%
%ADD16O,0.06315X0.01575*%
%ADD17R,0.02362X0.04724*%
%ADD18R,0.03347X0.03150*%
%ADD19R,0.03150X0.03347*%
%ADD20R,0.06890X0.03937*%
%ADD21R,0.02600X0.03300*%
%ADD22R,0.07874X0.02559*%
%ADD23C,0.00600*%
%ADD24C,0.01400*%
%ADD25C,0.02000*%
%ADD26C,0.10000*%
%ADD27C,0.05500*%
%ADD28R,0.05500X0.05500*%
%ADD29C,0.03300*%
%ADD30R,0.05500X0.05500*%
%ADD31R,0.05700X0.05700*%
%ADD32C,0.05700*%
%ADD33C,0.07480*%
%ADD34C,0.02700*%
G36*
X153874Y108550D02*
X147250D01*
Y101050D01*
X153874D01*
Y-7174D01*
X88042D01*
X87775Y-6674D01*
X88014Y-6317D01*
X88196Y-5400D01*
X88014Y-4483D01*
X87494Y-3706D01*
X86717Y-3186D01*
X85800Y-3004D01*
X84883Y-3186D01*
X84106Y-3706D01*
X83586Y-4483D01*
X83404Y-5400D01*
X83586Y-6317D01*
X83825Y-6674D01*
X83558Y-7174D01*
X-15274D01*
Y110574D01*
X85693D01*
X85959Y110074D01*
X85586Y109517D01*
X85404Y108600D01*
X85586Y107683D01*
X86106Y106906D01*
X86883Y106386D01*
X87800Y106204D01*
X88717Y106386D01*
X89494Y106906D01*
X90014Y107683D01*
X90196Y108600D01*
X90014Y109517D01*
X89641Y110074D01*
X89907Y110574D01*
X153874D01*
Y108550D01*
D02*
G37*
%LPC*%
G36*
X93600Y23896D02*
X92683Y23714D01*
X91906Y23194D01*
X91386Y22417D01*
X91204Y21500D01*
X91386Y20583D01*
X91906Y19806D01*
X92683Y19286D01*
X93005Y19222D01*
X93460Y19132D01*
X93460D01*
X93507Y19123D01*
X93600Y19104D01*
Y19104D01*
X93603Y19068D01*
X93636Y18689D01*
X93638Y18665D01*
X93641Y18631D01*
X93641Y18625D01*
X93528Y18602D01*
X93528Y18602D01*
X93083Y18514D01*
X92306Y17994D01*
X91786Y17217D01*
X91604Y16300D01*
X91786Y15383D01*
X92306Y14606D01*
X93083Y14086D01*
X93980Y13908D01*
X94021Y13841D01*
X94158Y13426D01*
X93506Y12990D01*
X93339Y12740D01*
X92831Y12682D01*
X92743Y12748D01*
X91942Y13363D01*
X91005Y13751D01*
X90500Y13817D01*
Y10000D01*
Y6183D01*
X91005Y6249D01*
X91942Y6637D01*
X92746Y7254D01*
X93363Y8058D01*
X93699Y8871D01*
X94213Y9129D01*
X94283Y9082D01*
X95200Y8900D01*
X95743Y9008D01*
X96172Y8997D01*
X96386Y8664D01*
X96637Y8058D01*
X97254Y7254D01*
X98058Y6637D01*
X98995Y6249D01*
X100000Y6117D01*
X101005Y6249D01*
X101942Y6637D01*
X102272Y6890D01*
X102726Y6608D01*
X102704Y6500D01*
X102886Y5583D01*
X103406Y4806D01*
X104183Y4286D01*
X105100Y4104D01*
X106017Y4286D01*
X106794Y4806D01*
X107314Y5583D01*
X107485Y6447D01*
X107918Y6744D01*
X108058Y6637D01*
X108995Y6249D01*
X110000Y6117D01*
X111005Y6249D01*
X111942Y6637D01*
X112746Y7254D01*
X113363Y8058D01*
X113751Y8995D01*
X113883Y10000D01*
X113751Y11005D01*
X113363Y11942D01*
X112746Y12746D01*
X111942Y13363D01*
X111005Y13751D01*
X110000Y13883D01*
X108995Y13751D01*
X108058Y13363D01*
X107254Y12746D01*
X106637Y11942D01*
X106249Y11005D01*
X106117Y10000D01*
X106230Y9142D01*
X106210Y9104D01*
X105941Y8828D01*
X105807Y8755D01*
X105100Y8896D01*
X104183Y8714D01*
X104134Y8681D01*
X103866Y8901D01*
X103755Y9029D01*
X103883Y10000D01*
X103751Y11005D01*
X103363Y11942D01*
X102746Y12746D01*
X101942Y13363D01*
X101005Y13751D01*
X100000Y13883D01*
X98995Y13751D01*
X98058Y13363D01*
X97522Y12951D01*
X96894Y12990D01*
X96117Y13509D01*
X95220Y13688D01*
X95179Y13755D01*
X95042Y14170D01*
X95694Y14606D01*
X96214Y15383D01*
X96396Y16300D01*
X96214Y17217D01*
X95694Y17994D01*
X94917Y18514D01*
X94595Y18578D01*
X94140Y18668D01*
X94085Y18679D01*
X94000Y18696D01*
Y18696D01*
X93997Y18733D01*
X93964Y19111D01*
X93962Y19135D01*
X93959Y19169D01*
X93959Y19175D01*
X94072Y19198D01*
X94072Y19198D01*
X94517Y19286D01*
X95294Y19806D01*
X95814Y20583D01*
X95996Y21500D01*
X95814Y22417D01*
X95294Y23194D01*
X94517Y23714D01*
X93600Y23896D01*
D02*
G37*
G36*
X5400Y18096D02*
X4483Y17914D01*
X3706Y17394D01*
X3186Y16617D01*
X3004Y15700D01*
X3186Y14783D01*
X3706Y14006D01*
X4483Y13486D01*
X5400Y13304D01*
X6317Y13486D01*
X7094Y14006D01*
X7614Y14783D01*
X7796Y15700D01*
X7614Y16617D01*
X7094Y17394D01*
X6317Y17914D01*
X5400Y18096D01*
D02*
G37*
G36*
X500Y13817D02*
Y10500D01*
X3817D01*
X3751Y11005D01*
X3363Y11942D01*
X2746Y12746D01*
X1942Y13363D01*
X1005Y13751D01*
X500Y13817D01*
D02*
G37*
G36*
X89500D02*
X88995Y13751D01*
X88058Y13363D01*
X87254Y12746D01*
X86637Y11942D01*
X86249Y11005D01*
X86183Y10500D01*
X89500D01*
Y13817D01*
D02*
G37*
G36*
X-10000Y23782D02*
X-10979Y23653D01*
X-11891Y23276D01*
X-12675Y22674D01*
X-13276Y21891D01*
X-13654Y20979D01*
X-13782Y20000D01*
X-13654Y19021D01*
X-13276Y18109D01*
X-12675Y17325D01*
X-11891Y16724D01*
X-10979Y16346D01*
X-10000Y16218D01*
X-9021Y16346D01*
X-8109Y16724D01*
X-7326Y17325D01*
X-6724Y18109D01*
X-6346Y19021D01*
X-6218Y20000D01*
X-6346Y20979D01*
X-6724Y21891D01*
X-7326Y22674D01*
X-8109Y23276D01*
X-9021Y23653D01*
X-10000Y23782D01*
D02*
G37*
G36*
X83000Y22496D02*
X82083Y22314D01*
X81306Y21794D01*
X80786Y21017D01*
X80604Y20100D01*
X80786Y19183D01*
X81306Y18406D01*
X82083Y17886D01*
X83000Y17704D01*
X83917Y17886D01*
X84694Y18406D01*
X85214Y19183D01*
X85396Y20100D01*
X85214Y21017D01*
X84694Y21794D01*
X83917Y22314D01*
X83000Y22496D01*
D02*
G37*
G36*
X74500Y23796D02*
X73583Y23614D01*
X72806Y23094D01*
X72286Y22317D01*
X72104Y21400D01*
X72286Y20483D01*
X72806Y19706D01*
X72989Y19583D01*
Y19083D01*
X72706Y18894D01*
X72186Y18117D01*
X72004Y17200D01*
X72186Y16283D01*
X72706Y15506D01*
X73483Y14986D01*
X74400Y14804D01*
X75317Y14986D01*
X76094Y15506D01*
X76614Y16283D01*
X76796Y17200D01*
X76614Y18117D01*
X76094Y18894D01*
X75911Y19017D01*
Y19517D01*
X76194Y19706D01*
X76714Y20483D01*
X76896Y21400D01*
X76714Y22317D01*
X76194Y23094D01*
X75417Y23614D01*
X74500Y23796D01*
D02*
G37*
G36*
X105400Y19596D02*
X104483Y19414D01*
X103706Y18894D01*
X103186Y18117D01*
X103004Y17200D01*
X103186Y16283D01*
X103706Y15506D01*
X104483Y14986D01*
X105400Y14804D01*
X106317Y14986D01*
X107094Y15506D01*
X107614Y16283D01*
X107796Y17200D01*
X107614Y18117D01*
X107094Y18894D01*
X106317Y19414D01*
X105400Y19596D01*
D02*
G37*
G36*
X-500Y13817D02*
X-1005Y13751D01*
X-1942Y13363D01*
X-2746Y12746D01*
X-3363Y11942D01*
X-3751Y11005D01*
X-3817Y10500D01*
X-500D01*
Y13817D01*
D02*
G37*
G36*
X89500Y9500D02*
X86183D01*
X86249Y8995D01*
X86637Y8058D01*
X87254Y7254D01*
X88058Y6637D01*
X88995Y6249D01*
X89500Y6183D01*
Y9500D01*
D02*
G37*
G36*
X-10000Y13782D02*
X-10979Y13654D01*
X-11891Y13276D01*
X-12675Y12675D01*
X-13276Y11891D01*
X-13654Y10979D01*
X-13782Y10000D01*
X-13654Y9021D01*
X-13276Y8109D01*
X-12675Y7326D01*
X-11891Y6724D01*
X-10979Y6346D01*
X-10000Y6218D01*
X-9021Y6346D01*
X-8109Y6724D01*
X-7326Y7326D01*
X-6724Y8109D01*
X-6346Y9021D01*
X-6218Y10000D01*
X-6346Y10979D01*
X-6724Y11891D01*
X-7326Y12675D01*
X-8109Y13276D01*
X-9021Y13654D01*
X-10000Y13782D01*
D02*
G37*
G36*
X-500Y9500D02*
X-3817D01*
X-3751Y8995D01*
X-3363Y8058D01*
X-2746Y7254D01*
X-1942Y6637D01*
X-1005Y6249D01*
X-500Y6183D01*
Y9500D01*
D02*
G37*
G36*
X3817D02*
X500D01*
Y6183D01*
X1005Y6249D01*
X1942Y6637D01*
X2746Y7254D01*
X3363Y8058D01*
X3751Y8995D01*
X3817Y9500D01*
D02*
G37*
G36*
X130000Y13883D02*
X128995Y13751D01*
X128058Y13363D01*
X127254Y12746D01*
X126637Y11942D01*
X126249Y11005D01*
X126117Y10000D01*
X126249Y8995D01*
X126637Y8058D01*
X127094Y7463D01*
X126747Y7093D01*
X126717Y7114D01*
X125800Y7296D01*
X124883Y7114D01*
X124106Y6594D01*
X123586Y5817D01*
X123404Y4900D01*
X123586Y3983D01*
X124106Y3206D01*
X124883Y2686D01*
X125800Y2504D01*
X126553Y2654D01*
X126851Y2220D01*
X126637Y1942D01*
X126249Y1005D01*
X126117Y0D01*
X126249Y-1005D01*
X126637Y-1942D01*
X127254Y-2746D01*
X128058Y-3363D01*
X128995Y-3751D01*
X130000Y-3883D01*
X131005Y-3751D01*
X131942Y-3363D01*
X132746Y-2746D01*
X133363Y-1942D01*
X133751Y-1005D01*
X133883Y0D01*
X133751Y1005D01*
X133363Y1942D01*
X132746Y2746D01*
X131942Y3363D01*
X131005Y3751D01*
X130000Y3883D01*
X128995Y3751D01*
X128255Y3444D01*
X127924Y3848D01*
X128014Y3983D01*
X128196Y4900D01*
X128014Y5817D01*
X127706Y6277D01*
X128058Y6637D01*
X128995Y6249D01*
X130000Y6117D01*
X131005Y6249D01*
X131942Y6637D01*
X132746Y7254D01*
X133363Y8058D01*
X133751Y8995D01*
X133883Y10000D01*
X133751Y11005D01*
X133363Y11942D01*
X132746Y12746D01*
X131942Y13363D01*
X131005Y13751D01*
X130000Y13883D01*
D02*
G37*
G36*
X62400Y14896D02*
X61483Y14714D01*
X60706Y14194D01*
X60186Y13417D01*
X60004Y12500D01*
X60186Y11583D01*
X60706Y10806D01*
X61483Y10286D01*
X62400Y10104D01*
X63317Y10286D01*
X64094Y10806D01*
X64614Y11583D01*
X64796Y12500D01*
X64614Y13417D01*
X64094Y14194D01*
X63317Y14714D01*
X62400Y14896D01*
D02*
G37*
G36*
X77500Y11496D02*
X76583Y11314D01*
X75806Y10794D01*
X75286Y10017D01*
X75104Y9100D01*
X75286Y8183D01*
X75806Y7406D01*
X76583Y6886D01*
X77500Y6704D01*
X78417Y6886D01*
X79194Y7406D01*
X79714Y8183D01*
X79896Y9100D01*
X79714Y10017D01*
X79194Y10794D01*
X78417Y11314D01*
X77500Y11496D01*
D02*
G37*
G36*
X68000Y16296D02*
X67083Y16114D01*
X66306Y15594D01*
X65786Y14817D01*
X65604Y13900D01*
X65786Y12983D01*
X66306Y12206D01*
X66488Y12084D01*
X66383Y11553D01*
X65683Y11414D01*
X64906Y10894D01*
X64386Y10117D01*
X64204Y9200D01*
X64386Y8283D01*
X64906Y7506D01*
X65683Y6986D01*
X66600Y6804D01*
X67517Y6986D01*
X68294Y7506D01*
X68814Y8283D01*
X68996Y9200D01*
X68814Y10117D01*
X68294Y10894D01*
X68111Y11016D01*
X68217Y11547D01*
X68917Y11686D01*
X69694Y12206D01*
X70214Y12983D01*
X70396Y13900D01*
X70214Y14817D01*
X69694Y15594D01*
X68917Y16114D01*
X68000Y16296D01*
D02*
G37*
G36*
X58600Y32296D02*
X57683Y32114D01*
X56906Y31594D01*
X56386Y30817D01*
X56204Y29900D01*
X56386Y28983D01*
X56906Y28206D01*
X57683Y27686D01*
X58600Y27504D01*
X59517Y27686D01*
X60294Y28206D01*
X60814Y28983D01*
X60996Y29900D01*
X60814Y30817D01*
X60294Y31594D01*
X59517Y32114D01*
X58600Y32296D01*
D02*
G37*
G36*
X128600Y33596D02*
X127683Y33414D01*
X126906Y32894D01*
X126386Y32117D01*
X126204Y31200D01*
X126386Y30283D01*
X126906Y29506D01*
X127683Y28986D01*
X128600Y28804D01*
X129517Y28986D01*
X130294Y29506D01*
X130814Y30283D01*
X130996Y31200D01*
X130814Y32117D01*
X130294Y32894D01*
X129517Y33414D01*
X128600Y33596D01*
D02*
G37*
G36*
X37600Y31096D02*
X36683Y30914D01*
X35906Y30394D01*
X35386Y29617D01*
X35204Y28700D01*
X35386Y27783D01*
X35906Y27006D01*
X36683Y26486D01*
X37600Y26304D01*
X38517Y26486D01*
X39294Y27006D01*
X39814Y27783D01*
X39996Y28700D01*
X39814Y29617D01*
X39294Y30394D01*
X38517Y30914D01*
X37600Y31096D01*
D02*
G37*
G36*
X50600Y31796D02*
X49683Y31614D01*
X48906Y31094D01*
X48386Y30317D01*
X48204Y29400D01*
X48386Y28483D01*
X48906Y27706D01*
X49683Y27186D01*
X50600Y27004D01*
X51517Y27186D01*
X52294Y27706D01*
X52814Y28483D01*
X52996Y29400D01*
X52814Y30317D01*
X52294Y31094D01*
X51517Y31614D01*
X50600Y31796D01*
D02*
G37*
G36*
X72700Y37273D02*
X72008Y37182D01*
X71364Y36915D01*
X70810Y36490D01*
X70385Y35936D01*
X70118Y35292D01*
X70027Y34600D01*
X70118Y33908D01*
X70385Y33264D01*
X70810Y32710D01*
X71364Y32285D01*
X72008Y32018D01*
X72700Y31927D01*
X73392Y32018D01*
X74036Y32285D01*
X74590Y32710D01*
X75015Y33264D01*
X75282Y33908D01*
X75373Y34600D01*
X75282Y35292D01*
X75015Y35936D01*
X74590Y36490D01*
X74036Y36915D01*
X73392Y37182D01*
X72700Y37273D01*
D02*
G37*
G36*
X82500Y42296D02*
X81583Y42114D01*
X80806Y41594D01*
X80286Y40817D01*
X80104Y39900D01*
X80286Y38983D01*
X80806Y38206D01*
X81583Y37686D01*
X81985Y37606D01*
X82036Y37086D01*
X81864Y37015D01*
X81310Y36590D01*
X80885Y36036D01*
X80618Y35392D01*
X80527Y34700D01*
X80618Y34008D01*
X80885Y33364D01*
X81310Y32810D01*
X81864Y32385D01*
X82508Y32118D01*
X83200Y32027D01*
X83892Y32118D01*
X84536Y32385D01*
X85090Y32810D01*
X85515Y33364D01*
X85782Y34008D01*
X85873Y34700D01*
X85782Y35392D01*
X85515Y36036D01*
X85090Y36590D01*
X84536Y37015D01*
X83892Y37282D01*
X83741Y37302D01*
X83620Y37822D01*
X84194Y38206D01*
X84714Y38983D01*
X84896Y39900D01*
X84714Y40817D01*
X84194Y41594D01*
X83417Y42114D01*
X82500Y42296D01*
D02*
G37*
G36*
X91400Y36573D02*
X90708Y36482D01*
X90064Y36215D01*
X89510Y35790D01*
X89085Y35236D01*
X88818Y34592D01*
X88727Y33900D01*
X88818Y33208D01*
X89085Y32564D01*
X89510Y32010D01*
X90064Y31585D01*
X90708Y31318D01*
X91400Y31227D01*
X92092Y31318D01*
X92736Y31585D01*
X93290Y32010D01*
X93715Y32564D01*
X93982Y33208D01*
X94073Y33900D01*
X93982Y34592D01*
X93715Y35236D01*
X93290Y35790D01*
X92736Y36215D01*
X92092Y36482D01*
X91400Y36573D01*
D02*
G37*
G36*
X98400Y36196D02*
X97483Y36014D01*
X96706Y35494D01*
X96186Y34717D01*
X96004Y33800D01*
X96186Y32883D01*
X96706Y32106D01*
X97483Y31586D01*
X98400Y31404D01*
X99317Y31586D01*
X100094Y32106D01*
X100614Y32883D01*
X100796Y33800D01*
X100614Y34717D01*
X100094Y35494D01*
X99317Y36014D01*
X98400Y36196D01*
D02*
G37*
G36*
X-10000Y33782D02*
X-10979Y33654D01*
X-11891Y33276D01*
X-12675Y32675D01*
X-13276Y31891D01*
X-13654Y30979D01*
X-13782Y30000D01*
X-13654Y29021D01*
X-13276Y28109D01*
X-12675Y27325D01*
X-11891Y26724D01*
X-10979Y26346D01*
X-10000Y26218D01*
X-9021Y26346D01*
X-8109Y26724D01*
X-7326Y27325D01*
X-6724Y28109D01*
X-6346Y29021D01*
X-6218Y30000D01*
X-6346Y30979D01*
X-6724Y31891D01*
X-7326Y32675D01*
X-8109Y33276D01*
X-9021Y33654D01*
X-10000Y33782D01*
D02*
G37*
G36*
X136800Y24596D02*
X135883Y24414D01*
X135106Y23894D01*
X134586Y23117D01*
X134404Y22200D01*
X134586Y21283D01*
X135106Y20506D01*
X135883Y19986D01*
X136800Y19804D01*
X137717Y19986D01*
X138494Y20506D01*
X139014Y21283D01*
X139196Y22200D01*
X139014Y23117D01*
X138494Y23894D01*
X137717Y24414D01*
X136800Y24596D01*
D02*
G37*
G36*
X109700Y26096D02*
X108783Y25914D01*
X108006Y25394D01*
X107486Y24617D01*
X107304Y23700D01*
X107486Y22783D01*
X108006Y22006D01*
X108783Y21486D01*
X109700Y21304D01*
X110617Y21486D01*
X111394Y22006D01*
X111914Y22783D01*
X112096Y23700D01*
X111914Y24617D01*
X111394Y25394D01*
X110617Y25914D01*
X109700Y26096D01*
D02*
G37*
G36*
X26400Y18796D02*
X25483Y18614D01*
X24706Y18094D01*
X24456Y17720D01*
X23717Y18214D01*
X22800Y18396D01*
X21883Y18214D01*
X21106Y17694D01*
X20586Y16917D01*
X20404Y16000D01*
X20586Y15083D01*
X21106Y14306D01*
X21324Y14160D01*
X21087Y13717D01*
X21005Y13751D01*
X20000Y13883D01*
X18995Y13751D01*
X18058Y13363D01*
X17254Y12746D01*
X16637Y11942D01*
X16249Y11005D01*
X16117Y10000D01*
X16249Y8995D01*
X16637Y8058D01*
X16989Y7599D01*
X16643Y7230D01*
X16517Y7314D01*
X15600Y7496D01*
X14683Y7314D01*
X13906Y6794D01*
X13386Y6017D01*
X13204Y5100D01*
X13386Y4183D01*
X13906Y3406D01*
X14683Y2886D01*
X15600Y2704D01*
X16517Y2886D01*
X17294Y3406D01*
X17814Y4183D01*
X17996Y5100D01*
X17814Y6017D01*
X17570Y6381D01*
X17940Y6728D01*
X18058Y6637D01*
X18995Y6249D01*
X20000Y6117D01*
X21005Y6249D01*
X21942Y6637D01*
X22746Y7254D01*
X23363Y8058D01*
X23751Y8995D01*
X23883Y10000D01*
X23751Y11005D01*
X23363Y11942D01*
X22746Y12746D01*
X22114Y13231D01*
X22326Y13698D01*
X22800Y13604D01*
X23717Y13786D01*
X24494Y14306D01*
X24744Y14680D01*
X25483Y14186D01*
X26400Y14004D01*
X27317Y14186D01*
X28094Y14706D01*
X28614Y15483D01*
X28796Y16400D01*
X28614Y17317D01*
X28094Y18094D01*
X27317Y18614D01*
X26400Y18796D01*
D02*
G37*
G36*
X33700Y24396D02*
X32783Y24214D01*
X32006Y23694D01*
X31486Y22917D01*
X31304Y22000D01*
X31486Y21083D01*
X32006Y20306D01*
X32783Y19786D01*
X33700Y19604D01*
X34617Y19786D01*
X35394Y20306D01*
X35914Y21083D01*
X36096Y22000D01*
X35914Y22917D01*
X35394Y23694D01*
X34617Y24214D01*
X33700Y24396D01*
D02*
G37*
G36*
X92300Y29596D02*
X91383Y29414D01*
X90606Y28894D01*
X90086Y28117D01*
X89904Y27200D01*
X90086Y26283D01*
X90606Y25506D01*
X91383Y24986D01*
X92300Y24804D01*
X93217Y24986D01*
X93994Y25506D01*
X94514Y26283D01*
X94696Y27200D01*
X94514Y28117D01*
X93994Y28894D01*
X93217Y29414D01*
X92300Y29596D01*
D02*
G37*
G36*
X145200Y30796D02*
X144283Y30614D01*
X143506Y30094D01*
X142986Y29317D01*
X142804Y28400D01*
X142986Y27483D01*
X143506Y26706D01*
X144283Y26186D01*
X145200Y26004D01*
X146117Y26186D01*
X146894Y26706D01*
X147414Y27483D01*
X147596Y28400D01*
X147414Y29317D01*
X146894Y30094D01*
X146117Y30614D01*
X145200Y30796D01*
D02*
G37*
G36*
X-4700Y27596D02*
X-5617Y27414D01*
X-6394Y26894D01*
X-6914Y26117D01*
X-7096Y25200D01*
X-6914Y24283D01*
X-6394Y23506D01*
X-5617Y22986D01*
X-4700Y22804D01*
X-3783Y22986D01*
X-3006Y23506D01*
X-2486Y24283D01*
X-2304Y25200D01*
X-2486Y26117D01*
X-3006Y26894D01*
X-3783Y27414D01*
X-4700Y27596D01*
D02*
G37*
G36*
X2300Y29296D02*
X1383Y29114D01*
X606Y28594D01*
X86Y27817D01*
X-96Y26900D01*
X86Y25983D01*
X606Y25206D01*
X1383Y24686D01*
X2300Y24504D01*
X3217Y24686D01*
X3994Y25206D01*
X4514Y25983D01*
X4696Y26900D01*
X4514Y27817D01*
X3994Y28594D01*
X3217Y29114D01*
X2300Y29296D01*
D02*
G37*
G36*
X-500Y-500D02*
X-3817D01*
X-3751Y-1005D01*
X-3363Y-1942D01*
X-2746Y-2746D01*
X-1942Y-3363D01*
X-1005Y-3751D01*
X-500Y-3817D01*
Y-500D01*
D02*
G37*
G36*
X3817D02*
X500D01*
Y-3817D01*
X1005Y-3751D01*
X1942Y-3363D01*
X2746Y-2746D01*
X3363Y-1942D01*
X3751Y-1005D01*
X3817Y-500D01*
D02*
G37*
G36*
X120000Y3883D02*
X118995Y3751D01*
X118058Y3363D01*
X117254Y2746D01*
X116637Y1942D01*
X116249Y1005D01*
X116117Y0D01*
X116249Y-1005D01*
X116637Y-1942D01*
X117254Y-2746D01*
X118058Y-3363D01*
X118995Y-3751D01*
X120000Y-3883D01*
X121005Y-3751D01*
X121942Y-3363D01*
X122746Y-2746D01*
X123363Y-1942D01*
X123751Y-1005D01*
X123883Y0D01*
X123751Y1005D01*
X123363Y1942D01*
X122746Y2746D01*
X121942Y3363D01*
X121005Y3751D01*
X120000Y3883D01*
D02*
G37*
G36*
X140000D02*
X138995Y3751D01*
X138058Y3363D01*
X137254Y2746D01*
X136637Y1942D01*
X136249Y1005D01*
X136117Y0D01*
X136249Y-1005D01*
X136637Y-1942D01*
X137254Y-2746D01*
X138058Y-3363D01*
X138995Y-3751D01*
X140000Y-3883D01*
X141005Y-3751D01*
X141942Y-3363D01*
X142746Y-2746D01*
X143363Y-1942D01*
X143751Y-1005D01*
X143883Y0D01*
X143751Y1005D01*
X143363Y1942D01*
X142746Y2746D01*
X141942Y3363D01*
X141005Y3751D01*
X140000Y3883D01*
D02*
G37*
G36*
X-10500Y-500D02*
X-13750D01*
Y-3750D01*
X-10500D01*
Y-500D01*
D02*
G37*
G36*
X-6250D02*
X-9500D01*
Y-3750D01*
X-6250D01*
Y-500D01*
D02*
G37*
G36*
X89500D02*
X86183D01*
X86249Y-1005D01*
X86637Y-1942D01*
X87254Y-2746D01*
X88058Y-3363D01*
X88995Y-3751D01*
X89500Y-3817D01*
Y-500D01*
D02*
G37*
G36*
X93817D02*
X90500D01*
Y-3817D01*
X91005Y-3751D01*
X91942Y-3363D01*
X92746Y-2746D01*
X93363Y-1942D01*
X93751Y-1005D01*
X93817Y-500D01*
D02*
G37*
G36*
X110000Y3883D02*
X108995Y3751D01*
X108058Y3363D01*
X107254Y2746D01*
X106637Y1942D01*
X106249Y1005D01*
X106117Y0D01*
X106249Y-1005D01*
X106637Y-1942D01*
X107254Y-2746D01*
X108058Y-3363D01*
X108995Y-3751D01*
X110000Y-3883D01*
X111005Y-3751D01*
X111942Y-3363D01*
X112746Y-2746D01*
X113363Y-1942D01*
X113751Y-1005D01*
X113883Y0D01*
X113751Y1005D01*
X113363Y1942D01*
X112746Y2746D01*
X111942Y3363D01*
X111005Y3751D01*
X110000Y3883D01*
D02*
G37*
G36*
X10000D02*
X8995Y3751D01*
X8058Y3363D01*
X7254Y2746D01*
X6637Y1942D01*
X6249Y1005D01*
X6117Y0D01*
X6249Y-1005D01*
X6637Y-1942D01*
X7254Y-2746D01*
X8058Y-3363D01*
X8995Y-3751D01*
X10000Y-3883D01*
X11005Y-3751D01*
X11942Y-3363D01*
X12746Y-2746D01*
X13363Y-1942D01*
X13751Y-1005D01*
X13883Y0D01*
X13751Y1005D01*
X13363Y1942D01*
X12746Y2746D01*
X11942Y3363D01*
X11005Y3751D01*
X10000Y3883D01*
D02*
G37*
G36*
X20000D02*
X18995Y3751D01*
X18058Y3363D01*
X17254Y2746D01*
X16637Y1942D01*
X16249Y1005D01*
X16117Y0D01*
X16249Y-1005D01*
X16637Y-1942D01*
X17254Y-2746D01*
X18058Y-3363D01*
X18995Y-3751D01*
X20000Y-3883D01*
X21005Y-3751D01*
X21942Y-3363D01*
X22746Y-2746D01*
X23363Y-1942D01*
X23751Y-1005D01*
X23883Y0D01*
X23751Y1005D01*
X23363Y1942D01*
X22746Y2746D01*
X21942Y3363D01*
X21005Y3751D01*
X20000Y3883D01*
D02*
G37*
G36*
X76300Y-1404D02*
X75383Y-1586D01*
X74606Y-2106D01*
X74086Y-2883D01*
X73904Y-3800D01*
X74086Y-4717D01*
X74606Y-5494D01*
X75383Y-6014D01*
X76300Y-6196D01*
X77217Y-6014D01*
X77994Y-5494D01*
X78514Y-4717D01*
X78696Y-3800D01*
X78514Y-2883D01*
X77994Y-2106D01*
X77217Y-1586D01*
X76300Y-1404D01*
D02*
G37*
G36*
X71100Y-204D02*
X70183Y-386D01*
X69406Y-906D01*
X68886Y-1683D01*
X68704Y-2600D01*
X68886Y-3517D01*
X69406Y-4294D01*
X70183Y-4814D01*
X71100Y-4996D01*
X72017Y-4814D01*
X72794Y-4294D01*
X73314Y-3517D01*
X73496Y-2600D01*
X73314Y-1683D01*
X72794Y-906D01*
X72017Y-386D01*
X71100Y-204D01*
D02*
G37*
G36*
X50000Y3883D02*
X48995Y3751D01*
X48058Y3363D01*
X47254Y2746D01*
X46637Y1942D01*
X46249Y1005D01*
X46117Y0D01*
X46249Y-1005D01*
X46637Y-1942D01*
X47254Y-2746D01*
X48058Y-3363D01*
X48995Y-3751D01*
X50000Y-3883D01*
X51005Y-3751D01*
X51942Y-3363D01*
X52746Y-2746D01*
X53363Y-1942D01*
X53751Y-1005D01*
X53883Y0D01*
X53751Y1005D01*
X53363Y1942D01*
X52746Y2746D01*
X51942Y3363D01*
X51005Y3751D01*
X50000Y3883D01*
D02*
G37*
G36*
X100000D02*
X98995Y3751D01*
X98058Y3363D01*
X97254Y2746D01*
X96637Y1942D01*
X96249Y1005D01*
X96117Y0D01*
X96249Y-1005D01*
X96637Y-1942D01*
X97254Y-2746D01*
X98058Y-3363D01*
X98995Y-3751D01*
X100000Y-3883D01*
X101005Y-3751D01*
X101942Y-3363D01*
X102746Y-2746D01*
X103363Y-1942D01*
X103751Y-1005D01*
X103883Y0D01*
X103751Y1005D01*
X103363Y1942D01*
X102746Y2746D01*
X101942Y3363D01*
X101005Y3751D01*
X100000Y3883D01*
D02*
G37*
G36*
X30000D02*
X28995Y3751D01*
X28058Y3363D01*
X27254Y2746D01*
X26637Y1942D01*
X26249Y1005D01*
X26117Y0D01*
X26249Y-1005D01*
X26637Y-1942D01*
X27254Y-2746D01*
X28058Y-3363D01*
X28995Y-3751D01*
X30000Y-3883D01*
X31005Y-3751D01*
X31942Y-3363D01*
X32746Y-2746D01*
X33363Y-1942D01*
X33751Y-1005D01*
X33883Y0D01*
X33751Y1005D01*
X33363Y1942D01*
X32746Y2746D01*
X31942Y3363D01*
X31005Y3751D01*
X30000Y3883D01*
D02*
G37*
G36*
X40000D02*
X38995Y3751D01*
X38058Y3363D01*
X37254Y2746D01*
X36637Y1942D01*
X36249Y1005D01*
X36117Y0D01*
X36249Y-1005D01*
X36637Y-1942D01*
X37254Y-2746D01*
X38058Y-3363D01*
X38995Y-3751D01*
X40000Y-3883D01*
X41005Y-3751D01*
X41942Y-3363D01*
X42746Y-2746D01*
X43363Y-1942D01*
X43751Y-1005D01*
X43883Y0D01*
X43751Y1005D01*
X43363Y1942D01*
X42746Y2746D01*
X41942Y3363D01*
X41005Y3751D01*
X40000Y3883D01*
D02*
G37*
G36*
X10000Y13883D02*
X8995Y13751D01*
X8058Y13363D01*
X7254Y12746D01*
X6637Y11942D01*
X6249Y11005D01*
X6117Y10000D01*
X6249Y8995D01*
X6637Y8058D01*
X7254Y7254D01*
X8058Y6637D01*
X8995Y6249D01*
X10000Y6117D01*
X11005Y6249D01*
X11942Y6637D01*
X12746Y7254D01*
X13363Y8058D01*
X13751Y8995D01*
X13883Y10000D01*
X13751Y11005D01*
X13363Y11942D01*
X12746Y12746D01*
X11942Y13363D01*
X11005Y13751D01*
X10000Y13883D01*
D02*
G37*
G36*
X30000D02*
X28995Y13751D01*
X28058Y13363D01*
X27254Y12746D01*
X26637Y11942D01*
X26249Y11005D01*
X26117Y10000D01*
X26249Y8995D01*
X26637Y8058D01*
X27254Y7254D01*
X28058Y6637D01*
X28995Y6249D01*
X30000Y6117D01*
X31005Y6249D01*
X31942Y6637D01*
X32746Y7254D01*
X33363Y8058D01*
X33751Y8995D01*
X33883Y10000D01*
X33751Y11005D01*
X33363Y11942D01*
X32746Y12746D01*
X31942Y13363D01*
X31005Y13751D01*
X30000Y13883D01*
D02*
G37*
G36*
X83400Y7296D02*
X82483Y7114D01*
X81706Y6594D01*
X81186Y5817D01*
X81004Y4900D01*
X81186Y3983D01*
X81706Y3206D01*
X82483Y2686D01*
X83400Y2504D01*
X84317Y2686D01*
X85094Y3206D01*
X85614Y3983D01*
X85796Y4900D01*
X85614Y5817D01*
X85094Y6594D01*
X84317Y7114D01*
X83400Y7296D01*
D02*
G37*
G36*
X59500Y8396D02*
X58583Y8214D01*
X57806Y7694D01*
X57286Y6917D01*
X57104Y6000D01*
X57286Y5083D01*
X57806Y4306D01*
X58583Y3786D01*
X59500Y3604D01*
X60417Y3786D01*
X61194Y4306D01*
X61714Y5083D01*
X61896Y6000D01*
X61714Y6917D01*
X61194Y7694D01*
X60417Y8214D01*
X59500Y8396D01*
D02*
G37*
G36*
X53850Y13850D02*
X46150D01*
Y6150D01*
X53850D01*
Y13850D01*
D02*
G37*
G36*
X143850D02*
X136150D01*
Y6150D01*
X143850D01*
Y13850D01*
D02*
G37*
G36*
X41589Y17955D02*
X40672Y17772D01*
X39895Y17253D01*
X39375Y16476D01*
X39193Y15559D01*
X39375Y14642D01*
X39629Y14263D01*
X39422Y13807D01*
X38995Y13751D01*
X38058Y13363D01*
X37254Y12746D01*
X36637Y11942D01*
X36249Y11005D01*
X36117Y10000D01*
X36249Y8995D01*
X36637Y8058D01*
X37254Y7254D01*
X38058Y6637D01*
X38995Y6249D01*
X40000Y6117D01*
X41005Y6249D01*
X41942Y6637D01*
X42746Y7254D01*
X43363Y8058D01*
X43751Y8995D01*
X43883Y10000D01*
X43751Y11005D01*
X43363Y11942D01*
X42746Y12746D01*
X42564Y12886D01*
X42656Y13445D01*
X43283Y13864D01*
X43803Y14642D01*
X43985Y15559D01*
X43803Y16476D01*
X43283Y17253D01*
X42506Y17772D01*
X41589Y17955D01*
D02*
G37*
G36*
X120000Y13883D02*
X118995Y13751D01*
X118058Y13363D01*
X117254Y12746D01*
X116637Y11942D01*
X116249Y11005D01*
X116117Y10000D01*
X116249Y8995D01*
X116637Y8058D01*
X117254Y7254D01*
X118058Y6637D01*
X118995Y6249D01*
X120000Y6117D01*
X121005Y6249D01*
X121942Y6637D01*
X122746Y7254D01*
X123363Y8058D01*
X123751Y8995D01*
X123883Y10000D01*
X123751Y11005D01*
X123363Y11942D01*
X122746Y12746D01*
X121942Y13363D01*
X121005Y13751D01*
X120000Y13883D01*
D02*
G37*
G36*
X148600Y6796D02*
X147683Y6614D01*
X146906Y6094D01*
X146386Y5317D01*
X146204Y4400D01*
X146386Y3483D01*
X146906Y2706D01*
X147683Y2186D01*
X148600Y2004D01*
X149517Y2186D01*
X150294Y2706D01*
X150814Y3483D01*
X150996Y4400D01*
X150814Y5317D01*
X150294Y6094D01*
X149517Y6614D01*
X148600Y6796D01*
D02*
G37*
G36*
X-6250Y3750D02*
X-9500D01*
Y500D01*
X-6250D01*
Y3750D01*
D02*
G37*
G36*
X-500Y3817D02*
X-1005Y3751D01*
X-1942Y3363D01*
X-2746Y2746D01*
X-3363Y1942D01*
X-3751Y1005D01*
X-3817Y500D01*
X-500D01*
Y3817D01*
D02*
G37*
G36*
X64600Y3196D02*
X63683Y3014D01*
X62906Y2494D01*
X62386Y1717D01*
X62204Y800D01*
X62386Y-117D01*
X62906Y-894D01*
X63683Y-1414D01*
X64600Y-1596D01*
X65517Y-1414D01*
X66294Y-894D01*
X66814Y-117D01*
X66996Y800D01*
X66814Y1717D01*
X66294Y2494D01*
X65517Y3014D01*
X64600Y3196D01*
D02*
G37*
G36*
X-10500Y3750D02*
X-13750D01*
Y500D01*
X-10500D01*
Y3750D01*
D02*
G37*
G36*
X90500Y3817D02*
Y500D01*
X93817D01*
X93751Y1005D01*
X93363Y1942D01*
X92746Y2746D01*
X91942Y3363D01*
X91005Y3751D01*
X90500Y3817D01*
D02*
G37*
G36*
X76400Y5796D02*
X75483Y5614D01*
X74706Y5094D01*
X74186Y4317D01*
X74004Y3400D01*
X74186Y2483D01*
X74706Y1706D01*
X75483Y1186D01*
X76400Y1004D01*
X77317Y1186D01*
X78094Y1706D01*
X78614Y2483D01*
X78796Y3400D01*
X78614Y4317D01*
X78094Y5094D01*
X77317Y5614D01*
X76400Y5796D01*
D02*
G37*
G36*
X500Y3817D02*
Y500D01*
X3817D01*
X3751Y1005D01*
X3363Y1942D01*
X2746Y2746D01*
X1942Y3363D01*
X1005Y3751D01*
X500Y3817D01*
D02*
G37*
G36*
X89500D02*
X88995Y3751D01*
X88058Y3363D01*
X87254Y2746D01*
X86637Y1942D01*
X86249Y1005D01*
X86183Y500D01*
X89500D01*
Y3817D01*
D02*
G37*
G36*
X124556Y83152D02*
X123639Y82970D01*
X122862Y82450D01*
X122342Y81673D01*
X122160Y80756D01*
X122342Y79839D01*
X122862Y79062D01*
X123639Y78542D01*
X124556Y78360D01*
X125473Y78542D01*
X126250Y79062D01*
X126770Y79839D01*
X126952Y80756D01*
X126770Y81673D01*
X126250Y82450D01*
X125473Y82970D01*
X124556Y83152D01*
D02*
G37*
G36*
X81800Y85996D02*
X80883Y85814D01*
X80106Y85294D01*
X79586Y84517D01*
X79404Y83600D01*
X79586Y82683D01*
X80106Y81906D01*
X80883Y81386D01*
X81800Y81204D01*
X82717Y81386D01*
X83494Y81906D01*
X84014Y82683D01*
X84196Y83600D01*
X84014Y84517D01*
X83494Y85294D01*
X82717Y85814D01*
X81800Y85996D01*
D02*
G37*
G36*
X87900Y80896D02*
X86983Y80714D01*
X86206Y80194D01*
X85686Y79417D01*
X85504Y78500D01*
X85686Y77583D01*
X86206Y76806D01*
X86983Y76286D01*
X87900Y76104D01*
X88817Y76286D01*
X89594Y76806D01*
X90114Y77583D01*
X90296Y78500D01*
X90114Y79417D01*
X89594Y80194D01*
X88817Y80714D01*
X87900Y80896D01*
D02*
G37*
G36*
X53600Y88596D02*
X52683Y88414D01*
X51906Y87894D01*
X51386Y87117D01*
X51204Y86200D01*
X51386Y85283D01*
X51397Y85268D01*
X51144Y84745D01*
X50483Y84614D01*
X49706Y84094D01*
X49186Y83317D01*
X49004Y82400D01*
X49186Y81483D01*
X49706Y80706D01*
X50483Y80186D01*
X51327Y80019D01*
X51204Y79400D01*
X51386Y78483D01*
X51906Y77706D01*
X52683Y77186D01*
X53600Y77004D01*
X54517Y77186D01*
X55294Y77706D01*
X55814Y78483D01*
X55996Y79400D01*
X55814Y80317D01*
X55294Y81094D01*
X54517Y81614D01*
X54020Y81713D01*
X53742Y82128D01*
X53796Y82400D01*
X53614Y83317D01*
X53603Y83332D01*
X53856Y83855D01*
X54517Y83986D01*
X55294Y84506D01*
X55814Y85283D01*
X55996Y86200D01*
X55814Y87117D01*
X55294Y87894D01*
X54517Y88414D01*
X53600Y88596D01*
D02*
G37*
G36*
X72000Y86996D02*
X71083Y86814D01*
X70306Y86294D01*
X69786Y85517D01*
X69604Y84600D01*
X69786Y83683D01*
X70306Y82906D01*
X71083Y82386D01*
X72000Y82204D01*
X72917Y82386D01*
X73694Y82906D01*
X74214Y83683D01*
X74396Y84600D01*
X74214Y85517D01*
X73694Y86294D01*
X72917Y86814D01*
X72000Y86996D01*
D02*
G37*
G36*
X130000Y87096D02*
X129083Y86914D01*
X128306Y86394D01*
X127786Y85617D01*
X127604Y84700D01*
X127786Y83783D01*
X128306Y83006D01*
X129083Y82486D01*
X130000Y82304D01*
X130917Y82486D01*
X131694Y83006D01*
X132214Y83783D01*
X132396Y84700D01*
X132214Y85617D01*
X131694Y86394D01*
X130917Y86914D01*
X130000Y87096D01*
D02*
G37*
G36*
X44500Y86596D02*
X43583Y86414D01*
X42806Y85894D01*
X42286Y85117D01*
X42104Y84200D01*
X42286Y83283D01*
X42806Y82506D01*
X43583Y81986D01*
X44500Y81804D01*
X45417Y81986D01*
X46194Y82506D01*
X46714Y83283D01*
X46896Y84200D01*
X46714Y85117D01*
X46194Y85894D01*
X45417Y86414D01*
X44500Y86596D01*
D02*
G37*
G36*
X107100Y91396D02*
X106183Y91214D01*
X105406Y90694D01*
X104886Y89917D01*
X104704Y89000D01*
X104886Y88083D01*
X105406Y87306D01*
X105680Y87122D01*
X105575Y86592D01*
X105183Y86514D01*
X104406Y85994D01*
X103886Y85217D01*
X103704Y84300D01*
X103886Y83383D01*
X104406Y82606D01*
X105183Y82086D01*
X106100Y81904D01*
X107017Y82086D01*
X107794Y82606D01*
X108314Y83383D01*
X108496Y84300D01*
X108314Y85217D01*
X107794Y85994D01*
X107520Y86178D01*
X107625Y86708D01*
X108017Y86786D01*
X108794Y87306D01*
X109314Y88083D01*
X109496Y89000D01*
X109314Y89917D01*
X108794Y90694D01*
X108017Y91214D01*
X107100Y91396D01*
D02*
G37*
G36*
X43300Y80196D02*
X42383Y80014D01*
X41606Y79494D01*
X41086Y78717D01*
X40904Y77800D01*
X41086Y76883D01*
X41606Y76106D01*
X42033Y75820D01*
X41992Y75246D01*
X41990Y75245D01*
X41965Y75230D01*
X41953Y75223D01*
X41953Y75223D01*
X41947Y75222D01*
X41906Y75213D01*
X41823Y75221D01*
X41823D01*
X40730Y75329D01*
X39554Y75213D01*
X38423Y74870D01*
X37380Y74313D01*
X36467Y73563D01*
X35717Y72650D01*
X35160Y71607D01*
X34817Y70476D01*
X34701Y69300D01*
X34817Y68124D01*
X35160Y66993D01*
X35717Y65951D01*
X36467Y65037D01*
X37380Y64287D01*
X38423Y63730D01*
X39554Y63387D01*
X40730Y63271D01*
X40984Y63296D01*
X41267Y62822D01*
X41104Y62000D01*
X41286Y61083D01*
X41806Y60306D01*
X42583Y59786D01*
X43500Y59604D01*
X44417Y59786D01*
X45194Y60306D01*
X45714Y61083D01*
X45896Y62000D01*
X45714Y62917D01*
X45194Y63694D01*
X44616Y64081D01*
X44540Y64627D01*
X44555Y64677D01*
X44993Y65037D01*
X45743Y65951D01*
X46300Y66993D01*
X46643Y68124D01*
X46759Y69300D01*
X46643Y70476D01*
X46300Y71607D01*
X45743Y72650D01*
X44993Y73563D01*
X44080Y74313D01*
X43037Y74870D01*
X42744Y74959D01*
X42530Y75024D01*
X42382Y75397D01*
X42399Y75465D01*
X42818Y75500D01*
X42871Y75489D01*
X42818Y75500D01*
X42871Y75489D01*
X43300Y75404D01*
X44217Y75586D01*
X44994Y76106D01*
X45514Y76883D01*
X45696Y77800D01*
X45514Y78717D01*
X44994Y79494D01*
X44217Y80014D01*
X43300Y80196D01*
D02*
G37*
G36*
X82100Y73896D02*
X81183Y73714D01*
X80406Y73194D01*
X79886Y72417D01*
X79704Y71500D01*
X79886Y70583D01*
X80406Y69806D01*
X81183Y69286D01*
X82100Y69104D01*
X83017Y69286D01*
X83794Y69806D01*
X84314Y70583D01*
X84496Y71500D01*
X84314Y72417D01*
X83794Y73194D01*
X83017Y73714D01*
X82100Y73896D01*
D02*
G37*
G36*
X71500Y76096D02*
X70583Y75914D01*
X69806Y75394D01*
X69286Y74617D01*
X69104Y73700D01*
X69286Y72783D01*
X69806Y72006D01*
X70583Y71486D01*
X71500Y71304D01*
X72417Y71486D01*
X73194Y72006D01*
X73714Y72783D01*
X73896Y73700D01*
X73714Y74617D01*
X73194Y75394D01*
X72417Y75914D01*
X71500Y76096D01*
D02*
G37*
G36*
X107600Y76496D02*
X106683Y76314D01*
X105906Y75794D01*
X105386Y75017D01*
X105204Y74100D01*
X105386Y73183D01*
X105906Y72406D01*
X106683Y71886D01*
X106959Y71832D01*
X107064Y71301D01*
X106606Y70994D01*
X106086Y70217D01*
X105904Y69300D01*
X106086Y68383D01*
X106606Y67606D01*
X107383Y67086D01*
X108300Y66904D01*
X109217Y67086D01*
X109994Y67606D01*
X110514Y68383D01*
X110696Y69300D01*
X110514Y70217D01*
X109994Y70994D01*
X109217Y71514D01*
X108941Y71569D01*
X108836Y72099D01*
X109294Y72406D01*
X109814Y73183D01*
X109996Y74100D01*
X109814Y75017D01*
X109294Y75794D01*
X108517Y76314D01*
X107600Y76496D01*
D02*
G37*
G36*
X15200Y73796D02*
X14283Y73614D01*
X13506Y73094D01*
X12986Y72317D01*
X12804Y71400D01*
X12986Y70483D01*
X13506Y69706D01*
X14283Y69186D01*
X15200Y69004D01*
X16117Y69186D01*
X16894Y69706D01*
X17414Y70483D01*
X17596Y71400D01*
X17414Y72317D01*
X16894Y73094D01*
X16117Y73614D01*
X15200Y73796D01*
D02*
G37*
G36*
X48500Y78796D02*
X47583Y78614D01*
X46806Y78094D01*
X46286Y77317D01*
X46104Y76400D01*
X46286Y75483D01*
X46806Y74706D01*
X47583Y74186D01*
X48500Y74004D01*
X49417Y74186D01*
X50194Y74706D01*
X50714Y75483D01*
X50896Y76400D01*
X50714Y77317D01*
X50194Y78094D01*
X49417Y78614D01*
X48500Y78796D01*
D02*
G37*
G36*
X18300Y79996D02*
X17383Y79814D01*
X16606Y79294D01*
X16086Y78517D01*
X15904Y77600D01*
X16086Y76683D01*
X16606Y75906D01*
X17383Y75386D01*
X18300Y75204D01*
X19217Y75386D01*
X19994Y75906D01*
X20514Y76683D01*
X20696Y77600D01*
X20514Y78517D01*
X19994Y79294D01*
X19217Y79814D01*
X18300Y79996D01*
D02*
G37*
G36*
X96800Y76296D02*
X95883Y76114D01*
X95106Y75594D01*
X94586Y74817D01*
X94404Y73900D01*
X94586Y72983D01*
X95106Y72206D01*
X95883Y71686D01*
X96800Y71504D01*
X97717Y71686D01*
X98494Y72206D01*
X99014Y72983D01*
X99196Y73900D01*
X99014Y74817D01*
X98494Y75594D01*
X97717Y76114D01*
X96800Y76296D01*
D02*
G37*
G36*
X134500D02*
X133583Y76114D01*
X132806Y75594D01*
X132286Y74817D01*
X132104Y73900D01*
X132286Y72983D01*
X132806Y72206D01*
X133583Y71686D01*
X134500Y71504D01*
X135417Y71686D01*
X136194Y72206D01*
X136714Y72983D01*
X136896Y73900D01*
X136714Y74817D01*
X136194Y75594D01*
X135417Y76114D01*
X134500Y76296D01*
D02*
G37*
G36*
X89700Y105296D02*
X88783Y105114D01*
X88006Y104594D01*
X87486Y103817D01*
X87304Y102900D01*
X87486Y101983D01*
X88006Y101206D01*
X88783Y100686D01*
X89700Y100504D01*
X90617Y100686D01*
X91394Y101206D01*
X91914Y101983D01*
X92096Y102900D01*
X91914Y103817D01*
X91394Y104594D01*
X90617Y105114D01*
X89700Y105296D01*
D02*
G37*
G36*
X104200D02*
X103283Y105114D01*
X102506Y104594D01*
X101986Y103817D01*
X101804Y102900D01*
X101986Y101983D01*
X102506Y101206D01*
X103283Y100686D01*
X104200Y100504D01*
X105117Y100686D01*
X105894Y101206D01*
X106414Y101983D01*
X106596Y102900D01*
X106414Y103817D01*
X105894Y104594D01*
X105117Y105114D01*
X104200Y105296D01*
D02*
G37*
G36*
X23300Y100796D02*
X22383Y100614D01*
X21606Y100094D01*
X21086Y99317D01*
X20904Y98400D01*
X21086Y97483D01*
X21606Y96706D01*
X22383Y96186D01*
X23300Y96004D01*
X24217Y96186D01*
X24994Y96706D01*
X25514Y97483D01*
X25696Y98400D01*
X25514Y99317D01*
X24994Y100094D01*
X24217Y100614D01*
X23300Y100796D01*
D02*
G37*
G36*
X15009Y107681D02*
X13771Y107518D01*
X12618Y107041D01*
X11628Y106281D01*
X10868Y105290D01*
X10390Y104137D01*
X10228Y102900D01*
X10390Y101663D01*
X10868Y100510D01*
X11628Y99519D01*
X12618Y98760D01*
X13771Y98282D01*
X15009Y98119D01*
X16246Y98282D01*
X17399Y98760D01*
X18389Y99519D01*
X19149Y100510D01*
X19627Y101663D01*
X19790Y102900D01*
X19627Y104137D01*
X19149Y105290D01*
X18389Y106281D01*
X17399Y107041D01*
X16246Y107518D01*
X15009Y107681D01*
D02*
G37*
G36*
X120384Y108882D02*
X119404Y108754D01*
X118492Y108376D01*
X117709Y107774D01*
X117108Y106991D01*
X116730Y106079D01*
X116601Y105100D01*
X116730Y104121D01*
X117108Y103209D01*
X117709Y102426D01*
X118492Y101824D01*
X119404Y101446D01*
X120384Y101318D01*
X121362Y101446D01*
X122275Y101824D01*
X123058Y102426D01*
X123659Y103209D01*
X124037Y104121D01*
X124166Y105100D01*
X124037Y106079D01*
X123659Y106991D01*
X123058Y107774D01*
X122275Y108376D01*
X121362Y108754D01*
X120384Y108882D01*
D02*
G37*
G36*
X134134Y108850D02*
X126634D01*
Y101350D01*
X134134D01*
Y108850D01*
D02*
G37*
G36*
X28400Y105696D02*
X27483Y105514D01*
X26706Y104994D01*
X26186Y104217D01*
X26004Y103300D01*
X26186Y102383D01*
X26706Y101606D01*
X27483Y101086D01*
X28400Y100904D01*
X29317Y101086D01*
X30094Y101606D01*
X30614Y102383D01*
X30796Y103300D01*
X30614Y104217D01*
X30094Y104994D01*
X29317Y105514D01*
X28400Y105696D01*
D02*
G37*
G36*
X141000Y108582D02*
X140021Y108454D01*
X139109Y108076D01*
X138326Y107475D01*
X137724Y106691D01*
X137346Y105779D01*
X137218Y104800D01*
X137346Y103821D01*
X137724Y102909D01*
X138326Y102126D01*
X139109Y101524D01*
X140021Y101146D01*
X141000Y101018D01*
X141979Y101146D01*
X142891Y101524D01*
X143675Y102126D01*
X144276Y102909D01*
X144653Y103821D01*
X144782Y104800D01*
X144653Y105779D01*
X144276Y106691D01*
X143675Y107475D01*
X142891Y108076D01*
X141979Y108454D01*
X141000Y108582D01*
D02*
G37*
G36*
X114700Y99696D02*
X113783Y99514D01*
X113006Y98994D01*
X112486Y98217D01*
X112304Y97300D01*
X112486Y96383D01*
X113006Y95606D01*
X113783Y95086D01*
X114700Y94904D01*
X115617Y95086D01*
X116394Y95606D01*
X116914Y96383D01*
X117096Y97300D01*
X116914Y98217D01*
X116394Y98994D01*
X115617Y99514D01*
X114700Y99696D01*
D02*
G37*
G36*
X124700Y95196D02*
X123783Y95014D01*
X123006Y94494D01*
X122486Y93717D01*
X122304Y92800D01*
X122486Y91883D01*
X123006Y91106D01*
X123783Y90586D01*
X124700Y90404D01*
X125617Y90586D01*
X126394Y91106D01*
X126914Y91883D01*
X127096Y92800D01*
X126914Y93717D01*
X126394Y94494D01*
X125617Y95014D01*
X124700Y95196D01*
D02*
G37*
G36*
X52500Y95796D02*
X51583Y95614D01*
X50806Y95094D01*
X50286Y94317D01*
X50104Y93400D01*
X50286Y92483D01*
X50806Y91706D01*
X51583Y91186D01*
X52500Y91004D01*
X53417Y91186D01*
X54194Y91706D01*
X54714Y92483D01*
X54896Y93400D01*
X54714Y94317D01*
X54194Y95094D01*
X53417Y95614D01*
X52500Y95796D01*
D02*
G37*
G36*
X94500Y87796D02*
X93583Y87614D01*
X92806Y87094D01*
X92286Y86317D01*
X92104Y85400D01*
X92286Y84483D01*
X92806Y83706D01*
X93583Y83186D01*
X94500Y83004D01*
X95417Y83186D01*
X96194Y83706D01*
X96714Y84483D01*
X96896Y85400D01*
X96714Y86317D01*
X96194Y87094D01*
X95417Y87614D01*
X94500Y87796D01*
D02*
G37*
G36*
X18100Y95196D02*
X17183Y95014D01*
X16406Y94494D01*
X15886Y93717D01*
X15704Y92800D01*
X15886Y91883D01*
X16406Y91106D01*
X17183Y90586D01*
X18100Y90404D01*
X19017Y90586D01*
X19794Y91106D01*
X20314Y91883D01*
X20496Y92800D01*
X20314Y93717D01*
X19794Y94494D01*
X19017Y95014D01*
X18100Y95196D01*
D02*
G37*
G36*
X84800Y98696D02*
X83883Y98514D01*
X83106Y97994D01*
X82586Y97217D01*
X82404Y96300D01*
X82586Y95383D01*
X83106Y94606D01*
X83883Y94086D01*
X84800Y93904D01*
X85717Y94086D01*
X86494Y94606D01*
X87014Y95383D01*
X87196Y96300D01*
X87014Y97217D01*
X86494Y97994D01*
X85717Y98514D01*
X84800Y98696D01*
D02*
G37*
G36*
X141200Y99196D02*
X140283Y99014D01*
X139506Y98494D01*
X138986Y97717D01*
X138804Y96800D01*
X138986Y95883D01*
X139506Y95106D01*
X140283Y94586D01*
X141200Y94404D01*
X142117Y94586D01*
X142894Y95106D01*
X143414Y95883D01*
X143596Y96800D01*
X143414Y97717D01*
X142894Y98494D01*
X142117Y99014D01*
X141200Y99196D01*
D02*
G37*
G36*
X100000Y97896D02*
X99083Y97714D01*
X98306Y97194D01*
X97786Y96417D01*
X97604Y95500D01*
X97786Y94583D01*
X98306Y93806D01*
X99083Y93286D01*
X100000Y93104D01*
X100917Y93286D01*
X101694Y93806D01*
X102214Y94583D01*
X102396Y95500D01*
X102214Y96417D01*
X101694Y97194D01*
X100917Y97714D01*
X100000Y97896D01*
D02*
G37*
G36*
X90800Y98196D02*
X89883Y98014D01*
X89106Y97494D01*
X88586Y96717D01*
X88404Y95800D01*
X88586Y94883D01*
X89106Y94106D01*
X89883Y93586D01*
X90800Y93404D01*
X91717Y93586D01*
X92494Y94106D01*
X93014Y94883D01*
X93196Y95800D01*
X93014Y96717D01*
X92494Y97494D01*
X91717Y98014D01*
X90800Y98196D01*
D02*
G37*
G36*
X129400Y48996D02*
X128483Y48814D01*
X127706Y48294D01*
X127186Y47517D01*
X127004Y46600D01*
X127186Y45683D01*
X127706Y44906D01*
X128483Y44386D01*
X129400Y44204D01*
X130317Y44386D01*
X131094Y44906D01*
X131614Y45683D01*
X131796Y46600D01*
X131614Y47517D01*
X131094Y48294D01*
X130317Y48814D01*
X129400Y48996D01*
D02*
G37*
G36*
X54500Y49996D02*
X53583Y49814D01*
X52806Y49294D01*
X52286Y48517D01*
X52104Y47600D01*
X52286Y46683D01*
X52806Y45906D01*
X53583Y45386D01*
X54500Y45204D01*
X55417Y45386D01*
X56194Y45906D01*
X56714Y46683D01*
X56896Y47600D01*
X56714Y48517D01*
X56194Y49294D01*
X55417Y49814D01*
X54500Y49996D01*
D02*
G37*
G36*
X44000Y44796D02*
X43083Y44614D01*
X42306Y44094D01*
X41786Y43317D01*
X41604Y42400D01*
X41786Y41483D01*
X42306Y40706D01*
X43083Y40186D01*
X44000Y40004D01*
X44917Y40186D01*
X45694Y40706D01*
X46214Y41483D01*
X46396Y42400D01*
X46214Y43317D01*
X45694Y44094D01*
X44917Y44614D01*
X44000Y44796D01*
D02*
G37*
G36*
X109000Y45796D02*
X108083Y45614D01*
X107306Y45094D01*
X106786Y44317D01*
X106604Y43400D01*
X106786Y42483D01*
X107306Y41706D01*
X108083Y41186D01*
X109000Y41004D01*
X109917Y41186D01*
X110694Y41706D01*
X111214Y42483D01*
X111396Y43400D01*
X111214Y44317D01*
X110694Y45094D01*
X109917Y45614D01*
X109000Y45796D01*
D02*
G37*
G36*
X15009Y57681D02*
X13771Y57518D01*
X12618Y57041D01*
X11628Y56281D01*
X10868Y55291D01*
X10390Y54137D01*
X10228Y52900D01*
X10390Y51663D01*
X10868Y50510D01*
X11628Y49519D01*
X12618Y48759D01*
X13771Y48282D01*
X15009Y48119D01*
X16246Y48282D01*
X17399Y48759D01*
X18389Y49519D01*
X19149Y50510D01*
X19627Y51663D01*
X19790Y52900D01*
X19627Y54137D01*
X19149Y55291D01*
X18389Y56281D01*
X17399Y57041D01*
X16246Y57518D01*
X15009Y57681D01*
D02*
G37*
G36*
X135400Y54396D02*
X134483Y54214D01*
X133706Y53694D01*
X133186Y52917D01*
X133004Y52000D01*
X133186Y51083D01*
X133706Y50306D01*
X134483Y49786D01*
X135400Y49604D01*
X136317Y49786D01*
X137094Y50306D01*
X137614Y51083D01*
X137796Y52000D01*
X137614Y52917D01*
X137094Y53694D01*
X136317Y54214D01*
X135400Y54396D01*
D02*
G37*
G36*
X43800Y50496D02*
X42883Y50314D01*
X42106Y49794D01*
X41586Y49017D01*
X41404Y48100D01*
X41586Y47183D01*
X42106Y46406D01*
X42883Y45886D01*
X43800Y45704D01*
X44717Y45886D01*
X45494Y46406D01*
X46014Y47183D01*
X46196Y48100D01*
X46014Y49017D01*
X45494Y49794D01*
X44717Y50314D01*
X43800Y50496D01*
D02*
G37*
G36*
X115700Y52973D02*
X115008Y52882D01*
X114364Y52615D01*
X113810Y52190D01*
X113385Y51636D01*
X113118Y50992D01*
X113027Y50300D01*
X113118Y49608D01*
X113385Y48964D01*
X113810Y48410D01*
X114364Y47985D01*
X115008Y47718D01*
X115700Y47627D01*
X116392Y47718D01*
X117036Y47985D01*
X117590Y48410D01*
X118015Y48964D01*
X118282Y49608D01*
X118373Y50300D01*
X118282Y50992D01*
X118015Y51636D01*
X117590Y52190D01*
X117036Y52615D01*
X116392Y52882D01*
X115700Y52973D01*
D02*
G37*
G36*
X65500Y45696D02*
X64583Y45514D01*
X63806Y44994D01*
X63286Y44217D01*
X63104Y43300D01*
X63286Y42383D01*
X63806Y41606D01*
X64583Y41086D01*
X65500Y40904D01*
X66417Y41086D01*
X67194Y41606D01*
X67347Y41834D01*
X67878Y41728D01*
X67936Y41433D01*
X68456Y40656D01*
X69233Y40136D01*
X70150Y39954D01*
X71067Y40136D01*
X71844Y40656D01*
X72364Y41433D01*
X72546Y42350D01*
X72364Y43267D01*
X71844Y44044D01*
X71067Y44564D01*
X70150Y44746D01*
X69233Y44564D01*
X68456Y44044D01*
X68303Y43816D01*
X67772Y43922D01*
X67714Y44217D01*
X67194Y44994D01*
X66417Y45514D01*
X65500Y45696D01*
D02*
G37*
G36*
X28800Y38496D02*
X27883Y38314D01*
X27106Y37794D01*
X26586Y37017D01*
X26404Y36100D01*
X26586Y35183D01*
X27106Y34406D01*
X27883Y33886D01*
X28800Y33704D01*
X29717Y33886D01*
X30494Y34406D01*
X31014Y35183D01*
X31196Y36100D01*
X31014Y37017D01*
X30494Y37794D01*
X29717Y38314D01*
X28800Y38496D01*
D02*
G37*
G36*
X136800Y38796D02*
X135883Y38614D01*
X135106Y38094D01*
X134586Y37317D01*
X134404Y36400D01*
X134586Y35483D01*
X135106Y34706D01*
X135883Y34186D01*
X136800Y34004D01*
X137717Y34186D01*
X138494Y34706D01*
X139014Y35483D01*
X139196Y36400D01*
X139014Y37317D01*
X138494Y38094D01*
X137717Y38614D01*
X136800Y38796D01*
D02*
G37*
G36*
X51300Y37196D02*
X50383Y37014D01*
X49606Y36494D01*
X49086Y35717D01*
X48904Y34800D01*
X49086Y33883D01*
X49606Y33106D01*
X50383Y32586D01*
X51300Y32404D01*
X52217Y32586D01*
X52994Y33106D01*
X53514Y33883D01*
X53696Y34800D01*
X53514Y35717D01*
X52994Y36494D01*
X52217Y37014D01*
X51300Y37196D01*
D02*
G37*
G36*
X42700Y37996D02*
X41783Y37814D01*
X41006Y37294D01*
X40486Y36517D01*
X40304Y35600D01*
X40486Y34683D01*
X41006Y33906D01*
X41783Y33386D01*
X42700Y33204D01*
X43617Y33386D01*
X44394Y33906D01*
X44914Y34683D01*
X45096Y35600D01*
X44914Y36517D01*
X44394Y37294D01*
X43617Y37814D01*
X42700Y37996D01*
D02*
G37*
G36*
X4400Y41996D02*
X3483Y41814D01*
X2706Y41294D01*
X2186Y40517D01*
X2004Y39600D01*
X2186Y38683D01*
X2706Y37906D01*
X3483Y37386D01*
X4400Y37204D01*
X5317Y37386D01*
X6094Y37906D01*
X6614Y38683D01*
X6796Y39600D01*
X6614Y40517D01*
X6094Y41294D01*
X5317Y41814D01*
X4400Y41996D01*
D02*
G37*
G36*
X149600Y43696D02*
X148683Y43514D01*
X147906Y42994D01*
X147386Y42217D01*
X147204Y41300D01*
X147386Y40383D01*
X147906Y39606D01*
X148683Y39086D01*
X149600Y38904D01*
X150517Y39086D01*
X151294Y39606D01*
X151814Y40383D01*
X151996Y41300D01*
X151814Y42217D01*
X151294Y42994D01*
X150517Y43514D01*
X149600Y43696D01*
D02*
G37*
G36*
X110700Y39496D02*
X109783Y39314D01*
X109006Y38794D01*
X108486Y38017D01*
X108304Y37100D01*
X108486Y36183D01*
X109006Y35406D01*
X109783Y34886D01*
X109878Y34868D01*
X109918Y34687D01*
X109594Y34267D01*
X109418Y34246D01*
X109017Y34514D01*
X108100Y34696D01*
X107183Y34514D01*
X106406Y33994D01*
X105886Y33217D01*
X105704Y32300D01*
X105886Y31383D01*
X106406Y30606D01*
X107183Y30086D01*
X108100Y29904D01*
X109017Y30086D01*
X109794Y30606D01*
X110062Y31006D01*
X110106D01*
X110883Y30486D01*
X111800Y30304D01*
X112717Y30486D01*
X113494Y31006D01*
X114014Y31783D01*
X114196Y32700D01*
X114014Y33617D01*
X113494Y34394D01*
X112717Y34914D01*
X112541Y34949D01*
X112443Y35478D01*
X112914Y36183D01*
X113096Y37100D01*
X112914Y38017D01*
X112394Y38794D01*
X111617Y39314D01*
X110700Y39496D01*
D02*
G37*
G36*
X128500Y39596D02*
X127583Y39414D01*
X126806Y38894D01*
X126286Y38117D01*
X126104Y37200D01*
X126286Y36283D01*
X126806Y35506D01*
X127583Y34986D01*
X128500Y34804D01*
X129417Y34986D01*
X130194Y35506D01*
X130714Y36283D01*
X130896Y37200D01*
X130714Y38117D01*
X130194Y38894D01*
X129417Y39414D01*
X128500Y39596D01*
D02*
G37*
G36*
X88000Y67096D02*
X87083Y66914D01*
X86306Y66394D01*
X85786Y65617D01*
X85604Y64700D01*
X85786Y63783D01*
X86306Y63006D01*
X87083Y62486D01*
X88000Y62304D01*
X88917Y62486D01*
X89694Y63006D01*
X90214Y63783D01*
X90396Y64700D01*
X90214Y65617D01*
X89694Y66394D01*
X88917Y66914D01*
X88000Y67096D01*
D02*
G37*
G36*
X130300Y67996D02*
X129383Y67814D01*
X128606Y67294D01*
X128086Y66517D01*
X127904Y65600D01*
X128086Y64683D01*
X128606Y63906D01*
X129383Y63386D01*
X130300Y63204D01*
X131217Y63386D01*
X131994Y63906D01*
X132514Y64683D01*
X132696Y65600D01*
X132514Y66517D01*
X131994Y67294D01*
X131217Y67814D01*
X130300Y67996D01*
D02*
G37*
G36*
X68300Y63696D02*
X67383Y63514D01*
X66606Y62994D01*
X66086Y62217D01*
X65904Y61300D01*
X66065Y60490D01*
X65594Y60295D01*
X65394Y60594D01*
X64617Y61114D01*
X63700Y61296D01*
X62783Y61114D01*
X62006Y60594D01*
X61486Y59817D01*
X61304Y58900D01*
X61486Y57983D01*
X62006Y57206D01*
X62139Y57117D01*
Y56711D01*
X62080Y56555D01*
X61586Y55817D01*
X61404Y54900D01*
X61586Y53983D01*
X62106Y53206D01*
X62883Y52686D01*
X63800Y52504D01*
X64717Y52686D01*
X65494Y53206D01*
X66014Y53983D01*
X66196Y54900D01*
X66014Y55817D01*
X65494Y56594D01*
X65361Y56683D01*
Y57089D01*
X65420Y57245D01*
X65914Y57983D01*
X66096Y58900D01*
X65935Y59710D01*
X66406Y59905D01*
X66606Y59606D01*
X67383Y59086D01*
X68300Y58904D01*
X69217Y59086D01*
X69994Y59606D01*
X70514Y60383D01*
X70696Y61300D01*
X70514Y62217D01*
X69994Y62994D01*
X69217Y63514D01*
X68300Y63696D01*
D02*
G37*
G36*
X30400Y65496D02*
X29483Y65314D01*
X28706Y64794D01*
X28186Y64017D01*
X28004Y63100D01*
X28186Y62183D01*
X28706Y61406D01*
X29483Y60886D01*
X30400Y60704D01*
X31317Y60886D01*
X32094Y61406D01*
X32614Y62183D01*
X32796Y63100D01*
X32614Y64017D01*
X32094Y64794D01*
X31317Y65314D01*
X30400Y65496D01*
D02*
G37*
G36*
X62200Y89196D02*
X61283Y89014D01*
X60506Y88494D01*
X59986Y87717D01*
X59804Y86800D01*
X59986Y85883D01*
X60506Y85106D01*
X61283Y84586D01*
X62200Y84404D01*
X62653Y84494D01*
X62848Y84023D01*
X62506Y83794D01*
X61986Y83017D01*
X61804Y82100D01*
X61986Y81183D01*
X62506Y80406D01*
X62793Y80213D01*
X62891Y79723D01*
X62686Y79417D01*
X62504Y78500D01*
X62686Y77583D01*
X63139Y76906D01*
X63204Y76801D01*
X63063Y76300D01*
X62606Y75994D01*
X62086Y75217D01*
X61904Y74300D01*
X62086Y73383D01*
X62337Y73007D01*
X62240Y72517D01*
X62206Y72494D01*
X61686Y71717D01*
X61504Y70800D01*
X61686Y69883D01*
X61949Y69491D01*
X62106Y68994D01*
X61586Y68217D01*
X61404Y67300D01*
X61586Y66383D01*
X62106Y65606D01*
X62883Y65086D01*
X63800Y64904D01*
X64717Y65086D01*
X65494Y65606D01*
X66014Y66383D01*
X66196Y67300D01*
X66014Y68217D01*
X65751Y68609D01*
X65594Y69106D01*
X66114Y69883D01*
X66296Y70800D01*
X66114Y71717D01*
X65666Y72387D01*
X65994Y72606D01*
X66514Y73383D01*
X66696Y74300D01*
X66514Y75217D01*
X66061Y75894D01*
X65996Y75999D01*
X66137Y76500D01*
X66594Y76806D01*
X67114Y77583D01*
X67296Y78500D01*
X67114Y79417D01*
X66594Y80194D01*
X66307Y80387D01*
X66209Y80877D01*
X66414Y81183D01*
X66596Y82100D01*
X66414Y83017D01*
X65894Y83794D01*
X65117Y84314D01*
X64200Y84496D01*
X63747Y84406D01*
X63552Y84877D01*
X63894Y85106D01*
X64414Y85883D01*
X64596Y86800D01*
X64414Y87717D01*
X63894Y88494D01*
X63117Y89014D01*
X62200Y89196D01*
D02*
G37*
G36*
X50700Y69896D02*
X49783Y69714D01*
X49006Y69194D01*
X48486Y68417D01*
X48304Y67500D01*
X48486Y66583D01*
X49006Y65806D01*
X49783Y65286D01*
X50700Y65104D01*
X51617Y65286D01*
X52394Y65806D01*
X52914Y66583D01*
X53096Y67500D01*
X52914Y68417D01*
X52394Y69194D01*
X51617Y69714D01*
X50700Y69896D01*
D02*
G37*
G36*
X119470Y75329D02*
X118294Y75213D01*
X117163Y74870D01*
X116121Y74313D01*
X115207Y73563D01*
X114457Y72650D01*
X113900Y71607D01*
X113557Y70476D01*
X113441Y69300D01*
X113557Y68124D01*
X113900Y66993D01*
X114457Y65951D01*
X115207Y65037D01*
X116121Y64287D01*
X117163Y63730D01*
X118294Y63387D01*
X119470Y63271D01*
X120646Y63387D01*
X121777Y63730D01*
X122820Y64287D01*
X123733Y65037D01*
X124483Y65951D01*
X125040Y66993D01*
X125383Y68124D01*
X125499Y69300D01*
X125383Y70476D01*
X125040Y71607D01*
X124483Y72650D01*
X123733Y73563D01*
X122820Y74313D01*
X121777Y74870D01*
X120646Y75213D01*
X119470Y75329D01*
D02*
G37*
G36*
X145100Y68696D02*
X144183Y68514D01*
X143406Y67994D01*
X142886Y67217D01*
X142704Y66300D01*
X142886Y65383D01*
X143406Y64606D01*
X144183Y64086D01*
X145100Y63904D01*
X146017Y64086D01*
X146794Y64606D01*
X147314Y65383D01*
X147496Y66300D01*
X147314Y67217D01*
X146794Y67994D01*
X146017Y68514D01*
X145100Y68696D01*
D02*
G37*
G36*
X96800Y63696D02*
X95883Y63514D01*
X95106Y62994D01*
X94586Y62217D01*
X94404Y61300D01*
X94586Y60383D01*
X95106Y59606D01*
X95883Y59086D01*
X96800Y58904D01*
X97717Y59086D01*
X98494Y59606D01*
X99014Y60383D01*
X99196Y61300D01*
X99014Y62217D01*
X98494Y62994D01*
X97717Y63514D01*
X96800Y63696D01*
D02*
G37*
G36*
X91200Y56696D02*
X90283Y56514D01*
X89506Y55994D01*
X88986Y55217D01*
X88804Y54300D01*
X88986Y53383D01*
X89506Y52606D01*
X90283Y52086D01*
X91200Y51904D01*
X92117Y52086D01*
X92740Y52503D01*
X93006Y52106D01*
X93783Y51586D01*
X94700Y51404D01*
X95617Y51586D01*
X96394Y52106D01*
X96914Y52883D01*
X97096Y53800D01*
X96914Y54717D01*
X96394Y55494D01*
X95617Y56014D01*
X94700Y56196D01*
X93783Y56014D01*
X93160Y55597D01*
X92894Y55994D01*
X92117Y56514D01*
X91200Y56696D01*
D02*
G37*
G36*
X27300Y57496D02*
X26383Y57314D01*
X25606Y56794D01*
X25086Y56017D01*
X24904Y55100D01*
X25086Y54183D01*
X25606Y53406D01*
X26383Y52886D01*
X27300Y52704D01*
X28217Y52886D01*
X28994Y53406D01*
X29514Y54183D01*
X29696Y55100D01*
X29514Y56017D01*
X28994Y56794D01*
X28217Y57314D01*
X27300Y57496D01*
D02*
G37*
G36*
X34700Y54596D02*
X33783Y54414D01*
X33006Y53894D01*
X32486Y53117D01*
X32304Y52200D01*
X32486Y51283D01*
X33006Y50506D01*
X33783Y49986D01*
X34700Y49804D01*
X35617Y49986D01*
X36394Y50506D01*
X36914Y51283D01*
X37096Y52200D01*
X36914Y53117D01*
X36394Y53894D01*
X35617Y54414D01*
X34700Y54596D01*
D02*
G37*
G36*
X53500Y56096D02*
X52583Y55914D01*
X51806Y55394D01*
X51286Y54617D01*
X51104Y53700D01*
X51286Y52783D01*
X51806Y52006D01*
X52583Y51486D01*
X53500Y51304D01*
X54417Y51486D01*
X55194Y52006D01*
X55714Y52783D01*
X55896Y53700D01*
X55714Y54617D01*
X55194Y55394D01*
X54417Y55914D01*
X53500Y56096D01*
D02*
G37*
G36*
X81200Y57796D02*
X80283Y57614D01*
X79506Y57094D01*
X78986Y56317D01*
X78811Y55435D01*
X78000Y55596D01*
X77083Y55414D01*
X76306Y54894D01*
X75786Y54117D01*
X75604Y53200D01*
X75786Y52283D01*
X76306Y51506D01*
X77083Y50986D01*
X78000Y50804D01*
X78917Y50986D01*
X79694Y51506D01*
X80214Y52283D01*
X80389Y53165D01*
X81200Y53004D01*
X82117Y53186D01*
X82894Y53706D01*
X83414Y54483D01*
X83596Y55400D01*
X83414Y56317D01*
X82894Y57094D01*
X82117Y57614D01*
X81200Y57796D01*
D02*
G37*
G36*
X107600Y61996D02*
X106683Y61814D01*
X105906Y61294D01*
X105386Y60517D01*
X105204Y59600D01*
X105386Y58683D01*
X105906Y57906D01*
X106683Y57386D01*
X107600Y57204D01*
X108517Y57386D01*
X109294Y57906D01*
X109814Y58683D01*
X109996Y59600D01*
X109814Y60517D01*
X109294Y61294D01*
X108517Y61814D01*
X107600Y61996D01*
D02*
G37*
G36*
X129000Y57896D02*
X128083Y57714D01*
X127306Y57194D01*
X126786Y56417D01*
X126604Y55500D01*
X126786Y54583D01*
X127306Y53806D01*
X128083Y53286D01*
X129000Y53104D01*
X129917Y53286D01*
X130694Y53806D01*
X131214Y54583D01*
X131396Y55500D01*
X131214Y56417D01*
X130694Y57194D01*
X129917Y57714D01*
X129000Y57896D01*
D02*
G37*
G36*
X72800Y59096D02*
X71883Y58914D01*
X71106Y58394D01*
X70586Y57617D01*
X70404Y56700D01*
X70586Y55783D01*
X71106Y55006D01*
X71883Y54486D01*
X72800Y54304D01*
X73717Y54486D01*
X74494Y55006D01*
X75014Y55783D01*
X75196Y56700D01*
X75014Y57617D01*
X74494Y58394D01*
X73717Y58914D01*
X72800Y59096D01*
D02*
G37*
%LPD*%
D28*
X-10000Y0D02*
D03*
D32*
X0Y10000D02*
D03*
Y0D02*
D03*
X90000Y10000D02*
D03*
Y0D02*
D03*
D34*
X41200Y92800D02*
D03*
X148800Y60300D02*
D03*
X79400Y64400D02*
D03*
X78500Y83700D02*
D03*
X111300Y58500D02*
D03*
X110900Y86900D02*
D03*
X111700Y82300D02*
D03*
X116300Y-5500D02*
D03*
X88800Y20700D02*
D03*
X128700Y42400D02*
D03*
X26100Y24600D02*
D03*
X40539Y58461D02*
D03*
X75400Y108900D02*
D03*
M02*
