M48
;Layer_Color=9474304
;FILE_FORMAT=2:5
INCH,LZ
;TYPE=PLATED
T1F00S00C0.01300
T2F00S00C0.01800
T3F00S00C0.04000
T4F00S00C0.04200
T5F00S00C0.05906
T6F00S00C0.08400
%
T01
X-00047Y00252
X00023Y00269
X00054Y00157
X00228Y0016
X00264Y00164
X00261Y00246
X00337Y0022
X00376Y00287
X00506Y00294
X00586Y00299
X00624Y00125
X0068Y00139
X00666Y00092
X00595Y0006
X00646Y00008
X00711Y-00026
X00763Y-00038
X00764Y00034
X00775Y00091
X00834Y00049
X00858Y-00054
X00952Y0011295
X0094Y00163
X00936Y00215
X00888Y00207
X0083Y00201
X00745Y00214
X00744Y00172
X00923Y00272
X0041589Y0015559
X00156Y00051
X01051Y00065
X01054Y00172
X01097Y00237
X01081Y00323
X01286Y00312
X01368Y00222
X01452Y00284
X01486Y00044
X01258Y00049
X01163Y-00055
X01118Y00327
X01107Y00371
X0109Y00434
X01113Y00585
X01076Y00596
X01083Y00693
X01076Y00741
X01061Y00843
X01071Y0089
X01109Y00869
X01117Y00823
X0124556Y0080756
X013Y00847
X01247Y00928
X01147Y00973
X01042Y01029
X01412Y00968
X01345Y00739
X01303Y00656
X0129Y00555
X01294Y00466
X01287Y00424
X01285Y00372
X01368Y00364
X01354Y0052
X01488Y00603
X01451Y00663
X01496Y00413
X00984Y00338
X00825Y00399
X007015Y004235
X00655Y00433
X00638Y00549
X00637Y00589
X00683Y00613
X00728Y00567
X0078Y00532
X00812Y00554
X00794Y00644
X0088Y00647
X00968Y00613
X00947Y00538
X00912Y00543
X00968Y00739
X00879Y00785
X00818Y00836
X00785Y00837
X0072Y00846
X00642Y00821
X00649Y00785
X00643Y00743
X00639Y00708
X00638Y00673
X00507Y00675
X00485Y00764
X00433Y00778
X00445Y00842
X00514Y00824
X00536Y00794
Y00862
X00525Y00934
X00412Y00928
X00181
X00233Y00984
X00284Y01033
X00183Y00776
X00152Y00714
X00304Y00631
X00273Y00551
X00347Y00522
X0040539Y0058461
X00435Y0062
X00438Y00481
X0044Y00424
X00427Y00356
X00513Y00348
X00545Y00476
X00535Y00537
X00715Y00737
X00821Y00715
X00945Y00854
X00908Y00958
X00848Y00963
X00897Y01029
X00878Y01086
X00754Y01089
X00622Y00868
X01Y00955
X00288Y00361
X00044Y00396
T02
X01157Y00503
X00914Y00339
X00832Y00347
X00727Y00346
T03
X-001Y0
Y001
Y002
Y003
X0120384Y01051
X0130384
X0141Y01048
X0151
T04
X0Y0
Y001
X001
X002
X003
X004
X005
Y0
X004
X003
X002
X001
X009
Y001
X01
Y0
X011
Y001
X012
X013
X014
Y0
X013
X012
T05
X0015009Y00529
Y01029
T06
X011947Y00693
X004073
M30
