%FSLAX25Y25*%
%MOIN*%
G70*
G01*
G75*
G04 Layer_Color=8388736*
%ADD10C,0.00800*%
%ADD11O,0.01575X0.05331*%
%ADD12O,0.01575X0.06315*%
%ADD13O,0.01575X0.08874*%
%ADD14O,0.01575X0.04331*%
%ADD15O,0.05331X0.01575*%
%ADD16O,0.06315X0.01575*%
%ADD17R,0.02362X0.04724*%
%ADD18R,0.03347X0.03150*%
%ADD19R,0.03150X0.03347*%
%ADD20R,0.06890X0.03937*%
%ADD21R,0.02600X0.03300*%
%ADD22R,0.07874X0.02559*%
%ADD23C,0.00600*%
%ADD24C,0.01400*%
%ADD25C,0.02000*%
%ADD26C,0.10000*%
%ADD27C,0.05500*%
%ADD28R,0.05500X0.05500*%
%ADD29C,0.03300*%
%ADD30R,0.05500X0.05500*%
%ADD31R,0.05700X0.05700*%
%ADD32C,0.05700*%
%ADD33C,0.07480*%
%ADD34C,0.02700*%
%ADD35C,0.05000*%
%ADD36C,0.01000*%
%ADD37R,0.05000X0.02500*%
%ADD38R,0.02500X0.05000*%
%ADD39C,0.01575*%
%ADD40C,0.00984*%
%ADD41C,0.02500*%
%ADD42C,0.01969*%
%ADD43C,0.00787*%
%ADD44O,0.02375X0.06131*%
%ADD45O,0.02375X0.07115*%
%ADD46O,0.02375X0.09674*%
%ADD47O,0.02375X0.05131*%
%ADD48O,0.06131X0.02375*%
%ADD49O,0.07115X0.02375*%
%ADD50R,0.03162X0.05524*%
%ADD51R,0.04147X0.03950*%
%ADD52R,0.03950X0.04147*%
%ADD53R,0.07690X0.04737*%
%ADD54R,0.03400X0.04100*%
%ADD55R,0.08674X0.03359*%
%ADD56C,0.10800*%
%ADD57C,0.06300*%
%ADD58R,0.06300X0.06300*%
%ADD59C,0.04100*%
%ADD60R,0.06300X0.06300*%
%ADD61R,0.06500X0.06500*%
%ADD62C,0.06500*%
%ADD63C,0.08280*%
D44*
X62777Y91560D02*
D03*
X97423Y47040D02*
D03*
X62777D02*
D03*
D45*
X65927Y91068D02*
D03*
X69076D02*
D03*
X72226D02*
D03*
X75376D02*
D03*
X81675D02*
D03*
X87974D02*
D03*
X91124D02*
D03*
X94273D02*
D03*
Y47532D02*
D03*
X91124D02*
D03*
X87974D02*
D03*
X84824D02*
D03*
X81675D02*
D03*
X78525D02*
D03*
X75376D02*
D03*
X72226D02*
D03*
X69076D02*
D03*
X65927D02*
D03*
X84824Y91068D02*
D03*
D46*
X78525Y89887D02*
D03*
D47*
X97423Y91560D02*
D03*
D48*
X102360Y86623D02*
D03*
Y51977D02*
D03*
X57840D02*
D03*
Y86623D02*
D03*
D49*
X101868Y83473D02*
D03*
Y80324D02*
D03*
Y77174D02*
D03*
Y74024D02*
D03*
Y70875D02*
D03*
Y67725D02*
D03*
Y64576D02*
D03*
Y61426D02*
D03*
Y58276D02*
D03*
Y55127D02*
D03*
X58332D02*
D03*
Y58276D02*
D03*
Y61426D02*
D03*
Y64576D02*
D03*
Y67725D02*
D03*
Y70875D02*
D03*
Y74024D02*
D03*
Y77174D02*
D03*
Y80324D02*
D03*
Y83473D02*
D03*
D50*
X138200Y63557D02*
D03*
X134460Y70643D02*
D03*
X141940D02*
D03*
D51*
X148600Y69056D02*
D03*
Y63544D02*
D03*
X29300Y24656D02*
D03*
Y19144D02*
D03*
X49396Y25206D02*
D03*
Y19694D02*
D03*
X22700Y19344D02*
D03*
Y24856D02*
D03*
X82000Y256D02*
D03*
Y-5256D02*
D03*
X-900Y17944D02*
D03*
Y23456D02*
D03*
X69400Y29656D02*
D03*
Y24144D02*
D03*
X74300Y29756D02*
D03*
Y24244D02*
D03*
X83000Y29856D02*
D03*
Y24344D02*
D03*
X89000Y29956D02*
D03*
Y24444D02*
D03*
X40700Y83644D02*
D03*
Y89156D02*
D03*
D52*
X125393Y31186D02*
D03*
X119881D02*
D03*
X125293Y37186D02*
D03*
X119781D02*
D03*
X119844Y44900D02*
D03*
X125356D02*
D03*
X119744Y50300D02*
D03*
X125256D02*
D03*
X125356Y55600D02*
D03*
X119844D02*
D03*
X124556Y89700D02*
D03*
X119044D02*
D03*
X124556Y84000D02*
D03*
X119044D02*
D03*
X84456Y108900D02*
D03*
X78944D02*
D03*
X35283Y55261D02*
D03*
X40795D02*
D03*
X40656Y42600D02*
D03*
X35144D02*
D03*
X40556Y48300D02*
D03*
X35044D02*
D03*
D53*
X137268Y89512D02*
D03*
Y78488D02*
D03*
X146869Y89512D02*
D03*
Y78488D02*
D03*
D54*
X37600Y25650D02*
D03*
X44096D02*
D03*
Y19548D02*
D03*
X37600D02*
D03*
D55*
X24300Y92900D02*
D03*
Y87900D02*
D03*
Y82900D02*
D03*
Y77900D02*
D03*
Y72900D02*
D03*
Y67900D02*
D03*
Y62900D02*
D03*
D56*
X40730Y69300D02*
D03*
X119470D02*
D03*
D57*
X-10000Y30000D02*
D03*
Y10000D02*
D03*
Y20000D02*
D03*
X120384Y105100D02*
D03*
X141000Y104800D02*
D03*
D58*
X-10000Y0D02*
D03*
D59*
X91400Y33900D02*
D03*
X115700Y50300D02*
D03*
X72700Y34600D02*
D03*
X83200Y34700D02*
D03*
D60*
X130384Y105100D02*
D03*
X151000Y104800D02*
D03*
D61*
X50000Y10000D02*
D03*
X140000D02*
D03*
D62*
X40000D02*
D03*
X30000D02*
D03*
X20000D02*
D03*
X10000D02*
D03*
X0D02*
D03*
X50000Y0D02*
D03*
X40000D02*
D03*
X30000D02*
D03*
X20000D02*
D03*
X10000D02*
D03*
X0D02*
D03*
X130000Y10000D02*
D03*
X120000D02*
D03*
X110000D02*
D03*
X100000D02*
D03*
X90000D02*
D03*
X140000Y0D02*
D03*
X130000D02*
D03*
X120000D02*
D03*
X110000D02*
D03*
X100000D02*
D03*
X90000D02*
D03*
D63*
X15009Y102900D02*
D03*
Y52900D02*
D03*
M02*
