%FSLAX25Y25*%
%MOIN*%
G70*
G01*
G75*
G04 Layer_Physical_Order=4*
G04 Layer_Color=16711680*
%ADD10C,0.00800*%
%ADD11O,0.01575X0.05331*%
%ADD12O,0.01575X0.06315*%
%ADD13O,0.01575X0.08874*%
%ADD14O,0.01575X0.04331*%
%ADD15O,0.05331X0.01575*%
%ADD16O,0.06315X0.01575*%
%ADD17R,0.02362X0.04724*%
%ADD18R,0.03347X0.03150*%
%ADD19R,0.03150X0.03347*%
%ADD20R,0.06890X0.03937*%
%ADD21R,0.02600X0.03300*%
%ADD22R,0.07874X0.02559*%
%ADD23C,0.00600*%
%ADD24C,0.01400*%
%ADD25C,0.02000*%
%ADD26C,0.10000*%
%ADD27C,0.05500*%
%ADD28R,0.05500X0.05500*%
%ADD29C,0.03300*%
%ADD30R,0.05500X0.05500*%
%ADD31R,0.05700X0.05700*%
%ADD32C,0.05700*%
%ADD33C,0.07480*%
%ADD34C,0.02700*%
%ADD35C,0.05000*%
%ADD36C,0.01000*%
%ADD37R,0.05000X0.02500*%
%ADD38R,0.02500X0.05000*%
G36*
X94775Y25774D02*
Y18949D01*
X94435Y18609D01*
X94000Y18696D01*
X93083Y18514D01*
X92306Y17994D01*
X91786Y17217D01*
X91604Y16300D01*
X91786Y15383D01*
X92306Y14606D01*
X93083Y14086D01*
X93980Y13908D01*
X94021Y13841D01*
X94158Y13426D01*
X93506Y12990D01*
X93339Y12740D01*
X92831Y12682D01*
X92743Y12748D01*
X91942Y13363D01*
X91005Y13751D01*
X90000Y13883D01*
X88995Y13751D01*
X88376Y13494D01*
X87875Y13828D01*
Y17978D01*
X88376Y18388D01*
X88800Y18304D01*
X89717Y18486D01*
X90494Y19006D01*
X91014Y19783D01*
X91196Y20700D01*
X91014Y21617D01*
X90494Y22394D01*
X89717Y22914D01*
X88948Y23067D01*
X88727Y23552D01*
X89637Y24463D01*
X89925Y24893D01*
X90026Y25400D01*
Y25474D01*
X90526Y25626D01*
X90606Y25506D01*
X91383Y24986D01*
X92300Y24804D01*
X93217Y24986D01*
X93994Y25506D01*
X94274Y25925D01*
X94775Y25774D01*
D02*
G37*
G36*
X83474Y53674D02*
Y38200D01*
X83548Y37831D01*
X83237Y37368D01*
X83200Y37373D01*
X82508Y37282D01*
X82076Y37103D01*
X81576Y37380D01*
Y53079D01*
X82117Y53186D01*
X82894Y53706D01*
X82974Y53826D01*
X83474Y53674D01*
D02*
G37*
G36*
X109397Y81833D02*
X109486Y81383D01*
X109567Y81263D01*
Y60136D01*
X109086Y59417D01*
X108904Y58500D01*
X109086Y57583D01*
X109567Y56864D01*
Y46200D01*
X109699Y45537D01*
X110074Y44974D01*
X113880Y41168D01*
X113689Y40707D01*
X113453D01*
X113381Y40716D01*
X112468Y40596D01*
X111616Y40243D01*
X110885Y39682D01*
X110737Y39489D01*
X110700Y39496D01*
X109783Y39314D01*
X109006Y38794D01*
X108486Y38017D01*
X108304Y37100D01*
X108486Y36183D01*
X109006Y35406D01*
X109783Y34886D01*
X109959Y34852D01*
X110057Y34322D01*
X109586Y33617D01*
X109404Y32700D01*
X109586Y31783D01*
X110026Y31125D01*
X109970Y30700D01*
X110090Y29786D01*
X110443Y28935D01*
X111004Y28204D01*
X111735Y27643D01*
X112586Y27290D01*
X113500Y27170D01*
X113589Y27182D01*
X115991D01*
X116030Y27189D01*
X116276Y26728D01*
X112924Y23377D01*
X112549Y22814D01*
X112417Y22151D01*
Y13564D01*
X111968Y13342D01*
X111942Y13363D01*
X111005Y13751D01*
X110000Y13883D01*
X108995Y13751D01*
X108058Y13363D01*
X107254Y12746D01*
X106925Y12318D01*
X106605Y12370D01*
X106412Y12469D01*
X106325Y12907D01*
X106037Y13337D01*
X105001Y14374D01*
X105247Y14834D01*
X105400Y14804D01*
X106317Y14986D01*
X107094Y15506D01*
X107614Y16283D01*
X107796Y17200D01*
X107614Y18117D01*
X107094Y18894D01*
X106676Y19174D01*
Y80219D01*
X107218Y80761D01*
X107539Y80825D01*
X107969Y81113D01*
X108854Y81998D01*
X109397Y81833D01*
D02*
G37*
G36*
X87375Y32835D02*
Y25949D01*
X85613Y24187D01*
X85325Y23757D01*
X85224Y23250D01*
Y12909D01*
X85025Y12610D01*
X84925Y12103D01*
Y8299D01*
X83835Y7209D01*
X83400Y7296D01*
X83312Y7278D01*
X82925Y7596D01*
Y18318D01*
X82825Y18825D01*
X82537Y19255D01*
X82076Y19717D01*
Y25301D01*
X85498Y28724D01*
X85757Y28775D01*
X86187Y29063D01*
X86475Y29493D01*
X86576Y30000D01*
Y32595D01*
X86687Y32706D01*
X86875Y32987D01*
X87375Y32835D01*
D02*
G37*
G36*
X153874Y108550D02*
X147250D01*
Y101050D01*
X153874D01*
Y-7174D01*
X118538D01*
X118302Y-6733D01*
X118514Y-6417D01*
X118696Y-5500D01*
X118514Y-4583D01*
X118061Y-3905D01*
X118334Y-3477D01*
X118995Y-3751D01*
X120000Y-3883D01*
X121005Y-3751D01*
X121942Y-3363D01*
X122746Y-2746D01*
X123363Y-1942D01*
X123751Y-1005D01*
X123883Y0D01*
X123751Y1005D01*
X123363Y1942D01*
X122746Y2746D01*
X121942Y3363D01*
X121005Y3751D01*
X120000Y3883D01*
X118995Y3751D01*
X118058Y3363D01*
X117254Y2746D01*
X116637Y1942D01*
X116383Y1329D01*
X115883Y1429D01*
Y8572D01*
X116383Y8671D01*
X116637Y8058D01*
X117254Y7254D01*
X118058Y6637D01*
X118995Y6249D01*
X120000Y6117D01*
X121005Y6249D01*
X121942Y6637D01*
X122746Y7254D01*
X123363Y8058D01*
X123751Y8995D01*
X123883Y10000D01*
X123751Y11005D01*
X123363Y11942D01*
X122746Y12746D01*
X121942Y13363D01*
X121005Y13751D01*
X120000Y13883D01*
X118995Y13751D01*
X118058Y13363D01*
X117254Y12746D01*
X116637Y11942D01*
X116383Y11329D01*
X115883Y11428D01*
Y21433D01*
X120526Y26076D01*
X120901Y26638D01*
X121033Y27301D01*
Y27630D01*
X121065Y27643D01*
X121796Y28204D01*
X122357Y28935D01*
X122710Y29786D01*
X122830Y30700D01*
X122710Y31614D01*
X122357Y32465D01*
X121796Y33196D01*
X121096Y33734D01*
X121081Y34213D01*
X121081Y34232D01*
X121677Y34690D01*
X122238Y35421D01*
X122252Y35453D01*
X123486D01*
X124149Y35585D01*
X124712Y35960D01*
X128769Y40018D01*
X129617Y40186D01*
X130394Y40706D01*
X130914Y41483D01*
X131096Y42400D01*
X130914Y43317D01*
X130394Y44094D01*
X129617Y44614D01*
X128700Y44796D01*
X127783Y44614D01*
X127006Y44094D01*
X126486Y43317D01*
X126318Y42469D01*
X122768Y38919D01*
X122252D01*
X122238Y38951D01*
X121677Y39682D01*
X120946Y40243D01*
X120095Y40596D01*
X119243Y40708D01*
X113033Y46918D01*
Y48601D01*
X113533Y48771D01*
X113810Y48410D01*
X114364Y47985D01*
X115008Y47718D01*
X115700Y47627D01*
X116392Y47718D01*
X117036Y47985D01*
X117590Y48410D01*
X118015Y48964D01*
X118282Y49608D01*
X118373Y50300D01*
X118282Y50992D01*
X118015Y51636D01*
X117590Y52190D01*
X117036Y52615D01*
X116392Y52882D01*
X115700Y52973D01*
X115008Y52882D01*
X114364Y52615D01*
X113810Y52190D01*
X113533Y51829D01*
X113033Y51999D01*
Y56864D01*
X113514Y57583D01*
X113696Y58500D01*
X113514Y59417D01*
X113033Y60136D01*
Y68339D01*
X113533Y68363D01*
X113557Y68124D01*
X113900Y66993D01*
X114457Y65951D01*
X115207Y65037D01*
X116121Y64287D01*
X117163Y63730D01*
X118294Y63387D01*
X119470Y63271D01*
X120646Y63387D01*
X121777Y63730D01*
X122820Y64287D01*
X123733Y65037D01*
X124483Y65951D01*
X125040Y66993D01*
X125383Y68124D01*
X125499Y69300D01*
X125383Y70476D01*
X125040Y71607D01*
X124483Y72650D01*
X123733Y73563D01*
X122820Y74313D01*
X121777Y74870D01*
X120646Y75213D01*
X119470Y75329D01*
X118294Y75213D01*
X117163Y74870D01*
X116121Y74313D01*
X115207Y73563D01*
X114457Y72650D01*
X113900Y71607D01*
X113557Y70476D01*
X113533Y70236D01*
X113033Y70261D01*
Y80365D01*
X113394Y80606D01*
X113914Y81383D01*
X114096Y82300D01*
X113914Y83217D01*
X113433Y83936D01*
Y86100D01*
X113301Y86763D01*
X113276Y86801D01*
X113296Y86900D01*
X113114Y87817D01*
X112594Y88594D01*
X111817Y89114D01*
X110900Y89296D01*
X109983Y89114D01*
X109428Y89344D01*
X109314Y89917D01*
X108794Y90694D01*
X108017Y91214D01*
X107100Y91396D01*
X106183Y91214D01*
X105406Y90694D01*
X104886Y89917D01*
X104704Y89000D01*
X104886Y88083D01*
X105406Y87306D01*
X105683Y87120D01*
X105666Y86610D01*
X105183Y86514D01*
X104406Y85994D01*
X103886Y85217D01*
X103704Y84300D01*
X103724Y84199D01*
X100763Y81237D01*
X100475Y80807D01*
X100426Y80556D01*
X99926Y80605D01*
Y93043D01*
X100000Y93104D01*
X100917Y93286D01*
X101694Y93806D01*
X102214Y94583D01*
X102396Y95500D01*
X102214Y96417D01*
X101694Y97194D01*
X100917Y97714D01*
X100000Y97896D01*
X99083Y97714D01*
X98306Y97194D01*
X97786Y96417D01*
X97604Y95500D01*
X97690Y95065D01*
X97663Y95037D01*
X97375Y94607D01*
X97275Y94100D01*
Y86060D01*
X96775Y86011D01*
X96714Y86317D01*
X96194Y87094D01*
X95417Y87614D01*
X94500Y87796D01*
X94025Y87702D01*
X93525Y88112D01*
Y94400D01*
X93425Y94907D01*
X93137Y95337D01*
X93110Y95365D01*
X93196Y95800D01*
X93014Y96717D01*
X92494Y97494D01*
X91717Y98014D01*
X90800Y98196D01*
X89883Y98014D01*
X89106Y97494D01*
X88586Y96717D01*
X88404Y95800D01*
X88586Y94883D01*
X89106Y94106D01*
X89883Y93586D01*
X90800Y93404D01*
X90874Y93343D01*
Y62449D01*
X87763Y59337D01*
X87475Y58907D01*
X87375Y58400D01*
Y38059D01*
X86875Y37907D01*
X86687Y38187D01*
X86125Y38749D01*
Y94359D01*
X86494Y94606D01*
X87014Y95383D01*
X87196Y96300D01*
X87014Y97217D01*
X86494Y97994D01*
X85717Y98514D01*
X84800Y98696D01*
X83883Y98514D01*
X83106Y97994D01*
X82586Y97217D01*
X82404Y96300D01*
X82586Y95383D01*
X83106Y94606D01*
X83474Y94359D01*
Y57126D01*
X82974Y56974D01*
X82894Y57094D01*
X82117Y57614D01*
X81200Y57796D01*
X80283Y57614D01*
X79506Y57094D01*
X78986Y56317D01*
X78811Y55435D01*
X78000Y55596D01*
X77083Y55414D01*
X76306Y54894D01*
X75786Y54117D01*
X75604Y53200D01*
X75786Y52283D01*
X76306Y51506D01*
X76674Y51259D01*
Y27152D01*
X76113Y26590D01*
X75825Y26160D01*
X75725Y25653D01*
Y10673D01*
X75286Y10017D01*
X75104Y9100D01*
X75286Y8183D01*
X75806Y7406D01*
X76583Y6886D01*
X77185Y6767D01*
X77350Y6224D01*
X76835Y5709D01*
X76400Y5796D01*
X75483Y5614D01*
X74706Y5094D01*
X74186Y4317D01*
X74004Y3400D01*
X74186Y2483D01*
X74706Y1706D01*
X75483Y1186D01*
X76400Y1004D01*
X77317Y1186D01*
X78094Y1706D01*
X78614Y2483D01*
X78796Y3400D01*
X78710Y3835D01*
X79363Y4488D01*
X79825Y4297D01*
Y3968D01*
X79925Y3461D01*
X80213Y3031D01*
X80274Y2969D01*
Y1349D01*
X77290Y-1635D01*
X77217Y-1586D01*
X76300Y-1404D01*
X75383Y-1586D01*
X74606Y-2106D01*
X74086Y-2883D01*
X73904Y-3800D01*
X74086Y-4717D01*
X74606Y-5494D01*
X75383Y-6014D01*
X76300Y-6196D01*
X77217Y-6014D01*
X77994Y-5494D01*
X78514Y-4717D01*
X78652Y-4023D01*
X82537Y-137D01*
X82825Y293D01*
X82925Y800D01*
Y2204D01*
X83312Y2521D01*
X83400Y2504D01*
X84317Y2686D01*
X85094Y3206D01*
X85614Y3983D01*
X85796Y4900D01*
X85710Y5335D01*
X87187Y6813D01*
X87202Y6834D01*
X87695Y6916D01*
X88058Y6637D01*
X88995Y6249D01*
X90000Y6117D01*
X91005Y6249D01*
X91942Y6637D01*
X92746Y7254D01*
X93363Y8058D01*
X93699Y8871D01*
X94213Y9129D01*
X94283Y9082D01*
X95200Y8900D01*
X95743Y9008D01*
X96172Y8997D01*
X96386Y8664D01*
X96637Y8058D01*
X97254Y7254D01*
X98058Y6637D01*
X98995Y6249D01*
X99500Y6183D01*
Y10000D01*
X100500D01*
Y6183D01*
X101005Y6249D01*
X101942Y6637D01*
X102272Y6890D01*
X102726Y6608D01*
X102704Y6500D01*
X102886Y5583D01*
X103406Y4806D01*
X104183Y4286D01*
X105100Y4104D01*
X106017Y4286D01*
X106794Y4806D01*
X107314Y5583D01*
X107485Y6447D01*
X107918Y6744D01*
X108058Y6637D01*
X108995Y6249D01*
X110000Y6117D01*
X111005Y6249D01*
X111942Y6637D01*
X111968Y6657D01*
X112417Y6436D01*
Y3564D01*
X111968Y3342D01*
X111942Y3363D01*
X111005Y3751D01*
X110000Y3883D01*
X108995Y3751D01*
X108058Y3363D01*
X107254Y2746D01*
X106637Y1942D01*
X106249Y1005D01*
X106117Y0D01*
X106249Y-1005D01*
X106637Y-1942D01*
X107254Y-2746D01*
X108058Y-3363D01*
X108995Y-3751D01*
X110000Y-3883D01*
X111005Y-3751D01*
X111942Y-3363D01*
X111943Y-3362D01*
X112465Y-3592D01*
X112549Y-4013D01*
X112924Y-4576D01*
X113918Y-5569D01*
X114086Y-6417D01*
X114298Y-6733D01*
X114062Y-7174D01*
X-15274D01*
Y110574D01*
X73162D01*
X73398Y110133D01*
X73186Y109817D01*
X73004Y108900D01*
X73186Y107983D01*
X73706Y107206D01*
X74483Y106686D01*
X75400Y106504D01*
X76317Y106686D01*
X77094Y107206D01*
X77614Y107983D01*
X77796Y108900D01*
X77614Y109817D01*
X77402Y110133D01*
X77638Y110574D01*
X153874D01*
Y108550D01*
D02*
G37*
%LPC*%
G36*
X130000Y13883D02*
X128995Y13751D01*
X128058Y13363D01*
X127254Y12746D01*
X126637Y11942D01*
X126249Y11005D01*
X126117Y10000D01*
X126249Y8995D01*
X126637Y8058D01*
X127254Y7254D01*
X128058Y6637D01*
X128995Y6249D01*
X130000Y6117D01*
X131005Y6249D01*
X131942Y6637D01*
X132746Y7254D01*
X133363Y8058D01*
X133751Y8995D01*
X133883Y10000D01*
X133751Y11005D01*
X133363Y11942D01*
X132746Y12746D01*
X131942Y13363D01*
X131005Y13751D01*
X130000Y13883D01*
D02*
G37*
G36*
X99500Y3817D02*
X98995Y3751D01*
X98058Y3363D01*
X97254Y2746D01*
X96637Y1942D01*
X96249Y1005D01*
X96183Y500D01*
X99500D01*
Y3817D01*
D02*
G37*
G36*
X100500D02*
Y500D01*
X103817D01*
X103751Y1005D01*
X103363Y1942D01*
X102746Y2746D01*
X101942Y3363D01*
X101005Y3751D01*
X100500Y3817D01*
D02*
G37*
G36*
X0Y13883D02*
X-1005Y13751D01*
X-1942Y13363D01*
X-2746Y12746D01*
X-3363Y11942D01*
X-3751Y11005D01*
X-3883Y10000D01*
X-3751Y8995D01*
X-3363Y8058D01*
X-2746Y7254D01*
X-1942Y6637D01*
X-1005Y6249D01*
X0Y6117D01*
X1005Y6249D01*
X1942Y6637D01*
X2746Y7254D01*
X3363Y8058D01*
X3751Y8995D01*
X3883Y10000D01*
X3751Y11005D01*
X3363Y11942D01*
X2746Y12746D01*
X1942Y13363D01*
X1005Y13751D01*
X0Y13883D01*
D02*
G37*
G36*
X143850Y13850D02*
X136150D01*
Y6150D01*
X143850D01*
Y13850D01*
D02*
G37*
G36*
X13817Y9500D02*
X10500D01*
Y6183D01*
X11005Y6249D01*
X11942Y6637D01*
X12746Y7254D01*
X13363Y8058D01*
X13751Y8995D01*
X13817Y9500D01*
D02*
G37*
G36*
X-10500D02*
X-13716D01*
X-13654Y9021D01*
X-13276Y8109D01*
X-12675Y7326D01*
X-11891Y6724D01*
X-10979Y6346D01*
X-10500Y6284D01*
Y9500D01*
D02*
G37*
G36*
X9500D02*
X6183D01*
X6249Y8995D01*
X6637Y8058D01*
X7254Y7254D01*
X8058Y6637D01*
X8995Y6249D01*
X9500Y6183D01*
Y9500D01*
D02*
G37*
G36*
X-6284D02*
X-9500D01*
Y6284D01*
X-9021Y6346D01*
X-8109Y6724D01*
X-7326Y7326D01*
X-6724Y8109D01*
X-6346Y9021D01*
X-6284Y9500D01*
D02*
G37*
G36*
X10500Y3817D02*
Y500D01*
X13817D01*
X13751Y1005D01*
X13363Y1942D01*
X12746Y2746D01*
X11942Y3363D01*
X11005Y3751D01*
X10500Y3817D01*
D02*
G37*
G36*
X40000Y3883D02*
X38995Y3751D01*
X38058Y3363D01*
X37254Y2746D01*
X36637Y1942D01*
X36249Y1005D01*
X36117Y0D01*
X36249Y-1005D01*
X36637Y-1942D01*
X37254Y-2746D01*
X38058Y-3363D01*
X38995Y-3751D01*
X40000Y-3883D01*
X41005Y-3751D01*
X41942Y-3363D01*
X42746Y-2746D01*
X43363Y-1942D01*
X43751Y-1005D01*
X43883Y0D01*
X43751Y1005D01*
X43363Y1942D01*
X42746Y2746D01*
X41942Y3363D01*
X41005Y3751D01*
X40000Y3883D01*
D02*
G37*
G36*
X90000D02*
X88995Y3751D01*
X88058Y3363D01*
X87254Y2746D01*
X86637Y1942D01*
X86249Y1005D01*
X86117Y0D01*
X86249Y-1005D01*
X86637Y-1942D01*
X87254Y-2746D01*
X88058Y-3363D01*
X88995Y-3751D01*
X90000Y-3883D01*
X91005Y-3751D01*
X91942Y-3363D01*
X92746Y-2746D01*
X93363Y-1942D01*
X93751Y-1005D01*
X93883Y0D01*
X93751Y1005D01*
X93363Y1942D01*
X92746Y2746D01*
X91942Y3363D01*
X91005Y3751D01*
X90000Y3883D01*
D02*
G37*
G36*
X130000D02*
X128995Y3751D01*
X128058Y3363D01*
X127254Y2746D01*
X126637Y1942D01*
X126249Y1005D01*
X126117Y0D01*
X126249Y-1005D01*
X126637Y-1942D01*
X127254Y-2746D01*
X128058Y-3363D01*
X128995Y-3751D01*
X130000Y-3883D01*
X131005Y-3751D01*
X131942Y-3363D01*
X132746Y-2746D01*
X133363Y-1942D01*
X133751Y-1005D01*
X133883Y0D01*
X133751Y1005D01*
X133363Y1942D01*
X132746Y2746D01*
X131942Y3363D01*
X131005Y3751D01*
X130000Y3883D01*
D02*
G37*
G36*
X0D02*
X-1005Y3751D01*
X-1942Y3363D01*
X-2746Y2746D01*
X-3363Y1942D01*
X-3751Y1005D01*
X-3883Y0D01*
X-3751Y-1005D01*
X-3363Y-1942D01*
X-2746Y-2746D01*
X-1942Y-3363D01*
X-1005Y-3751D01*
X0Y-3883D01*
X1005Y-3751D01*
X1942Y-3363D01*
X2746Y-2746D01*
X3363Y-1942D01*
X3751Y-1005D01*
X3883Y0D01*
X3751Y1005D01*
X3363Y1942D01*
X2746Y2746D01*
X1942Y3363D01*
X1005Y3751D01*
X0Y3883D01*
D02*
G37*
G36*
X20000D02*
X18995Y3751D01*
X18058Y3363D01*
X17254Y2746D01*
X16637Y1942D01*
X16249Y1005D01*
X16117Y0D01*
X16249Y-1005D01*
X16637Y-1942D01*
X17254Y-2746D01*
X18058Y-3363D01*
X18995Y-3751D01*
X20000Y-3883D01*
X21005Y-3751D01*
X21942Y-3363D01*
X22746Y-2746D01*
X23363Y-1942D01*
X23751Y-1005D01*
X23883Y0D01*
X23751Y1005D01*
X23363Y1942D01*
X22746Y2746D01*
X21942Y3363D01*
X21005Y3751D01*
X20000Y3883D01*
D02*
G37*
G36*
X30000D02*
X28995Y3751D01*
X28058Y3363D01*
X27254Y2746D01*
X26637Y1942D01*
X26249Y1005D01*
X26117Y0D01*
X26249Y-1005D01*
X26637Y-1942D01*
X27254Y-2746D01*
X28058Y-3363D01*
X28995Y-3751D01*
X30000Y-3883D01*
X31005Y-3751D01*
X31942Y-3363D01*
X32746Y-2746D01*
X33363Y-1942D01*
X33751Y-1005D01*
X33883Y0D01*
X33751Y1005D01*
X33363Y1942D01*
X32746Y2746D01*
X31942Y3363D01*
X31005Y3751D01*
X30000Y3883D01*
D02*
G37*
G36*
X140000D02*
X138995Y3751D01*
X138058Y3363D01*
X137254Y2746D01*
X136637Y1942D01*
X136249Y1005D01*
X136117Y0D01*
X136249Y-1005D01*
X136637Y-1942D01*
X137254Y-2746D01*
X138058Y-3363D01*
X138995Y-3751D01*
X140000Y-3883D01*
X141005Y-3751D01*
X141942Y-3363D01*
X142746Y-2746D01*
X143363Y-1942D01*
X143751Y-1005D01*
X143883Y0D01*
X143751Y1005D01*
X143363Y1942D01*
X142746Y2746D01*
X141942Y3363D01*
X141005Y3751D01*
X140000Y3883D01*
D02*
G37*
G36*
X103817Y-500D02*
X100500D01*
Y-3817D01*
X101005Y-3751D01*
X101942Y-3363D01*
X102746Y-2746D01*
X103363Y-1942D01*
X103751Y-1005D01*
X103817Y-500D01*
D02*
G37*
G36*
X-6250Y3750D02*
X-13750D01*
Y-3750D01*
X-6250D01*
Y3750D01*
D02*
G37*
G36*
X9500Y3817D02*
X8995Y3751D01*
X8058Y3363D01*
X7254Y2746D01*
X6637Y1942D01*
X6249Y1005D01*
X6183Y500D01*
X9500D01*
Y3817D01*
D02*
G37*
G36*
Y-500D02*
X6183D01*
X6249Y-1005D01*
X6637Y-1942D01*
X7254Y-2746D01*
X8058Y-3363D01*
X8995Y-3751D01*
X9500Y-3817D01*
Y-500D01*
D02*
G37*
G36*
X13817D02*
X10500D01*
Y-3817D01*
X11005Y-3751D01*
X11942Y-3363D01*
X12746Y-2746D01*
X13363Y-1942D01*
X13751Y-1005D01*
X13817Y-500D01*
D02*
G37*
G36*
X99500D02*
X96183D01*
X96249Y-1005D01*
X96637Y-1942D01*
X97254Y-2746D01*
X98058Y-3363D01*
X98995Y-3751D01*
X99500Y-3817D01*
Y-500D01*
D02*
G37*
G36*
X-10500Y13716D02*
X-10979Y13654D01*
X-11891Y13276D01*
X-12675Y12675D01*
X-13276Y11891D01*
X-13654Y10979D01*
X-13716Y10500D01*
X-10500D01*
Y13716D01*
D02*
G37*
G36*
X144717Y104300D02*
X141500D01*
Y101084D01*
X141979Y101146D01*
X142891Y101524D01*
X143675Y102126D01*
X144276Y102909D01*
X144653Y103821D01*
X144717Y104300D01*
D02*
G37*
G36*
X119884Y104600D02*
X116667D01*
X116730Y104121D01*
X117108Y103209D01*
X117709Y102426D01*
X118492Y101824D01*
X119404Y101446D01*
X119884Y101383D01*
Y104600D01*
D02*
G37*
G36*
X124100D02*
X120884D01*
Y101383D01*
X121362Y101446D01*
X122275Y101824D01*
X123058Y102426D01*
X123659Y103209D01*
X124037Y104121D01*
X124100Y104600D01*
D02*
G37*
G36*
X14509Y102400D02*
X10293D01*
X10390Y101663D01*
X10868Y100510D01*
X11628Y99519D01*
X12618Y98760D01*
X13771Y98282D01*
X14509Y98185D01*
Y102400D01*
D02*
G37*
G36*
X19724D02*
X15509D01*
Y98185D01*
X16246Y98282D01*
X17399Y98760D01*
X18389Y99519D01*
X19149Y100510D01*
X19627Y101663D01*
X19724Y102400D01*
D02*
G37*
G36*
X140500Y104300D02*
X137284D01*
X137346Y103821D01*
X137724Y102909D01*
X138326Y102126D01*
X139109Y101524D01*
X140021Y101146D01*
X140500Y101084D01*
Y104300D01*
D02*
G37*
G36*
X141500Y108517D02*
Y105300D01*
X144717D01*
X144653Y105779D01*
X144276Y106691D01*
X143675Y107475D01*
X142891Y108076D01*
X141979Y108454D01*
X141500Y108517D01*
D02*
G37*
G36*
X119884Y108817D02*
X119404Y108754D01*
X118492Y108376D01*
X117709Y107774D01*
X117108Y106991D01*
X116730Y106079D01*
X116667Y105600D01*
X119884D01*
Y108817D01*
D02*
G37*
G36*
X120884D02*
Y105600D01*
X124100D01*
X124037Y106079D01*
X123659Y106991D01*
X123058Y107774D01*
X122275Y108376D01*
X121362Y108754D01*
X120884Y108817D01*
D02*
G37*
G36*
X14509Y107615D02*
X13771Y107518D01*
X12618Y107041D01*
X11628Y106281D01*
X10868Y105290D01*
X10390Y104137D01*
X10293Y103400D01*
X14509D01*
Y107615D01*
D02*
G37*
G36*
X15509D02*
Y103400D01*
X19724D01*
X19627Y104137D01*
X19149Y105290D01*
X18389Y106281D01*
X17399Y107041D01*
X16246Y107518D01*
X15509Y107615D01*
D02*
G37*
G36*
X140500Y108517D02*
X140021Y108454D01*
X139109Y108076D01*
X138326Y107475D01*
X137724Y106691D01*
X137346Y105779D01*
X137284Y105300D01*
X140500D01*
Y108517D01*
D02*
G37*
G36*
X26100Y26996D02*
X25183Y26814D01*
X24406Y26294D01*
X23886Y25517D01*
X23704Y24600D01*
X23886Y23683D01*
X24406Y22906D01*
X25183Y22386D01*
X26100Y22204D01*
X27017Y22386D01*
X27794Y22906D01*
X28314Y23683D01*
X28496Y24600D01*
X28314Y25517D01*
X27794Y26294D01*
X27017Y26814D01*
X26100Y26996D01*
D02*
G37*
G36*
X14509Y52400D02*
X10293D01*
X10390Y51663D01*
X10868Y50510D01*
X11628Y49519D01*
X12618Y48759D01*
X13771Y48282D01*
X14509Y48185D01*
Y52400D01*
D02*
G37*
G36*
X19724D02*
X15509D01*
Y48185D01*
X16246Y48282D01*
X17399Y48759D01*
X18389Y49519D01*
X19149Y50510D01*
X19627Y51663D01*
X19724Y52400D01*
D02*
G37*
G36*
X-9500Y13716D02*
Y10500D01*
X-6284D01*
X-6346Y10979D01*
X-6724Y11891D01*
X-7326Y12675D01*
X-8109Y13276D01*
X-9021Y13654D01*
X-9500Y13716D01*
D02*
G37*
G36*
X9500Y13817D02*
X8995Y13751D01*
X8058Y13363D01*
X7254Y12746D01*
X6637Y11942D01*
X6249Y11005D01*
X6183Y10500D01*
X9500D01*
Y13817D01*
D02*
G37*
G36*
X10500D02*
Y10500D01*
X13817D01*
X13751Y11005D01*
X13363Y11942D01*
X12746Y12746D01*
X11942Y13363D01*
X11005Y13751D01*
X10500Y13817D01*
D02*
G37*
G36*
X78500Y86096D02*
X77583Y85914D01*
X76806Y85394D01*
X76286Y84617D01*
X76104Y83700D01*
X76286Y82783D01*
X76461Y82522D01*
Y65300D01*
X76616Y64520D01*
X77058Y63858D01*
X77125Y63791D01*
X77186Y63483D01*
X77706Y62706D01*
X78483Y62186D01*
X79400Y62004D01*
X80317Y62186D01*
X81094Y62706D01*
X81614Y63483D01*
X81796Y64400D01*
X81614Y65317D01*
X81094Y66094D01*
X80539Y66465D01*
Y82522D01*
X80714Y82783D01*
X80896Y83700D01*
X80714Y84617D01*
X80194Y85394D01*
X79417Y85914D01*
X78500Y86096D01*
D02*
G37*
G36*
X134134Y108850D02*
X126634D01*
Y101350D01*
X127400D01*
X127610Y100956D01*
X127610Y100850D01*
X127461Y100100D01*
X127616Y99320D01*
X128058Y98658D01*
X128401Y98315D01*
X128499Y97820D01*
X128942Y97158D01*
X129603Y96716D01*
X130099Y96618D01*
X137184Y89532D01*
X137152Y89033D01*
X137104Y88996D01*
X136543Y88265D01*
X136190Y87414D01*
X136070Y86500D01*
X136079Y86427D01*
Y84009D01*
X136157Y83619D01*
X136164Y83609D01*
X136157Y83599D01*
X136079Y83209D01*
Y80773D01*
X136070Y80700D01*
X136190Y79786D01*
X136543Y78935D01*
X136778Y78629D01*
X134431Y76282D01*
X133583Y76114D01*
X132806Y75594D01*
X132286Y74817D01*
X132104Y73900D01*
X132286Y72983D01*
X132806Y72206D01*
X133583Y71686D01*
X134500Y71504D01*
X135417Y71686D01*
X136194Y72206D01*
X136714Y72983D01*
X136882Y73831D01*
X140315Y77264D01*
X140514Y77290D01*
X141365Y77643D01*
X142096Y78204D01*
X142274Y78435D01*
X143798D01*
X143811Y78403D01*
X144372Y77672D01*
X145103Y77111D01*
X145955Y76759D01*
X146869Y76638D01*
X147067Y76464D01*
Y68414D01*
X146567Y68146D01*
X146017Y68514D01*
X145100Y68696D01*
X144183Y68514D01*
X143406Y67994D01*
X142886Y67217D01*
X142704Y66300D01*
X142886Y65383D01*
X143406Y64606D01*
X143774Y64359D01*
Y30274D01*
X143506Y30094D01*
X142986Y29317D01*
X142804Y28400D01*
X142986Y27483D01*
X143506Y26706D01*
X144283Y26186D01*
X145200Y26004D01*
X146117Y26186D01*
X146894Y26706D01*
X147414Y27483D01*
X147596Y28400D01*
X147414Y29317D01*
X146894Y30094D01*
X146425Y30408D01*
Y58724D01*
X146925Y58876D01*
X147106Y58606D01*
X147883Y58086D01*
X148800Y57904D01*
X149717Y58086D01*
X150494Y58606D01*
X151014Y59383D01*
X151196Y60300D01*
X151014Y61217D01*
X150533Y61936D01*
Y76008D01*
X151895Y77370D01*
X151895Y77370D01*
X152146Y77746D01*
X152271Y77932D01*
X152403Y78596D01*
X152403Y78596D01*
Y84470D01*
X152271Y85133D01*
X151895Y85695D01*
X150396Y87194D01*
X150055Y87422D01*
X149926Y87734D01*
X149365Y88465D01*
X148634Y89026D01*
X147782Y89378D01*
X146869Y89499D01*
X145955Y89378D01*
X145103Y89026D01*
X144372Y88465D01*
X143811Y87734D01*
X143554Y87112D01*
X143041Y87180D01*
X143010Y87414D01*
X142657Y88265D01*
X142096Y88996D01*
X141639Y89347D01*
Y90000D01*
X141484Y90780D01*
X141042Y91442D01*
X132423Y100061D01*
Y101350D01*
X134134D01*
Y108850D01*
D02*
G37*
G36*
X51400Y84796D02*
X50483Y84614D01*
X49706Y84094D01*
X49186Y83317D01*
X49004Y82400D01*
X49186Y81483D01*
X49706Y80706D01*
X50024Y80493D01*
Y78809D01*
X49525Y78542D01*
X49417Y78614D01*
X48500Y78796D01*
X47583Y78614D01*
X46806Y78094D01*
X46286Y77317D01*
X46104Y76400D01*
X46191Y75965D01*
X45693Y75467D01*
X45405Y75037D01*
X45305Y74530D01*
Y73954D01*
X44804Y73718D01*
X44080Y74313D01*
X43037Y74870D01*
X41906Y75213D01*
X40730Y75329D01*
X39554Y75213D01*
X38423Y74870D01*
X37380Y74313D01*
X36467Y73563D01*
X35717Y72650D01*
X35160Y71607D01*
X34817Y70476D01*
X34701Y69300D01*
X34817Y68124D01*
X35160Y66993D01*
X35717Y65951D01*
X36467Y65037D01*
X37380Y64287D01*
X38423Y63730D01*
X39554Y63387D01*
X40730Y63271D01*
X41906Y63387D01*
X43037Y63730D01*
X44080Y64287D01*
X44804Y64882D01*
X45305Y64645D01*
Y61533D01*
X45405Y61026D01*
X45575Y60773D01*
Y51749D01*
X44235Y50410D01*
X43800Y50496D01*
X42883Y50314D01*
X42106Y49794D01*
X41586Y49017D01*
X41404Y48100D01*
X41586Y47183D01*
X42106Y46406D01*
X42883Y45886D01*
X43800Y45704D01*
X44717Y45886D01*
X45283Y46264D01*
X45602Y45876D01*
X44435Y44710D01*
X44000Y44796D01*
X43083Y44614D01*
X42306Y44094D01*
X41786Y43317D01*
X41604Y42400D01*
X41786Y41483D01*
X42306Y40706D01*
X43083Y40186D01*
X44000Y40004D01*
X44917Y40186D01*
X45694Y40706D01*
X46214Y41483D01*
X46396Y42400D01*
X46310Y42835D01*
X49105Y45630D01*
X49567Y45439D01*
Y41518D01*
X46275Y38227D01*
X45900Y37664D01*
X45768Y37001D01*
Y28679D01*
X45736Y28666D01*
X45005Y28105D01*
X44729Y27745D01*
X44643Y27714D01*
X44113Y27764D01*
X43697Y28305D01*
X42966Y28866D01*
X42115Y29219D01*
X41201Y29339D01*
X40287Y29219D01*
X39436Y28866D01*
X38705Y28305D01*
X38144Y27574D01*
X37791Y26722D01*
X37671Y25809D01*
X37680Y25736D01*
Y23300D01*
X37758Y22910D01*
X37765Y22900D01*
X37758Y22890D01*
X37680Y22500D01*
Y20081D01*
X37671Y20009D01*
X37716Y19669D01*
X33930Y15883D01*
X29087D01*
X28770Y16270D01*
X28796Y16400D01*
X28614Y17317D01*
X28094Y18094D01*
X27317Y18614D01*
X26400Y18796D01*
X25965Y18710D01*
X13737Y30937D01*
X13307Y31225D01*
X12800Y31326D01*
X-6490D01*
X-6724Y31891D01*
X-7326Y32675D01*
X-8109Y33276D01*
X-9021Y33654D01*
X-10000Y33782D01*
X-10979Y33654D01*
X-11891Y33276D01*
X-12675Y32675D01*
X-13276Y31891D01*
X-13654Y30979D01*
X-13782Y30000D01*
X-13654Y29021D01*
X-13276Y28109D01*
X-12675Y27325D01*
X-11891Y26724D01*
X-10979Y26346D01*
X-10000Y26218D01*
X-9021Y26346D01*
X-8109Y26724D01*
X-7326Y27325D01*
X-6724Y28109D01*
X-6490Y28675D01*
X12251D01*
X19162Y21763D01*
X18916Y21302D01*
X18800Y21326D01*
X-6490D01*
X-6724Y21891D01*
X-7326Y22674D01*
X-8109Y23276D01*
X-9021Y23653D01*
X-10000Y23782D01*
X-10979Y23653D01*
X-11891Y23276D01*
X-12675Y22674D01*
X-13276Y21891D01*
X-13654Y20979D01*
X-13782Y20000D01*
X-13654Y19021D01*
X-13276Y18109D01*
X-12675Y17325D01*
X-11891Y16724D01*
X-10979Y16346D01*
X-10000Y16218D01*
X-9021Y16346D01*
X-8109Y16724D01*
X-7326Y17325D01*
X-6724Y18109D01*
X-6490Y18675D01*
X18251D01*
X20491Y16435D01*
X20404Y16000D01*
X20586Y15083D01*
X21106Y14306D01*
X21324Y14160D01*
X21087Y13717D01*
X21005Y13751D01*
X20000Y13883D01*
X18995Y13751D01*
X18058Y13363D01*
X17254Y12746D01*
X16637Y11942D01*
X16249Y11005D01*
X16117Y10000D01*
X16249Y8995D01*
X16637Y8058D01*
X17254Y7254D01*
X18058Y6637D01*
X18995Y6249D01*
X20000Y6117D01*
X21005Y6249D01*
X21942Y6637D01*
X22746Y7254D01*
X23363Y8058D01*
X23449Y8267D01*
X24131D01*
X24794Y8399D01*
X25357Y8774D01*
X25771Y9189D01*
X26245Y9028D01*
X26249Y8995D01*
X26637Y8058D01*
X27254Y7254D01*
X28058Y6637D01*
X28995Y6249D01*
X30000Y6117D01*
X31005Y6249D01*
X31942Y6637D01*
X32746Y7254D01*
X33363Y8058D01*
X33751Y8995D01*
X33883Y10000D01*
X33751Y11005D01*
X33363Y11942D01*
X33342Y11968D01*
X33564Y12417D01*
X34648D01*
X35312Y12549D01*
X35874Y12924D01*
X38754Y15804D01*
X39002Y15672D01*
X39197Y15540D01*
X39375Y14642D01*
X39629Y14263D01*
X39422Y13807D01*
X38995Y13751D01*
X38058Y13363D01*
X37254Y12746D01*
X36637Y11942D01*
X36249Y11005D01*
X36117Y10000D01*
X36249Y8995D01*
X36637Y8058D01*
X37254Y7254D01*
X38058Y6637D01*
X38995Y6249D01*
X40000Y6117D01*
X41005Y6249D01*
X41942Y6637D01*
X42746Y7254D01*
X43363Y8058D01*
X43751Y8995D01*
X43883Y10000D01*
X43751Y11005D01*
X43363Y11942D01*
X42746Y12746D01*
X42564Y12886D01*
X42656Y13445D01*
X43231Y13829D01*
X43251Y13825D01*
X43914Y13957D01*
X44477Y14333D01*
X46556Y16412D01*
X46587Y16399D01*
X47501Y16278D01*
X48415Y16399D01*
X49266Y16751D01*
X49997Y17312D01*
X50558Y18044D01*
X50911Y18895D01*
X51031Y19809D01*
X51020Y19898D01*
Y22300D01*
X50942Y22690D01*
X50935Y22700D01*
X50942Y22710D01*
X51020Y23100D01*
Y25520D01*
X51031Y25609D01*
X50911Y26522D01*
X50558Y27374D01*
X49997Y28105D01*
X49266Y28666D01*
X49234Y28679D01*
Y36283D01*
X52526Y39574D01*
X52675Y39797D01*
X53175Y39645D01*
Y15849D01*
X51175Y13850D01*
X46150D01*
Y6150D01*
X52822D01*
X53014Y5688D01*
X51056Y3730D01*
X51005Y3751D01*
X50000Y3883D01*
X48995Y3751D01*
X48058Y3363D01*
X47254Y2746D01*
X46637Y1942D01*
X46249Y1005D01*
X46117Y0D01*
X46249Y-1005D01*
X46637Y-1942D01*
X47254Y-2746D01*
X48058Y-3363D01*
X48995Y-3751D01*
X50000Y-3883D01*
X51005Y-3751D01*
X51942Y-3363D01*
X52746Y-2746D01*
X53363Y-1942D01*
X53751Y-1005D01*
X53883Y0D01*
X53751Y1005D01*
X53363Y1942D01*
X53212Y2138D01*
X56674Y5599D01*
X57216Y5435D01*
X57286Y5083D01*
X57806Y4306D01*
X58583Y3786D01*
X59500Y3604D01*
X60417Y3786D01*
X61194Y4306D01*
X61714Y5083D01*
X61896Y6000D01*
X61714Y6917D01*
X61194Y7694D01*
X60826Y7941D01*
Y10195D01*
X61266Y10431D01*
X61483Y10286D01*
X62400Y10104D01*
X63317Y10286D01*
X63674Y10525D01*
X64174Y10300D01*
X64275Y9793D01*
X64311Y9739D01*
X64204Y9200D01*
X64386Y8283D01*
X64906Y7506D01*
X65683Y6986D01*
X66600Y6804D01*
X67517Y6986D01*
X68294Y7506D01*
X68814Y8283D01*
X68996Y9200D01*
X68814Y10117D01*
X68294Y10894D01*
X68111Y11016D01*
X68217Y11547D01*
X68917Y11686D01*
X69274Y11925D01*
X69775Y11658D01*
Y-659D01*
X69406Y-906D01*
X68886Y-1683D01*
X68704Y-2600D01*
X68886Y-3517D01*
X69406Y-4294D01*
X70183Y-4814D01*
X71100Y-4996D01*
X72017Y-4814D01*
X72794Y-4294D01*
X73314Y-3517D01*
X73496Y-2600D01*
X73314Y-1683D01*
X72794Y-906D01*
X72426Y-659D01*
Y27906D01*
X72325Y28414D01*
X72037Y28844D01*
X71475Y29405D01*
Y31789D01*
X71891Y32067D01*
X72008Y32018D01*
X72700Y31927D01*
X73392Y32018D01*
X74036Y32285D01*
X74590Y32710D01*
X75015Y33264D01*
X75282Y33908D01*
X75373Y34600D01*
X75282Y35292D01*
X75015Y35936D01*
X74590Y36490D01*
X74036Y36915D01*
X73392Y37182D01*
X72700Y37273D01*
X72008Y37182D01*
X71891Y37133D01*
X71475Y37411D01*
Y40409D01*
X71844Y40656D01*
X72364Y41433D01*
X72546Y42350D01*
X72364Y43267D01*
X71844Y44044D01*
X71067Y44564D01*
X70150Y44746D01*
X69576Y44632D01*
X69076Y45014D01*
Y56149D01*
X69125Y56400D01*
Y59068D01*
X69217Y59086D01*
X69994Y59606D01*
X70514Y60383D01*
X70696Y61300D01*
X70514Y62217D01*
X69994Y62994D01*
X69217Y63514D01*
X68300Y63696D01*
X67383Y63514D01*
X66606Y62994D01*
X66086Y62217D01*
X65904Y61300D01*
X66065Y60490D01*
X65594Y60295D01*
X65394Y60594D01*
X64617Y61114D01*
X63700Y61296D01*
X62783Y61114D01*
X62006Y60594D01*
X61486Y59817D01*
X61304Y58900D01*
X61391Y58465D01*
X60063Y57137D01*
X59775Y56707D01*
X59675Y56200D01*
Y18628D01*
X59411Y18418D01*
X58925Y18633D01*
Y21606D01*
X58825Y22113D01*
X58537Y22543D01*
X57626Y23455D01*
Y31589D01*
X57687Y31651D01*
X57975Y32081D01*
X58075Y32588D01*
Y50850D01*
X57975Y51357D01*
X57687Y51787D01*
X57257Y52075D01*
X56936Y52139D01*
X55809Y53265D01*
X55896Y53700D01*
X55714Y54617D01*
X55194Y55394D01*
X54417Y55914D01*
X53500Y56096D01*
X52970Y55991D01*
X52583Y56308D01*
Y63184D01*
X55353Y65954D01*
X55728Y66516D01*
X55860Y67179D01*
Y71309D01*
X64269Y79718D01*
X65117Y79886D01*
X65894Y80406D01*
X66414Y81183D01*
X66596Y82100D01*
X66414Y83017D01*
X65894Y83794D01*
X65117Y84314D01*
X64200Y84496D01*
X63283Y84314D01*
X62506Y83794D01*
X61986Y83017D01*
X61818Y82169D01*
X52901Y73253D01*
X52526Y72690D01*
X52394Y72027D01*
Y67897D01*
X50237Y65741D01*
X49775Y65932D01*
Y72601D01*
X52337Y75163D01*
X52625Y75593D01*
X52725Y76100D01*
Y78418D01*
X52675Y78669D01*
Y80426D01*
X53094Y80706D01*
X53614Y81483D01*
X53796Y82400D01*
X53614Y83317D01*
X53094Y84094D01*
X52317Y84614D01*
X51400Y84796D01*
D02*
G37*
G36*
X14509Y57615D02*
X13771Y57518D01*
X12618Y57041D01*
X11628Y56281D01*
X10868Y55291D01*
X10390Y54137D01*
X10293Y53400D01*
X14509D01*
Y57615D01*
D02*
G37*
G36*
X15509D02*
Y53400D01*
X19724D01*
X19627Y54137D01*
X19149Y55291D01*
X18389Y56281D01*
X17399Y57041D01*
X16246Y57518D01*
X15509Y57615D01*
D02*
G37*
G36*
X41200Y95196D02*
X40283Y95014D01*
X39506Y94494D01*
X38986Y93717D01*
X38925Y93409D01*
X30058Y84542D01*
X29616Y83880D01*
X29461Y83100D01*
Y66172D01*
X29616Y65392D01*
X30058Y64730D01*
X31311Y63477D01*
Y62050D01*
X31466Y61270D01*
X31908Y60608D01*
X35497Y57019D01*
X35497Y57019D01*
X36159Y56577D01*
X36939Y56422D01*
X36939Y56422D01*
X39361D01*
X39623Y56247D01*
X40539Y56065D01*
X41456Y56247D01*
X42234Y56766D01*
X42753Y57544D01*
X42935Y58461D01*
X42753Y59378D01*
X42234Y60155D01*
X41456Y60674D01*
X40539Y60857D01*
X39623Y60674D01*
X39361Y60500D01*
X37784D01*
X35389Y62895D01*
Y64322D01*
X35389Y64322D01*
X35234Y65102D01*
X34792Y65764D01*
X34792Y65764D01*
X33539Y67017D01*
Y82255D01*
X41809Y90525D01*
X42117Y90586D01*
X42894Y91106D01*
X43414Y91883D01*
X43596Y92800D01*
X43414Y93717D01*
X42894Y94494D01*
X42117Y95014D01*
X41200Y95196D01*
D02*
G37*
%LPD*%
D23*
X79750Y6750D02*
Y18471D01*
X76400Y3400D02*
X79750Y6750D01*
X79550Y18671D02*
X79750Y18471D01*
X79550Y18671D02*
Y26456D01*
X80250Y27156D01*
X80750Y25850D02*
X84900Y30000D01*
X80750Y19168D02*
Y25850D01*
Y19168D02*
X81600Y18318D01*
Y6282D02*
Y18318D01*
X81150Y5832D02*
X81600Y6282D01*
X81150Y3968D02*
Y5832D01*
Y3968D02*
X81600Y3518D01*
X77050Y9550D02*
Y25653D01*
Y9550D02*
X77500Y9100D01*
X77050Y25653D02*
X78000Y26603D01*
X94550Y60368D02*
X96950Y57968D01*
Y52868D02*
Y57968D01*
X91200Y54118D02*
X93768Y51550D01*
X91200Y54118D02*
Y54300D01*
X93950Y51550D02*
X94200Y51300D01*
X93768Y51550D02*
X93950D01*
X96100Y52018D02*
X96950Y52868D01*
X96100Y18400D02*
Y52018D01*
X101700Y80300D02*
X105700Y84300D01*
X106100D01*
X107100Y86482D02*
Y89000D01*
Y86482D02*
X108350Y85232D01*
Y83368D02*
Y85232D01*
X107032Y82050D02*
X108350Y83368D01*
X106632Y82050D02*
X107032D01*
X105350Y80768D02*
X106632Y82050D01*
X90800Y95800D02*
X92200Y94400D01*
Y61900D02*
Y94400D01*
X51350Y78468D02*
Y82350D01*
X51400Y82400D01*
X51350Y78468D02*
X51400Y78418D01*
Y76100D02*
Y78418D01*
X53500Y53700D02*
X56350Y50850D01*
X56750D01*
X48450Y52732D02*
X49150Y52032D01*
Y50168D02*
Y52032D01*
X48450Y52732D02*
Y73150D01*
X51400Y76100D01*
X70150Y29156D02*
Y42350D01*
X70000Y29006D02*
X70150Y29156D01*
X99050Y38100D02*
X101000Y36150D01*
X99050Y30050D02*
X101000Y32000D01*
Y36150D01*
X102200Y31503D02*
Y36647D01*
X101700Y37147D02*
Y80300D01*
Y37147D02*
X102200Y36647D01*
X99050Y15550D02*
Y30050D01*
X101700Y31003D02*
X102200Y31503D01*
X101700Y15800D02*
Y31003D01*
X99050Y38100D02*
Y74832D01*
X95200Y11700D02*
X99050Y15550D01*
X98600Y75282D02*
X99050Y74832D01*
X-10000Y30000D02*
X12800D01*
X26400Y16400D01*
X18800Y20000D02*
X22800Y16000D01*
X-10000Y20000D02*
X18800D01*
X67800Y60800D02*
X68300Y61300D01*
X67800Y56400D02*
Y60800D01*
X46900Y51200D02*
Y61263D01*
X46630Y61533D02*
X46900Y61263D01*
X43800Y48100D02*
X46900Y51200D01*
X49000Y47400D02*
Y50018D01*
X44000Y42400D02*
X49000Y47400D01*
X71100Y-2600D02*
Y27906D01*
X70000Y29006D02*
X71100Y27906D01*
X76300Y-3800D02*
X77000D01*
X81600Y800D01*
X56300Y22906D02*
X57600Y21606D01*
Y8400D02*
Y21606D01*
X49300Y100D02*
X57600Y8400D01*
X105100Y6500D02*
Y12400D01*
X95200Y11295D02*
Y11700D01*
X94000Y16300D02*
X96100Y18400D01*
X46630Y74530D02*
X48500Y76400D01*
X46630Y61533D02*
Y74530D01*
X145100Y28500D02*
Y66300D01*
Y28500D02*
X145200Y28400D01*
X49000Y50018D02*
X49150Y50168D01*
X86250Y7750D02*
Y12103D01*
X83400Y4900D02*
X86250Y7750D01*
X81600Y800D02*
Y3518D01*
X85250Y30000D02*
Y33144D01*
X94200Y29100D02*
Y51300D01*
X92300Y27200D02*
X94200Y29100D01*
X88700Y25400D02*
Y58400D01*
X92200Y61900D01*
X94550Y74832D02*
X96100Y76382D01*
X94550Y72968D02*
X96100Y71418D01*
X94550Y62232D02*
X96100Y63782D01*
Y71418D01*
Y76382D02*
Y83800D01*
X94550Y72968D02*
Y74832D01*
Y60368D02*
Y62232D01*
X94500Y85400D02*
X96100Y83800D01*
X61000Y56200D02*
X63700Y58900D01*
X63250Y54350D02*
X63800Y54900D01*
X105350Y17250D02*
Y80768D01*
Y17250D02*
X105400Y17200D01*
X98600Y75282D02*
Y94100D01*
X62400Y12500D02*
X63250Y13350D01*
X61000Y18000D02*
Y56200D01*
X59500Y16500D02*
X61000Y18000D01*
X59500Y6000D02*
Y16500D01*
X63250Y13350D02*
Y54350D01*
X84800Y38200D02*
Y96300D01*
Y38200D02*
X85750Y37250D01*
Y33644D02*
Y37250D01*
X85250Y33144D02*
X85750Y33644D01*
X86250Y12103D02*
X86550Y12403D01*
Y23250D01*
X88700Y25400D01*
X98600Y94100D02*
X100000Y95500D01*
X101700Y15800D02*
X105100Y12400D01*
X80250Y27156D02*
Y54450D01*
X56750Y32588D02*
Y50850D01*
X56300Y32138D02*
X56750Y32588D01*
X56300Y22906D02*
Y32138D01*
X67750Y23400D02*
Y59050D01*
X68000Y13900D02*
Y23150D01*
X67750Y23400D02*
X68000Y23150D01*
X65500Y10300D02*
Y43300D01*
Y10300D02*
X66600Y9200D01*
X54500Y15300D02*
Y47600D01*
X78000Y26603D02*
Y53200D01*
X49300Y10100D02*
X54500Y15300D01*
X80250Y54450D02*
X81200Y55400D01*
D24*
X54127Y72027D02*
X64200Y82100D01*
X50850Y63902D02*
X54127Y67179D01*
Y72027D01*
X50850Y52602D02*
Y63902D01*
Y52602D02*
X51300Y52152D01*
Y40800D02*
Y52152D01*
X47501Y37001D02*
X51300Y40800D01*
X149171Y85969D02*
X150670Y84470D01*
X146869Y85969D02*
X149171D01*
X150670Y78596D02*
Y84470D01*
X119181Y37186D02*
X119300Y37067D01*
Y30700D02*
Y37067D01*
X111300Y46200D02*
Y58500D01*
Y46200D02*
X119181Y38319D01*
Y37186D02*
Y38319D01*
X114150Y22151D02*
X119300Y27301D01*
Y30700D01*
X114150Y-3350D02*
Y22151D01*
X123486Y37186D02*
X128700Y42400D01*
X119181Y37186D02*
X123486D01*
X148800Y76726D02*
X150670Y78596D01*
X148800Y60300D02*
Y76726D01*
X111300Y58500D02*
Y81900D01*
X110900Y86900D02*
X111700Y86100D01*
Y82300D02*
Y86100D01*
X111300Y81900D02*
X111700Y82300D01*
X114150Y-3350D02*
X116300Y-5500D01*
X34648Y14150D02*
X40507Y20009D01*
X28281Y14150D02*
X34648D01*
X24131Y10000D02*
X28281Y14150D01*
X20000Y10000D02*
X24131D01*
X47501Y25609D02*
Y37001D01*
X40507Y20009D02*
X41201D01*
X43251Y15559D02*
X47501Y19809D01*
X139600Y80700D02*
X140131Y80168D01*
X146869D01*
X134500Y73900D02*
X139600Y79000D01*
Y80700D01*
X41201Y25809D02*
X41401Y25609D01*
X47101D01*
D25*
X36939Y58461D02*
X40539D01*
X33350Y62050D02*
X36939Y58461D01*
X33350Y62050D02*
Y64322D01*
X31500Y83100D02*
X41200Y92800D01*
X31500Y66172D02*
Y83100D01*
Y66172D02*
X33350Y64322D01*
X129500Y100100D02*
X139600Y90000D01*
X130384Y98600D02*
Y105100D01*
X139600Y86500D02*
Y90000D01*
X78500Y65300D02*
X79400Y64400D01*
X78500Y65300D02*
Y83700D01*
D26*
X40730Y69300D02*
D03*
X119470D02*
D03*
D27*
X-10000Y30000D02*
D03*
Y10000D02*
D03*
Y20000D02*
D03*
X120384Y105100D02*
D03*
X141000Y104800D02*
D03*
D28*
X-10000Y0D02*
D03*
D29*
X91400Y33900D02*
D03*
X115700Y50300D02*
D03*
X72700Y34600D02*
D03*
X83200Y34700D02*
D03*
D30*
X130384Y105100D02*
D03*
X151000Y104800D02*
D03*
D31*
X50000Y10000D02*
D03*
X140000D02*
D03*
D32*
X40000D02*
D03*
X30000D02*
D03*
X20000D02*
D03*
X10000D02*
D03*
X0D02*
D03*
X50000Y0D02*
D03*
X40000D02*
D03*
X30000D02*
D03*
X20000D02*
D03*
X10000D02*
D03*
X0D02*
D03*
X130000Y10000D02*
D03*
X120000D02*
D03*
X110000D02*
D03*
X100000D02*
D03*
X90000D02*
D03*
X140000Y0D02*
D03*
X130000D02*
D03*
X120000D02*
D03*
X110000D02*
D03*
X100000D02*
D03*
X90000D02*
D03*
D33*
X15009Y102900D02*
D03*
Y52900D02*
D03*
D34*
X83000Y20100D02*
D03*
X77500Y9100D02*
D03*
X64900Y78500D02*
D03*
X94700Y53800D02*
D03*
X106100Y84300D02*
D03*
X107100Y89000D02*
D03*
X90800Y95800D02*
D03*
X53600Y86200D02*
D03*
X62200Y86800D02*
D03*
X53600Y79400D02*
D03*
X53500Y53700D02*
D03*
X70150Y42350D02*
D03*
X98400Y33800D02*
D03*
X82100Y71500D02*
D03*
X72000Y84600D02*
D03*
X30400Y63100D02*
D03*
X18100Y92800D02*
D03*
X18300Y77600D02*
D03*
X23300Y98400D02*
D03*
X15200Y71400D02*
D03*
X27300Y55100D02*
D03*
X4400Y39600D02*
D03*
X51300Y34800D02*
D03*
X33700Y22000D02*
D03*
X42700Y35600D02*
D03*
X28800Y36100D02*
D03*
X2300Y26900D02*
D03*
X5400Y15700D02*
D03*
X15600Y5100D02*
D03*
X148600Y4400D02*
D03*
X125800Y4900D02*
D03*
X64600Y800D02*
D03*
X74400Y17200D02*
D03*
X93600Y21500D02*
D03*
X108100Y32300D02*
D03*
X109700Y23700D02*
D03*
X136800Y22200D02*
D03*
X149600Y41300D02*
D03*
X136800Y36400D02*
D03*
X135400Y52000D02*
D03*
X130300Y65600D02*
D03*
X130000Y84700D02*
D03*
X141200Y96800D02*
D03*
X114700Y97300D02*
D03*
X104200Y102900D02*
D03*
X71500Y73700D02*
D03*
X87900Y78500D02*
D03*
X89700Y102900D02*
D03*
X28400Y103300D02*
D03*
X52500Y93400D02*
D03*
X43300Y77800D02*
D03*
X43500Y62000D02*
D03*
X58600Y29900D02*
D03*
X82500Y39900D02*
D03*
X109000Y43400D02*
D03*
X108300Y69300D02*
D03*
X88000Y64700D02*
D03*
X72800Y56700D02*
D03*
X26400Y16400D02*
D03*
X22800Y16000D02*
D03*
X43800Y48100D02*
D03*
X44000Y42400D02*
D03*
X41200Y92800D02*
D03*
X44500Y84200D02*
D03*
X71100Y-2600D02*
D03*
X76300Y-3800D02*
D03*
X128600Y31200D02*
D03*
X128500Y37200D02*
D03*
X148800Y60300D02*
D03*
X79400Y64400D02*
D03*
X81800Y83600D02*
D03*
X78500Y83700D02*
D03*
X34700Y52200D02*
D03*
X111300Y58500D02*
D03*
X110900Y86900D02*
D03*
X111700Y82300D02*
D03*
X105100Y6500D02*
D03*
X116300Y-5500D02*
D03*
X95200Y11295D02*
D03*
X94000Y16300D02*
D03*
X85800Y-5400D02*
D03*
X37600Y28700D02*
D03*
X41589Y15559D02*
D03*
X50600Y29400D02*
D03*
X64200Y82100D02*
D03*
X51400Y82400D02*
D03*
X64300Y74300D02*
D03*
X83400Y4900D02*
D03*
X76400Y3400D02*
D03*
X63700Y58900D02*
D03*
X63800Y54900D02*
D03*
X68300Y61300D02*
D03*
X50700Y67500D02*
D03*
X107600Y59600D02*
D03*
Y74100D02*
D03*
X96800Y61300D02*
D03*
Y73900D02*
D03*
X62400Y12500D02*
D03*
X84800Y96300D02*
D03*
X91200Y54300D02*
D03*
X94500Y85400D02*
D03*
X100000Y95500D02*
D03*
X105400Y17200D02*
D03*
X111800Y32700D02*
D03*
X110700Y37100D02*
D03*
X92300Y27200D02*
D03*
X88800Y20700D02*
D03*
X74500Y21400D02*
D03*
X68000Y13900D02*
D03*
X145200Y28400D02*
D03*
X145100Y66300D02*
D03*
X134500Y73900D02*
D03*
X66600Y9200D02*
D03*
X65500Y43300D02*
D03*
X54500Y47600D02*
D03*
X87800Y108600D02*
D03*
X128700Y42400D02*
D03*
X129400Y46600D02*
D03*
X129000Y55500D02*
D03*
X59500Y6000D02*
D03*
X124556Y80756D02*
D03*
X-4700Y25200D02*
D03*
X63800Y67300D02*
D03*
X63900Y70800D02*
D03*
X81200Y55400D02*
D03*
X78000Y53200D02*
D03*
X26100Y24600D02*
D03*
X124700Y92800D02*
D03*
X48500Y76400D02*
D03*
X40539Y58461D02*
D03*
X75400Y108900D02*
D03*
D35*
X41201Y25809D02*
D03*
Y20009D02*
D03*
X139600Y80700D02*
D03*
Y86500D02*
D03*
X113381Y37186D02*
D03*
X119181D02*
D03*
X113500Y30700D02*
D03*
X119300D02*
D03*
X146869Y80168D02*
D03*
Y85969D02*
D03*
X47501Y25609D02*
D03*
Y19809D02*
D03*
D36*
X146869Y80968D02*
Y85969D01*
X47501Y19809D02*
Y24809D01*
D37*
X41200Y21250D02*
D03*
Y24550D02*
D03*
X139599Y85259D02*
D03*
Y81959D02*
D03*
X146870Y84727D02*
D03*
Y81427D02*
D03*
X47500Y21050D02*
D03*
Y24350D02*
D03*
D38*
X117922Y37187D02*
D03*
X114622D02*
D03*
X118041Y30701D02*
D03*
X114741D02*
D03*
M02*
