%FSLAX25Y25*%
%MOIN*%
G70*
G01*
G75*
G04 Layer_Color=8388736*
%ADD10R,0.03150X0.03347*%
%ADD11R,0.02362X0.04724*%
%ADD12R,0.03347X0.03150*%
%ADD13R,0.08661X0.11024*%
%ADD14R,0.11024X0.11024*%
%ADD15C,0.00600*%
%ADD16C,0.01200*%
%ADD17C,0.00800*%
%ADD18C,0.06000*%
%ADD19R,0.05500X0.05500*%
%ADD20C,0.05500*%
%ADD21R,0.05500X0.05500*%
%ADD22C,0.05700*%
%ADD23R,0.05700X0.05700*%
%ADD24C,0.10236*%
%ADD25C,0.05118*%
%ADD26R,0.05118X0.05118*%
%ADD27C,0.04000*%
%ADD28C,0.06299*%
%ADD29R,0.06299X0.06299*%
%ADD30C,0.15748*%
%ADD31C,0.11575*%
%ADD32C,0.09843*%
%ADD33C,0.08300*%
%ADD34C,0.02700*%
%ADD35C,0.00984*%
%ADD36C,0.05906*%
%ADD37C,0.00600*%
%ADD38C,0.01000*%
%ADD39C,0.00100*%
%ADD40C,0.00787*%
%ADD41C,0.00591*%
%ADD42R,0.03950X0.04147*%
%ADD43R,0.03162X0.05524*%
%ADD44R,0.04147X0.03950*%
%ADD45R,0.09461X0.11824*%
%ADD46R,0.11824X0.11824*%
%ADD47C,0.06800*%
%ADD48R,0.06300X0.06300*%
%ADD49C,0.06300*%
%ADD50R,0.06300X0.06300*%
%ADD51C,0.06500*%
%ADD52R,0.06500X0.06500*%
%ADD53C,0.11036*%
%ADD54C,0.05918*%
%ADD55R,0.05918X0.05918*%
%ADD56C,0.04800*%
%ADD57C,0.07099*%
%ADD58R,0.07099X0.07099*%
%ADD59C,0.16548*%
%ADD60C,0.10642*%
%ADD61C,0.09100*%
D42*
X67300Y27500D02*
D03*
X72812D02*
D03*
X83912Y27300D02*
D03*
X78400D02*
D03*
X45000Y27600D02*
D03*
X50512D02*
D03*
X61512Y27400D02*
D03*
X56000D02*
D03*
X281212Y158900D02*
D03*
X275700D02*
D03*
X228300Y140500D02*
D03*
X233812D02*
D03*
X179512Y141700D02*
D03*
X174000D02*
D03*
D43*
X71160Y42757D02*
D03*
X78640D02*
D03*
X74900Y49843D02*
D03*
X114016Y42857D02*
D03*
X121496D02*
D03*
X117756Y49943D02*
D03*
X92516Y43357D02*
D03*
X99996D02*
D03*
X96256Y50443D02*
D03*
X51016Y42557D02*
D03*
X58496D02*
D03*
X54756Y49643D02*
D03*
X35416Y42357D02*
D03*
X42896D02*
D03*
X39156Y49443D02*
D03*
D44*
X66056Y114256D02*
D03*
Y108744D02*
D03*
X52356Y114256D02*
D03*
Y108744D02*
D03*
X72906Y114256D02*
D03*
Y108744D02*
D03*
X65156Y42144D02*
D03*
Y47656D02*
D03*
X86356Y42544D02*
D03*
Y48056D02*
D03*
X59206Y114256D02*
D03*
Y108744D02*
D03*
X107956Y42444D02*
D03*
Y47956D02*
D03*
X7514Y127856D02*
D03*
Y122344D02*
D03*
X12514Y127856D02*
D03*
Y122344D02*
D03*
X268656Y7544D02*
D03*
Y13056D02*
D03*
X279356Y176256D02*
D03*
Y170744D02*
D03*
X279400Y191456D02*
D03*
Y185944D02*
D03*
X273756Y176356D02*
D03*
Y170844D02*
D03*
X274100Y191456D02*
D03*
Y185944D02*
D03*
X90056Y19147D02*
D03*
Y25053D02*
D03*
Y13956D02*
D03*
Y8444D02*
D03*
X26975Y127427D02*
D03*
Y121916D02*
D03*
X22071Y127356D02*
D03*
Y121844D02*
D03*
X40800Y127556D02*
D03*
Y122044D02*
D03*
X35800Y127456D02*
D03*
Y121944D02*
D03*
X138700Y134744D02*
D03*
Y140256D02*
D03*
X144100Y134744D02*
D03*
Y140256D02*
D03*
X80200Y108744D02*
D03*
Y114256D02*
D03*
X202000Y134544D02*
D03*
Y140056D02*
D03*
X207500Y134544D02*
D03*
Y140056D02*
D03*
D45*
X333551Y192267D02*
D03*
X325677Y163133D02*
D03*
D46*
X296543Y192267D02*
D03*
D47*
X178756Y126800D02*
D03*
X188756D02*
D03*
X198756D02*
D03*
X208756D02*
D03*
X218756D02*
D03*
X228756D02*
D03*
X238756D02*
D03*
X248756D02*
D03*
Y116800D02*
D03*
X238756D02*
D03*
X228756D02*
D03*
X218756D02*
D03*
X208756D02*
D03*
X198756D02*
D03*
X188756D02*
D03*
X178756D02*
D03*
X248756Y106800D02*
D03*
X238756D02*
D03*
X228756D02*
D03*
X218756D02*
D03*
X208756D02*
D03*
X198756D02*
D03*
X188756D02*
D03*
X178756D02*
D03*
X248756Y96800D02*
D03*
X238756D02*
D03*
X228756D02*
D03*
X218756D02*
D03*
X208756D02*
D03*
X198756D02*
D03*
X188756D02*
D03*
X178756D02*
D03*
X248756Y86800D02*
D03*
X238756D02*
D03*
X228756D02*
D03*
X218756D02*
D03*
X208756D02*
D03*
X198756D02*
D03*
X188756D02*
D03*
X178756D02*
D03*
X248756Y76800D02*
D03*
X238756D02*
D03*
X228756D02*
D03*
X218756D02*
D03*
X208756D02*
D03*
X198756D02*
D03*
X188756D02*
D03*
X178756D02*
D03*
X248756Y66800D02*
D03*
X238756D02*
D03*
X228756D02*
D03*
X218756D02*
D03*
X208756D02*
D03*
X198756D02*
D03*
X188756D02*
D03*
X178756D02*
D03*
X248756Y56800D02*
D03*
X238756D02*
D03*
X228756D02*
D03*
X218756D02*
D03*
X208756D02*
D03*
X198756D02*
D03*
X188756D02*
D03*
X178756D02*
D03*
X248756Y46800D02*
D03*
X238756D02*
D03*
X228756D02*
D03*
X218756D02*
D03*
X208756D02*
D03*
X198756D02*
D03*
X188756D02*
D03*
X178756D02*
D03*
D48*
X179156Y37100D02*
D03*
D49*
X189156D02*
D03*
X199156D02*
D03*
X209156D02*
D03*
X219156D02*
D03*
X229156D02*
D03*
X239156D02*
D03*
X249156D02*
D03*
X168756Y116800D02*
D03*
Y106800D02*
D03*
Y96800D02*
D03*
Y86800D02*
D03*
Y76800D02*
D03*
Y66800D02*
D03*
Y56800D02*
D03*
Y46800D02*
D03*
Y36800D02*
D03*
D50*
Y126800D02*
D03*
D51*
X330000Y10000D02*
D03*
X320000D02*
D03*
X310000D02*
D03*
X300000D02*
D03*
X290000D02*
D03*
X280000D02*
D03*
X330000Y20000D02*
D03*
X320000D02*
D03*
X310000D02*
D03*
X300000D02*
D03*
X290000D02*
D03*
X240000Y10000D02*
D03*
X230000D02*
D03*
X220000D02*
D03*
X210000D02*
D03*
X200000D02*
D03*
X190000D02*
D03*
X240000Y20000D02*
D03*
X230000D02*
D03*
X220000D02*
D03*
X210000D02*
D03*
X200000D02*
D03*
X150000Y10000D02*
D03*
X140000D02*
D03*
X130000D02*
D03*
X120000D02*
D03*
X110000D02*
D03*
X100000D02*
D03*
X150000Y20000D02*
D03*
X140000D02*
D03*
X130000D02*
D03*
X120000D02*
D03*
X110000D02*
D03*
X80000Y10000D02*
D03*
X70000D02*
D03*
X60000D02*
D03*
X50000D02*
D03*
X40000D02*
D03*
X30000D02*
D03*
X20000D02*
D03*
X10000D02*
D03*
X70000Y20000D02*
D03*
X80000D02*
D03*
X60000D02*
D03*
X50000D02*
D03*
X40000D02*
D03*
X30000D02*
D03*
X20000D02*
D03*
D52*
X280000D02*
D03*
X190000D02*
D03*
X100000D02*
D03*
X10000D02*
D03*
D53*
X224200Y178303D02*
D03*
X250775Y175154D02*
D03*
X197625D02*
D03*
X158300Y178303D02*
D03*
X184875Y175154D02*
D03*
X131725D02*
D03*
D54*
X238216Y153500D02*
D03*
X210184D02*
D03*
X238216Y162398D02*
D03*
X210184D02*
D03*
X229318D02*
D03*
X172316Y153500D02*
D03*
X144284D02*
D03*
X172316Y162398D02*
D03*
X144284D02*
D03*
X163418D02*
D03*
D55*
X219082D02*
D03*
X153182D02*
D03*
D56*
X45680Y60233D02*
D03*
X55680D02*
D03*
X65680D02*
D03*
X75680D02*
D03*
X85680D02*
D03*
X95680D02*
D03*
X105680D02*
D03*
X115680D02*
D03*
Y100233D02*
D03*
X95680D02*
D03*
X75680D02*
D03*
X65680D02*
D03*
X55680D02*
D03*
X45680D02*
D03*
D57*
X81063Y160000D02*
D03*
X72047D02*
D03*
X63032D02*
D03*
X54016D02*
D03*
X45000D02*
D03*
X76417Y150000D02*
D03*
X67441D02*
D03*
X58465D02*
D03*
X49488D02*
D03*
X40512D02*
D03*
X81063Y140000D02*
D03*
X72047D02*
D03*
X63032D02*
D03*
X54016D02*
D03*
D58*
X45000D02*
D03*
D59*
X12795Y150000D02*
D03*
X111181D02*
D03*
D60*
X297448Y131148D02*
D03*
X313196D02*
D03*
X328944D02*
D03*
Y115400D02*
D03*
X313196D02*
D03*
X297448D02*
D03*
X281700D02*
D03*
X297448Y65448D02*
D03*
X313196D02*
D03*
X328944D02*
D03*
Y49700D02*
D03*
X313196D02*
D03*
X297448D02*
D03*
X281700D02*
D03*
D61*
X301661Y177700D02*
D03*
X329221D02*
D03*
M02*
